<svg xmlns="http://www.w3.org/2000/svg" version="1.1" xmlns:xlink="http://www.w3.org/1999/xlink" xmlns:svgjs="http://svgjs.com/svgjs" width="100%" preserveAspectRatio="xMinYMin slice"><g mask="url(&quot;#SvgjsMask1371&quot;)" fill="none"><rect width="2000" height="6000" x="0" y="0" fill="rgba(255, 255, 255, 1)"></rect><path d="M83.72 476.67L142.61 510.67L142.61 578.67L83.72 612.67L24.83 578.67L24.83 510.67zM83.72 884.67L142.61 918.67L142.61 986.67L83.72 1020.67L24.83 986.67L24.83 918.67zM83.72 1088.67L142.61 1122.67L142.61 1190.67L83.72 1224.67L24.83 1190.67L24.83 1122.67zM83.72 1904.67L142.61 1938.67L142.61 2006.67L83.72 2040.67L24.83 2006.67L24.83 1938.67zM24.83 3230.67L83.72 3264.67L83.72 3332.67L24.83 3366.67L-34.06 3332.67L-34.06 3264.67zM83.72 3332.67L142.61 3366.67L142.61 3434.67L83.72 3468.67L24.83 3434.67L24.83 3366.67zM24.83 3434.67L83.72 3468.67L83.72 3536.67L24.83 3570.67L-34.06 3536.67L-34.06 3468.67zM83.72 3740.67L142.61 3774.67L142.61 3842.67L83.72 3876.67L24.83 3842.67L24.83 3774.67zM24.83 4046.67L83.72 4080.67L83.72 4148.67L24.83 4182.67L-34.06 4148.67L-34.06 4080.67zM24.83 5066.67L83.72 5100.67L83.72 5168.67L24.83 5202.67L-34.06 5168.67L-34.06 5100.67zM201.5 1088.67L260.4 1122.67L260.4 1190.67L201.5 1224.67L142.61 1190.67L142.61 1122.67zM142.61 1394.67L201.5 1428.67L201.5 1496.67L142.61 1530.67L83.72 1496.67L83.72 1428.67zM201.5 1496.67L260.4 1530.67L260.4 1598.67L201.5 1632.67L142.61 1598.67L142.61 1530.67zM201.5 1700.67L260.4 1734.67L260.4 1802.67L201.5 1836.67L142.61 1802.67L142.61 1734.67zM142.61 3842.67L201.5 3876.67L201.5 3944.67L142.61 3978.67L83.72 3944.67L83.72 3876.67zM142.61 4046.67L201.5 4080.67L201.5 4148.67L142.61 4182.67L83.72 4148.67L83.72 4080.67zM201.5 4760.67L260.4 4794.67L260.4 4862.67L201.5 4896.67L142.61 4862.67L142.61 4794.67zM142.61 4862.67L201.5 4896.67L201.5 4964.67L142.61 4998.67L83.72 4964.67L83.72 4896.67zM260.4 578.67L319.29 612.67L319.29 680.67L260.4 714.67L201.5 680.67L201.5 612.67zM260.4 986.67L319.29 1020.67L319.29 1088.67L260.4 1122.67L201.5 1088.67L201.5 1020.67zM319.29 1088.67L378.18 1122.67L378.18 1190.67L319.29 1224.67L260.4 1190.67L260.4 1122.67zM260.4 2210.67L319.29 2244.67L319.29 2312.67L260.4 2346.67L201.5 2312.67L201.5 2244.67zM319.29 2720.67L378.18 2754.67L378.18 2822.67L319.29 2856.67L260.4 2822.67L260.4 2754.67zM260.4 3434.67L319.29 3468.67L319.29 3536.67L260.4 3570.67L201.5 3536.67L201.5 3468.67zM319.29 3536.67L378.18 3570.67L378.18 3638.67L319.29 3672.67L260.4 3638.67L260.4 3570.67zM260.4 4046.67L319.29 4080.67L319.29 4148.67L260.4 4182.67L201.5 4148.67L201.5 4080.67zM319.29 4352.67L378.18 4386.67L378.18 4454.67L319.29 4488.67L260.4 4454.67L260.4 4386.67zM319.29 4556.67L378.18 4590.67L378.18 4658.67L319.29 4692.67L260.4 4658.67L260.4 4590.67zM260.4 5066.67L319.29 5100.67L319.29 5168.67L260.4 5202.67L201.5 5168.67L201.5 5100.67zM260.4 5678.67L319.29 5712.67L319.29 5780.67L260.4 5814.67L201.5 5780.67L201.5 5712.67zM378.18 374.67L437.07 408.67L437.07 476.67L378.18 510.67L319.29 476.67L319.29 408.67zM378.18 986.67L437.07 1020.67L437.07 1088.67L378.18 1122.67L319.29 1088.67L319.29 1020.67zM378.18 1190.67L437.07 1224.67L437.07 1292.67L378.18 1326.67L319.29 1292.67L319.29 1224.67zM378.18 2822.67L437.07 2856.67L437.07 2924.67L378.18 2958.67L319.29 2924.67L319.29 2856.67zM437.07 3128.67L495.96 3162.67L495.96 3230.67L437.07 3264.67L378.18 3230.67L378.18 3162.67zM378.18 3434.67L437.07 3468.67L437.07 3536.67L378.18 3570.67L319.29 3536.67L319.29 3468.67zM554.85 476.67L613.74 510.67L613.74 578.67L554.85 612.67L495.96 578.67L495.96 510.67zM554.85 680.67L613.74 714.67L613.74 782.67L554.85 816.67L495.96 782.67L495.96 714.67zM554.85 1496.67L613.74 1530.67L613.74 1598.67L554.85 1632.67L495.96 1598.67L495.96 1530.67zM495.96 1598.67L554.85 1632.67L554.85 1700.67L495.96 1734.67L437.07 1700.67L437.07 1632.67zM495.96 2210.67L554.85 2244.67L554.85 2312.67L495.96 2346.67L437.07 2312.67L437.07 2244.67zM495.96 3230.67L554.85 3264.67L554.85 3332.67L495.96 3366.67L437.07 3332.67L437.07 3264.67zM554.85 3332.67L613.74 3366.67L613.74 3434.67L554.85 3468.67L495.96 3434.67L495.96 3366.67zM495.96 3638.67L554.85 3672.67L554.85 3740.67L495.96 3774.67L437.07 3740.67L437.07 3672.67zM554.85 3740.67L613.74 3774.67L613.74 3842.67L554.85 3876.67L495.96 3842.67L495.96 3774.67zM554.85 4760.67L613.74 4794.67L613.74 4862.67L554.85 4896.67L495.96 4862.67L495.96 4794.67zM554.85 5984.67L613.74 6018.67L613.74 6086.67L554.85 6120.67L495.96 6086.67L495.96 6018.67zM613.74 578.67L672.64 612.67L672.64 680.67L613.74 714.67L554.85 680.67L554.85 612.67zM672.64 884.67L731.53 918.67L731.53 986.67L672.64 1020.67L613.74 986.67L613.74 918.67zM613.74 1190.67L672.64 1224.67L672.64 1292.67L613.74 1326.67L554.85 1292.67L554.85 1224.67zM672.64 1292.67L731.53 1326.67L731.53 1394.67L672.64 1428.67L613.74 1394.67L613.74 1326.67zM672.64 1700.67L731.53 1734.67L731.53 1802.67L672.64 1836.67L613.74 1802.67L613.74 1734.67zM672.64 1904.67L731.53 1938.67L731.53 2006.67L672.64 2040.67L613.74 2006.67L613.74 1938.67zM613.74 2414.67L672.64 2448.67L672.64 2516.67L613.74 2550.67L554.85 2516.67L554.85 2448.67zM672.64 2924.67L731.53 2958.67L731.53 3026.67L672.64 3060.67L613.74 3026.67L613.74 2958.67zM672.64 3332.67L731.53 3366.67L731.53 3434.67L672.64 3468.67L613.74 3434.67L613.74 3366.67zM613.74 3638.67L672.64 3672.67L672.64 3740.67L613.74 3774.67L554.85 3740.67L554.85 3672.67zM613.74 3842.67L672.64 3876.67L672.64 3944.67L613.74 3978.67L554.85 3944.67L554.85 3876.67zM672.64 4760.67L731.53 4794.67L731.53 4862.67L672.64 4896.67L613.74 4862.67L613.74 4794.67zM731.53 -33.33L790.42 0.67L790.42 68.67L731.53 102.67L672.64 68.67L672.64 0.67zM731.53 374.67L790.42 408.67L790.42 476.67L731.53 510.67L672.64 476.67L672.64 408.67zM790.42 476.67L849.31 510.67L849.31 578.67L790.42 612.67L731.53 578.67L731.53 510.67zM731.53 986.67L790.42 1020.67L790.42 1088.67L731.53 1122.67L672.64 1088.67L672.64 1020.67zM731.53 1190.67L790.42 1224.67L790.42 1292.67L731.53 1326.67L672.64 1292.67L672.64 1224.67zM790.42 2516.67L849.31 2550.67L849.31 2618.67L790.42 2652.67L731.53 2618.67L731.53 2550.67zM790.42 2720.67L849.31 2754.67L849.31 2822.67L790.42 2856.67L731.53 2822.67L731.53 2754.67zM731.53 3638.67L790.42 3672.67L790.42 3740.67L731.53 3774.67L672.64 3740.67L672.64 3672.67zM790.42 3740.67L849.31 3774.67L849.31 3842.67L790.42 3876.67L731.53 3842.67L731.53 3774.67zM790.42 4760.67L849.31 4794.67L849.31 4862.67L790.42 4896.67L731.53 4862.67L731.53 4794.67zM731.53 4862.67L790.42 4896.67L790.42 4964.67L731.53 4998.67L672.64 4964.67L672.64 4896.67zM790.42 5168.67L849.31 5202.67L849.31 5270.67L790.42 5304.67L731.53 5270.67L731.53 5202.67zM790.42 5576.67L849.31 5610.67L849.31 5678.67L790.42 5712.67L731.53 5678.67L731.53 5610.67zM790.42 5780.67L849.31 5814.67L849.31 5882.67L790.42 5916.67L731.53 5882.67L731.53 5814.67zM908.2 680.67L967.09 714.67L967.09 782.67L908.2 816.67L849.31 782.67L849.31 714.67zM849.31 1394.67L908.2 1428.67L908.2 1496.67L849.31 1530.67L790.42 1496.67L790.42 1428.67zM908.2 1496.67L967.09 1530.67L967.09 1598.67L908.2 1632.67L849.31 1598.67L849.31 1530.67zM849.31 1802.67L908.2 1836.67L908.2 1904.67L849.31 1938.67L790.42 1904.67L790.42 1836.67zM908.2 1904.67L967.09 1938.67L967.09 2006.67L908.2 2040.67L849.31 2006.67L849.31 1938.67zM908.2 4352.67L967.09 4386.67L967.09 4454.67L908.2 4488.67L849.31 4454.67L849.31 4386.67zM908.2 4964.67L967.09 4998.67L967.09 5066.67L908.2 5100.67L849.31 5066.67L849.31 4998.67zM967.09 374.67L1025.98 408.67L1025.98 476.67L967.09 510.67L908.2 476.67L908.2 408.67zM967.09 578.67L1025.98 612.67L1025.98 680.67L967.09 714.67L908.2 680.67L908.2 612.67zM1025.98 680.67L1084.88 714.67L1084.88 782.67L1025.98 816.67L967.09 782.67L967.09 714.67zM1025.98 1088.67L1084.88 1122.67L1084.88 1190.67L1025.98 1224.67L967.09 1190.67L967.09 1122.67zM967.09 1394.67L1025.98 1428.67L1025.98 1496.67L967.09 1530.67L908.2 1496.67L908.2 1428.67zM967.09 2006.67L1025.98 2040.67L1025.98 2108.67L967.09 2142.67L908.2 2108.67L908.2 2040.67zM967.09 3026.67L1025.98 3060.67L1025.98 3128.67L967.09 3162.67L908.2 3128.67L908.2 3060.67zM1025.98 3332.67L1084.88 3366.67L1084.88 3434.67L1025.98 3468.67L967.09 3434.67L967.09 3366.67zM1025.98 3536.67L1084.88 3570.67L1084.88 3638.67L1025.98 3672.67L967.09 3638.67L967.09 3570.67zM1025.98 4148.67L1084.88 4182.67L1084.88 4250.67L1025.98 4284.67L967.09 4250.67L967.09 4182.67zM1025.98 4964.67L1084.88 4998.67L1084.88 5066.67L1025.98 5100.67L967.09 5066.67L967.09 4998.67zM967.09 5270.67L1025.98 5304.67L1025.98 5372.67L967.09 5406.67L908.2 5372.67L908.2 5304.67zM1025.98 5576.67L1084.88 5610.67L1084.88 5678.67L1025.98 5712.67L967.09 5678.67L967.09 5610.67zM967.09 5678.67L1025.98 5712.67L1025.98 5780.67L967.09 5814.67L908.2 5780.67L908.2 5712.67zM1143.77 2516.67L1202.66 2550.67L1202.66 2618.67L1143.77 2652.67L1084.88 2618.67L1084.88 2550.67zM1143.77 2720.67L1202.66 2754.67L1202.66 2822.67L1143.77 2856.67L1084.88 2822.67L1084.88 2754.67zM1143.77 3128.67L1202.66 3162.67L1202.66 3230.67L1143.77 3264.67L1084.88 3230.67L1084.88 3162.67zM1143.77 3332.67L1202.66 3366.67L1202.66 3434.67L1143.77 3468.67L1084.88 3434.67L1084.88 3366.67zM1143.77 5168.67L1202.66 5202.67L1202.66 5270.67L1143.77 5304.67L1084.88 5270.67L1084.88 5202.67zM1143.77 5780.67L1202.66 5814.67L1202.66 5882.67L1143.77 5916.67L1084.88 5882.67L1084.88 5814.67zM1202.66 374.67L1261.55 408.67L1261.55 476.67L1202.66 510.67L1143.77 476.67L1143.77 408.67zM1261.55 884.67L1320.44 918.67L1320.44 986.67L1261.55 1020.67L1202.66 986.67L1202.66 918.67zM1202.66 986.67L1261.55 1020.67L1261.55 1088.67L1202.66 1122.67L1143.77 1088.67L1143.77 1020.67zM1261.55 2108.67L1320.44 2142.67L1320.44 2210.67L1261.55 2244.67L1202.66 2210.67L1202.66 2142.67zM1202.66 2822.67L1261.55 2856.67L1261.55 2924.67L1202.66 2958.67L1143.77 2924.67L1143.77 2856.67zM1202.66 3026.67L1261.55 3060.67L1261.55 3128.67L1202.66 3162.67L1143.77 3128.67L1143.77 3060.67zM1202.66 3434.67L1261.55 3468.67L1261.55 3536.67L1202.66 3570.67L1143.77 3536.67L1143.77 3468.67zM1202.66 3842.67L1261.55 3876.67L1261.55 3944.67L1202.66 3978.67L1143.77 3944.67L1143.77 3876.67zM1202.66 4454.67L1261.55 4488.67L1261.55 4556.67L1202.66 4590.67L1143.77 4556.67L1143.77 4488.67zM1202.66 5066.67L1261.55 5100.67L1261.55 5168.67L1202.66 5202.67L1143.77 5168.67L1143.77 5100.67zM1202.66 5270.67L1261.55 5304.67L1261.55 5372.67L1202.66 5406.67L1143.77 5372.67L1143.77 5304.67zM1202.66 5882.67L1261.55 5916.67L1261.55 5984.67L1202.66 6018.67L1143.77 5984.67L1143.77 5916.67zM1379.33 68.67L1438.22 102.67L1438.22 170.67L1379.33 204.67L1320.44 170.67L1320.44 102.67zM1379.33 272.67L1438.22 306.67L1438.22 374.67L1379.33 408.67L1320.44 374.67L1320.44 306.67zM1320.44 782.67L1379.33 816.67L1379.33 884.67L1320.44 918.67L1261.55 884.67L1261.55 816.67zM1320.44 1190.67L1379.33 1224.67L1379.33 1292.67L1320.44 1326.67L1261.55 1292.67L1261.55 1224.67zM1320.44 1802.67L1379.33 1836.67L1379.33 1904.67L1320.44 1938.67L1261.55 1904.67L1261.55 1836.67zM1320.44 2006.67L1379.33 2040.67L1379.33 2108.67L1320.44 2142.67L1261.55 2108.67L1261.55 2040.67zM1320.44 2210.67L1379.33 2244.67L1379.33 2312.67L1320.44 2346.67L1261.55 2312.67L1261.55 2244.67zM1320.44 3026.67L1379.33 3060.67L1379.33 3128.67L1320.44 3162.67L1261.55 3128.67L1261.55 3060.67zM1320.44 3230.67L1379.33 3264.67L1379.33 3332.67L1320.44 3366.67L1261.55 3332.67L1261.55 3264.67zM1379.33 3536.67L1438.22 3570.67L1438.22 3638.67L1379.33 3672.67L1320.44 3638.67L1320.44 3570.67zM1320.44 3638.67L1379.33 3672.67L1379.33 3740.67L1320.44 3774.67L1261.55 3740.67L1261.55 3672.67zM1320.44 5270.67L1379.33 5304.67L1379.33 5372.67L1320.44 5406.67L1261.55 5372.67L1261.55 5304.67zM1438.22 170.67L1497.11 204.67L1497.11 272.67L1438.22 306.67L1379.33 272.67L1379.33 204.67zM1438.22 986.67L1497.11 1020.67L1497.11 1088.67L1438.22 1122.67L1379.33 1088.67L1379.33 1020.67zM1497.11 3332.67L1556.01 3366.67L1556.01 3434.67L1497.11 3468.67L1438.22 3434.67L1438.22 3366.67zM1497.11 3944.67L1556.01 3978.67L1556.01 4046.67L1497.11 4080.67L1438.22 4046.67L1438.22 3978.67zM1438.22 4658.67L1497.11 4692.67L1497.11 4760.67L1438.22 4794.67L1379.33 4760.67L1379.33 4692.67zM1497.11 4964.67L1556.01 4998.67L1556.01 5066.67L1497.11 5100.67L1438.22 5066.67L1438.22 4998.67zM1497.11 5780.67L1556.01 5814.67L1556.01 5882.67L1497.11 5916.67L1438.22 5882.67L1438.22 5814.67zM1614.9 680.67L1673.79 714.67L1673.79 782.67L1614.9 816.67L1556.01 782.67L1556.01 714.67zM1556.01 782.67L1614.9 816.67L1614.9 884.67L1556.01 918.67L1497.11 884.67L1497.11 816.67zM1556.01 1394.67L1614.9 1428.67L1614.9 1496.67L1556.01 1530.67L1497.11 1496.67L1497.11 1428.67zM1614.9 1496.67L1673.79 1530.67L1673.79 1598.67L1614.9 1632.67L1556.01 1598.67L1556.01 1530.67zM1614.9 1700.67L1673.79 1734.67L1673.79 1802.67L1614.9 1836.67L1556.01 1802.67L1556.01 1734.67zM1556.01 2006.67L1614.9 2040.67L1614.9 2108.67L1556.01 2142.67L1497.11 2108.67L1497.11 2040.67zM1556.01 2618.67L1614.9 2652.67L1614.9 2720.67L1556.01 2754.67L1497.11 2720.67L1497.11 2652.67zM1614.9 2924.67L1673.79 2958.67L1673.79 3026.67L1614.9 3060.67L1556.01 3026.67L1556.01 2958.67zM1614.9 3128.67L1673.79 3162.67L1673.79 3230.67L1614.9 3264.67L1556.01 3230.67L1556.01 3162.67zM1614.9 5168.67L1673.79 5202.67L1673.79 5270.67L1614.9 5304.67L1556.01 5270.67L1556.01 5202.67zM1556.01 5882.67L1614.9 5916.67L1614.9 5984.67L1556.01 6018.67L1497.11 5984.67L1497.11 5916.67zM1614.9 5984.67L1673.79 6018.67L1673.79 6086.67L1614.9 6120.67L1556.01 6086.67L1556.01 6018.67zM1673.79 170.67L1732.68 204.67L1732.68 272.67L1673.79 306.67L1614.9 272.67L1614.9 204.67zM1673.79 1598.67L1732.68 1632.67L1732.68 1700.67L1673.79 1734.67L1614.9 1700.67L1614.9 1632.67zM1673.79 2006.67L1732.68 2040.67L1732.68 2108.67L1673.79 2142.67L1614.9 2108.67L1614.9 2040.67zM1732.68 2108.67L1791.57 2142.67L1791.57 2210.67L1732.68 2244.67L1673.79 2210.67L1673.79 2142.67zM1732.68 2516.67L1791.57 2550.67L1791.57 2618.67L1732.68 2652.67L1673.79 2618.67L1673.79 2550.67zM1732.68 2720.67L1791.57 2754.67L1791.57 2822.67L1732.68 2856.67L1673.79 2822.67L1673.79 2754.67zM1673.79 3638.67L1732.68 3672.67L1732.68 3740.67L1673.79 3774.67L1614.9 3740.67L1614.9 3672.67zM1673.79 4454.67L1732.68 4488.67L1732.68 4556.67L1673.79 4590.67L1614.9 4556.67L1614.9 4488.67zM1732.68 4556.67L1791.57 4590.67L1791.57 4658.67L1732.68 4692.67L1673.79 4658.67L1673.79 4590.67zM1673.79 5678.67L1732.68 5712.67L1732.68 5780.67L1673.79 5814.67L1614.9 5780.67L1614.9 5712.67zM1791.57 578.67L1850.46 612.67L1850.46 680.67L1791.57 714.67L1732.68 680.67L1732.68 612.67zM1850.46 1088.67L1909.35 1122.67L1909.35 1190.67L1850.46 1224.67L1791.57 1190.67L1791.57 1122.67zM1850.46 1496.67L1909.35 1530.67L1909.35 1598.67L1850.46 1632.67L1791.57 1598.67L1791.57 1530.67zM1850.46 1904.67L1909.35 1938.67L1909.35 2006.67L1850.46 2040.67L1791.57 2006.67L1791.57 1938.67zM1850.46 2312.67L1909.35 2346.67L1909.35 2414.67L1850.46 2448.67L1791.57 2414.67L1791.57 2346.67zM1850.46 2516.67L1909.35 2550.67L1909.35 2618.67L1850.46 2652.67L1791.57 2618.67L1791.57 2550.67zM1850.46 2924.67L1909.35 2958.67L1909.35 3026.67L1850.46 3060.67L1791.57 3026.67L1791.57 2958.67zM1791.57 3026.67L1850.46 3060.67L1850.46 3128.67L1791.57 3162.67L1732.68 3128.67L1732.68 3060.67zM1791.57 3230.67L1850.46 3264.67L1850.46 3332.67L1791.57 3366.67L1732.68 3332.67L1732.68 3264.67zM1850.46 3740.67L1909.35 3774.67L1909.35 3842.67L1850.46 3876.67L1791.57 3842.67L1791.57 3774.67zM1791.57 4454.67L1850.46 4488.67L1850.46 4556.67L1791.57 4590.67L1732.68 4556.67L1732.68 4488.67zM1791.57 4862.67L1850.46 4896.67L1850.46 4964.67L1791.57 4998.67L1732.68 4964.67L1732.68 4896.67zM1791.57 5066.67L1850.46 5100.67L1850.46 5168.67L1791.57 5202.67L1732.68 5168.67L1732.68 5100.67zM1791.57 5678.67L1850.46 5712.67L1850.46 5780.67L1791.57 5814.67L1732.68 5780.67L1732.68 5712.67zM1850.46 5780.67L1909.35 5814.67L1909.35 5882.67L1850.46 5916.67L1791.57 5882.67L1791.57 5814.67zM1968.25 272.67L2027.14 306.67L2027.14 374.67L1968.25 408.67L1909.35 374.67L1909.35 306.67zM1968.25 884.67L2027.14 918.67L2027.14 986.67L1968.25 1020.67L1909.35 986.67L1909.35 918.67zM1909.35 986.67L1968.25 1020.67L1968.25 1088.67L1909.35 1122.67L1850.46 1088.67L1850.46 1020.67zM1909.35 1394.67L1968.25 1428.67L1968.25 1496.67L1909.35 1530.67L1850.46 1496.67L1850.46 1428.67zM1909.35 1802.67L1968.25 1836.67L1968.25 1904.67L1909.35 1938.67L1850.46 1904.67L1850.46 1836.67zM1909.35 2210.67L1968.25 2244.67L1968.25 2312.67L1909.35 2346.67L1850.46 2312.67L1850.46 2244.67zM1968.25 2924.67L2027.14 2958.67L2027.14 3026.67L1968.25 3060.67L1909.35 3026.67L1909.35 2958.67zM1968.25 3332.67L2027.14 3366.67L2027.14 3434.67L1968.25 3468.67L1909.35 3434.67L1909.35 3366.67zM1968.25 3536.67L2027.14 3570.67L2027.14 3638.67L1968.25 3672.67L1909.35 3638.67L1909.35 3570.67zM1909.35 3842.67L1968.25 3876.67L1968.25 3944.67L1909.35 3978.67L1850.46 3944.67L1850.46 3876.67zM1968.25 3944.67L2027.14 3978.67L2027.14 4046.67L1968.25 4080.67L1909.35 4046.67L1909.35 3978.67zM1968.25 4556.67L2027.14 4590.67L2027.14 4658.67L1968.25 4692.67L1909.35 4658.67L1909.35 4590.67zM1909.35 5066.67L1968.25 5100.67L1968.25 5168.67L1909.35 5202.67L1850.46 5168.67L1850.46 5100.67z" stroke="#03305d" stroke-width="2"></path><path d="M76.92 476.67 a6.8 6.8 0 1 0 13.6 0 a6.8 6.8 0 1 0 -13.6 0zM135.81 510.67 a6.8 6.8 0 1 0 13.6 0 a6.8 6.8 0 1 0 -13.6 0zM135.81 578.67 a6.8 6.8 0 1 0 13.6 0 a6.8 6.8 0 1 0 -13.6 0zM76.92 612.67 a6.8 6.8 0 1 0 13.6 0 a6.8 6.8 0 1 0 -13.6 0zM18.03 578.67 a6.8 6.8 0 1 0 13.6 0 a6.8 6.8 0 1 0 -13.6 0zM18.03 510.67 a6.8 6.8 0 1 0 13.6 0 a6.8 6.8 0 1 0 -13.6 0zM76.92 884.67 a6.8 6.8 0 1 0 13.6 0 a6.8 6.8 0 1 0 -13.6 0zM135.81 918.67 a6.8 6.8 0 1 0 13.6 0 a6.8 6.8 0 1 0 -13.6 0zM135.81 986.67 a6.8 6.8 0 1 0 13.6 0 a6.8 6.8 0 1 0 -13.6 0zM76.92 1020.67 a6.8 6.8 0 1 0 13.6 0 a6.8 6.8 0 1 0 -13.6 0zM18.03 986.67 a6.8 6.8 0 1 0 13.6 0 a6.8 6.8 0 1 0 -13.6 0zM18.03 918.67 a6.8 6.8 0 1 0 13.6 0 a6.8 6.8 0 1 0 -13.6 0zM76.92 1088.67 a6.8 6.8 0 1 0 13.6 0 a6.8 6.8 0 1 0 -13.6 0zM135.81 1122.67 a6.8 6.8 0 1 0 13.6 0 a6.8 6.8 0 1 0 -13.6 0zM135.81 1190.67 a6.8 6.8 0 1 0 13.6 0 a6.8 6.8 0 1 0 -13.6 0zM76.92 1224.67 a6.8 6.8 0 1 0 13.6 0 a6.8 6.8 0 1 0 -13.6 0zM18.03 1190.67 a6.8 6.8 0 1 0 13.6 0 a6.8 6.8 0 1 0 -13.6 0zM18.03 1122.67 a6.8 6.8 0 1 0 13.6 0 a6.8 6.8 0 1 0 -13.6 0zM76.92 1904.67 a6.8 6.8 0 1 0 13.6 0 a6.8 6.8 0 1 0 -13.6 0zM135.81 1938.67 a6.8 6.8 0 1 0 13.6 0 a6.8 6.8 0 1 0 -13.6 0zM135.81 2006.67 a6.8 6.8 0 1 0 13.6 0 a6.8 6.8 0 1 0 -13.6 0zM76.92 2040.67 a6.8 6.8 0 1 0 13.6 0 a6.8 6.8 0 1 0 -13.6 0zM18.03 2006.67 a6.8 6.8 0 1 0 13.6 0 a6.8 6.8 0 1 0 -13.6 0zM18.03 1938.67 a6.8 6.8 0 1 0 13.6 0 a6.8 6.8 0 1 0 -13.6 0zM18.03 3230.67 a6.8 6.8 0 1 0 13.6 0 a6.8 6.8 0 1 0 -13.6 0zM76.92 3264.67 a6.8 6.8 0 1 0 13.6 0 a6.8 6.8 0 1 0 -13.6 0zM76.92 3332.67 a6.8 6.8 0 1 0 13.6 0 a6.8 6.8 0 1 0 -13.6 0zM18.03 3366.67 a6.8 6.8 0 1 0 13.6 0 a6.8 6.8 0 1 0 -13.6 0zM-40.86 3332.67 a6.8 6.8 0 1 0 13.6 0 a6.8 6.8 0 1 0 -13.6 0zM-40.86 3264.67 a6.8 6.8 0 1 0 13.6 0 a6.8 6.8 0 1 0 -13.6 0zM135.81 3366.67 a6.8 6.8 0 1 0 13.6 0 a6.8 6.8 0 1 0 -13.6 0zM135.81 3434.67 a6.8 6.8 0 1 0 13.6 0 a6.8 6.8 0 1 0 -13.6 0zM76.92 3468.67 a6.8 6.8 0 1 0 13.6 0 a6.8 6.8 0 1 0 -13.6 0zM18.03 3434.67 a6.8 6.8 0 1 0 13.6 0 a6.8 6.8 0 1 0 -13.6 0zM76.92 3536.67 a6.8 6.8 0 1 0 13.6 0 a6.8 6.8 0 1 0 -13.6 0zM18.03 3570.67 a6.8 6.8 0 1 0 13.6 0 a6.8 6.8 0 1 0 -13.6 0zM-40.86 3536.67 a6.8 6.8 0 1 0 13.6 0 a6.8 6.8 0 1 0 -13.6 0zM-40.86 3468.67 a6.8 6.8 0 1 0 13.6 0 a6.8 6.8 0 1 0 -13.6 0zM76.92 3740.67 a6.8 6.8 0 1 0 13.6 0 a6.8 6.8 0 1 0 -13.6 0zM135.81 3774.67 a6.8 6.8 0 1 0 13.6 0 a6.8 6.8 0 1 0 -13.6 0zM135.81 3842.67 a6.8 6.8 0 1 0 13.6 0 a6.8 6.8 0 1 0 -13.6 0zM76.92 3876.67 a6.8 6.8 0 1 0 13.6 0 a6.8 6.8 0 1 0 -13.6 0zM18.03 3842.67 a6.8 6.8 0 1 0 13.6 0 a6.8 6.8 0 1 0 -13.6 0zM18.03 3774.67 a6.8 6.8 0 1 0 13.6 0 a6.8 6.8 0 1 0 -13.6 0zM18.03 4046.67 a6.8 6.8 0 1 0 13.6 0 a6.8 6.8 0 1 0 -13.6 0zM76.92 4080.67 a6.8 6.8 0 1 0 13.6 0 a6.8 6.8 0 1 0 -13.6 0zM76.92 4148.67 a6.8 6.8 0 1 0 13.6 0 a6.8 6.8 0 1 0 -13.6 0zM18.03 4182.67 a6.8 6.8 0 1 0 13.6 0 a6.8 6.8 0 1 0 -13.6 0zM-40.86 4148.67 a6.8 6.8 0 1 0 13.6 0 a6.8 6.8 0 1 0 -13.6 0zM-40.86 4080.67 a6.8 6.8 0 1 0 13.6 0 a6.8 6.8 0 1 0 -13.6 0zM18.03 5066.67 a6.8 6.8 0 1 0 13.6 0 a6.8 6.8 0 1 0 -13.6 0zM76.92 5100.67 a6.8 6.8 0 1 0 13.6 0 a6.8 6.8 0 1 0 -13.6 0zM76.92 5168.67 a6.8 6.8 0 1 0 13.6 0 a6.8 6.8 0 1 0 -13.6 0zM18.03 5202.67 a6.8 6.8 0 1 0 13.6 0 a6.8 6.8 0 1 0 -13.6 0zM-40.86 5168.67 a6.8 6.8 0 1 0 13.6 0 a6.8 6.8 0 1 0 -13.6 0zM-40.86 5100.67 a6.8 6.8 0 1 0 13.6 0 a6.8 6.8 0 1 0 -13.6 0zM194.7 1088.67 a6.8 6.8 0 1 0 13.6 0 a6.8 6.8 0 1 0 -13.6 0zM253.6 1122.67 a6.8 6.8 0 1 0 13.6 0 a6.8 6.8 0 1 0 -13.6 0zM253.6 1190.67 a6.8 6.8 0 1 0 13.6 0 a6.8 6.8 0 1 0 -13.6 0zM194.7 1224.67 a6.8 6.8 0 1 0 13.6 0 a6.8 6.8 0 1 0 -13.6 0zM135.81 1394.67 a6.8 6.8 0 1 0 13.6 0 a6.8 6.8 0 1 0 -13.6 0zM194.7 1428.67 a6.8 6.8 0 1 0 13.6 0 a6.8 6.8 0 1 0 -13.6 0zM194.7 1496.67 a6.8 6.8 0 1 0 13.6 0 a6.8 6.8 0 1 0 -13.6 0zM135.81 1530.67 a6.8 6.8 0 1 0 13.6 0 a6.8 6.8 0 1 0 -13.6 0zM76.92 1496.67 a6.8 6.8 0 1 0 13.6 0 a6.8 6.8 0 1 0 -13.6 0zM76.92 1428.67 a6.8 6.8 0 1 0 13.6 0 a6.8 6.8 0 1 0 -13.6 0zM253.6 1530.67 a6.8 6.8 0 1 0 13.6 0 a6.8 6.8 0 1 0 -13.6 0zM253.6 1598.67 a6.8 6.8 0 1 0 13.6 0 a6.8 6.8 0 1 0 -13.6 0zM194.7 1632.67 a6.8 6.8 0 1 0 13.6 0 a6.8 6.8 0 1 0 -13.6 0zM135.81 1598.67 a6.8 6.8 0 1 0 13.6 0 a6.8 6.8 0 1 0 -13.6 0zM194.7 1700.67 a6.8 6.8 0 1 0 13.6 0 a6.8 6.8 0 1 0 -13.6 0zM253.6 1734.67 a6.8 6.8 0 1 0 13.6 0 a6.8 6.8 0 1 0 -13.6 0zM253.6 1802.67 a6.8 6.8 0 1 0 13.6 0 a6.8 6.8 0 1 0 -13.6 0zM194.7 1836.67 a6.8 6.8 0 1 0 13.6 0 a6.8 6.8 0 1 0 -13.6 0zM135.81 1802.67 a6.8 6.8 0 1 0 13.6 0 a6.8 6.8 0 1 0 -13.6 0zM135.81 1734.67 a6.8 6.8 0 1 0 13.6 0 a6.8 6.8 0 1 0 -13.6 0zM194.7 3876.67 a6.8 6.8 0 1 0 13.6 0 a6.8 6.8 0 1 0 -13.6 0zM194.7 3944.67 a6.8 6.8 0 1 0 13.6 0 a6.8 6.8 0 1 0 -13.6 0zM135.81 3978.67 a6.8 6.8 0 1 0 13.6 0 a6.8 6.8 0 1 0 -13.6 0zM76.92 3944.67 a6.8 6.8 0 1 0 13.6 0 a6.8 6.8 0 1 0 -13.6 0zM135.81 4046.67 a6.8 6.8 0 1 0 13.6 0 a6.8 6.8 0 1 0 -13.6 0zM194.7 4080.67 a6.8 6.8 0 1 0 13.6 0 a6.8 6.8 0 1 0 -13.6 0zM194.7 4148.67 a6.8 6.8 0 1 0 13.6 0 a6.8 6.8 0 1 0 -13.6 0zM135.81 4182.67 a6.8 6.8 0 1 0 13.6 0 a6.8 6.8 0 1 0 -13.6 0zM194.7 4760.67 a6.8 6.8 0 1 0 13.6 0 a6.8 6.8 0 1 0 -13.6 0zM253.6 4794.67 a6.8 6.8 0 1 0 13.6 0 a6.8 6.8 0 1 0 -13.6 0zM253.6 4862.67 a6.8 6.8 0 1 0 13.6 0 a6.8 6.8 0 1 0 -13.6 0zM194.7 4896.67 a6.8 6.8 0 1 0 13.6 0 a6.8 6.8 0 1 0 -13.6 0zM135.81 4862.67 a6.8 6.8 0 1 0 13.6 0 a6.8 6.8 0 1 0 -13.6 0zM135.81 4794.67 a6.8 6.8 0 1 0 13.6 0 a6.8 6.8 0 1 0 -13.6 0zM194.7 4964.67 a6.8 6.8 0 1 0 13.6 0 a6.8 6.8 0 1 0 -13.6 0zM135.81 4998.67 a6.8 6.8 0 1 0 13.6 0 a6.8 6.8 0 1 0 -13.6 0zM76.92 4964.67 a6.8 6.8 0 1 0 13.6 0 a6.8 6.8 0 1 0 -13.6 0zM76.92 4896.67 a6.8 6.8 0 1 0 13.6 0 a6.8 6.8 0 1 0 -13.6 0zM253.6 578.67 a6.8 6.8 0 1 0 13.6 0 a6.8 6.8 0 1 0 -13.6 0zM312.49 612.67 a6.8 6.8 0 1 0 13.6 0 a6.8 6.8 0 1 0 -13.6 0zM312.49 680.67 a6.8 6.8 0 1 0 13.6 0 a6.8 6.8 0 1 0 -13.6 0zM253.6 714.67 a6.8 6.8 0 1 0 13.6 0 a6.8 6.8 0 1 0 -13.6 0zM194.7 680.67 a6.8 6.8 0 1 0 13.6 0 a6.8 6.8 0 1 0 -13.6 0zM194.7 612.67 a6.8 6.8 0 1 0 13.6 0 a6.8 6.8 0 1 0 -13.6 0zM253.6 986.67 a6.8 6.8 0 1 0 13.6 0 a6.8 6.8 0 1 0 -13.6 0zM312.49 1020.67 a6.8 6.8 0 1 0 13.6 0 a6.8 6.8 0 1 0 -13.6 0zM312.49 1088.67 a6.8 6.8 0 1 0 13.6 0 a6.8 6.8 0 1 0 -13.6 0zM194.7 1020.67 a6.8 6.8 0 1 0 13.6 0 a6.8 6.8 0 1 0 -13.6 0zM371.38 1122.67 a6.8 6.8 0 1 0 13.6 0 a6.8 6.8 0 1 0 -13.6 0zM371.38 1190.67 a6.8 6.8 0 1 0 13.6 0 a6.8 6.8 0 1 0 -13.6 0zM312.49 1224.67 a6.8 6.8 0 1 0 13.6 0 a6.8 6.8 0 1 0 -13.6 0zM253.6 2210.67 a6.8 6.8 0 1 0 13.6 0 a6.8 6.8 0 1 0 -13.6 0zM312.49 2244.67 a6.8 6.8 0 1 0 13.6 0 a6.8 6.8 0 1 0 -13.6 0zM312.49 2312.67 a6.8 6.8 0 1 0 13.6 0 a6.8 6.8 0 1 0 -13.6 0zM253.6 2346.67 a6.8 6.8 0 1 0 13.6 0 a6.8 6.8 0 1 0 -13.6 0zM194.7 2312.67 a6.8 6.8 0 1 0 13.6 0 a6.8 6.8 0 1 0 -13.6 0zM194.7 2244.67 a6.8 6.8 0 1 0 13.6 0 a6.8 6.8 0 1 0 -13.6 0zM312.49 2720.67 a6.8 6.8 0 1 0 13.6 0 a6.8 6.8 0 1 0 -13.6 0zM371.38 2754.67 a6.8 6.8 0 1 0 13.6 0 a6.8 6.8 0 1 0 -13.6 0zM371.38 2822.67 a6.8 6.8 0 1 0 13.6 0 a6.8 6.8 0 1 0 -13.6 0zM312.49 2856.67 a6.8 6.8 0 1 0 13.6 0 a6.8 6.8 0 1 0 -13.6 0zM253.6 2822.67 a6.8 6.8 0 1 0 13.6 0 a6.8 6.8 0 1 0 -13.6 0zM253.6 2754.67 a6.8 6.8 0 1 0 13.6 0 a6.8 6.8 0 1 0 -13.6 0zM253.6 3434.67 a6.8 6.8 0 1 0 13.6 0 a6.8 6.8 0 1 0 -13.6 0zM312.49 3468.67 a6.8 6.8 0 1 0 13.6 0 a6.8 6.8 0 1 0 -13.6 0zM312.49 3536.67 a6.8 6.8 0 1 0 13.6 0 a6.8 6.8 0 1 0 -13.6 0zM253.6 3570.67 a6.8 6.8 0 1 0 13.6 0 a6.8 6.8 0 1 0 -13.6 0zM194.7 3536.67 a6.8 6.8 0 1 0 13.6 0 a6.8 6.8 0 1 0 -13.6 0zM194.7 3468.67 a6.8 6.8 0 1 0 13.6 0 a6.8 6.8 0 1 0 -13.6 0zM371.38 3570.67 a6.8 6.8 0 1 0 13.6 0 a6.8 6.8 0 1 0 -13.6 0zM371.38 3638.67 a6.8 6.8 0 1 0 13.6 0 a6.8 6.8 0 1 0 -13.6 0zM312.49 3672.67 a6.8 6.8 0 1 0 13.6 0 a6.8 6.8 0 1 0 -13.6 0zM253.6 3638.67 a6.8 6.8 0 1 0 13.6 0 a6.8 6.8 0 1 0 -13.6 0zM253.6 4046.67 a6.8 6.8 0 1 0 13.6 0 a6.8 6.8 0 1 0 -13.6 0zM312.49 4080.67 a6.8 6.8 0 1 0 13.6 0 a6.8 6.8 0 1 0 -13.6 0zM312.49 4148.67 a6.8 6.8 0 1 0 13.6 0 a6.8 6.8 0 1 0 -13.6 0zM253.6 4182.67 a6.8 6.8 0 1 0 13.6 0 a6.8 6.8 0 1 0 -13.6 0zM312.49 4352.67 a6.8 6.8 0 1 0 13.6 0 a6.8 6.8 0 1 0 -13.6 0zM371.38 4386.67 a6.8 6.8 0 1 0 13.6 0 a6.8 6.8 0 1 0 -13.6 0zM371.38 4454.67 a6.8 6.8 0 1 0 13.6 0 a6.8 6.8 0 1 0 -13.6 0zM312.49 4488.67 a6.8 6.8 0 1 0 13.6 0 a6.8 6.8 0 1 0 -13.6 0zM253.6 4454.67 a6.8 6.8 0 1 0 13.6 0 a6.8 6.8 0 1 0 -13.6 0zM253.6 4386.67 a6.8 6.8 0 1 0 13.6 0 a6.8 6.8 0 1 0 -13.6 0zM312.49 4556.67 a6.8 6.8 0 1 0 13.6 0 a6.8 6.8 0 1 0 -13.6 0zM371.38 4590.67 a6.8 6.8 0 1 0 13.6 0 a6.8 6.8 0 1 0 -13.6 0zM371.38 4658.67 a6.8 6.8 0 1 0 13.6 0 a6.8 6.8 0 1 0 -13.6 0zM312.49 4692.67 a6.8 6.8 0 1 0 13.6 0 a6.8 6.8 0 1 0 -13.6 0zM253.6 4658.67 a6.8 6.8 0 1 0 13.6 0 a6.8 6.8 0 1 0 -13.6 0zM253.6 4590.67 a6.8 6.8 0 1 0 13.6 0 a6.8 6.8 0 1 0 -13.6 0zM253.6 5066.67 a6.8 6.8 0 1 0 13.6 0 a6.8 6.8 0 1 0 -13.6 0zM312.49 5100.67 a6.8 6.8 0 1 0 13.6 0 a6.8 6.8 0 1 0 -13.6 0zM312.49 5168.67 a6.8 6.8 0 1 0 13.6 0 a6.8 6.8 0 1 0 -13.6 0zM253.6 5202.67 a6.8 6.8 0 1 0 13.6 0 a6.8 6.8 0 1 0 -13.6 0zM194.7 5168.67 a6.8 6.8 0 1 0 13.6 0 a6.8 6.8 0 1 0 -13.6 0zM194.7 5100.67 a6.8 6.8 0 1 0 13.6 0 a6.8 6.8 0 1 0 -13.6 0zM253.6 5678.67 a6.8 6.8 0 1 0 13.6 0 a6.8 6.8 0 1 0 -13.6 0zM312.49 5712.67 a6.8 6.8 0 1 0 13.6 0 a6.8 6.8 0 1 0 -13.6 0zM312.49 5780.67 a6.8 6.8 0 1 0 13.6 0 a6.8 6.8 0 1 0 -13.6 0zM253.6 5814.67 a6.8 6.8 0 1 0 13.6 0 a6.8 6.8 0 1 0 -13.6 0zM194.7 5780.67 a6.8 6.8 0 1 0 13.6 0 a6.8 6.8 0 1 0 -13.6 0zM194.7 5712.67 a6.8 6.8 0 1 0 13.6 0 a6.8 6.8 0 1 0 -13.6 0zM371.38 374.67 a6.8 6.8 0 1 0 13.6 0 a6.8 6.8 0 1 0 -13.6 0zM430.27 408.67 a6.8 6.8 0 1 0 13.6 0 a6.8 6.8 0 1 0 -13.6 0zM430.27 476.67 a6.8 6.8 0 1 0 13.6 0 a6.8 6.8 0 1 0 -13.6 0zM371.38 510.67 a6.8 6.8 0 1 0 13.6 0 a6.8 6.8 0 1 0 -13.6 0zM312.49 476.67 a6.8 6.8 0 1 0 13.6 0 a6.8 6.8 0 1 0 -13.6 0zM312.49 408.67 a6.8 6.8 0 1 0 13.6 0 a6.8 6.8 0 1 0 -13.6 0zM371.38 986.67 a6.8 6.8 0 1 0 13.6 0 a6.8 6.8 0 1 0 -13.6 0zM430.27 1020.67 a6.8 6.8 0 1 0 13.6 0 a6.8 6.8 0 1 0 -13.6 0zM430.27 1088.67 a6.8 6.8 0 1 0 13.6 0 a6.8 6.8 0 1 0 -13.6 0zM430.27 1224.67 a6.8 6.8 0 1 0 13.6 0 a6.8 6.8 0 1 0 -13.6 0zM430.27 1292.67 a6.8 6.8 0 1 0 13.6 0 a6.8 6.8 0 1 0 -13.6 0zM371.38 1326.67 a6.8 6.8 0 1 0 13.6 0 a6.8 6.8 0 1 0 -13.6 0zM312.49 1292.67 a6.8 6.8 0 1 0 13.6 0 a6.8 6.8 0 1 0 -13.6 0zM430.27 2856.67 a6.8 6.8 0 1 0 13.6 0 a6.8 6.8 0 1 0 -13.6 0zM430.27 2924.67 a6.8 6.8 0 1 0 13.6 0 a6.8 6.8 0 1 0 -13.6 0zM371.38 2958.67 a6.8 6.8 0 1 0 13.6 0 a6.8 6.8 0 1 0 -13.6 0zM312.49 2924.67 a6.8 6.8 0 1 0 13.6 0 a6.8 6.8 0 1 0 -13.6 0zM430.27 3128.67 a6.8 6.8 0 1 0 13.6 0 a6.8 6.8 0 1 0 -13.6 0zM489.16 3162.67 a6.8 6.8 0 1 0 13.6 0 a6.8 6.8 0 1 0 -13.6 0zM489.16 3230.67 a6.8 6.8 0 1 0 13.6 0 a6.8 6.8 0 1 0 -13.6 0zM430.27 3264.67 a6.8 6.8 0 1 0 13.6 0 a6.8 6.8 0 1 0 -13.6 0zM371.38 3230.67 a6.8 6.8 0 1 0 13.6 0 a6.8 6.8 0 1 0 -13.6 0zM371.38 3162.67 a6.8 6.8 0 1 0 13.6 0 a6.8 6.8 0 1 0 -13.6 0zM371.38 3434.67 a6.8 6.8 0 1 0 13.6 0 a6.8 6.8 0 1 0 -13.6 0zM430.27 3468.67 a6.8 6.8 0 1 0 13.6 0 a6.8 6.8 0 1 0 -13.6 0zM430.27 3536.67 a6.8 6.8 0 1 0 13.6 0 a6.8 6.8 0 1 0 -13.6 0zM548.05 476.67 a6.8 6.8 0 1 0 13.6 0 a6.8 6.8 0 1 0 -13.6 0zM606.94 510.67 a6.8 6.8 0 1 0 13.6 0 a6.8 6.8 0 1 0 -13.6 0zM606.94 578.67 a6.8 6.8 0 1 0 13.6 0 a6.8 6.8 0 1 0 -13.6 0zM548.05 612.67 a6.8 6.8 0 1 0 13.6 0 a6.8 6.8 0 1 0 -13.6 0zM489.16 578.67 a6.8 6.8 0 1 0 13.6 0 a6.8 6.8 0 1 0 -13.6 0zM489.16 510.67 a6.8 6.8 0 1 0 13.6 0 a6.8 6.8 0 1 0 -13.6 0zM548.05 680.67 a6.8 6.8 0 1 0 13.6 0 a6.8 6.8 0 1 0 -13.6 0zM606.94 714.67 a6.8 6.8 0 1 0 13.6 0 a6.8 6.8 0 1 0 -13.6 0zM606.94 782.67 a6.8 6.8 0 1 0 13.6 0 a6.8 6.8 0 1 0 -13.6 0zM548.05 816.67 a6.8 6.8 0 1 0 13.6 0 a6.8 6.8 0 1 0 -13.6 0zM489.16 782.67 a6.8 6.8 0 1 0 13.6 0 a6.8 6.8 0 1 0 -13.6 0zM489.16 714.67 a6.8 6.8 0 1 0 13.6 0 a6.8 6.8 0 1 0 -13.6 0zM548.05 1496.67 a6.8 6.8 0 1 0 13.6 0 a6.8 6.8 0 1 0 -13.6 0zM606.94 1530.67 a6.8 6.8 0 1 0 13.6 0 a6.8 6.8 0 1 0 -13.6 0zM606.94 1598.67 a6.8 6.8 0 1 0 13.6 0 a6.8 6.8 0 1 0 -13.6 0zM548.05 1632.67 a6.8 6.8 0 1 0 13.6 0 a6.8 6.8 0 1 0 -13.6 0zM489.16 1598.67 a6.8 6.8 0 1 0 13.6 0 a6.8 6.8 0 1 0 -13.6 0zM489.16 1530.67 a6.8 6.8 0 1 0 13.6 0 a6.8 6.8 0 1 0 -13.6 0zM548.05 1700.67 a6.8 6.8 0 1 0 13.6 0 a6.8 6.8 0 1 0 -13.6 0zM489.16 1734.67 a6.8 6.8 0 1 0 13.6 0 a6.8 6.8 0 1 0 -13.6 0zM430.27 1700.67 a6.8 6.8 0 1 0 13.6 0 a6.8 6.8 0 1 0 -13.6 0zM430.27 1632.67 a6.8 6.8 0 1 0 13.6 0 a6.8 6.8 0 1 0 -13.6 0zM489.16 2210.67 a6.8 6.8 0 1 0 13.6 0 a6.8 6.8 0 1 0 -13.6 0zM548.05 2244.67 a6.8 6.8 0 1 0 13.6 0 a6.8 6.8 0 1 0 -13.6 0zM548.05 2312.67 a6.8 6.8 0 1 0 13.6 0 a6.8 6.8 0 1 0 -13.6 0zM489.16 2346.67 a6.8 6.8 0 1 0 13.6 0 a6.8 6.8 0 1 0 -13.6 0zM430.27 2312.67 a6.8 6.8 0 1 0 13.6 0 a6.8 6.8 0 1 0 -13.6 0zM430.27 2244.67 a6.8 6.8 0 1 0 13.6 0 a6.8 6.8 0 1 0 -13.6 0zM548.05 3264.67 a6.8 6.8 0 1 0 13.6 0 a6.8 6.8 0 1 0 -13.6 0zM548.05 3332.67 a6.8 6.8 0 1 0 13.6 0 a6.8 6.8 0 1 0 -13.6 0zM489.16 3366.67 a6.8 6.8 0 1 0 13.6 0 a6.8 6.8 0 1 0 -13.6 0zM430.27 3332.67 a6.8 6.8 0 1 0 13.6 0 a6.8 6.8 0 1 0 -13.6 0zM606.94 3366.67 a6.8 6.8 0 1 0 13.6 0 a6.8 6.8 0 1 0 -13.6 0zM606.94 3434.67 a6.8 6.8 0 1 0 13.6 0 a6.8 6.8 0 1 0 -13.6 0zM548.05 3468.67 a6.8 6.8 0 1 0 13.6 0 a6.8 6.8 0 1 0 -13.6 0zM489.16 3434.67 a6.8 6.8 0 1 0 13.6 0 a6.8 6.8 0 1 0 -13.6 0zM489.16 3638.67 a6.8 6.8 0 1 0 13.6 0 a6.8 6.8 0 1 0 -13.6 0zM548.05 3672.67 a6.8 6.8 0 1 0 13.6 0 a6.8 6.8 0 1 0 -13.6 0zM548.05 3740.67 a6.8 6.8 0 1 0 13.6 0 a6.8 6.8 0 1 0 -13.6 0zM489.16 3774.67 a6.8 6.8 0 1 0 13.6 0 a6.8 6.8 0 1 0 -13.6 0zM430.27 3740.67 a6.8 6.8 0 1 0 13.6 0 a6.8 6.8 0 1 0 -13.6 0zM430.27 3672.67 a6.8 6.8 0 1 0 13.6 0 a6.8 6.8 0 1 0 -13.6 0zM606.94 3774.67 a6.8 6.8 0 1 0 13.6 0 a6.8 6.8 0 1 0 -13.6 0zM606.94 3842.67 a6.8 6.8 0 1 0 13.6 0 a6.8 6.8 0 1 0 -13.6 0zM548.05 3876.67 a6.8 6.8 0 1 0 13.6 0 a6.8 6.8 0 1 0 -13.6 0zM489.16 3842.67 a6.8 6.8 0 1 0 13.6 0 a6.8 6.8 0 1 0 -13.6 0zM548.05 4760.67 a6.8 6.8 0 1 0 13.6 0 a6.8 6.8 0 1 0 -13.6 0zM606.94 4794.67 a6.8 6.8 0 1 0 13.6 0 a6.8 6.8 0 1 0 -13.6 0zM606.94 4862.67 a6.8 6.8 0 1 0 13.6 0 a6.8 6.8 0 1 0 -13.6 0zM548.05 4896.67 a6.8 6.8 0 1 0 13.6 0 a6.8 6.8 0 1 0 -13.6 0zM489.16 4862.67 a6.8 6.8 0 1 0 13.6 0 a6.8 6.8 0 1 0 -13.6 0zM489.16 4794.67 a6.8 6.8 0 1 0 13.6 0 a6.8 6.8 0 1 0 -13.6 0zM548.05 5984.67 a6.8 6.8 0 1 0 13.6 0 a6.8 6.8 0 1 0 -13.6 0zM606.94 6018.67 a6.8 6.8 0 1 0 13.6 0 a6.8 6.8 0 1 0 -13.6 0zM606.94 6086.67 a6.8 6.8 0 1 0 13.6 0 a6.8 6.8 0 1 0 -13.6 0zM548.05 6120.67 a6.8 6.8 0 1 0 13.6 0 a6.8 6.8 0 1 0 -13.6 0zM489.16 6086.67 a6.8 6.8 0 1 0 13.6 0 a6.8 6.8 0 1 0 -13.6 0zM489.16 6018.67 a6.8 6.8 0 1 0 13.6 0 a6.8 6.8 0 1 0 -13.6 0zM665.84 612.67 a6.8 6.8 0 1 0 13.6 0 a6.8 6.8 0 1 0 -13.6 0zM665.84 680.67 a6.8 6.8 0 1 0 13.6 0 a6.8 6.8 0 1 0 -13.6 0zM665.84 884.67 a6.8 6.8 0 1 0 13.6 0 a6.8 6.8 0 1 0 -13.6 0zM724.73 918.67 a6.8 6.8 0 1 0 13.6 0 a6.8 6.8 0 1 0 -13.6 0zM724.73 986.67 a6.8 6.8 0 1 0 13.6 0 a6.8 6.8 0 1 0 -13.6 0zM665.84 1020.67 a6.8 6.8 0 1 0 13.6 0 a6.8 6.8 0 1 0 -13.6 0zM606.94 986.67 a6.8 6.8 0 1 0 13.6 0 a6.8 6.8 0 1 0 -13.6 0zM606.94 918.67 a6.8 6.8 0 1 0 13.6 0 a6.8 6.8 0 1 0 -13.6 0zM606.94 1190.67 a6.8 6.8 0 1 0 13.6 0 a6.8 6.8 0 1 0 -13.6 0zM665.84 1224.67 a6.8 6.8 0 1 0 13.6 0 a6.8 6.8 0 1 0 -13.6 0zM665.84 1292.67 a6.8 6.8 0 1 0 13.6 0 a6.8 6.8 0 1 0 -13.6 0zM606.94 1326.67 a6.8 6.8 0 1 0 13.6 0 a6.8 6.8 0 1 0 -13.6 0zM548.05 1292.67 a6.8 6.8 0 1 0 13.6 0 a6.8 6.8 0 1 0 -13.6 0zM548.05 1224.67 a6.8 6.8 0 1 0 13.6 0 a6.8 6.8 0 1 0 -13.6 0zM724.73 1326.67 a6.8 6.8 0 1 0 13.6 0 a6.8 6.8 0 1 0 -13.6 0zM724.73 1394.67 a6.8 6.8 0 1 0 13.6 0 a6.8 6.8 0 1 0 -13.6 0zM665.84 1428.67 a6.8 6.8 0 1 0 13.6 0 a6.8 6.8 0 1 0 -13.6 0zM606.94 1394.67 a6.8 6.8 0 1 0 13.6 0 a6.8 6.8 0 1 0 -13.6 0zM665.84 1700.67 a6.8 6.8 0 1 0 13.6 0 a6.8 6.8 0 1 0 -13.6 0zM724.73 1734.67 a6.8 6.8 0 1 0 13.6 0 a6.8 6.8 0 1 0 -13.6 0zM724.73 1802.67 a6.8 6.8 0 1 0 13.6 0 a6.8 6.8 0 1 0 -13.6 0zM665.84 1836.67 a6.8 6.8 0 1 0 13.6 0 a6.8 6.8 0 1 0 -13.6 0zM606.94 1802.67 a6.8 6.8 0 1 0 13.6 0 a6.8 6.8 0 1 0 -13.6 0zM606.94 1734.67 a6.8 6.8 0 1 0 13.6 0 a6.8 6.8 0 1 0 -13.6 0zM665.84 1904.67 a6.8 6.8 0 1 0 13.6 0 a6.8 6.8 0 1 0 -13.6 0zM724.73 1938.67 a6.8 6.8 0 1 0 13.6 0 a6.8 6.8 0 1 0 -13.6 0zM724.73 2006.67 a6.8 6.8 0 1 0 13.6 0 a6.8 6.8 0 1 0 -13.6 0zM665.84 2040.67 a6.8 6.8 0 1 0 13.6 0 a6.8 6.8 0 1 0 -13.6 0zM606.94 2006.67 a6.8 6.8 0 1 0 13.6 0 a6.8 6.8 0 1 0 -13.6 0zM606.94 1938.67 a6.8 6.8 0 1 0 13.6 0 a6.8 6.8 0 1 0 -13.6 0zM606.94 2414.67 a6.8 6.8 0 1 0 13.6 0 a6.8 6.8 0 1 0 -13.6 0zM665.84 2448.67 a6.8 6.8 0 1 0 13.6 0 a6.8 6.8 0 1 0 -13.6 0zM665.84 2516.67 a6.8 6.8 0 1 0 13.6 0 a6.8 6.8 0 1 0 -13.6 0zM606.94 2550.67 a6.8 6.8 0 1 0 13.6 0 a6.8 6.8 0 1 0 -13.6 0zM548.05 2516.67 a6.8 6.8 0 1 0 13.6 0 a6.8 6.8 0 1 0 -13.6 0zM548.05 2448.67 a6.8 6.8 0 1 0 13.6 0 a6.8 6.8 0 1 0 -13.6 0zM665.84 2924.67 a6.8 6.8 0 1 0 13.6 0 a6.8 6.8 0 1 0 -13.6 0zM724.73 2958.67 a6.8 6.8 0 1 0 13.6 0 a6.8 6.8 0 1 0 -13.6 0zM724.73 3026.67 a6.8 6.8 0 1 0 13.6 0 a6.8 6.8 0 1 0 -13.6 0zM665.84 3060.67 a6.8 6.8 0 1 0 13.6 0 a6.8 6.8 0 1 0 -13.6 0zM606.94 3026.67 a6.8 6.8 0 1 0 13.6 0 a6.8 6.8 0 1 0 -13.6 0zM606.94 2958.67 a6.8 6.8 0 1 0 13.6 0 a6.8 6.8 0 1 0 -13.6 0zM665.84 3332.67 a6.8 6.8 0 1 0 13.6 0 a6.8 6.8 0 1 0 -13.6 0zM724.73 3366.67 a6.8 6.8 0 1 0 13.6 0 a6.8 6.8 0 1 0 -13.6 0zM724.73 3434.67 a6.8 6.8 0 1 0 13.6 0 a6.8 6.8 0 1 0 -13.6 0zM665.84 3468.67 a6.8 6.8 0 1 0 13.6 0 a6.8 6.8 0 1 0 -13.6 0zM606.94 3638.67 a6.8 6.8 0 1 0 13.6 0 a6.8 6.8 0 1 0 -13.6 0zM665.84 3672.67 a6.8 6.8 0 1 0 13.6 0 a6.8 6.8 0 1 0 -13.6 0zM665.84 3740.67 a6.8 6.8 0 1 0 13.6 0 a6.8 6.8 0 1 0 -13.6 0zM665.84 3876.67 a6.8 6.8 0 1 0 13.6 0 a6.8 6.8 0 1 0 -13.6 0zM665.84 3944.67 a6.8 6.8 0 1 0 13.6 0 a6.8 6.8 0 1 0 -13.6 0zM606.94 3978.67 a6.8 6.8 0 1 0 13.6 0 a6.8 6.8 0 1 0 -13.6 0zM548.05 3944.67 a6.8 6.8 0 1 0 13.6 0 a6.8 6.8 0 1 0 -13.6 0zM665.84 4760.67 a6.8 6.8 0 1 0 13.6 0 a6.8 6.8 0 1 0 -13.6 0zM724.73 4794.67 a6.8 6.8 0 1 0 13.6 0 a6.8 6.8 0 1 0 -13.6 0zM724.73 4862.67 a6.8 6.8 0 1 0 13.6 0 a6.8 6.8 0 1 0 -13.6 0zM665.84 4896.67 a6.8 6.8 0 1 0 13.6 0 a6.8 6.8 0 1 0 -13.6 0zM724.73 -33.33 a6.8 6.8 0 1 0 13.6 0 a6.8 6.8 0 1 0 -13.6 0zM783.62 0.67 a6.8 6.8 0 1 0 13.6 0 a6.8 6.8 0 1 0 -13.6 0zM783.62 68.67 a6.8 6.8 0 1 0 13.6 0 a6.8 6.8 0 1 0 -13.6 0zM724.73 102.67 a6.8 6.8 0 1 0 13.6 0 a6.8 6.8 0 1 0 -13.6 0zM665.84 68.67 a6.8 6.8 0 1 0 13.6 0 a6.8 6.8 0 1 0 -13.6 0zM665.84 0.67 a6.8 6.8 0 1 0 13.6 0 a6.8 6.8 0 1 0 -13.6 0zM724.73 374.67 a6.8 6.8 0 1 0 13.6 0 a6.8 6.8 0 1 0 -13.6 0zM783.62 408.67 a6.8 6.8 0 1 0 13.6 0 a6.8 6.8 0 1 0 -13.6 0zM783.62 476.67 a6.8 6.8 0 1 0 13.6 0 a6.8 6.8 0 1 0 -13.6 0zM724.73 510.67 a6.8 6.8 0 1 0 13.6 0 a6.8 6.8 0 1 0 -13.6 0zM665.84 476.67 a6.8 6.8 0 1 0 13.6 0 a6.8 6.8 0 1 0 -13.6 0zM665.84 408.67 a6.8 6.8 0 1 0 13.6 0 a6.8 6.8 0 1 0 -13.6 0zM842.51 510.67 a6.8 6.8 0 1 0 13.6 0 a6.8 6.8 0 1 0 -13.6 0zM842.51 578.67 a6.8 6.8 0 1 0 13.6 0 a6.8 6.8 0 1 0 -13.6 0zM783.62 612.67 a6.8 6.8 0 1 0 13.6 0 a6.8 6.8 0 1 0 -13.6 0zM724.73 578.67 a6.8 6.8 0 1 0 13.6 0 a6.8 6.8 0 1 0 -13.6 0zM783.62 1020.67 a6.8 6.8 0 1 0 13.6 0 a6.8 6.8 0 1 0 -13.6 0zM783.62 1088.67 a6.8 6.8 0 1 0 13.6 0 a6.8 6.8 0 1 0 -13.6 0zM724.73 1122.67 a6.8 6.8 0 1 0 13.6 0 a6.8 6.8 0 1 0 -13.6 0zM665.84 1088.67 a6.8 6.8 0 1 0 13.6 0 a6.8 6.8 0 1 0 -13.6 0zM724.73 1190.67 a6.8 6.8 0 1 0 13.6 0 a6.8 6.8 0 1 0 -13.6 0zM783.62 1224.67 a6.8 6.8 0 1 0 13.6 0 a6.8 6.8 0 1 0 -13.6 0zM783.62 1292.67 a6.8 6.8 0 1 0 13.6 0 a6.8 6.8 0 1 0 -13.6 0zM783.62 2516.67 a6.8 6.8 0 1 0 13.6 0 a6.8 6.8 0 1 0 -13.6 0zM842.51 2550.67 a6.8 6.8 0 1 0 13.6 0 a6.8 6.8 0 1 0 -13.6 0zM842.51 2618.67 a6.8 6.8 0 1 0 13.6 0 a6.8 6.8 0 1 0 -13.6 0zM783.62 2652.67 a6.8 6.8 0 1 0 13.6 0 a6.8 6.8 0 1 0 -13.6 0zM724.73 2618.67 a6.8 6.8 0 1 0 13.6 0 a6.8 6.8 0 1 0 -13.6 0zM724.73 2550.67 a6.8 6.8 0 1 0 13.6 0 a6.8 6.8 0 1 0 -13.6 0zM783.62 2720.67 a6.8 6.8 0 1 0 13.6 0 a6.8 6.8 0 1 0 -13.6 0zM842.51 2754.67 a6.8 6.8 0 1 0 13.6 0 a6.8 6.8 0 1 0 -13.6 0zM842.51 2822.67 a6.8 6.8 0 1 0 13.6 0 a6.8 6.8 0 1 0 -13.6 0zM783.62 2856.67 a6.8 6.8 0 1 0 13.6 0 a6.8 6.8 0 1 0 -13.6 0zM724.73 2822.67 a6.8 6.8 0 1 0 13.6 0 a6.8 6.8 0 1 0 -13.6 0zM724.73 2754.67 a6.8 6.8 0 1 0 13.6 0 a6.8 6.8 0 1 0 -13.6 0zM724.73 3638.67 a6.8 6.8 0 1 0 13.6 0 a6.8 6.8 0 1 0 -13.6 0zM783.62 3672.67 a6.8 6.8 0 1 0 13.6 0 a6.8 6.8 0 1 0 -13.6 0zM783.62 3740.67 a6.8 6.8 0 1 0 13.6 0 a6.8 6.8 0 1 0 -13.6 0zM724.73 3774.67 a6.8 6.8 0 1 0 13.6 0 a6.8 6.8 0 1 0 -13.6 0zM842.51 3774.67 a6.8 6.8 0 1 0 13.6 0 a6.8 6.8 0 1 0 -13.6 0zM842.51 3842.67 a6.8 6.8 0 1 0 13.6 0 a6.8 6.8 0 1 0 -13.6 0zM783.62 3876.67 a6.8 6.8 0 1 0 13.6 0 a6.8 6.8 0 1 0 -13.6 0zM724.73 3842.67 a6.8 6.8 0 1 0 13.6 0 a6.8 6.8 0 1 0 -13.6 0zM783.62 4760.67 a6.8 6.8 0 1 0 13.6 0 a6.8 6.8 0 1 0 -13.6 0zM842.51 4794.67 a6.8 6.8 0 1 0 13.6 0 a6.8 6.8 0 1 0 -13.6 0zM842.51 4862.67 a6.8 6.8 0 1 0 13.6 0 a6.8 6.8 0 1 0 -13.6 0zM783.62 4896.67 a6.8 6.8 0 1 0 13.6 0 a6.8 6.8 0 1 0 -13.6 0zM783.62 4964.67 a6.8 6.8 0 1 0 13.6 0 a6.8 6.8 0 1 0 -13.6 0zM724.73 4998.67 a6.8 6.8 0 1 0 13.6 0 a6.8 6.8 0 1 0 -13.6 0zM665.84 4964.67 a6.8 6.8 0 1 0 13.6 0 a6.8 6.8 0 1 0 -13.6 0zM783.62 5168.67 a6.8 6.8 0 1 0 13.6 0 a6.8 6.8 0 1 0 -13.6 0zM842.51 5202.67 a6.8 6.8 0 1 0 13.6 0 a6.8 6.8 0 1 0 -13.6 0zM842.51 5270.67 a6.8 6.8 0 1 0 13.6 0 a6.8 6.8 0 1 0 -13.6 0zM783.62 5304.67 a6.8 6.8 0 1 0 13.6 0 a6.8 6.8 0 1 0 -13.6 0zM724.73 5270.67 a6.8 6.8 0 1 0 13.6 0 a6.8 6.8 0 1 0 -13.6 0zM724.73 5202.67 a6.8 6.8 0 1 0 13.6 0 a6.8 6.8 0 1 0 -13.6 0zM783.62 5576.67 a6.8 6.8 0 1 0 13.6 0 a6.8 6.8 0 1 0 -13.6 0zM842.51 5610.67 a6.8 6.8 0 1 0 13.6 0 a6.8 6.8 0 1 0 -13.6 0zM842.51 5678.67 a6.8 6.8 0 1 0 13.6 0 a6.8 6.8 0 1 0 -13.6 0zM783.62 5712.67 a6.8 6.8 0 1 0 13.6 0 a6.8 6.8 0 1 0 -13.6 0zM724.73 5678.67 a6.8 6.8 0 1 0 13.6 0 a6.8 6.8 0 1 0 -13.6 0zM724.73 5610.67 a6.8 6.8 0 1 0 13.6 0 a6.8 6.8 0 1 0 -13.6 0zM783.62 5780.67 a6.8 6.8 0 1 0 13.6 0 a6.8 6.8 0 1 0 -13.6 0zM842.51 5814.67 a6.8 6.8 0 1 0 13.6 0 a6.8 6.8 0 1 0 -13.6 0zM842.51 5882.67 a6.8 6.8 0 1 0 13.6 0 a6.8 6.8 0 1 0 -13.6 0zM783.62 5916.67 a6.8 6.8 0 1 0 13.6 0 a6.8 6.8 0 1 0 -13.6 0zM724.73 5882.67 a6.8 6.8 0 1 0 13.6 0 a6.8 6.8 0 1 0 -13.6 0zM724.73 5814.67 a6.8 6.8 0 1 0 13.6 0 a6.8 6.8 0 1 0 -13.6 0zM901.4 680.67 a6.8 6.8 0 1 0 13.6 0 a6.8 6.8 0 1 0 -13.6 0zM960.29 714.67 a6.8 6.8 0 1 0 13.6 0 a6.8 6.8 0 1 0 -13.6 0zM960.29 782.67 a6.8 6.8 0 1 0 13.6 0 a6.8 6.8 0 1 0 -13.6 0zM901.4 816.67 a6.8 6.8 0 1 0 13.6 0 a6.8 6.8 0 1 0 -13.6 0zM842.51 782.67 a6.8 6.8 0 1 0 13.6 0 a6.8 6.8 0 1 0 -13.6 0zM842.51 714.67 a6.8 6.8 0 1 0 13.6 0 a6.8 6.8 0 1 0 -13.6 0zM842.51 1394.67 a6.8 6.8 0 1 0 13.6 0 a6.8 6.8 0 1 0 -13.6 0zM901.4 1428.67 a6.8 6.8 0 1 0 13.6 0 a6.8 6.8 0 1 0 -13.6 0zM901.4 1496.67 a6.8 6.8 0 1 0 13.6 0 a6.8 6.8 0 1 0 -13.6 0zM842.51 1530.67 a6.8 6.8 0 1 0 13.6 0 a6.8 6.8 0 1 0 -13.6 0zM783.62 1496.67 a6.8 6.8 0 1 0 13.6 0 a6.8 6.8 0 1 0 -13.6 0zM783.62 1428.67 a6.8 6.8 0 1 0 13.6 0 a6.8 6.8 0 1 0 -13.6 0zM960.29 1530.67 a6.8 6.8 0 1 0 13.6 0 a6.8 6.8 0 1 0 -13.6 0zM960.29 1598.67 a6.8 6.8 0 1 0 13.6 0 a6.8 6.8 0 1 0 -13.6 0zM901.4 1632.67 a6.8 6.8 0 1 0 13.6 0 a6.8 6.8 0 1 0 -13.6 0zM842.51 1598.67 a6.8 6.8 0 1 0 13.6 0 a6.8 6.8 0 1 0 -13.6 0zM842.51 1802.67 a6.8 6.8 0 1 0 13.6 0 a6.8 6.8 0 1 0 -13.6 0zM901.4 1836.67 a6.8 6.8 0 1 0 13.6 0 a6.8 6.8 0 1 0 -13.6 0zM901.4 1904.67 a6.8 6.8 0 1 0 13.6 0 a6.8 6.8 0 1 0 -13.6 0zM842.51 1938.67 a6.8 6.8 0 1 0 13.6 0 a6.8 6.8 0 1 0 -13.6 0zM783.62 1904.67 a6.8 6.8 0 1 0 13.6 0 a6.8 6.8 0 1 0 -13.6 0zM783.62 1836.67 a6.8 6.8 0 1 0 13.6 0 a6.8 6.8 0 1 0 -13.6 0zM960.29 1938.67 a6.8 6.8 0 1 0 13.6 0 a6.8 6.8 0 1 0 -13.6 0zM960.29 2006.67 a6.8 6.8 0 1 0 13.6 0 a6.8 6.8 0 1 0 -13.6 0zM901.4 2040.67 a6.8 6.8 0 1 0 13.6 0 a6.8 6.8 0 1 0 -13.6 0zM842.51 2006.67 a6.8 6.8 0 1 0 13.6 0 a6.8 6.8 0 1 0 -13.6 0zM901.4 4352.67 a6.8 6.8 0 1 0 13.6 0 a6.8 6.8 0 1 0 -13.6 0zM960.29 4386.67 a6.8 6.8 0 1 0 13.6 0 a6.8 6.8 0 1 0 -13.6 0zM960.29 4454.67 a6.8 6.8 0 1 0 13.6 0 a6.8 6.8 0 1 0 -13.6 0zM901.4 4488.67 a6.8 6.8 0 1 0 13.6 0 a6.8 6.8 0 1 0 -13.6 0zM842.51 4454.67 a6.8 6.8 0 1 0 13.6 0 a6.8 6.8 0 1 0 -13.6 0zM842.51 4386.67 a6.8 6.8 0 1 0 13.6 0 a6.8 6.8 0 1 0 -13.6 0zM901.4 4964.67 a6.8 6.8 0 1 0 13.6 0 a6.8 6.8 0 1 0 -13.6 0zM960.29 4998.67 a6.8 6.8 0 1 0 13.6 0 a6.8 6.8 0 1 0 -13.6 0zM960.29 5066.67 a6.8 6.8 0 1 0 13.6 0 a6.8 6.8 0 1 0 -13.6 0zM901.4 5100.67 a6.8 6.8 0 1 0 13.6 0 a6.8 6.8 0 1 0 -13.6 0zM842.51 5066.67 a6.8 6.8 0 1 0 13.6 0 a6.8 6.8 0 1 0 -13.6 0zM842.51 4998.67 a6.8 6.8 0 1 0 13.6 0 a6.8 6.8 0 1 0 -13.6 0zM960.29 374.67 a6.8 6.8 0 1 0 13.6 0 a6.8 6.8 0 1 0 -13.6 0zM1019.18 408.67 a6.8 6.8 0 1 0 13.6 0 a6.8 6.8 0 1 0 -13.6 0zM1019.18 476.67 a6.8 6.8 0 1 0 13.6 0 a6.8 6.8 0 1 0 -13.6 0zM960.29 510.67 a6.8 6.8 0 1 0 13.6 0 a6.8 6.8 0 1 0 -13.6 0zM901.4 476.67 a6.8 6.8 0 1 0 13.6 0 a6.8 6.8 0 1 0 -13.6 0zM901.4 408.67 a6.8 6.8 0 1 0 13.6 0 a6.8 6.8 0 1 0 -13.6 0zM960.29 578.67 a6.8 6.8 0 1 0 13.6 0 a6.8 6.8 0 1 0 -13.6 0zM1019.18 612.67 a6.8 6.8 0 1 0 13.6 0 a6.8 6.8 0 1 0 -13.6 0zM1019.18 680.67 a6.8 6.8 0 1 0 13.6 0 a6.8 6.8 0 1 0 -13.6 0zM901.4 612.67 a6.8 6.8 0 1 0 13.6 0 a6.8 6.8 0 1 0 -13.6 0zM1078.08 714.67 a6.8 6.8 0 1 0 13.6 0 a6.8 6.8 0 1 0 -13.6 0zM1078.08 782.67 a6.8 6.8 0 1 0 13.6 0 a6.8 6.8 0 1 0 -13.6 0zM1019.18 816.67 a6.8 6.8 0 1 0 13.6 0 a6.8 6.8 0 1 0 -13.6 0zM1019.18 1088.67 a6.8 6.8 0 1 0 13.6 0 a6.8 6.8 0 1 0 -13.6 0zM1078.08 1122.67 a6.8 6.8 0 1 0 13.6 0 a6.8 6.8 0 1 0 -13.6 0zM1078.08 1190.67 a6.8 6.8 0 1 0 13.6 0 a6.8 6.8 0 1 0 -13.6 0zM1019.18 1224.67 a6.8 6.8 0 1 0 13.6 0 a6.8 6.8 0 1 0 -13.6 0zM960.29 1190.67 a6.8 6.8 0 1 0 13.6 0 a6.8 6.8 0 1 0 -13.6 0zM960.29 1122.67 a6.8 6.8 0 1 0 13.6 0 a6.8 6.8 0 1 0 -13.6 0zM960.29 1394.67 a6.8 6.8 0 1 0 13.6 0 a6.8 6.8 0 1 0 -13.6 0zM1019.18 1428.67 a6.8 6.8 0 1 0 13.6 0 a6.8 6.8 0 1 0 -13.6 0zM1019.18 1496.67 a6.8 6.8 0 1 0 13.6 0 a6.8 6.8 0 1 0 -13.6 0zM1019.18 2040.67 a6.8 6.8 0 1 0 13.6 0 a6.8 6.8 0 1 0 -13.6 0zM1019.18 2108.67 a6.8 6.8 0 1 0 13.6 0 a6.8 6.8 0 1 0 -13.6 0zM960.29 2142.67 a6.8 6.8 0 1 0 13.6 0 a6.8 6.8 0 1 0 -13.6 0zM901.4 2108.67 a6.8 6.8 0 1 0 13.6 0 a6.8 6.8 0 1 0 -13.6 0zM960.29 3026.67 a6.8 6.8 0 1 0 13.6 0 a6.8 6.8 0 1 0 -13.6 0zM1019.18 3060.67 a6.8 6.8 0 1 0 13.6 0 a6.8 6.8 0 1 0 -13.6 0zM1019.18 3128.67 a6.8 6.8 0 1 0 13.6 0 a6.8 6.8 0 1 0 -13.6 0zM960.29 3162.67 a6.8 6.8 0 1 0 13.6 0 a6.8 6.8 0 1 0 -13.6 0zM901.4 3128.67 a6.8 6.8 0 1 0 13.6 0 a6.8 6.8 0 1 0 -13.6 0zM901.4 3060.67 a6.8 6.8 0 1 0 13.6 0 a6.8 6.8 0 1 0 -13.6 0zM1019.18 3332.67 a6.8 6.8 0 1 0 13.6 0 a6.8 6.8 0 1 0 -13.6 0zM1078.08 3366.67 a6.8 6.8 0 1 0 13.6 0 a6.8 6.8 0 1 0 -13.6 0zM1078.08 3434.67 a6.8 6.8 0 1 0 13.6 0 a6.8 6.8 0 1 0 -13.6 0zM1019.18 3468.67 a6.8 6.8 0 1 0 13.6 0 a6.8 6.8 0 1 0 -13.6 0zM960.29 3434.67 a6.8 6.8 0 1 0 13.6 0 a6.8 6.8 0 1 0 -13.6 0zM960.29 3366.67 a6.8 6.8 0 1 0 13.6 0 a6.8 6.8 0 1 0 -13.6 0zM1019.18 3536.67 a6.8 6.8 0 1 0 13.6 0 a6.8 6.8 0 1 0 -13.6 0zM1078.08 3570.67 a6.8 6.8 0 1 0 13.6 0 a6.8 6.8 0 1 0 -13.6 0zM1078.08 3638.67 a6.8 6.8 0 1 0 13.6 0 a6.8 6.8 0 1 0 -13.6 0zM1019.18 3672.67 a6.8 6.8 0 1 0 13.6 0 a6.8 6.8 0 1 0 -13.6 0zM960.29 3638.67 a6.8 6.8 0 1 0 13.6 0 a6.8 6.8 0 1 0 -13.6 0zM960.29 3570.67 a6.8 6.8 0 1 0 13.6 0 a6.8 6.8 0 1 0 -13.6 0zM1019.18 4148.67 a6.8 6.8 0 1 0 13.6 0 a6.8 6.8 0 1 0 -13.6 0zM1078.08 4182.67 a6.8 6.8 0 1 0 13.6 0 a6.8 6.8 0 1 0 -13.6 0zM1078.08 4250.67 a6.8 6.8 0 1 0 13.6 0 a6.8 6.8 0 1 0 -13.6 0zM1019.18 4284.67 a6.8 6.8 0 1 0 13.6 0 a6.8 6.8 0 1 0 -13.6 0zM960.29 4250.67 a6.8 6.8 0 1 0 13.6 0 a6.8 6.8 0 1 0 -13.6 0zM960.29 4182.67 a6.8 6.8 0 1 0 13.6 0 a6.8 6.8 0 1 0 -13.6 0zM1019.18 4964.67 a6.8 6.8 0 1 0 13.6 0 a6.8 6.8 0 1 0 -13.6 0zM1078.08 4998.67 a6.8 6.8 0 1 0 13.6 0 a6.8 6.8 0 1 0 -13.6 0zM1078.08 5066.67 a6.8 6.8 0 1 0 13.6 0 a6.8 6.8 0 1 0 -13.6 0zM1019.18 5100.67 a6.8 6.8 0 1 0 13.6 0 a6.8 6.8 0 1 0 -13.6 0zM960.29 5270.67 a6.8 6.8 0 1 0 13.6 0 a6.8 6.8 0 1 0 -13.6 0zM1019.18 5304.67 a6.8 6.8 0 1 0 13.6 0 a6.8 6.8 0 1 0 -13.6 0zM1019.18 5372.67 a6.8 6.8 0 1 0 13.6 0 a6.8 6.8 0 1 0 -13.6 0zM960.29 5406.67 a6.8 6.8 0 1 0 13.6 0 a6.8 6.8 0 1 0 -13.6 0zM901.4 5372.67 a6.8 6.8 0 1 0 13.6 0 a6.8 6.8 0 1 0 -13.6 0zM901.4 5304.67 a6.8 6.8 0 1 0 13.6 0 a6.8 6.8 0 1 0 -13.6 0zM1019.18 5576.67 a6.8 6.8 0 1 0 13.6 0 a6.8 6.8 0 1 0 -13.6 0zM1078.08 5610.67 a6.8 6.8 0 1 0 13.6 0 a6.8 6.8 0 1 0 -13.6 0zM1078.08 5678.67 a6.8 6.8 0 1 0 13.6 0 a6.8 6.8 0 1 0 -13.6 0zM1019.18 5712.67 a6.8 6.8 0 1 0 13.6 0 a6.8 6.8 0 1 0 -13.6 0zM960.29 5678.67 a6.8 6.8 0 1 0 13.6 0 a6.8 6.8 0 1 0 -13.6 0zM960.29 5610.67 a6.8 6.8 0 1 0 13.6 0 a6.8 6.8 0 1 0 -13.6 0zM1019.18 5780.67 a6.8 6.8 0 1 0 13.6 0 a6.8 6.8 0 1 0 -13.6 0zM960.29 5814.67 a6.8 6.8 0 1 0 13.6 0 a6.8 6.8 0 1 0 -13.6 0zM901.4 5780.67 a6.8 6.8 0 1 0 13.6 0 a6.8 6.8 0 1 0 -13.6 0zM901.4 5712.67 a6.8 6.8 0 1 0 13.6 0 a6.8 6.8 0 1 0 -13.6 0zM1136.97 2516.67 a6.8 6.8 0 1 0 13.6 0 a6.8 6.8 0 1 0 -13.6 0zM1195.86 2550.67 a6.8 6.8 0 1 0 13.6 0 a6.8 6.8 0 1 0 -13.6 0zM1195.86 2618.67 a6.8 6.8 0 1 0 13.6 0 a6.8 6.8 0 1 0 -13.6 0zM1136.97 2652.67 a6.8 6.8 0 1 0 13.6 0 a6.8 6.8 0 1 0 -13.6 0zM1078.08 2618.67 a6.8 6.8 0 1 0 13.6 0 a6.8 6.8 0 1 0 -13.6 0zM1078.08 2550.67 a6.8 6.8 0 1 0 13.6 0 a6.8 6.8 0 1 0 -13.6 0zM1136.97 2720.67 a6.8 6.8 0 1 0 13.6 0 a6.8 6.8 0 1 0 -13.6 0zM1195.86 2754.67 a6.8 6.8 0 1 0 13.6 0 a6.8 6.8 0 1 0 -13.6 0zM1195.86 2822.67 a6.8 6.8 0 1 0 13.6 0 a6.8 6.8 0 1 0 -13.6 0zM1136.97 2856.67 a6.8 6.8 0 1 0 13.6 0 a6.8 6.8 0 1 0 -13.6 0zM1078.08 2822.67 a6.8 6.8 0 1 0 13.6 0 a6.8 6.8 0 1 0 -13.6 0zM1078.08 2754.67 a6.8 6.8 0 1 0 13.6 0 a6.8 6.8 0 1 0 -13.6 0zM1136.97 3128.67 a6.8 6.8 0 1 0 13.6 0 a6.8 6.8 0 1 0 -13.6 0zM1195.86 3162.67 a6.8 6.8 0 1 0 13.6 0 a6.8 6.8 0 1 0 -13.6 0zM1195.86 3230.67 a6.8 6.8 0 1 0 13.6 0 a6.8 6.8 0 1 0 -13.6 0zM1136.97 3264.67 a6.8 6.8 0 1 0 13.6 0 a6.8 6.8 0 1 0 -13.6 0zM1078.08 3230.67 a6.8 6.8 0 1 0 13.6 0 a6.8 6.8 0 1 0 -13.6 0zM1078.08 3162.67 a6.8 6.8 0 1 0 13.6 0 a6.8 6.8 0 1 0 -13.6 0zM1136.97 3332.67 a6.8 6.8 0 1 0 13.6 0 a6.8 6.8 0 1 0 -13.6 0zM1195.86 3366.67 a6.8 6.8 0 1 0 13.6 0 a6.8 6.8 0 1 0 -13.6 0zM1195.86 3434.67 a6.8 6.8 0 1 0 13.6 0 a6.8 6.8 0 1 0 -13.6 0zM1136.97 3468.67 a6.8 6.8 0 1 0 13.6 0 a6.8 6.8 0 1 0 -13.6 0zM1136.97 5168.67 a6.8 6.8 0 1 0 13.6 0 a6.8 6.8 0 1 0 -13.6 0zM1195.86 5202.67 a6.8 6.8 0 1 0 13.6 0 a6.8 6.8 0 1 0 -13.6 0zM1195.86 5270.67 a6.8 6.8 0 1 0 13.6 0 a6.8 6.8 0 1 0 -13.6 0zM1136.97 5304.67 a6.8 6.8 0 1 0 13.6 0 a6.8 6.8 0 1 0 -13.6 0zM1078.08 5270.67 a6.8 6.8 0 1 0 13.6 0 a6.8 6.8 0 1 0 -13.6 0zM1078.08 5202.67 a6.8 6.8 0 1 0 13.6 0 a6.8 6.8 0 1 0 -13.6 0zM1136.97 5780.67 a6.8 6.8 0 1 0 13.6 0 a6.8 6.8 0 1 0 -13.6 0zM1195.86 5814.67 a6.8 6.8 0 1 0 13.6 0 a6.8 6.8 0 1 0 -13.6 0zM1195.86 5882.67 a6.8 6.8 0 1 0 13.6 0 a6.8 6.8 0 1 0 -13.6 0zM1136.97 5916.67 a6.8 6.8 0 1 0 13.6 0 a6.8 6.8 0 1 0 -13.6 0zM1078.08 5882.67 a6.8 6.8 0 1 0 13.6 0 a6.8 6.8 0 1 0 -13.6 0zM1078.08 5814.67 a6.8 6.8 0 1 0 13.6 0 a6.8 6.8 0 1 0 -13.6 0zM1195.86 374.67 a6.8 6.8 0 1 0 13.6 0 a6.8 6.8 0 1 0 -13.6 0zM1254.75 408.67 a6.8 6.8 0 1 0 13.6 0 a6.8 6.8 0 1 0 -13.6 0zM1254.75 476.67 a6.8 6.8 0 1 0 13.6 0 a6.8 6.8 0 1 0 -13.6 0zM1195.86 510.67 a6.8 6.8 0 1 0 13.6 0 a6.8 6.8 0 1 0 -13.6 0zM1136.97 476.67 a6.8 6.8 0 1 0 13.6 0 a6.8 6.8 0 1 0 -13.6 0zM1136.97 408.67 a6.8 6.8 0 1 0 13.6 0 a6.8 6.8 0 1 0 -13.6 0zM1254.75 884.67 a6.8 6.8 0 1 0 13.6 0 a6.8 6.8 0 1 0 -13.6 0zM1313.64 918.67 a6.8 6.8 0 1 0 13.6 0 a6.8 6.8 0 1 0 -13.6 0zM1313.64 986.67 a6.8 6.8 0 1 0 13.6 0 a6.8 6.8 0 1 0 -13.6 0zM1254.75 1020.67 a6.8 6.8 0 1 0 13.6 0 a6.8 6.8 0 1 0 -13.6 0zM1195.86 986.67 a6.8 6.8 0 1 0 13.6 0 a6.8 6.8 0 1 0 -13.6 0zM1195.86 918.67 a6.8 6.8 0 1 0 13.6 0 a6.8 6.8 0 1 0 -13.6 0zM1254.75 1088.67 a6.8 6.8 0 1 0 13.6 0 a6.8 6.8 0 1 0 -13.6 0zM1195.86 1122.67 a6.8 6.8 0 1 0 13.6 0 a6.8 6.8 0 1 0 -13.6 0zM1136.97 1088.67 a6.8 6.8 0 1 0 13.6 0 a6.8 6.8 0 1 0 -13.6 0zM1136.97 1020.67 a6.8 6.8 0 1 0 13.6 0 a6.8 6.8 0 1 0 -13.6 0zM1254.75 2108.67 a6.8 6.8 0 1 0 13.6 0 a6.8 6.8 0 1 0 -13.6 0zM1313.64 2142.67 a6.8 6.8 0 1 0 13.6 0 a6.8 6.8 0 1 0 -13.6 0zM1313.64 2210.67 a6.8 6.8 0 1 0 13.6 0 a6.8 6.8 0 1 0 -13.6 0zM1254.75 2244.67 a6.8 6.8 0 1 0 13.6 0 a6.8 6.8 0 1 0 -13.6 0zM1195.86 2210.67 a6.8 6.8 0 1 0 13.6 0 a6.8 6.8 0 1 0 -13.6 0zM1195.86 2142.67 a6.8 6.8 0 1 0 13.6 0 a6.8 6.8 0 1 0 -13.6 0zM1254.75 2856.67 a6.8 6.8 0 1 0 13.6 0 a6.8 6.8 0 1 0 -13.6 0zM1254.75 2924.67 a6.8 6.8 0 1 0 13.6 0 a6.8 6.8 0 1 0 -13.6 0zM1195.86 2958.67 a6.8 6.8 0 1 0 13.6 0 a6.8 6.8 0 1 0 -13.6 0zM1136.97 2924.67 a6.8 6.8 0 1 0 13.6 0 a6.8 6.8 0 1 0 -13.6 0zM1195.86 3026.67 a6.8 6.8 0 1 0 13.6 0 a6.8 6.8 0 1 0 -13.6 0zM1254.75 3060.67 a6.8 6.8 0 1 0 13.6 0 a6.8 6.8 0 1 0 -13.6 0zM1254.75 3128.67 a6.8 6.8 0 1 0 13.6 0 a6.8 6.8 0 1 0 -13.6 0zM1136.97 3060.67 a6.8 6.8 0 1 0 13.6 0 a6.8 6.8 0 1 0 -13.6 0zM1254.75 3468.67 a6.8 6.8 0 1 0 13.6 0 a6.8 6.8 0 1 0 -13.6 0zM1254.75 3536.67 a6.8 6.8 0 1 0 13.6 0 a6.8 6.8 0 1 0 -13.6 0zM1195.86 3570.67 a6.8 6.8 0 1 0 13.6 0 a6.8 6.8 0 1 0 -13.6 0zM1136.97 3536.67 a6.8 6.8 0 1 0 13.6 0 a6.8 6.8 0 1 0 -13.6 0zM1195.86 3842.67 a6.8 6.8 0 1 0 13.6 0 a6.8 6.8 0 1 0 -13.6 0zM1254.75 3876.67 a6.8 6.8 0 1 0 13.6 0 a6.8 6.8 0 1 0 -13.6 0zM1254.75 3944.67 a6.8 6.8 0 1 0 13.6 0 a6.8 6.8 0 1 0 -13.6 0zM1195.86 3978.67 a6.8 6.8 0 1 0 13.6 0 a6.8 6.8 0 1 0 -13.6 0zM1136.97 3944.67 a6.8 6.8 0 1 0 13.6 0 a6.8 6.8 0 1 0 -13.6 0zM1136.97 3876.67 a6.8 6.8 0 1 0 13.6 0 a6.8 6.8 0 1 0 -13.6 0zM1195.86 4454.67 a6.8 6.8 0 1 0 13.6 0 a6.8 6.8 0 1 0 -13.6 0zM1254.75 4488.67 a6.8 6.8 0 1 0 13.6 0 a6.8 6.8 0 1 0 -13.6 0zM1254.75 4556.67 a6.8 6.8 0 1 0 13.6 0 a6.8 6.8 0 1 0 -13.6 0zM1195.86 4590.67 a6.8 6.8 0 1 0 13.6 0 a6.8 6.8 0 1 0 -13.6 0zM1136.97 4556.67 a6.8 6.8 0 1 0 13.6 0 a6.8 6.8 0 1 0 -13.6 0zM1136.97 4488.67 a6.8 6.8 0 1 0 13.6 0 a6.8 6.8 0 1 0 -13.6 0zM1195.86 5066.67 a6.8 6.8 0 1 0 13.6 0 a6.8 6.8 0 1 0 -13.6 0zM1254.75 5100.67 a6.8 6.8 0 1 0 13.6 0 a6.8 6.8 0 1 0 -13.6 0zM1254.75 5168.67 a6.8 6.8 0 1 0 13.6 0 a6.8 6.8 0 1 0 -13.6 0zM1136.97 5100.67 a6.8 6.8 0 1 0 13.6 0 a6.8 6.8 0 1 0 -13.6 0zM1254.75 5304.67 a6.8 6.8 0 1 0 13.6 0 a6.8 6.8 0 1 0 -13.6 0zM1254.75 5372.67 a6.8 6.8 0 1 0 13.6 0 a6.8 6.8 0 1 0 -13.6 0zM1195.86 5406.67 a6.8 6.8 0 1 0 13.6 0 a6.8 6.8 0 1 0 -13.6 0zM1136.97 5372.67 a6.8 6.8 0 1 0 13.6 0 a6.8 6.8 0 1 0 -13.6 0zM1254.75 5916.67 a6.8 6.8 0 1 0 13.6 0 a6.8 6.8 0 1 0 -13.6 0zM1254.75 5984.67 a6.8 6.8 0 1 0 13.6 0 a6.8 6.8 0 1 0 -13.6 0zM1195.86 6018.67 a6.8 6.8 0 1 0 13.6 0 a6.8 6.8 0 1 0 -13.6 0zM1136.97 5984.67 a6.8 6.8 0 1 0 13.6 0 a6.8 6.8 0 1 0 -13.6 0zM1372.53 68.67 a6.8 6.8 0 1 0 13.6 0 a6.8 6.8 0 1 0 -13.6 0zM1431.42 102.67 a6.8 6.8 0 1 0 13.6 0 a6.8 6.8 0 1 0 -13.6 0zM1431.42 170.67 a6.8 6.8 0 1 0 13.6 0 a6.8 6.8 0 1 0 -13.6 0zM1372.53 204.67 a6.8 6.8 0 1 0 13.6 0 a6.8 6.8 0 1 0 -13.6 0zM1313.64 170.67 a6.8 6.8 0 1 0 13.6 0 a6.8 6.8 0 1 0 -13.6 0zM1313.64 102.67 a6.8 6.8 0 1 0 13.6 0 a6.8 6.8 0 1 0 -13.6 0zM1372.53 272.67 a6.8 6.8 0 1 0 13.6 0 a6.8 6.8 0 1 0 -13.6 0zM1431.42 306.67 a6.8 6.8 0 1 0 13.6 0 a6.8 6.8 0 1 0 -13.6 0zM1431.42 374.67 a6.8 6.8 0 1 0 13.6 0 a6.8 6.8 0 1 0 -13.6 0zM1372.53 408.67 a6.8 6.8 0 1 0 13.6 0 a6.8 6.8 0 1 0 -13.6 0zM1313.64 374.67 a6.8 6.8 0 1 0 13.6 0 a6.8 6.8 0 1 0 -13.6 0zM1313.64 306.67 a6.8 6.8 0 1 0 13.6 0 a6.8 6.8 0 1 0 -13.6 0zM1313.64 782.67 a6.8 6.8 0 1 0 13.6 0 a6.8 6.8 0 1 0 -13.6 0zM1372.53 816.67 a6.8 6.8 0 1 0 13.6 0 a6.8 6.8 0 1 0 -13.6 0zM1372.53 884.67 a6.8 6.8 0 1 0 13.6 0 a6.8 6.8 0 1 0 -13.6 0zM1254.75 816.67 a6.8 6.8 0 1 0 13.6 0 a6.8 6.8 0 1 0 -13.6 0zM1313.64 1190.67 a6.8 6.8 0 1 0 13.6 0 a6.8 6.8 0 1 0 -13.6 0zM1372.53 1224.67 a6.8 6.8 0 1 0 13.6 0 a6.8 6.8 0 1 0 -13.6 0zM1372.53 1292.67 a6.8 6.8 0 1 0 13.6 0 a6.8 6.8 0 1 0 -13.6 0zM1313.64 1326.67 a6.8 6.8 0 1 0 13.6 0 a6.8 6.8 0 1 0 -13.6 0zM1254.75 1292.67 a6.8 6.8 0 1 0 13.6 0 a6.8 6.8 0 1 0 -13.6 0zM1254.75 1224.67 a6.8 6.8 0 1 0 13.6 0 a6.8 6.8 0 1 0 -13.6 0zM1313.64 1802.67 a6.8 6.8 0 1 0 13.6 0 a6.8 6.8 0 1 0 -13.6 0zM1372.53 1836.67 a6.8 6.8 0 1 0 13.6 0 a6.8 6.8 0 1 0 -13.6 0zM1372.53 1904.67 a6.8 6.8 0 1 0 13.6 0 a6.8 6.8 0 1 0 -13.6 0zM1313.64 1938.67 a6.8 6.8 0 1 0 13.6 0 a6.8 6.8 0 1 0 -13.6 0zM1254.75 1904.67 a6.8 6.8 0 1 0 13.6 0 a6.8 6.8 0 1 0 -13.6 0zM1254.75 1836.67 a6.8 6.8 0 1 0 13.6 0 a6.8 6.8 0 1 0 -13.6 0zM1313.64 2006.67 a6.8 6.8 0 1 0 13.6 0 a6.8 6.8 0 1 0 -13.6 0zM1372.53 2040.67 a6.8 6.8 0 1 0 13.6 0 a6.8 6.8 0 1 0 -13.6 0zM1372.53 2108.67 a6.8 6.8 0 1 0 13.6 0 a6.8 6.8 0 1 0 -13.6 0zM1254.75 2040.67 a6.8 6.8 0 1 0 13.6 0 a6.8 6.8 0 1 0 -13.6 0zM1372.53 2244.67 a6.8 6.8 0 1 0 13.6 0 a6.8 6.8 0 1 0 -13.6 0zM1372.53 2312.67 a6.8 6.8 0 1 0 13.6 0 a6.8 6.8 0 1 0 -13.6 0zM1313.64 2346.67 a6.8 6.8 0 1 0 13.6 0 a6.8 6.8 0 1 0 -13.6 0zM1254.75 2312.67 a6.8 6.8 0 1 0 13.6 0 a6.8 6.8 0 1 0 -13.6 0zM1313.64 3026.67 a6.8 6.8 0 1 0 13.6 0 a6.8 6.8 0 1 0 -13.6 0zM1372.53 3060.67 a6.8 6.8 0 1 0 13.6 0 a6.8 6.8 0 1 0 -13.6 0zM1372.53 3128.67 a6.8 6.8 0 1 0 13.6 0 a6.8 6.8 0 1 0 -13.6 0zM1313.64 3162.67 a6.8 6.8 0 1 0 13.6 0 a6.8 6.8 0 1 0 -13.6 0zM1313.64 3230.67 a6.8 6.8 0 1 0 13.6 0 a6.8 6.8 0 1 0 -13.6 0zM1372.53 3264.67 a6.8 6.8 0 1 0 13.6 0 a6.8 6.8 0 1 0 -13.6 0zM1372.53 3332.67 a6.8 6.8 0 1 0 13.6 0 a6.8 6.8 0 1 0 -13.6 0zM1313.64 3366.67 a6.8 6.8 0 1 0 13.6 0 a6.8 6.8 0 1 0 -13.6 0zM1254.75 3332.67 a6.8 6.8 0 1 0 13.6 0 a6.8 6.8 0 1 0 -13.6 0zM1254.75 3264.67 a6.8 6.8 0 1 0 13.6 0 a6.8 6.8 0 1 0 -13.6 0zM1372.53 3536.67 a6.8 6.8 0 1 0 13.6 0 a6.8 6.8 0 1 0 -13.6 0zM1431.42 3570.67 a6.8 6.8 0 1 0 13.6 0 a6.8 6.8 0 1 0 -13.6 0zM1431.42 3638.67 a6.8 6.8 0 1 0 13.6 0 a6.8 6.8 0 1 0 -13.6 0zM1372.53 3672.67 a6.8 6.8 0 1 0 13.6 0 a6.8 6.8 0 1 0 -13.6 0zM1313.64 3638.67 a6.8 6.8 0 1 0 13.6 0 a6.8 6.8 0 1 0 -13.6 0zM1313.64 3570.67 a6.8 6.8 0 1 0 13.6 0 a6.8 6.8 0 1 0 -13.6 0zM1372.53 3740.67 a6.8 6.8 0 1 0 13.6 0 a6.8 6.8 0 1 0 -13.6 0zM1313.64 3774.67 a6.8 6.8 0 1 0 13.6 0 a6.8 6.8 0 1 0 -13.6 0zM1254.75 3740.67 a6.8 6.8 0 1 0 13.6 0 a6.8 6.8 0 1 0 -13.6 0zM1254.75 3672.67 a6.8 6.8 0 1 0 13.6 0 a6.8 6.8 0 1 0 -13.6 0zM1313.64 5270.67 a6.8 6.8 0 1 0 13.6 0 a6.8 6.8 0 1 0 -13.6 0zM1372.53 5304.67 a6.8 6.8 0 1 0 13.6 0 a6.8 6.8 0 1 0 -13.6 0zM1372.53 5372.67 a6.8 6.8 0 1 0 13.6 0 a6.8 6.8 0 1 0 -13.6 0zM1313.64 5406.67 a6.8 6.8 0 1 0 13.6 0 a6.8 6.8 0 1 0 -13.6 0zM1490.31 204.67 a6.8 6.8 0 1 0 13.6 0 a6.8 6.8 0 1 0 -13.6 0zM1490.31 272.67 a6.8 6.8 0 1 0 13.6 0 a6.8 6.8 0 1 0 -13.6 0zM1431.42 986.67 a6.8 6.8 0 1 0 13.6 0 a6.8 6.8 0 1 0 -13.6 0zM1490.31 1020.67 a6.8 6.8 0 1 0 13.6 0 a6.8 6.8 0 1 0 -13.6 0zM1490.31 1088.67 a6.8 6.8 0 1 0 13.6 0 a6.8 6.8 0 1 0 -13.6 0zM1431.42 1122.67 a6.8 6.8 0 1 0 13.6 0 a6.8 6.8 0 1 0 -13.6 0zM1372.53 1088.67 a6.8 6.8 0 1 0 13.6 0 a6.8 6.8 0 1 0 -13.6 0zM1372.53 1020.67 a6.8 6.8 0 1 0 13.6 0 a6.8 6.8 0 1 0 -13.6 0zM1490.31 3332.67 a6.8 6.8 0 1 0 13.6 0 a6.8 6.8 0 1 0 -13.6 0zM1549.21 3366.67 a6.8 6.8 0 1 0 13.6 0 a6.8 6.8 0 1 0 -13.6 0zM1549.21 3434.67 a6.8 6.8 0 1 0 13.6 0 a6.8 6.8 0 1 0 -13.6 0zM1490.31 3468.67 a6.8 6.8 0 1 0 13.6 0 a6.8 6.8 0 1 0 -13.6 0zM1431.42 3434.67 a6.8 6.8 0 1 0 13.6 0 a6.8 6.8 0 1 0 -13.6 0zM1431.42 3366.67 a6.8 6.8 0 1 0 13.6 0 a6.8 6.8 0 1 0 -13.6 0zM1490.31 3944.67 a6.8 6.8 0 1 0 13.6 0 a6.8 6.8 0 1 0 -13.6 0zM1549.21 3978.67 a6.8 6.8 0 1 0 13.6 0 a6.8 6.8 0 1 0 -13.6 0zM1549.21 4046.67 a6.8 6.8 0 1 0 13.6 0 a6.8 6.8 0 1 0 -13.6 0zM1490.31 4080.67 a6.8 6.8 0 1 0 13.6 0 a6.8 6.8 0 1 0 -13.6 0zM1431.42 4046.67 a6.8 6.8 0 1 0 13.6 0 a6.8 6.8 0 1 0 -13.6 0zM1431.42 3978.67 a6.8 6.8 0 1 0 13.6 0 a6.8 6.8 0 1 0 -13.6 0zM1431.42 4658.67 a6.8 6.8 0 1 0 13.6 0 a6.8 6.8 0 1 0 -13.6 0zM1490.31 4692.67 a6.8 6.8 0 1 0 13.6 0 a6.8 6.8 0 1 0 -13.6 0zM1490.31 4760.67 a6.8 6.8 0 1 0 13.6 0 a6.8 6.8 0 1 0 -13.6 0zM1431.42 4794.67 a6.8 6.8 0 1 0 13.6 0 a6.8 6.8 0 1 0 -13.6 0zM1372.53 4760.67 a6.8 6.8 0 1 0 13.6 0 a6.8 6.8 0 1 0 -13.6 0zM1372.53 4692.67 a6.8 6.8 0 1 0 13.6 0 a6.8 6.8 0 1 0 -13.6 0zM1490.31 4964.67 a6.8 6.8 0 1 0 13.6 0 a6.8 6.8 0 1 0 -13.6 0zM1549.21 4998.67 a6.8 6.8 0 1 0 13.6 0 a6.8 6.8 0 1 0 -13.6 0zM1549.21 5066.67 a6.8 6.8 0 1 0 13.6 0 a6.8 6.8 0 1 0 -13.6 0zM1490.31 5100.67 a6.8 6.8 0 1 0 13.6 0 a6.8 6.8 0 1 0 -13.6 0zM1431.42 5066.67 a6.8 6.8 0 1 0 13.6 0 a6.8 6.8 0 1 0 -13.6 0zM1431.42 4998.67 a6.8 6.8 0 1 0 13.6 0 a6.8 6.8 0 1 0 -13.6 0zM1490.31 5780.67 a6.8 6.8 0 1 0 13.6 0 a6.8 6.8 0 1 0 -13.6 0zM1549.21 5814.67 a6.8 6.8 0 1 0 13.6 0 a6.8 6.8 0 1 0 -13.6 0zM1549.21 5882.67 a6.8 6.8 0 1 0 13.6 0 a6.8 6.8 0 1 0 -13.6 0zM1490.31 5916.67 a6.8 6.8 0 1 0 13.6 0 a6.8 6.8 0 1 0 -13.6 0zM1431.42 5882.67 a6.8 6.8 0 1 0 13.6 0 a6.8 6.8 0 1 0 -13.6 0zM1431.42 5814.67 a6.8 6.8 0 1 0 13.6 0 a6.8 6.8 0 1 0 -13.6 0zM1608.1 680.67 a6.8 6.8 0 1 0 13.6 0 a6.8 6.8 0 1 0 -13.6 0zM1666.99 714.67 a6.8 6.8 0 1 0 13.6 0 a6.8 6.8 0 1 0 -13.6 0zM1666.99 782.67 a6.8 6.8 0 1 0 13.6 0 a6.8 6.8 0 1 0 -13.6 0zM1608.1 816.67 a6.8 6.8 0 1 0 13.6 0 a6.8 6.8 0 1 0 -13.6 0zM1549.21 782.67 a6.8 6.8 0 1 0 13.6 0 a6.8 6.8 0 1 0 -13.6 0zM1549.21 714.67 a6.8 6.8 0 1 0 13.6 0 a6.8 6.8 0 1 0 -13.6 0zM1608.1 884.67 a6.8 6.8 0 1 0 13.6 0 a6.8 6.8 0 1 0 -13.6 0zM1549.21 918.67 a6.8 6.8 0 1 0 13.6 0 a6.8 6.8 0 1 0 -13.6 0zM1490.31 884.67 a6.8 6.8 0 1 0 13.6 0 a6.8 6.8 0 1 0 -13.6 0zM1490.31 816.67 a6.8 6.8 0 1 0 13.6 0 a6.8 6.8 0 1 0 -13.6 0zM1549.21 1394.67 a6.8 6.8 0 1 0 13.6 0 a6.8 6.8 0 1 0 -13.6 0zM1608.1 1428.67 a6.8 6.8 0 1 0 13.6 0 a6.8 6.8 0 1 0 -13.6 0zM1608.1 1496.67 a6.8 6.8 0 1 0 13.6 0 a6.8 6.8 0 1 0 -13.6 0zM1549.21 1530.67 a6.8 6.8 0 1 0 13.6 0 a6.8 6.8 0 1 0 -13.6 0zM1490.31 1496.67 a6.8 6.8 0 1 0 13.6 0 a6.8 6.8 0 1 0 -13.6 0zM1490.31 1428.67 a6.8 6.8 0 1 0 13.6 0 a6.8 6.8 0 1 0 -13.6 0zM1666.99 1530.67 a6.8 6.8 0 1 0 13.6 0 a6.8 6.8 0 1 0 -13.6 0zM1666.99 1598.67 a6.8 6.8 0 1 0 13.6 0 a6.8 6.8 0 1 0 -13.6 0zM1608.1 1632.67 a6.8 6.8 0 1 0 13.6 0 a6.8 6.8 0 1 0 -13.6 0zM1549.21 1598.67 a6.8 6.8 0 1 0 13.6 0 a6.8 6.8 0 1 0 -13.6 0zM1608.1 1700.67 a6.8 6.8 0 1 0 13.6 0 a6.8 6.8 0 1 0 -13.6 0zM1666.99 1734.67 a6.8 6.8 0 1 0 13.6 0 a6.8 6.8 0 1 0 -13.6 0zM1666.99 1802.67 a6.8 6.8 0 1 0 13.6 0 a6.8 6.8 0 1 0 -13.6 0zM1608.1 1836.67 a6.8 6.8 0 1 0 13.6 0 a6.8 6.8 0 1 0 -13.6 0zM1549.21 1802.67 a6.8 6.8 0 1 0 13.6 0 a6.8 6.8 0 1 0 -13.6 0zM1549.21 1734.67 a6.8 6.8 0 1 0 13.6 0 a6.8 6.8 0 1 0 -13.6 0zM1549.21 2006.67 a6.8 6.8 0 1 0 13.6 0 a6.8 6.8 0 1 0 -13.6 0zM1608.1 2040.67 a6.8 6.8 0 1 0 13.6 0 a6.8 6.8 0 1 0 -13.6 0zM1608.1 2108.67 a6.8 6.8 0 1 0 13.6 0 a6.8 6.8 0 1 0 -13.6 0zM1549.21 2142.67 a6.8 6.8 0 1 0 13.6 0 a6.8 6.8 0 1 0 -13.6 0zM1490.31 2108.67 a6.8 6.8 0 1 0 13.6 0 a6.8 6.8 0 1 0 -13.6 0zM1490.31 2040.67 a6.8 6.8 0 1 0 13.6 0 a6.8 6.8 0 1 0 -13.6 0zM1549.21 2618.67 a6.8 6.8 0 1 0 13.6 0 a6.8 6.8 0 1 0 -13.6 0zM1608.1 2652.67 a6.8 6.8 0 1 0 13.6 0 a6.8 6.8 0 1 0 -13.6 0zM1608.1 2720.67 a6.8 6.8 0 1 0 13.6 0 a6.8 6.8 0 1 0 -13.6 0zM1549.21 2754.67 a6.8 6.8 0 1 0 13.6 0 a6.8 6.8 0 1 0 -13.6 0zM1490.31 2720.67 a6.8 6.8 0 1 0 13.6 0 a6.8 6.8 0 1 0 -13.6 0zM1490.31 2652.67 a6.8 6.8 0 1 0 13.6 0 a6.8 6.8 0 1 0 -13.6 0zM1608.1 2924.67 a6.8 6.8 0 1 0 13.6 0 a6.8 6.8 0 1 0 -13.6 0zM1666.99 2958.67 a6.8 6.8 0 1 0 13.6 0 a6.8 6.8 0 1 0 -13.6 0zM1666.99 3026.67 a6.8 6.8 0 1 0 13.6 0 a6.8 6.8 0 1 0 -13.6 0zM1608.1 3060.67 a6.8 6.8 0 1 0 13.6 0 a6.8 6.8 0 1 0 -13.6 0zM1549.21 3026.67 a6.8 6.8 0 1 0 13.6 0 a6.8 6.8 0 1 0 -13.6 0zM1549.21 2958.67 a6.8 6.8 0 1 0 13.6 0 a6.8 6.8 0 1 0 -13.6 0zM1608.1 3128.67 a6.8 6.8 0 1 0 13.6 0 a6.8 6.8 0 1 0 -13.6 0zM1666.99 3162.67 a6.8 6.8 0 1 0 13.6 0 a6.8 6.8 0 1 0 -13.6 0zM1666.99 3230.67 a6.8 6.8 0 1 0 13.6 0 a6.8 6.8 0 1 0 -13.6 0zM1608.1 3264.67 a6.8 6.8 0 1 0 13.6 0 a6.8 6.8 0 1 0 -13.6 0zM1549.21 3230.67 a6.8 6.8 0 1 0 13.6 0 a6.8 6.8 0 1 0 -13.6 0zM1549.21 3162.67 a6.8 6.8 0 1 0 13.6 0 a6.8 6.8 0 1 0 -13.6 0zM1608.1 5168.67 a6.8 6.8 0 1 0 13.6 0 a6.8 6.8 0 1 0 -13.6 0zM1666.99 5202.67 a6.8 6.8 0 1 0 13.6 0 a6.8 6.8 0 1 0 -13.6 0zM1666.99 5270.67 a6.8 6.8 0 1 0 13.6 0 a6.8 6.8 0 1 0 -13.6 0zM1608.1 5304.67 a6.8 6.8 0 1 0 13.6 0 a6.8 6.8 0 1 0 -13.6 0zM1549.21 5270.67 a6.8 6.8 0 1 0 13.6 0 a6.8 6.8 0 1 0 -13.6 0zM1549.21 5202.67 a6.8 6.8 0 1 0 13.6 0 a6.8 6.8 0 1 0 -13.6 0zM1608.1 5916.67 a6.8 6.8 0 1 0 13.6 0 a6.8 6.8 0 1 0 -13.6 0zM1608.1 5984.67 a6.8 6.8 0 1 0 13.6 0 a6.8 6.8 0 1 0 -13.6 0zM1549.21 6018.67 a6.8 6.8 0 1 0 13.6 0 a6.8 6.8 0 1 0 -13.6 0zM1490.31 5984.67 a6.8 6.8 0 1 0 13.6 0 a6.8 6.8 0 1 0 -13.6 0zM1666.99 6018.67 a6.8 6.8 0 1 0 13.6 0 a6.8 6.8 0 1 0 -13.6 0zM1666.99 6086.67 a6.8 6.8 0 1 0 13.6 0 a6.8 6.8 0 1 0 -13.6 0zM1608.1 6120.67 a6.8 6.8 0 1 0 13.6 0 a6.8 6.8 0 1 0 -13.6 0zM1549.21 6086.67 a6.8 6.8 0 1 0 13.6 0 a6.8 6.8 0 1 0 -13.6 0zM1666.99 170.67 a6.8 6.8 0 1 0 13.6 0 a6.8 6.8 0 1 0 -13.6 0zM1725.88 204.67 a6.8 6.8 0 1 0 13.6 0 a6.8 6.8 0 1 0 -13.6 0zM1725.88 272.67 a6.8 6.8 0 1 0 13.6 0 a6.8 6.8 0 1 0 -13.6 0zM1666.99 306.67 a6.8 6.8 0 1 0 13.6 0 a6.8 6.8 0 1 0 -13.6 0zM1608.1 272.67 a6.8 6.8 0 1 0 13.6 0 a6.8 6.8 0 1 0 -13.6 0zM1608.1 204.67 a6.8 6.8 0 1 0 13.6 0 a6.8 6.8 0 1 0 -13.6 0zM1725.88 1632.67 a6.8 6.8 0 1 0 13.6 0 a6.8 6.8 0 1 0 -13.6 0zM1725.88 1700.67 a6.8 6.8 0 1 0 13.6 0 a6.8 6.8 0 1 0 -13.6 0zM1666.99 2006.67 a6.8 6.8 0 1 0 13.6 0 a6.8 6.8 0 1 0 -13.6 0zM1725.88 2040.67 a6.8 6.8 0 1 0 13.6 0 a6.8 6.8 0 1 0 -13.6 0zM1725.88 2108.67 a6.8 6.8 0 1 0 13.6 0 a6.8 6.8 0 1 0 -13.6 0zM1666.99 2142.67 a6.8 6.8 0 1 0 13.6 0 a6.8 6.8 0 1 0 -13.6 0zM1784.77 2142.67 a6.8 6.8 0 1 0 13.6 0 a6.8 6.8 0 1 0 -13.6 0zM1784.77 2210.67 a6.8 6.8 0 1 0 13.6 0 a6.8 6.8 0 1 0 -13.6 0zM1725.88 2244.67 a6.8 6.8 0 1 0 13.6 0 a6.8 6.8 0 1 0 -13.6 0zM1666.99 2210.67 a6.8 6.8 0 1 0 13.6 0 a6.8 6.8 0 1 0 -13.6 0zM1725.88 2516.67 a6.8 6.8 0 1 0 13.6 0 a6.8 6.8 0 1 0 -13.6 0zM1784.77 2550.67 a6.8 6.8 0 1 0 13.6 0 a6.8 6.8 0 1 0 -13.6 0zM1784.77 2618.67 a6.8 6.8 0 1 0 13.6 0 a6.8 6.8 0 1 0 -13.6 0zM1725.88 2652.67 a6.8 6.8 0 1 0 13.6 0 a6.8 6.8 0 1 0 -13.6 0zM1666.99 2618.67 a6.8 6.8 0 1 0 13.6 0 a6.8 6.8 0 1 0 -13.6 0zM1666.99 2550.67 a6.8 6.8 0 1 0 13.6 0 a6.8 6.8 0 1 0 -13.6 0zM1725.88 2720.67 a6.8 6.8 0 1 0 13.6 0 a6.8 6.8 0 1 0 -13.6 0zM1784.77 2754.67 a6.8 6.8 0 1 0 13.6 0 a6.8 6.8 0 1 0 -13.6 0zM1784.77 2822.67 a6.8 6.8 0 1 0 13.6 0 a6.8 6.8 0 1 0 -13.6 0zM1725.88 2856.67 a6.8 6.8 0 1 0 13.6 0 a6.8 6.8 0 1 0 -13.6 0zM1666.99 2822.67 a6.8 6.8 0 1 0 13.6 0 a6.8 6.8 0 1 0 -13.6 0zM1666.99 2754.67 a6.8 6.8 0 1 0 13.6 0 a6.8 6.8 0 1 0 -13.6 0zM1666.99 3638.67 a6.8 6.8 0 1 0 13.6 0 a6.8 6.8 0 1 0 -13.6 0zM1725.88 3672.67 a6.8 6.8 0 1 0 13.6 0 a6.8 6.8 0 1 0 -13.6 0zM1725.88 3740.67 a6.8 6.8 0 1 0 13.6 0 a6.8 6.8 0 1 0 -13.6 0zM1666.99 3774.67 a6.8 6.8 0 1 0 13.6 0 a6.8 6.8 0 1 0 -13.6 0zM1608.1 3740.67 a6.8 6.8 0 1 0 13.6 0 a6.8 6.8 0 1 0 -13.6 0zM1608.1 3672.67 a6.8 6.8 0 1 0 13.6 0 a6.8 6.8 0 1 0 -13.6 0zM1666.99 4454.67 a6.8 6.8 0 1 0 13.6 0 a6.8 6.8 0 1 0 -13.6 0zM1725.88 4488.67 a6.8 6.8 0 1 0 13.6 0 a6.8 6.8 0 1 0 -13.6 0zM1725.88 4556.67 a6.8 6.8 0 1 0 13.6 0 a6.8 6.8 0 1 0 -13.6 0zM1666.99 4590.67 a6.8 6.8 0 1 0 13.6 0 a6.8 6.8 0 1 0 -13.6 0zM1608.1 4556.67 a6.8 6.8 0 1 0 13.6 0 a6.8 6.8 0 1 0 -13.6 0zM1608.1 4488.67 a6.8 6.8 0 1 0 13.6 0 a6.8 6.8 0 1 0 -13.6 0zM1784.77 4590.67 a6.8 6.8 0 1 0 13.6 0 a6.8 6.8 0 1 0 -13.6 0zM1784.77 4658.67 a6.8 6.8 0 1 0 13.6 0 a6.8 6.8 0 1 0 -13.6 0zM1725.88 4692.67 a6.8 6.8 0 1 0 13.6 0 a6.8 6.8 0 1 0 -13.6 0zM1666.99 4658.67 a6.8 6.8 0 1 0 13.6 0 a6.8 6.8 0 1 0 -13.6 0zM1666.99 5678.67 a6.8 6.8 0 1 0 13.6 0 a6.8 6.8 0 1 0 -13.6 0zM1725.88 5712.67 a6.8 6.8 0 1 0 13.6 0 a6.8 6.8 0 1 0 -13.6 0zM1725.88 5780.67 a6.8 6.8 0 1 0 13.6 0 a6.8 6.8 0 1 0 -13.6 0zM1666.99 5814.67 a6.8 6.8 0 1 0 13.6 0 a6.8 6.8 0 1 0 -13.6 0zM1608.1 5780.67 a6.8 6.8 0 1 0 13.6 0 a6.8 6.8 0 1 0 -13.6 0zM1608.1 5712.67 a6.8 6.8 0 1 0 13.6 0 a6.8 6.8 0 1 0 -13.6 0zM1784.77 578.67 a6.8 6.8 0 1 0 13.6 0 a6.8 6.8 0 1 0 -13.6 0zM1843.66 612.67 a6.8 6.8 0 1 0 13.6 0 a6.8 6.8 0 1 0 -13.6 0zM1843.66 680.67 a6.8 6.8 0 1 0 13.6 0 a6.8 6.8 0 1 0 -13.6 0zM1784.77 714.67 a6.8 6.8 0 1 0 13.6 0 a6.8 6.8 0 1 0 -13.6 0zM1725.88 680.67 a6.8 6.8 0 1 0 13.6 0 a6.8 6.8 0 1 0 -13.6 0zM1725.88 612.67 a6.8 6.8 0 1 0 13.6 0 a6.8 6.8 0 1 0 -13.6 0zM1843.66 1088.67 a6.8 6.8 0 1 0 13.6 0 a6.8 6.8 0 1 0 -13.6 0zM1902.55 1122.67 a6.8 6.8 0 1 0 13.6 0 a6.8 6.8 0 1 0 -13.6 0zM1902.55 1190.67 a6.8 6.8 0 1 0 13.6 0 a6.8 6.8 0 1 0 -13.6 0zM1843.66 1224.67 a6.8 6.8 0 1 0 13.6 0 a6.8 6.8 0 1 0 -13.6 0zM1784.77 1190.67 a6.8 6.8 0 1 0 13.6 0 a6.8 6.8 0 1 0 -13.6 0zM1784.77 1122.67 a6.8 6.8 0 1 0 13.6 0 a6.8 6.8 0 1 0 -13.6 0zM1843.66 1496.67 a6.8 6.8 0 1 0 13.6 0 a6.8 6.8 0 1 0 -13.6 0zM1902.55 1530.67 a6.8 6.8 0 1 0 13.6 0 a6.8 6.8 0 1 0 -13.6 0zM1902.55 1598.67 a6.8 6.8 0 1 0 13.6 0 a6.8 6.8 0 1 0 -13.6 0zM1843.66 1632.67 a6.8 6.8 0 1 0 13.6 0 a6.8 6.8 0 1 0 -13.6 0zM1784.77 1598.67 a6.8 6.8 0 1 0 13.6 0 a6.8 6.8 0 1 0 -13.6 0zM1784.77 1530.67 a6.8 6.8 0 1 0 13.6 0 a6.8 6.8 0 1 0 -13.6 0zM1843.66 1904.67 a6.8 6.8 0 1 0 13.6 0 a6.8 6.8 0 1 0 -13.6 0zM1902.55 1938.67 a6.8 6.8 0 1 0 13.6 0 a6.8 6.8 0 1 0 -13.6 0zM1902.55 2006.67 a6.8 6.8 0 1 0 13.6 0 a6.8 6.8 0 1 0 -13.6 0zM1843.66 2040.67 a6.8 6.8 0 1 0 13.6 0 a6.8 6.8 0 1 0 -13.6 0zM1784.77 2006.67 a6.8 6.8 0 1 0 13.6 0 a6.8 6.8 0 1 0 -13.6 0zM1784.77 1938.67 a6.8 6.8 0 1 0 13.6 0 a6.8 6.8 0 1 0 -13.6 0zM1843.66 2312.67 a6.8 6.8 0 1 0 13.6 0 a6.8 6.8 0 1 0 -13.6 0zM1902.55 2346.67 a6.8 6.8 0 1 0 13.6 0 a6.8 6.8 0 1 0 -13.6 0zM1902.55 2414.67 a6.8 6.8 0 1 0 13.6 0 a6.8 6.8 0 1 0 -13.6 0zM1843.66 2448.67 a6.8 6.8 0 1 0 13.6 0 a6.8 6.8 0 1 0 -13.6 0zM1784.77 2414.67 a6.8 6.8 0 1 0 13.6 0 a6.8 6.8 0 1 0 -13.6 0zM1784.77 2346.67 a6.8 6.8 0 1 0 13.6 0 a6.8 6.8 0 1 0 -13.6 0zM1843.66 2516.67 a6.8 6.8 0 1 0 13.6 0 a6.8 6.8 0 1 0 -13.6 0zM1902.55 2550.67 a6.8 6.8 0 1 0 13.6 0 a6.8 6.8 0 1 0 -13.6 0zM1902.55 2618.67 a6.8 6.8 0 1 0 13.6 0 a6.8 6.8 0 1 0 -13.6 0zM1843.66 2652.67 a6.8 6.8 0 1 0 13.6 0 a6.8 6.8 0 1 0 -13.6 0zM1843.66 2924.67 a6.8 6.8 0 1 0 13.6 0 a6.8 6.8 0 1 0 -13.6 0zM1902.55 2958.67 a6.8 6.8 0 1 0 13.6 0 a6.8 6.8 0 1 0 -13.6 0zM1902.55 3026.67 a6.8 6.8 0 1 0 13.6 0 a6.8 6.8 0 1 0 -13.6 0zM1843.66 3060.67 a6.8 6.8 0 1 0 13.6 0 a6.8 6.8 0 1 0 -13.6 0zM1784.77 3026.67 a6.8 6.8 0 1 0 13.6 0 a6.8 6.8 0 1 0 -13.6 0zM1784.77 2958.67 a6.8 6.8 0 1 0 13.6 0 a6.8 6.8 0 1 0 -13.6 0zM1843.66 3128.67 a6.8 6.8 0 1 0 13.6 0 a6.8 6.8 0 1 0 -13.6 0zM1784.77 3162.67 a6.8 6.8 0 1 0 13.6 0 a6.8 6.8 0 1 0 -13.6 0zM1725.88 3128.67 a6.8 6.8 0 1 0 13.6 0 a6.8 6.8 0 1 0 -13.6 0zM1725.88 3060.67 a6.8 6.8 0 1 0 13.6 0 a6.8 6.8 0 1 0 -13.6 0zM1784.77 3230.67 a6.8 6.8 0 1 0 13.6 0 a6.8 6.8 0 1 0 -13.6 0zM1843.66 3264.67 a6.8 6.8 0 1 0 13.6 0 a6.8 6.8 0 1 0 -13.6 0zM1843.66 3332.67 a6.8 6.8 0 1 0 13.6 0 a6.8 6.8 0 1 0 -13.6 0zM1784.77 3366.67 a6.8 6.8 0 1 0 13.6 0 a6.8 6.8 0 1 0 -13.6 0zM1725.88 3332.67 a6.8 6.8 0 1 0 13.6 0 a6.8 6.8 0 1 0 -13.6 0zM1725.88 3264.67 a6.8 6.8 0 1 0 13.6 0 a6.8 6.8 0 1 0 -13.6 0zM1843.66 3740.67 a6.8 6.8 0 1 0 13.6 0 a6.8 6.8 0 1 0 -13.6 0zM1902.55 3774.67 a6.8 6.8 0 1 0 13.6 0 a6.8 6.8 0 1 0 -13.6 0zM1902.55 3842.67 a6.8 6.8 0 1 0 13.6 0 a6.8 6.8 0 1 0 -13.6 0zM1843.66 3876.67 a6.8 6.8 0 1 0 13.6 0 a6.8 6.8 0 1 0 -13.6 0zM1784.77 3842.67 a6.8 6.8 0 1 0 13.6 0 a6.8 6.8 0 1 0 -13.6 0zM1784.77 3774.67 a6.8 6.8 0 1 0 13.6 0 a6.8 6.8 0 1 0 -13.6 0zM1784.77 4454.67 a6.8 6.8 0 1 0 13.6 0 a6.8 6.8 0 1 0 -13.6 0zM1843.66 4488.67 a6.8 6.8 0 1 0 13.6 0 a6.8 6.8 0 1 0 -13.6 0zM1843.66 4556.67 a6.8 6.8 0 1 0 13.6 0 a6.8 6.8 0 1 0 -13.6 0zM1784.77 4862.67 a6.8 6.8 0 1 0 13.6 0 a6.8 6.8 0 1 0 -13.6 0zM1843.66 4896.67 a6.8 6.8 0 1 0 13.6 0 a6.8 6.8 0 1 0 -13.6 0zM1843.66 4964.67 a6.8 6.8 0 1 0 13.6 0 a6.8 6.8 0 1 0 -13.6 0zM1784.77 4998.67 a6.8 6.8 0 1 0 13.6 0 a6.8 6.8 0 1 0 -13.6 0zM1725.88 4964.67 a6.8 6.8 0 1 0 13.6 0 a6.8 6.8 0 1 0 -13.6 0zM1725.88 4896.67 a6.8 6.8 0 1 0 13.6 0 a6.8 6.8 0 1 0 -13.6 0zM1784.77 5066.67 a6.8 6.8 0 1 0 13.6 0 a6.8 6.8 0 1 0 -13.6 0zM1843.66 5100.67 a6.8 6.8 0 1 0 13.6 0 a6.8 6.8 0 1 0 -13.6 0zM1843.66 5168.67 a6.8 6.8 0 1 0 13.6 0 a6.8 6.8 0 1 0 -13.6 0zM1784.77 5202.67 a6.8 6.8 0 1 0 13.6 0 a6.8 6.8 0 1 0 -13.6 0zM1725.88 5168.67 a6.8 6.8 0 1 0 13.6 0 a6.8 6.8 0 1 0 -13.6 0zM1725.88 5100.67 a6.8 6.8 0 1 0 13.6 0 a6.8 6.8 0 1 0 -13.6 0zM1784.77 5678.67 a6.8 6.8 0 1 0 13.6 0 a6.8 6.8 0 1 0 -13.6 0zM1843.66 5712.67 a6.8 6.8 0 1 0 13.6 0 a6.8 6.8 0 1 0 -13.6 0zM1843.66 5780.67 a6.8 6.8 0 1 0 13.6 0 a6.8 6.8 0 1 0 -13.6 0zM1784.77 5814.67 a6.8 6.8 0 1 0 13.6 0 a6.8 6.8 0 1 0 -13.6 0zM1902.55 5814.67 a6.8 6.8 0 1 0 13.6 0 a6.8 6.8 0 1 0 -13.6 0zM1902.55 5882.67 a6.8 6.8 0 1 0 13.6 0 a6.8 6.8 0 1 0 -13.6 0zM1843.66 5916.67 a6.8 6.8 0 1 0 13.6 0 a6.8 6.8 0 1 0 -13.6 0zM1784.77 5882.67 a6.8 6.8 0 1 0 13.6 0 a6.8 6.8 0 1 0 -13.6 0zM1961.45 272.67 a6.8 6.8 0 1 0 13.6 0 a6.8 6.8 0 1 0 -13.6 0zM2020.34 306.67 a6.8 6.8 0 1 0 13.6 0 a6.8 6.8 0 1 0 -13.6 0zM2020.34 374.67 a6.8 6.8 0 1 0 13.6 0 a6.8 6.8 0 1 0 -13.6 0zM1961.45 408.67 a6.8 6.8 0 1 0 13.6 0 a6.8 6.8 0 1 0 -13.6 0zM1902.55 374.67 a6.8 6.8 0 1 0 13.6 0 a6.8 6.8 0 1 0 -13.6 0zM1902.55 306.67 a6.8 6.8 0 1 0 13.6 0 a6.8 6.8 0 1 0 -13.6 0zM1961.45 884.67 a6.8 6.8 0 1 0 13.6 0 a6.8 6.8 0 1 0 -13.6 0zM2020.34 918.67 a6.8 6.8 0 1 0 13.6 0 a6.8 6.8 0 1 0 -13.6 0zM2020.34 986.67 a6.8 6.8 0 1 0 13.6 0 a6.8 6.8 0 1 0 -13.6 0zM1961.45 1020.67 a6.8 6.8 0 1 0 13.6 0 a6.8 6.8 0 1 0 -13.6 0zM1902.55 986.67 a6.8 6.8 0 1 0 13.6 0 a6.8 6.8 0 1 0 -13.6 0zM1902.55 918.67 a6.8 6.8 0 1 0 13.6 0 a6.8 6.8 0 1 0 -13.6 0zM1961.45 1088.67 a6.8 6.8 0 1 0 13.6 0 a6.8 6.8 0 1 0 -13.6 0zM1843.66 1020.67 a6.8 6.8 0 1 0 13.6 0 a6.8 6.8 0 1 0 -13.6 0zM1902.55 1394.67 a6.8 6.8 0 1 0 13.6 0 a6.8 6.8 0 1 0 -13.6 0zM1961.45 1428.67 a6.8 6.8 0 1 0 13.6 0 a6.8 6.8 0 1 0 -13.6 0zM1961.45 1496.67 a6.8 6.8 0 1 0 13.6 0 a6.8 6.8 0 1 0 -13.6 0zM1843.66 1428.67 a6.8 6.8 0 1 0 13.6 0 a6.8 6.8 0 1 0 -13.6 0zM1902.55 1802.67 a6.8 6.8 0 1 0 13.6 0 a6.8 6.8 0 1 0 -13.6 0zM1961.45 1836.67 a6.8 6.8 0 1 0 13.6 0 a6.8 6.8 0 1 0 -13.6 0zM1961.45 1904.67 a6.8 6.8 0 1 0 13.6 0 a6.8 6.8 0 1 0 -13.6 0zM1843.66 1836.67 a6.8 6.8 0 1 0 13.6 0 a6.8 6.8 0 1 0 -13.6 0zM1902.55 2210.67 a6.8 6.8 0 1 0 13.6 0 a6.8 6.8 0 1 0 -13.6 0zM1961.45 2244.67 a6.8 6.8 0 1 0 13.6 0 a6.8 6.8 0 1 0 -13.6 0zM1961.45 2312.67 a6.8 6.8 0 1 0 13.6 0 a6.8 6.8 0 1 0 -13.6 0zM1843.66 2244.67 a6.8 6.8 0 1 0 13.6 0 a6.8 6.8 0 1 0 -13.6 0zM1961.45 2924.67 a6.8 6.8 0 1 0 13.6 0 a6.8 6.8 0 1 0 -13.6 0zM2020.34 2958.67 a6.8 6.8 0 1 0 13.6 0 a6.8 6.8 0 1 0 -13.6 0zM2020.34 3026.67 a6.8 6.8 0 1 0 13.6 0 a6.8 6.8 0 1 0 -13.6 0zM1961.45 3060.67 a6.8 6.8 0 1 0 13.6 0 a6.8 6.8 0 1 0 -13.6 0zM1961.45 3332.67 a6.8 6.8 0 1 0 13.6 0 a6.8 6.8 0 1 0 -13.6 0zM2020.34 3366.67 a6.8 6.8 0 1 0 13.6 0 a6.8 6.8 0 1 0 -13.6 0zM2020.34 3434.67 a6.8 6.8 0 1 0 13.6 0 a6.8 6.8 0 1 0 -13.6 0zM1961.45 3468.67 a6.8 6.8 0 1 0 13.6 0 a6.8 6.8 0 1 0 -13.6 0zM1902.55 3434.67 a6.8 6.8 0 1 0 13.6 0 a6.8 6.8 0 1 0 -13.6 0zM1902.55 3366.67 a6.8 6.8 0 1 0 13.6 0 a6.8 6.8 0 1 0 -13.6 0zM1961.45 3536.67 a6.8 6.8 0 1 0 13.6 0 a6.8 6.8 0 1 0 -13.6 0zM2020.34 3570.67 a6.8 6.8 0 1 0 13.6 0 a6.8 6.8 0 1 0 -13.6 0zM2020.34 3638.67 a6.8 6.8 0 1 0 13.6 0 a6.8 6.8 0 1 0 -13.6 0zM1961.45 3672.67 a6.8 6.8 0 1 0 13.6 0 a6.8 6.8 0 1 0 -13.6 0zM1902.55 3638.67 a6.8 6.8 0 1 0 13.6 0 a6.8 6.8 0 1 0 -13.6 0zM1902.55 3570.67 a6.8 6.8 0 1 0 13.6 0 a6.8 6.8 0 1 0 -13.6 0zM1961.45 3876.67 a6.8 6.8 0 1 0 13.6 0 a6.8 6.8 0 1 0 -13.6 0zM1961.45 3944.67 a6.8 6.8 0 1 0 13.6 0 a6.8 6.8 0 1 0 -13.6 0zM1902.55 3978.67 a6.8 6.8 0 1 0 13.6 0 a6.8 6.8 0 1 0 -13.6 0zM1843.66 3944.67 a6.8 6.8 0 1 0 13.6 0 a6.8 6.8 0 1 0 -13.6 0zM2020.34 3978.67 a6.8 6.8 0 1 0 13.6 0 a6.8 6.8 0 1 0 -13.6 0zM2020.34 4046.67 a6.8 6.8 0 1 0 13.6 0 a6.8 6.8 0 1 0 -13.6 0zM1961.45 4080.67 a6.8 6.8 0 1 0 13.6 0 a6.8 6.8 0 1 0 -13.6 0zM1902.55 4046.67 a6.8 6.8 0 1 0 13.6 0 a6.8 6.8 0 1 0 -13.6 0zM1961.45 4556.67 a6.8 6.8 0 1 0 13.6 0 a6.8 6.8 0 1 0 -13.6 0zM2020.34 4590.67 a6.8 6.8 0 1 0 13.6 0 a6.8 6.8 0 1 0 -13.6 0zM2020.34 4658.67 a6.8 6.8 0 1 0 13.6 0 a6.8 6.8 0 1 0 -13.6 0zM1961.45 4692.67 a6.8 6.8 0 1 0 13.6 0 a6.8 6.8 0 1 0 -13.6 0zM1902.55 4658.67 a6.8 6.8 0 1 0 13.6 0 a6.8 6.8 0 1 0 -13.6 0zM1902.55 4590.67 a6.8 6.8 0 1 0 13.6 0 a6.8 6.8 0 1 0 -13.6 0zM1902.55 5066.67 a6.8 6.8 0 1 0 13.6 0 a6.8 6.8 0 1 0 -13.6 0zM1961.45 5100.67 a6.8 6.8 0 1 0 13.6 0 a6.8 6.8 0 1 0 -13.6 0zM1961.45 5168.67 a6.8 6.8 0 1 0 13.6 0 a6.8 6.8 0 1 0 -13.6 0zM1902.55 5202.67 a6.8 6.8 0 1 0 13.6 0 a6.8 6.8 0 1 0 -13.6 0z" fill="#03305d"></path><path d="M52.06 -3.5L120.48 36L120.48 115L52.06 154.5L-16.36 115L-16.36 36zM52.06 470.5L120.48 510L120.48 589L52.06 628.5L-16.36 589L-16.36 510zM120.48 1300L188.9 1339.5L188.9 1418.5L120.48 1458L52.06 1418.5L52.06 1339.5zM120.48 1774L188.9 1813.5L188.9 1892.5L120.48 1932L52.06 1892.5L52.06 1813.5zM120.48 2011L188.9 2050.5L188.9 2129.5L120.48 2169L52.06 2129.5L52.06 2050.5zM52.06 4025.5L120.48 4065L120.48 4144L52.06 4183.5L-16.36 4144L-16.36 4065zM52.06 4262.5L120.48 4302L120.48 4381L52.06 4420.5L-16.36 4381L-16.36 4302zM52.06 4736.5L120.48 4776L120.48 4855L52.06 4894.5L-16.36 4855L-16.36 4776zM52.06 4973.5L120.48 5013L120.48 5092L52.06 5131.5L-16.36 5092L-16.36 5013zM120.48 5329L188.9 5368.5L188.9 5447.5L120.48 5487L52.06 5447.5L52.06 5368.5zM52.06 5447.5L120.48 5487L120.48 5566L52.06 5605.5L-16.36 5566L-16.36 5487zM52.06 5921.5L120.48 5961L120.48 6040L52.06 6079.5L-16.36 6040L-16.36 5961zM188.9 -3.5L257.31 36L257.31 115L188.9 154.5L120.48 115L120.48 36zM257.31 589L325.73 628.5L325.73 707.5L257.31 747L188.9 707.5L188.9 628.5zM188.9 707.5L257.31 747L257.31 826L188.9 865.5L120.48 826L120.48 747zM188.9 1418.5L257.31 1458L257.31 1537L188.9 1576.5L120.48 1537L120.48 1458zM257.31 1537L325.73 1576.5L325.73 1655.5L257.31 1695L188.9 1655.5L188.9 1576.5zM188.9 1655.5L257.31 1695L257.31 1774L188.9 1813.5L120.48 1774L120.48 1695zM257.31 1774L325.73 1813.5L325.73 1892.5L257.31 1932L188.9 1892.5L188.9 1813.5zM257.31 2248L325.73 2287.5L325.73 2366.5L257.31 2406L188.9 2366.5L188.9 2287.5zM188.9 3077.5L257.31 3117L257.31 3196L188.9 3235.5L120.48 3196L120.48 3117zM188.9 3314.5L257.31 3354L257.31 3433L188.9 3472.5L120.48 3433L120.48 3354zM257.31 3433L325.73 3472.5L325.73 3551.5L257.31 3591L188.9 3551.5L188.9 3472.5zM188.9 3788.5L257.31 3828L257.31 3907L188.9 3946.5L120.48 3907L120.48 3828zM257.31 4144L325.73 4183.5L325.73 4262.5L257.31 4302L188.9 4262.5L188.9 4183.5zM257.31 4618L325.73 4657.5L325.73 4736.5L257.31 4776L188.9 4736.5L188.9 4657.5zM257.31 5092L325.73 5131.5L325.73 5210.5L257.31 5250L188.9 5210.5L188.9 5131.5zM188.9 5210.5L257.31 5250L257.31 5329L188.9 5368.5L120.48 5329L120.48 5250zM188.9 5684.5L257.31 5724L257.31 5803L188.9 5842.5L120.48 5803L120.48 5724zM188.9 5921.5L257.31 5961L257.31 6040L188.9 6079.5L120.48 6040L120.48 5961zM325.73 -3.5L394.15 36L394.15 115L325.73 154.5L257.31 115L257.31 36zM325.73 1418.5L394.15 1458L394.15 1537L325.73 1576.5L257.31 1537L257.31 1458zM394.15 1537L462.57 1576.5L462.57 1655.5L394.15 1695L325.73 1655.5L325.73 1576.5zM394.15 2248L462.57 2287.5L462.57 2366.5L394.15 2406L325.73 2366.5L325.73 2287.5zM325.73 2603.5L394.15 2643L394.15 2722L325.73 2761.5L257.31 2722L257.31 2643zM325.73 3788.5L394.15 3828L394.15 3907L325.73 3946.5L257.31 3907L257.31 3828zM325.73 4499.5L394.15 4539L394.15 4618L325.73 4657.5L257.31 4618L257.31 4539zM394.15 5092L462.57 5131.5L462.57 5210.5L394.15 5250L325.73 5210.5L325.73 5131.5zM394.15 6040L462.57 6079.5L462.57 6158.5L394.15 6198L325.73 6158.5L325.73 6079.5zM530.99 1063L599.4 1102.5L599.4 1181.5L530.99 1221L462.57 1181.5L462.57 1102.5zM462.57 1181.5L530.99 1221L530.99 1300L462.57 1339.5L394.15 1300L394.15 1221zM462.57 1655.5L530.99 1695L530.99 1774L462.57 1813.5L394.15 1774L394.15 1695zM530.99 1774L599.4 1813.5L599.4 1892.5L530.99 1932L462.57 1892.5L462.57 1813.5zM462.57 2366.5L530.99 2406L530.99 2485L462.57 2524.5L394.15 2485L394.15 2406zM530.99 2722L599.4 2761.5L599.4 2840.5L530.99 2880L462.57 2840.5L462.57 2761.5zM462.57 3077.5L530.99 3117L530.99 3196L462.57 3235.5L394.15 3196L394.15 3117zM462.57 3788.5L530.99 3828L530.99 3907L462.57 3946.5L394.15 3907L394.15 3828zM462.57 4025.5L530.99 4065L530.99 4144L462.57 4183.5L394.15 4144L394.15 4065zM462.57 4262.5L530.99 4302L530.99 4381L462.57 4420.5L394.15 4381L394.15 4302zM530.99 4381L599.4 4420.5L599.4 4499.5L530.99 4539L462.57 4499.5L462.57 4420.5zM462.57 4499.5L530.99 4539L530.99 4618L462.57 4657.5L394.15 4618L394.15 4539zM530.99 4618L599.4 4657.5L599.4 4736.5L530.99 4776L462.57 4736.5L462.57 4657.5zM530.99 5092L599.4 5131.5L599.4 5210.5L530.99 5250L462.57 5210.5L462.57 5131.5zM530.99 5566L599.4 5605.5L599.4 5684.5L530.99 5724L462.57 5684.5L462.57 5605.5zM462.57 5921.5L530.99 5961L530.99 6040L462.57 6079.5L394.15 6040L394.15 5961zM530.99 6040L599.4 6079.5L599.4 6158.5L530.99 6198L462.57 6158.5L462.57 6079.5zM667.82 115L736.24 154.5L736.24 233.5L667.82 273L599.4 233.5L599.4 154.5zM667.82 589L736.24 628.5L736.24 707.5L667.82 747L599.4 707.5L599.4 628.5zM599.4 944.5L667.82 984L667.82 1063L599.4 1102.5L530.99 1063L530.99 984zM599.4 1418.5L667.82 1458L667.82 1537L599.4 1576.5L530.99 1537L530.99 1458zM667.82 1774L736.24 1813.5L736.24 1892.5L667.82 1932L599.4 1892.5L599.4 1813.5zM599.4 2129.5L667.82 2169L667.82 2248L599.4 2287.5L530.99 2248L530.99 2169zM599.4 2366.5L667.82 2406L667.82 2485L599.4 2524.5L530.99 2485L530.99 2406zM599.4 2840.5L667.82 2880L667.82 2959L599.4 2998.5L530.99 2959L530.99 2880zM667.82 3196L736.24 3235.5L736.24 3314.5L667.82 3354L599.4 3314.5L599.4 3235.5zM599.4 3314.5L667.82 3354L667.82 3433L599.4 3472.5L530.99 3433L530.99 3354zM667.82 3670L736.24 3709.5L736.24 3788.5L667.82 3828L599.4 3788.5L599.4 3709.5zM599.4 4262.5L667.82 4302L667.82 4381L599.4 4420.5L530.99 4381L530.99 4302zM667.82 5092L736.24 5131.5L736.24 5210.5L667.82 5250L599.4 5210.5L599.4 5131.5zM599.4 5210.5L667.82 5250L667.82 5329L599.4 5368.5L530.99 5329L530.99 5250zM736.24 233.5L804.66 273L804.66 352L736.24 391.5L667.82 352L667.82 273zM736.24 470.5L804.66 510L804.66 589L736.24 628.5L667.82 589L667.82 510zM736.24 707.5L804.66 747L804.66 826L736.24 865.5L667.82 826L667.82 747zM804.66 1063L873.08 1102.5L873.08 1181.5L804.66 1221L736.24 1181.5L736.24 1102.5zM736.24 1181.5L804.66 1221L804.66 1300L736.24 1339.5L667.82 1300L667.82 1221zM736.24 1892.5L804.66 1932L804.66 2011L736.24 2050.5L667.82 2011L667.82 1932zM736.24 2129.5L804.66 2169L804.66 2248L736.24 2287.5L667.82 2248L667.82 2169zM736.24 2840.5L804.66 2880L804.66 2959L736.24 2998.5L667.82 2959L667.82 2880zM804.66 3433L873.08 3472.5L873.08 3551.5L804.66 3591L736.24 3551.5L736.24 3472.5zM804.66 4144L873.08 4183.5L873.08 4262.5L804.66 4302L736.24 4262.5L736.24 4183.5zM736.24 4973.5L804.66 5013L804.66 5092L736.24 5131.5L667.82 5092L667.82 5013zM736.24 5210.5L804.66 5250L804.66 5329L736.24 5368.5L667.82 5329L667.82 5250zM804.66 5803L873.08 5842.5L873.08 5921.5L804.66 5961L736.24 5921.5L736.24 5842.5zM736.24 5921.5L804.66 5961L804.66 6040L736.24 6079.5L667.82 6040L667.82 5961zM804.66 6040L873.08 6079.5L873.08 6158.5L804.66 6198L736.24 6158.5L736.24 6079.5zM873.08 470.5L941.49 510L941.49 589L873.08 628.5L804.66 589L804.66 510zM873.08 944.5L941.49 984L941.49 1063L873.08 1102.5L804.66 1063L804.66 984zM941.49 1063L1009.91 1102.5L1009.91 1181.5L941.49 1221L873.08 1181.5L873.08 1102.5zM873.08 1418.5L941.49 1458L941.49 1537L873.08 1576.5L804.66 1537L804.66 1458zM941.49 1537L1009.91 1576.5L1009.91 1655.5L941.49 1695L873.08 1655.5L873.08 1576.5zM941.49 2248L1009.91 2287.5L1009.91 2366.5L941.49 2406L873.08 2366.5L873.08 2287.5zM873.08 2840.5L941.49 2880L941.49 2959L873.08 2998.5L804.66 2959L804.66 2880zM941.49 3433L1009.91 3472.5L1009.91 3551.5L941.49 3591L873.08 3551.5L873.08 3472.5zM873.08 3551.5L941.49 3591L941.49 3670L873.08 3709.5L804.66 3670L804.66 3591zM873.08 3788.5L941.49 3828L941.49 3907L873.08 3946.5L804.66 3907L804.66 3828zM873.08 4025.5L941.49 4065L941.49 4144L873.08 4183.5L804.66 4144L804.66 4065zM941.49 4144L1009.91 4183.5L1009.91 4262.5L941.49 4302L873.08 4262.5L873.08 4183.5zM941.49 4855L1009.91 4894.5L1009.91 4973.5L941.49 5013L873.08 4973.5L873.08 4894.5zM941.49 5329L1009.91 5368.5L1009.91 5447.5L941.49 5487L873.08 5447.5L873.08 5368.5zM873.08 5447.5L941.49 5487L941.49 5566L873.08 5605.5L804.66 5566L804.66 5487zM941.49 6040L1009.91 6079.5L1009.91 6158.5L941.49 6198L873.08 6158.5L873.08 6079.5zM1009.91 233.5L1078.33 273L1078.33 352L1009.91 391.5L941.49 352L941.49 273zM1078.33 589L1146.75 628.5L1146.75 707.5L1078.33 747L1009.91 707.5L1009.91 628.5zM1009.91 707.5L1078.33 747L1078.33 826L1009.91 865.5L941.49 826L941.49 747zM1078.33 1300L1146.75 1339.5L1146.75 1418.5L1078.33 1458L1009.91 1418.5L1009.91 1339.5zM1009.91 1655.5L1078.33 1695L1078.33 1774L1009.91 1813.5L941.49 1774L941.49 1695zM1009.91 1892.5L1078.33 1932L1078.33 2011L1009.91 2050.5L941.49 2011L941.49 1932zM1078.33 2011L1146.75 2050.5L1146.75 2129.5L1078.33 2169L1009.91 2129.5L1009.91 2050.5zM1009.91 2129.5L1078.33 2169L1078.33 2248L1009.91 2287.5L941.49 2248L941.49 2169zM1009.91 2366.5L1078.33 2406L1078.33 2485L1009.91 2524.5L941.49 2485L941.49 2406zM1009.91 3551.5L1078.33 3591L1078.33 3670L1009.91 3709.5L941.49 3670L941.49 3591zM1078.33 3670L1146.75 3709.5L1146.75 3788.5L1078.33 3828L1009.91 3788.5L1009.91 3709.5zM1009.91 3788.5L1078.33 3828L1078.33 3907L1009.91 3946.5L941.49 3907L941.49 3828zM1009.91 4262.5L1078.33 4302L1078.33 4381L1009.91 4420.5L941.49 4381L941.49 4302zM1078.33 4381L1146.75 4420.5L1146.75 4499.5L1078.33 4539L1009.91 4499.5L1009.91 4420.5zM1009.91 4499.5L1078.33 4539L1078.33 4618L1009.91 4657.5L941.49 4618L941.49 4539zM1009.91 5210.5L1078.33 5250L1078.33 5329L1009.91 5368.5L941.49 5329L941.49 5250zM1009.91 5447.5L1078.33 5487L1078.33 5566L1009.91 5605.5L941.49 5566L941.49 5487zM1009.91 5921.5L1078.33 5961L1078.33 6040L1009.91 6079.5L941.49 6040L941.49 5961zM1078.33 6040L1146.75 6079.5L1146.75 6158.5L1078.33 6198L1009.91 6158.5L1009.91 6079.5zM1146.75 -3.5L1215.17 36L1215.17 115L1146.75 154.5L1078.33 115L1078.33 36zM1146.75 470.5L1215.17 510L1215.17 589L1146.75 628.5L1078.33 589L1078.33 510zM1215.17 1063L1283.58 1102.5L1283.58 1181.5L1215.17 1221L1146.75 1181.5L1146.75 1102.5zM1146.75 1181.5L1215.17 1221L1215.17 1300L1146.75 1339.5L1078.33 1300L1078.33 1221zM1215.17 1300L1283.58 1339.5L1283.58 1418.5L1215.17 1458L1146.75 1418.5L1146.75 1339.5zM1215.17 1537L1283.58 1576.5L1283.58 1655.5L1215.17 1695L1146.75 1655.5L1146.75 1576.5zM1146.75 1655.5L1215.17 1695L1215.17 1774L1146.75 1813.5L1078.33 1774L1078.33 1695zM1215.17 1774L1283.58 1813.5L1283.58 1892.5L1215.17 1932L1146.75 1892.5L1146.75 1813.5zM1215.17 2011L1283.58 2050.5L1283.58 2129.5L1215.17 2169L1146.75 2129.5L1146.75 2050.5zM1146.75 2129.5L1215.17 2169L1215.17 2248L1146.75 2287.5L1078.33 2248L1078.33 2169zM1215.17 2722L1283.58 2761.5L1283.58 2840.5L1215.17 2880L1146.75 2840.5L1146.75 2761.5zM1215.17 2959L1283.58 2998.5L1283.58 3077.5L1215.17 3117L1146.75 3077.5L1146.75 2998.5zM1215.17 4144L1283.58 4183.5L1283.58 4262.5L1215.17 4302L1146.75 4262.5L1146.75 4183.5zM1146.75 4262.5L1215.17 4302L1215.17 4381L1146.75 4420.5L1078.33 4381L1078.33 4302zM1215.17 4381L1283.58 4420.5L1283.58 4499.5L1215.17 4539L1146.75 4499.5L1146.75 4420.5zM1215.17 4855L1283.58 4894.5L1283.58 4973.5L1215.17 5013L1146.75 4973.5L1146.75 4894.5zM1146.75 4973.5L1215.17 5013L1215.17 5092L1146.75 5131.5L1078.33 5092L1078.33 5013zM1215.17 5092L1283.58 5131.5L1283.58 5210.5L1215.17 5250L1146.75 5210.5L1146.75 5131.5zM1215.17 5329L1283.58 5368.5L1283.58 5447.5L1215.17 5487L1146.75 5447.5L1146.75 5368.5zM1146.75 5684.5L1215.17 5724L1215.17 5803L1146.75 5842.5L1078.33 5803L1078.33 5724zM1215.17 5803L1283.58 5842.5L1283.58 5921.5L1215.17 5961L1146.75 5921.5L1146.75 5842.5zM1283.58 -3.5L1352 36L1352 115L1283.58 154.5L1215.17 115L1215.17 36zM1352 115L1420.42 154.5L1420.42 233.5L1352 273L1283.58 233.5L1283.58 154.5zM1283.58 233.5L1352 273L1352 352L1283.58 391.5L1215.17 352L1215.17 273zM1352 589L1420.42 628.5L1420.42 707.5L1352 747L1283.58 707.5L1283.58 628.5zM1283.58 944.5L1352 984L1352 1063L1283.58 1102.5L1215.17 1063L1215.17 984zM1283.58 1181.5L1352 1221L1352 1300L1283.58 1339.5L1215.17 1300L1215.17 1221zM1283.58 1418.5L1352 1458L1352 1537L1283.58 1576.5L1215.17 1537L1215.17 1458zM1352 2011L1420.42 2050.5L1420.42 2129.5L1352 2169L1283.58 2129.5L1283.58 2050.5zM1352 3196L1420.42 3235.5L1420.42 3314.5L1352 3354L1283.58 3314.5L1283.58 3235.5zM1283.58 3551.5L1352 3591L1352 3670L1283.58 3709.5L1215.17 3670L1215.17 3591zM1352 3670L1420.42 3709.5L1420.42 3788.5L1352 3828L1283.58 3788.5L1283.58 3709.5zM1352 3907L1420.42 3946.5L1420.42 4025.5L1352 4065L1283.58 4025.5L1283.58 3946.5zM1283.58 4499.5L1352 4539L1352 4618L1283.58 4657.5L1215.17 4618L1215.17 4539zM1283.58 4736.5L1352 4776L1352 4855L1283.58 4894.5L1215.17 4855L1215.17 4776zM1283.58 4973.5L1352 5013L1352 5092L1283.58 5131.5L1215.17 5092L1215.17 5013zM1352 5092L1420.42 5131.5L1420.42 5210.5L1352 5250L1283.58 5210.5L1283.58 5131.5zM1283.58 5210.5L1352 5250L1352 5329L1283.58 5368.5L1215.17 5329L1215.17 5250zM1352 5329L1420.42 5368.5L1420.42 5447.5L1352 5487L1283.58 5447.5L1283.58 5368.5zM1283.58 5447.5L1352 5487L1352 5566L1283.58 5605.5L1215.17 5566L1215.17 5487zM1352 5803L1420.42 5842.5L1420.42 5921.5L1352 5961L1283.58 5921.5L1283.58 5842.5zM1488.84 115L1557.25 154.5L1557.25 233.5L1488.84 273L1420.42 233.5L1420.42 154.5zM1488.84 352L1557.25 391.5L1557.25 470.5L1488.84 510L1420.42 470.5L1420.42 391.5zM1420.42 470.5L1488.84 510L1488.84 589L1420.42 628.5L1352 589L1352 510zM1420.42 707.5L1488.84 747L1488.84 826L1420.42 865.5L1352 826L1352 747zM1488.84 826L1557.25 865.5L1557.25 944.5L1488.84 984L1420.42 944.5L1420.42 865.5zM1488.84 1063L1557.25 1102.5L1557.25 1181.5L1488.84 1221L1420.42 1181.5L1420.42 1102.5zM1420.42 1418.5L1488.84 1458L1488.84 1537L1420.42 1576.5L1352 1537L1352 1458zM1488.84 1537L1557.25 1576.5L1557.25 1655.5L1488.84 1695L1420.42 1655.5L1420.42 1576.5zM1420.42 1655.5L1488.84 1695L1488.84 1774L1420.42 1813.5L1352 1774L1352 1695zM1488.84 1774L1557.25 1813.5L1557.25 1892.5L1488.84 1932L1420.42 1892.5L1420.42 1813.5zM1488.84 2485L1557.25 2524.5L1557.25 2603.5L1488.84 2643L1420.42 2603.5L1420.42 2524.5zM1420.42 2603.5L1488.84 2643L1488.84 2722L1420.42 2761.5L1352 2722L1352 2643zM1488.84 2959L1557.25 2998.5L1557.25 3077.5L1488.84 3117L1420.42 3077.5L1420.42 2998.5zM1488.84 3196L1557.25 3235.5L1557.25 3314.5L1488.84 3354L1420.42 3314.5L1420.42 3235.5zM1488.84 3433L1557.25 3472.5L1557.25 3551.5L1488.84 3591L1420.42 3551.5L1420.42 3472.5zM1488.84 4144L1557.25 4183.5L1557.25 4262.5L1488.84 4302L1420.42 4262.5L1420.42 4183.5zM1420.42 5210.5L1488.84 5250L1488.84 5329L1420.42 5368.5L1352 5329L1352 5250zM1420.42 5447.5L1488.84 5487L1488.84 5566L1420.42 5605.5L1352 5566L1352 5487zM1420.42 5684.5L1488.84 5724L1488.84 5803L1420.42 5842.5L1352 5803L1352 5724zM1420.42 5921.5L1488.84 5961L1488.84 6040L1420.42 6079.5L1352 6040L1352 5961zM1488.84 6040L1557.25 6079.5L1557.25 6158.5L1488.84 6198L1420.42 6158.5L1420.42 6079.5zM1625.67 115L1694.09 154.5L1694.09 233.5L1625.67 273L1557.25 233.5L1557.25 154.5zM1557.25 707.5L1625.67 747L1625.67 826L1557.25 865.5L1488.84 826L1488.84 747zM1625.67 1537L1694.09 1576.5L1694.09 1655.5L1625.67 1695L1557.25 1655.5L1557.25 1576.5zM1557.25 1892.5L1625.67 1932L1625.67 2011L1557.25 2050.5L1488.84 2011L1488.84 1932zM1625.67 2248L1694.09 2287.5L1694.09 2366.5L1625.67 2406L1557.25 2366.5L1557.25 2287.5zM1625.67 2485L1694.09 2524.5L1694.09 2603.5L1625.67 2643L1557.25 2603.5L1557.25 2524.5zM1557.25 2840.5L1625.67 2880L1625.67 2959L1557.25 2998.5L1488.84 2959L1488.84 2880zM1557.25 3077.5L1625.67 3117L1625.67 3196L1557.25 3235.5L1488.84 3196L1488.84 3117zM1557.25 3314.5L1625.67 3354L1625.67 3433L1557.25 3472.5L1488.84 3433L1488.84 3354zM1557.25 3551.5L1625.67 3591L1625.67 3670L1557.25 3709.5L1488.84 3670L1488.84 3591zM1557.25 3788.5L1625.67 3828L1625.67 3907L1557.25 3946.5L1488.84 3907L1488.84 3828zM1557.25 4025.5L1625.67 4065L1625.67 4144L1557.25 4183.5L1488.84 4144L1488.84 4065zM1625.67 4144L1694.09 4183.5L1694.09 4262.5L1625.67 4302L1557.25 4262.5L1557.25 4183.5zM1625.67 4618L1694.09 4657.5L1694.09 4736.5L1625.67 4776L1557.25 4736.5L1557.25 4657.5zM1625.67 4855L1694.09 4894.5L1694.09 4973.5L1625.67 5013L1557.25 4973.5L1557.25 4894.5zM1557.25 5447.5L1625.67 5487L1625.67 5566L1557.25 5605.5L1488.84 5566L1488.84 5487zM1625.67 5803L1694.09 5842.5L1694.09 5921.5L1625.67 5961L1557.25 5921.5L1557.25 5842.5zM1762.51 352L1830.93 391.5L1830.93 470.5L1762.51 510L1694.09 470.5L1694.09 391.5zM1694.09 707.5L1762.51 747L1762.51 826L1694.09 865.5L1625.67 826L1625.67 747zM1762.51 1300L1830.93 1339.5L1830.93 1418.5L1762.51 1458L1694.09 1418.5L1694.09 1339.5zM1762.51 2485L1830.93 2524.5L1830.93 2603.5L1762.51 2643L1694.09 2603.5L1694.09 2524.5zM1694.09 3077.5L1762.51 3117L1762.51 3196L1694.09 3235.5L1625.67 3196L1625.67 3117zM1762.51 3196L1830.93 3235.5L1830.93 3314.5L1762.51 3354L1694.09 3314.5L1694.09 3235.5zM1694.09 4025.5L1762.51 4065L1762.51 4144L1694.09 4183.5L1625.67 4144L1625.67 4065zM1762.51 4144L1830.93 4183.5L1830.93 4262.5L1762.51 4302L1694.09 4262.5L1694.09 4183.5zM1694.09 4262.5L1762.51 4302L1762.51 4381L1694.09 4420.5L1625.67 4381L1625.67 4302zM1694.09 4499.5L1762.51 4539L1762.51 4618L1694.09 4657.5L1625.67 4618L1625.67 4539zM1762.51 4618L1830.93 4657.5L1830.93 4736.5L1762.51 4776L1694.09 4736.5L1694.09 4657.5zM1762.51 5092L1830.93 5131.5L1830.93 5210.5L1762.51 5250L1694.09 5210.5L1694.09 5131.5zM1762.51 5329L1830.93 5368.5L1830.93 5447.5L1762.51 5487L1694.09 5447.5L1694.09 5368.5zM1830.93 233.5L1899.34 273L1899.34 352L1830.93 391.5L1762.51 352L1762.51 273zM1830.93 944.5L1899.34 984L1899.34 1063L1830.93 1102.5L1762.51 1063L1762.51 984zM1830.93 1418.5L1899.34 1458L1899.34 1537L1830.93 1576.5L1762.51 1537L1762.51 1458zM1899.34 1774L1967.76 1813.5L1967.76 1892.5L1899.34 1932L1830.93 1892.5L1830.93 1813.5zM1899.34 2485L1967.76 2524.5L1967.76 2603.5L1899.34 2643L1830.93 2603.5L1830.93 2524.5zM1899.34 2722L1967.76 2761.5L1967.76 2840.5L1899.34 2880L1830.93 2840.5L1830.93 2761.5zM1830.93 2840.5L1899.34 2880L1899.34 2959L1830.93 2998.5L1762.51 2959L1762.51 2880zM1899.34 2959L1967.76 2998.5L1967.76 3077.5L1899.34 3117L1830.93 3077.5L1830.93 2998.5zM1899.34 3907L1967.76 3946.5L1967.76 4025.5L1899.34 4065L1830.93 4025.5L1830.93 3946.5zM1830.93 4262.5L1899.34 4302L1899.34 4381L1830.93 4420.5L1762.51 4381L1762.51 4302zM1967.76 233.5L2036.18 273L2036.18 352L1967.76 391.5L1899.34 352L1899.34 273zM1967.76 470.5L2036.18 510L2036.18 589L1967.76 628.5L1899.34 589L1899.34 510zM1967.76 707.5L2036.18 747L2036.18 826L1967.76 865.5L1899.34 826L1899.34 747zM2036.18 2248L2104.6 2287.5L2104.6 2366.5L2036.18 2406L1967.76 2366.5L1967.76 2287.5zM2036.18 3433L2104.6 3472.5L2104.6 3551.5L2036.18 3591L1967.76 3551.5L1967.76 3472.5zM1967.76 4025.5L2036.18 4065L2036.18 4144L1967.76 4183.5L1899.34 4144L1899.34 4065zM2036.18 4381L2104.6 4420.5L2104.6 4499.5L2036.18 4539L1967.76 4499.5L1967.76 4420.5zM2036.18 5329L2104.6 5368.5L2104.6 5447.5L2036.18 5487L1967.76 5447.5L1967.76 5368.5zM2036.18 5803L2104.6 5842.5L2104.6 5921.5L2036.18 5961L1967.76 5921.5L1967.76 5842.5z" stroke="rgba(98, 0, 238, 1)" stroke-width="2"></path></g><defs><mask id="SvgjsMask1371"><rect width="2000" height="6000" fill="#ffffff"></rect></mask></defs></svg>