<svg xmlns="http://www.w3.org/2000/svg" version="1.1" xmlns:xlink="http://www.w3.org/1999/xlink" xmlns:svgjs="http://svgjs.com/svgjs" width="100%" preserveAspectRatio="xMinYMin slice"><g mask="url(&quot;#SvgjsMask1014&quot;)" fill="none"><rect width="2000" height="4000" x="0" y="0" fill="rgba(255, 255, 255, 1)"></rect><path d="M2055.914,1696.194C2236.419,1697.539,2431.501,1640.224,2511.921,1478.618C2587.156,1327.432,2478.601,1166.27,2391.665,1021.496C2308.575,883.126,2216.997,729.358,2055.914,719.228C1881.401,708.253,1726.98,823.533,1638.081,974.106C1547.533,1127.472,1522.327,1317.755,1611.527,1471.908C1700.596,1625.835,1878.08,1694.869,2055.914,1696.194" fill="rgba(98, 0, 238, 0.43)" class="triangle-float3"></path><path d="M973.22 1166.5 a423 423 0 1 0 846 0 a423 423 0 1 0 -846 0z" fill="rgba(98, 0, 238, 0.43)" class="triangle-float2"></path><path d="M16.34 2348.7 a542.72 542.72 0 1 0 1085.44 0 a542.72 542.72 0 1 0 -1085.44 0z" fill="rgba(98, 0, 238, 0.43)" class="triangle-float3"></path><path d="M1220.49 3427.91 a563.64 563.64 0 1 0 1127.28 0 a563.64 563.64 0 1 0 -1127.28 0z" fill="rgba(98, 0, 238, 0.43)" class="triangle-float3"></path><path d="M-119.57 772.86 a337.59 337.59 0 1 0 675.18 0 a337.59 337.59 0 1 0 -675.18 0z" fill="rgba(98, 0, 238, 0.43)" class="triangle-float2"></path><path d="M1172.2206291448922 263.36640447913516L676.1501670846656 211.22729792640433 624.0110605319347 707.297759986631 1120.0815225921615 759.4368665393617z" fill="rgba(98, 0, 238, 0.43)" class="triangle-float2"></path></g><defs><mask id="SvgjsMask1014"><rect width="2000" height="4000" fill="#ffffff"></rect></mask><style>
            @keyframes float1 {
                0%{transform: translate(0, 0)}
                50%{transform: translate(-10px, 0)}
                100%{transform: translate(0, 0)}
            }

            .triangle-float1 {
                animation: float1 5s infinite;
            }

            @keyframes float2 {
                0%{transform: translate(0, 0)}
                50%{transform: translate(-5px, -5px)}
                100%{transform: translate(0, 0)}
            }

            .triangle-float2 {
                animation: float2 4s infinite;
            }

            @keyframes float3 {
                0%{transform: translate(0, 0)}
                50%{transform: translate(0, -10px)}
                100%{transform: translate(0, 0)}
            }

            .triangle-float3 {
                animation: float3 6s infinite;
            }
        </style></defs></svg>