<svg xmlns="http://www.w3.org/2000/svg" version="1.1" xmlns:xlink="http://www.w3.org/1999/xlink" xmlns:svgjs="http://svgjs.com/svgjs" width="100%" preserveAspectRatio="xMinYMin slice"><g mask="url(&quot;#SvgjsMask1017&quot;)" fill="none"><rect width="2000" height="4000" x="0" y="0" fill="rgba(255, 255, 255, 1)"></rect><path d="M114.16 1954.63 a57.46 57.46 0 1 0 114.92 0 a57.46 57.46 0 1 0 -114.92 0z" stroke="rgba(50, 19, 37, 1)"></path><path d="M438.15 1277.49 a27.93 27.93 0 1 0 55.86 0 a27.93 27.93 0 1 0 -55.86 0z" fill="rgba(217, 30, 54, 1)"></path><path d="M1440.88 632.48 a89.32 89.32 0 1 0 178.64 0 a89.32 89.32 0 1 0 -178.64 0z" stroke="rgba(79, 124, 172, 1)"></path><path d="M1579.75 714.15 a189.19 189.19 0 1 0 378.38 0 a189.19 189.19 0 1 0 -378.38 0z" stroke="rgba(95, 15, 64, 1)"></path><path d="M563.65 472.92L724.89 472.92L724.89 634.16L563.65 634.16z" fill="rgba(79, 124, 172, 1)"></path><path d="M629.01 2870.5 a13.9 13.9 0 1 0 27.8 0 a13.9 13.9 0 1 0 -27.8 0z" stroke="rgba(50, 19, 37, 1)"></path><path d="M88.91 411.53 a5.18 5.18 0 1 0 10.36 0 a5.18 5.18 0 1 0 -10.36 0z" stroke="rgba(217, 30, 54, 1)"></path><path d="M307.91 1758.59 a197.18 197.18 0 1 0 394.36 0 a197.18 197.18 0 1 0 -394.36 0z" fill="rgba(217, 30, 54, 1)"></path><path d="M1585.42 1947.99 a21.22 21.22 0 1 0 42.44 0 a21.22 21.22 0 1 0 -42.44 0z" stroke="rgba(192, 224, 222, 1)"></path><path d="M1753.95 1320.55L1858.47 1320.55L1858.47 1425.07L1753.95 1425.07z" stroke="rgba(50, 19, 37, 1)"></path><path d="M2019.1 2937.93a144.92 144.92 0 1 0-167.82-236.31z" fill="rgba(192, 224, 222, 1)"></path><path d="M613.65 1651.38L698.26 1651.38L698.26 1735.99L613.65 1735.99z" fill="rgba(217, 30, 54, 1)"></path><path d="M655.66 2188.75a24.96 24.96 0 1 0 22.43 44.6z" fill="rgba(95, 15, 64, 1)"></path><path d="M613.68 1101.79 a14.14 14.14 0 1 0 28.28 0 a14.14 14.14 0 1 0 -28.28 0z" stroke="rgba(50, 19, 37, 1)"></path><path d="M929.91 3287.63 a26.59 26.59 0 1 0 53.18 0 a26.59 26.59 0 1 0 -53.18 0z" stroke="rgba(192, 224, 222, 1)"></path><path d="M1816.12 1568.15a36.76 36.76 0 1 0 59.31-43.44z" fill="rgba(217, 30, 54, 1)"></path><path d="M1915.48 891.04a110.96 110.96 0 1 0 14.61-221.44z" fill="rgba(50, 19, 37, 1)"></path><path d="M1379.39 284.9L1500.02 284.9L1500.02 405.53L1379.39 405.53z" fill="rgba(217, 30, 54, 1)"></path><path d="M1051.56 3313.47L1078 3313.47L1078 3339.91L1051.56 3339.91z" stroke="rgba(95, 15, 64, 1)"></path><path d="M1420.59 62.16 a9.47 9.47 0 1 0 18.94 0 a9.47 9.47 0 1 0 -18.94 0z" stroke="rgba(95, 15, 64, 1)"></path><path d="M152.07 1723.87a180.43 180.43 0 1 0-126.9 337.81z" stroke="rgba(79, 124, 172, 1)"></path><path d="M1659.15 1941.37a183.4 183.4 0 1 0 283.98 232.16z" stroke="rgba(50, 19, 37, 1)"></path><path d="M1167.8 3991.47L1258.71 3991.47L1258.71 4082.38L1167.8 4082.38z" fill="rgba(192, 224, 222, 1)"></path><path d="M960.4 3410.88a50.03 50.03 0 1 0 36.51-93.16z" fill="rgba(50, 19, 37, 1)"></path><path d="M904.25 148.46L931.9 148.46L931.9 176.11L904.25 176.11z" stroke="rgba(192, 224, 222, 1)"></path></g><defs><mask id="SvgjsMask1017"><rect width="2000" height="4000" fill="#ffffff"></rect></mask></defs></svg>