<svg xmlns="http://www.w3.org/2000/svg" version="1.1" xmlns:xlink="http://www.w3.org/1999/xlink" xmlns:svgjs="http://svgjs.com/svgjs" width="100%" preserveAspectRatio="xMinYMin slice"><g mask="url(&quot;#SvgjsMask1010&quot;)" fill="none"><rect width="2000" height="3000" x="0" y="0" fill="rgba(255, 255, 255, 1)"></rect><path d="M81.15 328.48L146.11 365.98L146.11 440.98L81.15 478.48L16.2 440.98L16.2 365.98zM16.2 440.98L81.15 478.48L81.15 553.48L16.2 590.98L-48.75 553.48L-48.75 478.48zM81.15 553.48L146.11 590.98L146.11 665.98L81.15 703.48L16.2 665.98L16.2 590.98zM16.2 665.98L81.15 703.48L81.15 778.48L16.2 815.98L-48.75 778.48L-48.75 703.48zM81.15 778.48L146.11 815.98L146.11 890.98L81.15 928.48L16.2 890.98L16.2 815.98zM16.2 890.98L81.15 928.48L81.15 1003.48L16.2 1040.98L-48.75 1003.48L-48.75 928.48zM16.2 1340.98L81.15 1378.48L81.15 1453.48L16.2 1490.98L-48.75 1453.48L-48.75 1378.48zM16.2 1565.98L81.15 1603.48L81.15 1678.48L16.2 1715.98L-48.75 1678.48L-48.75 1603.48zM16.2 1790.98L81.15 1828.48L81.15 1903.48L16.2 1940.98L-48.75 1903.48L-48.75 1828.48zM81.15 2353.48L146.11 2390.98L146.11 2465.98L81.15 2503.48L16.2 2465.98L16.2 2390.98zM16.2 2465.98L81.15 2503.48L81.15 2578.48L16.2 2615.98L-48.75 2578.48L-48.75 2503.48zM81.15 2578.48L146.11 2615.98L146.11 2690.98L81.15 2728.48L16.2 2690.98L16.2 2615.98zM81.15 2803.48L146.11 2840.98L146.11 2915.98L81.15 2953.48L16.2 2915.98L16.2 2840.98zM81.15 3028.48L146.11 3065.98L146.11 3140.98L81.15 3178.48L16.2 3140.98L16.2 3065.98zM211.06 328.48L276.01 365.98L276.01 440.98L211.06 478.48L146.11 440.98L146.11 365.98zM146.11 440.98L211.06 478.48L211.06 553.48L146.11 590.98L81.15 553.48L81.15 478.48zM211.06 553.48L276.01 590.98L276.01 665.98L211.06 703.48L146.11 665.98L146.11 590.98zM146.11 665.98L211.06 703.48L211.06 778.48L146.11 815.98L81.15 778.48L81.15 703.48zM211.06 1003.48L276.01 1040.98L276.01 1115.98L211.06 1153.48L146.11 1115.98L146.11 1040.98zM146.11 1115.98L211.06 1153.48L211.06 1228.48L146.11 1265.98L81.15 1228.48L81.15 1153.48zM211.06 1228.48L276.01 1265.98L276.01 1340.98L211.06 1378.48L146.11 1340.98L146.11 1265.98zM211.06 1453.48L276.01 1490.98L276.01 1565.98L211.06 1603.48L146.11 1565.98L146.11 1490.98zM211.06 1903.48L276.01 1940.98L276.01 2015.98L211.06 2053.48L146.11 2015.98L146.11 1940.98zM211.06 2128.48L276.01 2165.98L276.01 2240.98L211.06 2278.48L146.11 2240.98L146.11 2165.98zM146.11 2240.98L211.06 2278.48L211.06 2353.48L146.11 2390.98L81.15 2353.48L81.15 2278.48zM211.06 2353.48L276.01 2390.98L276.01 2465.98L211.06 2503.48L146.11 2465.98L146.11 2390.98zM146.11 2690.98L211.06 2728.48L211.06 2803.48L146.11 2840.98L81.15 2803.48L81.15 2728.48zM340.97 328.48L405.92 365.98L405.92 440.98L340.97 478.48L276.01 440.98L276.01 365.98zM276.01 440.98L340.97 478.48L340.97 553.48L276.01 590.98L211.06 553.48L211.06 478.48zM276.01 665.98L340.97 703.48L340.97 778.48L276.01 815.98L211.06 778.48L211.06 703.48zM340.97 778.48L405.92 815.98L405.92 890.98L340.97 928.48L276.01 890.98L276.01 815.98zM276.01 890.98L340.97 928.48L340.97 1003.48L276.01 1040.98L211.06 1003.48L211.06 928.48zM340.97 1228.48L405.92 1265.98L405.92 1340.98L340.97 1378.48L276.01 1340.98L276.01 1265.98zM340.97 1453.48L405.92 1490.98L405.92 1565.98L340.97 1603.48L276.01 1565.98L276.01 1490.98zM340.97 2353.48L405.92 2390.98L405.92 2465.98L340.97 2503.48L276.01 2465.98L276.01 2390.98zM276.01 2465.98L340.97 2503.48L340.97 2578.48L276.01 2615.98L211.06 2578.48L211.06 2503.48zM340.97 2578.48L405.92 2615.98L405.92 2690.98L340.97 2728.48L276.01 2690.98L276.01 2615.98zM340.97 2803.48L405.92 2840.98L405.92 2915.98L340.97 2953.48L276.01 2915.98L276.01 2840.98zM405.92 -9.02L470.88 28.48L470.88 103.48L405.92 140.98L340.97 103.48L340.97 28.48zM470.88 103.48L535.83 140.98L535.83 215.98L470.88 253.48L405.92 215.98L405.92 140.98zM470.88 328.48L535.83 365.98L535.83 440.98L470.88 478.48L405.92 440.98L405.92 365.98zM405.92 440.98L470.88 478.48L470.88 553.48L405.92 590.98L340.97 553.48L340.97 478.48zM470.88 778.48L535.83 815.98L535.83 890.98L470.88 928.48L405.92 890.98L405.92 815.98zM470.88 1228.48L535.83 1265.98L535.83 1340.98L470.88 1378.48L405.92 1340.98L405.92 1265.98zM470.88 1453.48L535.83 1490.98L535.83 1565.98L470.88 1603.48L405.92 1565.98L405.92 1490.98zM405.92 1565.98L470.88 1603.48L470.88 1678.48L405.92 1715.98L340.97 1678.48L340.97 1603.48zM470.88 1678.48L535.83 1715.98L535.83 1790.98L470.88 1828.48L405.92 1790.98L405.92 1715.98zM405.92 1790.98L470.88 1828.48L470.88 1903.48L405.92 1940.98L340.97 1903.48L340.97 1828.48zM470.88 1903.48L535.83 1940.98L535.83 2015.98L470.88 2053.48L405.92 2015.98L405.92 1940.98zM405.92 2015.98L470.88 2053.48L470.88 2128.48L405.92 2165.98L340.97 2128.48L340.97 2053.48zM470.88 2578.48L535.83 2615.98L535.83 2690.98L470.88 2728.48L405.92 2690.98L405.92 2615.98zM405.92 2690.98L470.88 2728.48L470.88 2803.48L405.92 2840.98L340.97 2803.48L340.97 2728.48zM470.88 2803.48L535.83 2840.98L535.83 2915.98L470.88 2953.48L405.92 2915.98L405.92 2840.98zM405.92 2915.98L470.88 2953.48L470.88 3028.48L405.92 3065.98L340.97 3028.48L340.97 2953.48zM600.78 103.48L665.74 140.98L665.74 215.98L600.78 253.48L535.83 215.98L535.83 140.98zM600.78 328.48L665.74 365.98L665.74 440.98L600.78 478.48L535.83 440.98L535.83 365.98zM535.83 440.98L600.78 478.48L600.78 553.48L535.83 590.98L470.88 553.48L470.88 478.48zM600.78 778.48L665.74 815.98L665.74 890.98L600.78 928.48L535.83 890.98L535.83 815.98zM600.78 1228.48L665.74 1265.98L665.74 1340.98L600.78 1378.48L535.83 1340.98L535.83 1265.98zM600.78 1453.48L665.74 1490.98L665.74 1565.98L600.78 1603.48L535.83 1565.98L535.83 1490.98zM600.78 1678.48L665.74 1715.98L665.74 1790.98L600.78 1828.48L535.83 1790.98L535.83 1715.98zM535.83 1790.98L600.78 1828.48L600.78 1903.48L535.83 1940.98L470.88 1903.48L470.88 1828.48zM600.78 1903.48L665.74 1940.98L665.74 2015.98L600.78 2053.48L535.83 2015.98L535.83 1940.98zM600.78 2128.48L665.74 2165.98L665.74 2240.98L600.78 2278.48L535.83 2240.98L535.83 2165.98zM600.78 2353.48L665.74 2390.98L665.74 2465.98L600.78 2503.48L535.83 2465.98L535.83 2390.98zM535.83 2915.98L600.78 2953.48L600.78 3028.48L535.83 3065.98L470.88 3028.48L470.88 2953.48zM665.74 1115.98L730.69 1153.48L730.69 1228.48L665.74 1265.98L600.78 1228.48L600.78 1153.48zM665.74 1340.98L730.69 1378.48L730.69 1453.48L665.74 1490.98L600.78 1453.48L600.78 1378.48zM665.74 1790.98L730.69 1828.48L730.69 1903.48L665.74 1940.98L600.78 1903.48L600.78 1828.48zM730.69 2128.48L795.65 2165.98L795.65 2240.98L730.69 2278.48L665.74 2240.98L665.74 2165.98zM665.74 2465.98L730.69 2503.48L730.69 2578.48L665.74 2615.98L600.78 2578.48L600.78 2503.48zM730.69 2578.48L795.65 2615.98L795.65 2690.98L730.69 2728.48L665.74 2690.98L665.74 2615.98zM665.74 2690.98L730.69 2728.48L730.69 2803.48L665.74 2840.98L600.78 2803.48L600.78 2728.48zM665.74 2915.98L730.69 2953.48L730.69 3028.48L665.74 3065.98L600.78 3028.48L600.78 2953.48zM730.69 3028.48L795.65 3065.98L795.65 3140.98L730.69 3178.48L665.74 3140.98L665.74 3065.98zM795.64 -9.02L860.6 28.48L860.6 103.48L795.64 140.98L730.69 103.48L730.69 28.48zM795.64 215.98L860.6 253.48L860.6 328.48L795.64 365.98L730.69 328.48L730.69 253.48zM860.6 328.48L925.55 365.98L925.55 440.98L860.6 478.48L795.64 440.98L795.64 365.98zM795.64 440.98L860.6 478.48L860.6 553.48L795.64 590.98L730.69 553.48L730.69 478.48zM795.64 890.98L860.6 928.48L860.6 1003.48L795.64 1040.98L730.69 1003.48L730.69 928.48zM860.6 1003.48L925.55 1040.98L925.55 1115.98L860.6 1153.48L795.64 1115.98L795.64 1040.98zM795.64 1340.98L860.6 1378.48L860.6 1453.48L795.64 1490.98L730.69 1453.48L730.69 1378.48zM795.64 2240.98L860.6 2278.48L860.6 2353.48L795.64 2390.98L730.69 2353.48L730.69 2278.48zM795.64 2465.98L860.6 2503.48L860.6 2578.48L795.64 2615.98L730.69 2578.48L730.69 2503.48zM860.6 2578.48L925.55 2615.98L925.55 2690.98L860.6 2728.48L795.64 2690.98L795.64 2615.98zM795.64 2690.98L860.6 2728.48L860.6 2803.48L795.64 2840.98L730.69 2803.48L730.69 2728.48zM925.55 -9.02L990.51 28.48L990.51 103.48L925.55 140.98L860.6 103.48L860.6 28.48zM925.55 215.98L990.51 253.48L990.51 328.48L925.55 365.98L860.6 328.48L860.6 253.48zM990.51 778.48L1055.46 815.98L1055.46 890.98L990.51 928.48L925.55 890.98L925.55 815.98zM925.55 890.98L990.51 928.48L990.51 1003.48L925.55 1040.98L860.6 1003.48L860.6 928.48zM990.51 1228.48L1055.46 1265.98L1055.46 1340.98L990.51 1378.48L925.55 1340.98L925.55 1265.98zM990.51 1453.48L1055.46 1490.98L1055.46 1565.98L990.51 1603.48L925.55 1565.98L925.55 1490.98zM925.55 1565.98L990.51 1603.48L990.51 1678.48L925.55 1715.98L860.6 1678.48L860.6 1603.48zM925.55 2015.98L990.51 2053.48L990.51 2128.48L925.55 2165.98L860.6 2128.48L860.6 2053.48zM925.55 2240.98L990.51 2278.48L990.51 2353.48L925.55 2390.98L860.6 2353.48L860.6 2278.48zM925.55 2465.98L990.51 2503.48L990.51 2578.48L925.55 2615.98L860.6 2578.48L860.6 2503.48zM990.51 2578.48L1055.46 2615.98L1055.46 2690.98L990.51 2728.48L925.55 2690.98L925.55 2615.98zM925.55 2915.98L990.51 2953.48L990.51 3028.48L925.55 3065.98L860.6 3028.48L860.6 2953.48zM1055.46 440.98L1120.41 478.48L1120.41 553.48L1055.46 590.98L990.51 553.48L990.51 478.48zM1055.46 665.98L1120.41 703.48L1120.41 778.48L1055.46 815.98L990.51 778.48L990.51 703.48zM1055.46 890.98L1120.41 928.48L1120.41 1003.48L1055.46 1040.98L990.51 1003.48L990.51 928.48zM1120.41 1003.48L1185.37 1040.98L1185.37 1115.98L1120.41 1153.48L1055.46 1115.98L1055.46 1040.98zM1055.46 1340.98L1120.41 1378.48L1120.41 1453.48L1055.46 1490.98L990.51 1453.48L990.51 1378.48zM1055.46 1565.98L1120.41 1603.48L1120.41 1678.48L1055.46 1715.98L990.51 1678.48L990.51 1603.48zM1120.41 1678.48L1185.37 1715.98L1185.37 1790.98L1120.41 1828.48L1055.46 1790.98L1055.46 1715.98zM1120.41 1903.48L1185.37 1940.98L1185.37 2015.98L1120.41 2053.48L1055.46 2015.98L1055.46 1940.98zM1120.41 2353.48L1185.37 2390.98L1185.37 2465.98L1120.41 2503.48L1055.46 2465.98L1055.46 2390.98zM1055.46 2465.98L1120.41 2503.48L1120.41 2578.48L1055.46 2615.98L990.51 2578.48L990.51 2503.48zM1120.41 2578.48L1185.37 2615.98L1185.37 2690.98L1120.41 2728.48L1055.46 2690.98L1055.46 2615.98zM1055.46 2915.98L1120.41 2953.48L1120.41 3028.48L1055.46 3065.98L990.51 3028.48L990.51 2953.48zM1250.32 103.48L1315.27 140.98L1315.27 215.98L1250.32 253.48L1185.37 215.98L1185.37 140.98zM1185.37 215.98L1250.32 253.48L1250.32 328.48L1185.37 365.98L1120.41 328.48L1120.41 253.48zM1250.32 328.48L1315.27 365.98L1315.27 440.98L1250.32 478.48L1185.37 440.98L1185.37 365.98zM1250.32 778.48L1315.27 815.98L1315.27 890.98L1250.32 928.48L1185.37 890.98L1185.37 815.98zM1185.37 890.98L1250.32 928.48L1250.32 1003.48L1185.37 1040.98L1120.41 1003.48L1120.41 928.48zM1250.32 1003.48L1315.27 1040.98L1315.27 1115.98L1250.32 1153.48L1185.37 1115.98L1185.37 1040.98zM1185.37 1115.98L1250.32 1153.48L1250.32 1228.48L1185.37 1265.98L1120.41 1228.48L1120.41 1153.48zM1250.32 1228.48L1315.27 1265.98L1315.27 1340.98L1250.32 1378.48L1185.37 1340.98L1185.37 1265.98zM1185.37 1340.98L1250.32 1378.48L1250.32 1453.48L1185.37 1490.98L1120.41 1453.48L1120.41 1378.48zM1185.37 1790.98L1250.32 1828.48L1250.32 1903.48L1185.37 1940.98L1120.41 1903.48L1120.41 1828.48zM1185.37 2015.98L1250.32 2053.48L1250.32 2128.48L1185.37 2165.98L1120.41 2128.48L1120.41 2053.48zM1250.32 2128.48L1315.27 2165.98L1315.27 2240.98L1250.32 2278.48L1185.37 2240.98L1185.37 2165.98zM1185.37 2240.98L1250.32 2278.48L1250.32 2353.48L1185.37 2390.98L1120.41 2353.48L1120.41 2278.48zM1250.32 2803.48L1315.27 2840.98L1315.27 2915.98L1250.32 2953.48L1185.37 2915.98L1185.37 2840.98zM1315.28 1115.98L1380.23 1153.48L1380.23 1228.48L1315.28 1265.98L1250.32 1228.48L1250.32 1153.48zM1380.23 1453.48L1445.18 1490.98L1445.18 1565.98L1380.23 1603.48L1315.28 1565.98L1315.28 1490.98zM1315.28 1565.98L1380.23 1603.48L1380.23 1678.48L1315.28 1715.98L1250.32 1678.48L1250.32 1603.48zM1380.23 1903.48L1445.18 1940.98L1445.18 2015.98L1380.23 2053.48L1315.28 2015.98L1315.28 1940.98zM1315.28 2015.98L1380.23 2053.48L1380.23 2128.48L1315.28 2165.98L1250.32 2128.48L1250.32 2053.48zM1380.23 2128.48L1445.18 2165.98L1445.18 2240.98L1380.23 2278.48L1315.28 2240.98L1315.28 2165.98zM1315.28 2465.98L1380.23 2503.48L1380.23 2578.48L1315.28 2615.98L1250.32 2578.48L1250.32 2503.48zM1380.23 2578.48L1445.18 2615.98L1445.18 2690.98L1380.23 2728.48L1315.28 2690.98L1315.28 2615.98zM1315.28 2690.98L1380.23 2728.48L1380.23 2803.48L1315.28 2840.98L1250.32 2803.48L1250.32 2728.48zM1445.18 215.98L1510.14 253.48L1510.14 328.48L1445.18 365.98L1380.23 328.48L1380.23 253.48zM1445.18 440.98L1510.14 478.48L1510.14 553.48L1445.18 590.98L1380.23 553.48L1380.23 478.48zM1445.18 665.98L1510.14 703.48L1510.14 778.48L1445.18 815.98L1380.23 778.48L1380.23 703.48zM1510.14 1003.48L1575.09 1040.98L1575.09 1115.98L1510.14 1153.48L1445.18 1115.98L1445.18 1040.98zM1445.18 1115.98L1510.14 1153.48L1510.14 1228.48L1445.18 1265.98L1380.23 1228.48L1380.23 1153.48zM1445.18 1340.98L1510.14 1378.48L1510.14 1453.48L1445.18 1490.98L1380.23 1453.48L1380.23 1378.48zM1510.14 1678.48L1575.09 1715.98L1575.09 1790.98L1510.14 1828.48L1445.18 1790.98L1445.18 1715.98zM1510.14 1903.48L1575.09 1940.98L1575.09 2015.98L1510.14 2053.48L1445.18 2015.98L1445.18 1940.98zM1510.14 2128.48L1575.09 2165.98L1575.09 2240.98L1510.14 2278.48L1445.18 2240.98L1445.18 2165.98zM1510.14 2803.48L1575.09 2840.98L1575.09 2915.98L1510.14 2953.48L1445.18 2915.98L1445.18 2840.98zM1445.18 2915.98L1510.14 2953.48L1510.14 3028.48L1445.18 3065.98L1380.23 3028.48L1380.23 2953.48zM1640.04 103.48L1705 140.98L1705 215.98L1640.04 253.48L1575.09 215.98L1575.09 140.98zM1575.09 215.98L1640.04 253.48L1640.04 328.48L1575.09 365.98L1510.14 328.48L1510.14 253.48zM1575.09 440.98L1640.04 478.48L1640.04 553.48L1575.09 590.98L1510.14 553.48L1510.14 478.48zM1640.04 778.48L1705 815.98L1705 890.98L1640.04 928.48L1575.09 890.98L1575.09 815.98zM1575.09 890.98L1640.04 928.48L1640.04 1003.48L1575.09 1040.98L1510.14 1003.48L1510.14 928.48zM1640.04 1003.48L1705 1040.98L1705 1115.98L1640.04 1153.48L1575.09 1115.98L1575.09 1040.98zM1640.04 1228.48L1705 1265.98L1705 1340.98L1640.04 1378.48L1575.09 1340.98L1575.09 1265.98zM1575.09 1340.98L1640.04 1378.48L1640.04 1453.48L1575.09 1490.98L1510.14 1453.48L1510.14 1378.48zM1640.04 1678.48L1705 1715.98L1705 1790.98L1640.04 1828.48L1575.09 1790.98L1575.09 1715.98zM1640.04 2353.48L1705 2390.98L1705 2465.98L1640.04 2503.48L1575.09 2465.98L1575.09 2390.98zM1575.09 2690.98L1640.04 2728.48L1640.04 2803.48L1575.09 2840.98L1510.14 2803.48L1510.14 2728.48zM1705 215.98L1769.95 253.48L1769.95 328.48L1705 365.98L1640.04 328.48L1640.04 253.48zM1769.95 328.48L1834.9 365.98L1834.9 440.98L1769.95 478.48L1705 440.98L1705 365.98zM1769.95 553.48L1834.9 590.98L1834.9 665.98L1769.95 703.48L1705 665.98L1705 590.98zM1769.95 778.48L1834.9 815.98L1834.9 890.98L1769.95 928.48L1705 890.98L1705 815.98zM1705 890.98L1769.95 928.48L1769.95 1003.48L1705 1040.98L1640.04 1003.48L1640.04 928.48zM1705 1115.98L1769.95 1153.48L1769.95 1228.48L1705 1265.98L1640.04 1228.48L1640.04 1153.48zM1769.95 1903.48L1834.9 1940.98L1834.9 2015.98L1769.95 2053.48L1705 2015.98L1705 1940.98zM1769.95 2128.48L1834.9 2165.98L1834.9 2240.98L1769.95 2278.48L1705 2240.98L1705 2165.98zM1769.95 2803.48L1834.9 2840.98L1834.9 2915.98L1769.95 2953.48L1705 2915.98L1705 2840.98zM1834.9 -9.02L1899.86 28.48L1899.86 103.48L1834.9 140.98L1769.95 103.48L1769.95 28.48zM1834.9 215.98L1899.86 253.48L1899.86 328.48L1834.9 365.98L1769.95 328.48L1769.95 253.48zM1899.86 328.48L1964.81 365.98L1964.81 440.98L1899.86 478.48L1834.9 440.98L1834.9 365.98zM1899.86 553.48L1964.81 590.98L1964.81 665.98L1899.86 703.48L1834.9 665.98L1834.9 590.98zM1899.86 1228.48L1964.81 1265.98L1964.81 1340.98L1899.86 1378.48L1834.9 1340.98L1834.9 1265.98zM1834.9 1340.98L1899.86 1378.48L1899.86 1453.48L1834.9 1490.98L1769.95 1453.48L1769.95 1378.48zM1834.9 1565.98L1899.86 1603.48L1899.86 1678.48L1834.9 1715.98L1769.95 1678.48L1769.95 1603.48zM1899.86 1678.48L1964.81 1715.98L1964.81 1790.98L1899.86 1828.48L1834.9 1790.98L1834.9 1715.98zM1834.9 1790.98L1899.86 1828.48L1899.86 1903.48L1834.9 1940.98L1769.95 1903.48L1769.95 1828.48zM1899.86 1903.48L1964.81 1940.98L1964.81 2015.98L1899.86 2053.48L1834.9 2015.98L1834.9 1940.98zM1834.9 2015.98L1899.86 2053.48L1899.86 2128.48L1834.9 2165.98L1769.95 2128.48L1769.95 2053.48zM1834.9 2240.98L1899.86 2278.48L1899.86 2353.48L1834.9 2390.98L1769.95 2353.48L1769.95 2278.48zM1899.86 2353.48L1964.81 2390.98L1964.81 2465.98L1899.86 2503.48L1834.9 2465.98L1834.9 2390.98zM1899.86 2578.48L1964.81 2615.98L1964.81 2690.98L1899.86 2728.48L1834.9 2690.98L1834.9 2615.98zM1899.86 3028.48L1964.81 3065.98L1964.81 3140.98L1899.86 3178.48L1834.9 3140.98L1834.9 3065.98zM2029.77 328.48L2094.72 365.98L2094.72 440.98L2029.77 478.48L1964.81 440.98L1964.81 365.98zM1964.81 440.98L2029.77 478.48L2029.77 553.48L1964.81 590.98L1899.86 553.48L1899.86 478.48zM2029.77 778.48L2094.72 815.98L2094.72 890.98L2029.77 928.48L1964.81 890.98L1964.81 815.98zM1964.81 890.98L2029.77 928.48L2029.77 1003.48L1964.81 1040.98L1899.86 1003.48L1899.86 928.48zM1964.81 1115.98L2029.77 1153.48L2029.77 1228.48L1964.81 1265.98L1899.86 1228.48L1899.86 1153.48zM2029.77 1678.48L2094.72 1715.98L2094.72 1790.98L2029.77 1828.48L1964.81 1790.98L1964.81 1715.98zM1964.81 1790.98L2029.77 1828.48L2029.77 1903.48L1964.81 1940.98L1899.86 1903.48L1899.86 1828.48zM2029.77 1903.48L2094.72 1940.98L2094.72 2015.98L2029.77 2053.48L1964.81 2015.98L1964.81 1940.98zM1964.81 2015.98L2029.77 2053.48L2029.77 2128.48L1964.81 2165.98L1899.86 2128.48L1899.86 2053.48zM1964.81 2240.98L2029.77 2278.48L2029.77 2353.48L1964.81 2390.98L1899.86 2353.48L1899.86 2278.48zM1964.81 2465.98L2029.77 2503.48L2029.77 2578.48L1964.81 2615.98L1899.86 2578.48L1899.86 2503.48zM1964.81 2690.98L2029.77 2728.48L2029.77 2803.48L1964.81 2840.98L1899.86 2803.48L1899.86 2728.48zM2029.77 2803.48L2094.72 2840.98L2094.72 2915.98L2029.77 2953.48L1964.81 2915.98L1964.81 2840.98z" stroke="#03305d" stroke-width="2"></path><path d="M73.65 328.48 a7.5 7.5 0 1 0 15 0 a7.5 7.5 0 1 0 -15 0zM138.61 365.98 a7.5 7.5 0 1 0 15 0 a7.5 7.5 0 1 0 -15 0zM138.61 440.98 a7.5 7.5 0 1 0 15 0 a7.5 7.5 0 1 0 -15 0zM73.65 478.48 a7.5 7.5 0 1 0 15 0 a7.5 7.5 0 1 0 -15 0zM8.7 440.98 a7.5 7.5 0 1 0 15 0 a7.5 7.5 0 1 0 -15 0zM8.7 365.98 a7.5 7.5 0 1 0 15 0 a7.5 7.5 0 1 0 -15 0zM73.65 553.48 a7.5 7.5 0 1 0 15 0 a7.5 7.5 0 1 0 -15 0zM8.7 590.98 a7.5 7.5 0 1 0 15 0 a7.5 7.5 0 1 0 -15 0zM-56.25 553.48 a7.5 7.5 0 1 0 15 0 a7.5 7.5 0 1 0 -15 0zM-56.25 478.48 a7.5 7.5 0 1 0 15 0 a7.5 7.5 0 1 0 -15 0zM138.61 590.98 a7.5 7.5 0 1 0 15 0 a7.5 7.5 0 1 0 -15 0zM138.61 665.98 a7.5 7.5 0 1 0 15 0 a7.5 7.5 0 1 0 -15 0zM73.65 703.48 a7.5 7.5 0 1 0 15 0 a7.5 7.5 0 1 0 -15 0zM8.7 665.98 a7.5 7.5 0 1 0 15 0 a7.5 7.5 0 1 0 -15 0zM73.65 778.48 a7.5 7.5 0 1 0 15 0 a7.5 7.5 0 1 0 -15 0zM8.7 815.98 a7.5 7.5 0 1 0 15 0 a7.5 7.5 0 1 0 -15 0zM-56.25 778.48 a7.5 7.5 0 1 0 15 0 a7.5 7.5 0 1 0 -15 0zM-56.25 703.48 a7.5 7.5 0 1 0 15 0 a7.5 7.5 0 1 0 -15 0zM138.61 815.98 a7.5 7.5 0 1 0 15 0 a7.5 7.5 0 1 0 -15 0zM138.61 890.98 a7.5 7.5 0 1 0 15 0 a7.5 7.5 0 1 0 -15 0zM73.65 928.48 a7.5 7.5 0 1 0 15 0 a7.5 7.5 0 1 0 -15 0zM8.7 890.98 a7.5 7.5 0 1 0 15 0 a7.5 7.5 0 1 0 -15 0zM73.65 1003.48 a7.5 7.5 0 1 0 15 0 a7.5 7.5 0 1 0 -15 0zM8.7 1040.98 a7.5 7.5 0 1 0 15 0 a7.5 7.5 0 1 0 -15 0zM-56.25 1003.48 a7.5 7.5 0 1 0 15 0 a7.5 7.5 0 1 0 -15 0zM-56.25 928.48 a7.5 7.5 0 1 0 15 0 a7.5 7.5 0 1 0 -15 0zM8.7 1340.98 a7.5 7.5 0 1 0 15 0 a7.5 7.5 0 1 0 -15 0zM73.65 1378.48 a7.5 7.5 0 1 0 15 0 a7.5 7.5 0 1 0 -15 0zM73.65 1453.48 a7.5 7.5 0 1 0 15 0 a7.5 7.5 0 1 0 -15 0zM8.7 1490.98 a7.5 7.5 0 1 0 15 0 a7.5 7.5 0 1 0 -15 0zM-56.25 1453.48 a7.5 7.5 0 1 0 15 0 a7.5 7.5 0 1 0 -15 0zM-56.25 1378.48 a7.5 7.5 0 1 0 15 0 a7.5 7.5 0 1 0 -15 0zM8.7 1565.98 a7.5 7.5 0 1 0 15 0 a7.5 7.5 0 1 0 -15 0zM73.65 1603.48 a7.5 7.5 0 1 0 15 0 a7.5 7.5 0 1 0 -15 0zM73.65 1678.48 a7.5 7.5 0 1 0 15 0 a7.5 7.5 0 1 0 -15 0zM8.7 1715.98 a7.5 7.5 0 1 0 15 0 a7.5 7.5 0 1 0 -15 0zM-56.25 1678.48 a7.5 7.5 0 1 0 15 0 a7.5 7.5 0 1 0 -15 0zM-56.25 1603.48 a7.5 7.5 0 1 0 15 0 a7.5 7.5 0 1 0 -15 0zM8.7 1790.98 a7.5 7.5 0 1 0 15 0 a7.5 7.5 0 1 0 -15 0zM73.65 1828.48 a7.5 7.5 0 1 0 15 0 a7.5 7.5 0 1 0 -15 0zM73.65 1903.48 a7.5 7.5 0 1 0 15 0 a7.5 7.5 0 1 0 -15 0zM8.7 1940.98 a7.5 7.5 0 1 0 15 0 a7.5 7.5 0 1 0 -15 0zM-56.25 1903.48 a7.5 7.5 0 1 0 15 0 a7.5 7.5 0 1 0 -15 0zM-56.25 1828.48 a7.5 7.5 0 1 0 15 0 a7.5 7.5 0 1 0 -15 0zM73.65 2353.48 a7.5 7.5 0 1 0 15 0 a7.5 7.5 0 1 0 -15 0zM138.61 2390.98 a7.5 7.5 0 1 0 15 0 a7.5 7.5 0 1 0 -15 0zM138.61 2465.98 a7.5 7.5 0 1 0 15 0 a7.5 7.5 0 1 0 -15 0zM73.65 2503.48 a7.5 7.5 0 1 0 15 0 a7.5 7.5 0 1 0 -15 0zM8.7 2465.98 a7.5 7.5 0 1 0 15 0 a7.5 7.5 0 1 0 -15 0zM8.7 2390.98 a7.5 7.5 0 1 0 15 0 a7.5 7.5 0 1 0 -15 0zM73.65 2578.48 a7.5 7.5 0 1 0 15 0 a7.5 7.5 0 1 0 -15 0zM8.7 2615.98 a7.5 7.5 0 1 0 15 0 a7.5 7.5 0 1 0 -15 0zM-56.25 2578.48 a7.5 7.5 0 1 0 15 0 a7.5 7.5 0 1 0 -15 0zM-56.25 2503.48 a7.5 7.5 0 1 0 15 0 a7.5 7.5 0 1 0 -15 0zM138.61 2615.98 a7.5 7.5 0 1 0 15 0 a7.5 7.5 0 1 0 -15 0zM138.61 2690.98 a7.5 7.5 0 1 0 15 0 a7.5 7.5 0 1 0 -15 0zM73.65 2728.48 a7.5 7.5 0 1 0 15 0 a7.5 7.5 0 1 0 -15 0zM8.7 2690.98 a7.5 7.5 0 1 0 15 0 a7.5 7.5 0 1 0 -15 0zM73.65 2803.48 a7.5 7.5 0 1 0 15 0 a7.5 7.5 0 1 0 -15 0zM138.61 2840.98 a7.5 7.5 0 1 0 15 0 a7.5 7.5 0 1 0 -15 0zM138.61 2915.98 a7.5 7.5 0 1 0 15 0 a7.5 7.5 0 1 0 -15 0zM73.65 2953.48 a7.5 7.5 0 1 0 15 0 a7.5 7.5 0 1 0 -15 0zM8.7 2915.98 a7.5 7.5 0 1 0 15 0 a7.5 7.5 0 1 0 -15 0zM8.7 2840.98 a7.5 7.5 0 1 0 15 0 a7.5 7.5 0 1 0 -15 0zM73.65 3028.48 a7.5 7.5 0 1 0 15 0 a7.5 7.5 0 1 0 -15 0zM138.61 3065.98 a7.5 7.5 0 1 0 15 0 a7.5 7.5 0 1 0 -15 0zM138.61 3140.98 a7.5 7.5 0 1 0 15 0 a7.5 7.5 0 1 0 -15 0zM73.65 3178.48 a7.5 7.5 0 1 0 15 0 a7.5 7.5 0 1 0 -15 0zM8.7 3140.98 a7.5 7.5 0 1 0 15 0 a7.5 7.5 0 1 0 -15 0zM8.7 3065.98 a7.5 7.5 0 1 0 15 0 a7.5 7.5 0 1 0 -15 0zM203.56 328.48 a7.5 7.5 0 1 0 15 0 a7.5 7.5 0 1 0 -15 0zM268.51 365.98 a7.5 7.5 0 1 0 15 0 a7.5 7.5 0 1 0 -15 0zM268.51 440.98 a7.5 7.5 0 1 0 15 0 a7.5 7.5 0 1 0 -15 0zM203.56 478.48 a7.5 7.5 0 1 0 15 0 a7.5 7.5 0 1 0 -15 0zM203.56 553.48 a7.5 7.5 0 1 0 15 0 a7.5 7.5 0 1 0 -15 0zM268.51 590.98 a7.5 7.5 0 1 0 15 0 a7.5 7.5 0 1 0 -15 0zM268.51 665.98 a7.5 7.5 0 1 0 15 0 a7.5 7.5 0 1 0 -15 0zM203.56 703.48 a7.5 7.5 0 1 0 15 0 a7.5 7.5 0 1 0 -15 0zM203.56 778.48 a7.5 7.5 0 1 0 15 0 a7.5 7.5 0 1 0 -15 0zM203.56 1003.48 a7.5 7.5 0 1 0 15 0 a7.5 7.5 0 1 0 -15 0zM268.51 1040.98 a7.5 7.5 0 1 0 15 0 a7.5 7.5 0 1 0 -15 0zM268.51 1115.98 a7.5 7.5 0 1 0 15 0 a7.5 7.5 0 1 0 -15 0zM203.56 1153.48 a7.5 7.5 0 1 0 15 0 a7.5 7.5 0 1 0 -15 0zM138.61 1115.98 a7.5 7.5 0 1 0 15 0 a7.5 7.5 0 1 0 -15 0zM138.61 1040.98 a7.5 7.5 0 1 0 15 0 a7.5 7.5 0 1 0 -15 0zM203.56 1228.48 a7.5 7.5 0 1 0 15 0 a7.5 7.5 0 1 0 -15 0zM138.61 1265.98 a7.5 7.5 0 1 0 15 0 a7.5 7.5 0 1 0 -15 0zM73.65 1228.48 a7.5 7.5 0 1 0 15 0 a7.5 7.5 0 1 0 -15 0zM73.65 1153.48 a7.5 7.5 0 1 0 15 0 a7.5 7.5 0 1 0 -15 0zM268.51 1265.98 a7.5 7.5 0 1 0 15 0 a7.5 7.5 0 1 0 -15 0zM268.51 1340.98 a7.5 7.5 0 1 0 15 0 a7.5 7.5 0 1 0 -15 0zM203.56 1378.48 a7.5 7.5 0 1 0 15 0 a7.5 7.5 0 1 0 -15 0zM138.61 1340.98 a7.5 7.5 0 1 0 15 0 a7.5 7.5 0 1 0 -15 0zM203.56 1453.48 a7.5 7.5 0 1 0 15 0 a7.5 7.5 0 1 0 -15 0zM268.51 1490.98 a7.5 7.5 0 1 0 15 0 a7.5 7.5 0 1 0 -15 0zM268.51 1565.98 a7.5 7.5 0 1 0 15 0 a7.5 7.5 0 1 0 -15 0zM203.56 1603.48 a7.5 7.5 0 1 0 15 0 a7.5 7.5 0 1 0 -15 0zM138.61 1565.98 a7.5 7.5 0 1 0 15 0 a7.5 7.5 0 1 0 -15 0zM138.61 1490.98 a7.5 7.5 0 1 0 15 0 a7.5 7.5 0 1 0 -15 0zM203.56 1903.48 a7.5 7.5 0 1 0 15 0 a7.5 7.5 0 1 0 -15 0zM268.51 1940.98 a7.5 7.5 0 1 0 15 0 a7.5 7.5 0 1 0 -15 0zM268.51 2015.98 a7.5 7.5 0 1 0 15 0 a7.5 7.5 0 1 0 -15 0zM203.56 2053.48 a7.5 7.5 0 1 0 15 0 a7.5 7.5 0 1 0 -15 0zM138.61 2015.98 a7.5 7.5 0 1 0 15 0 a7.5 7.5 0 1 0 -15 0zM138.61 1940.98 a7.5 7.5 0 1 0 15 0 a7.5 7.5 0 1 0 -15 0zM203.56 2128.48 a7.5 7.5 0 1 0 15 0 a7.5 7.5 0 1 0 -15 0zM268.51 2165.98 a7.5 7.5 0 1 0 15 0 a7.5 7.5 0 1 0 -15 0zM268.51 2240.98 a7.5 7.5 0 1 0 15 0 a7.5 7.5 0 1 0 -15 0zM203.56 2278.48 a7.5 7.5 0 1 0 15 0 a7.5 7.5 0 1 0 -15 0zM138.61 2240.98 a7.5 7.5 0 1 0 15 0 a7.5 7.5 0 1 0 -15 0zM138.61 2165.98 a7.5 7.5 0 1 0 15 0 a7.5 7.5 0 1 0 -15 0zM203.56 2353.48 a7.5 7.5 0 1 0 15 0 a7.5 7.5 0 1 0 -15 0zM73.65 2278.48 a7.5 7.5 0 1 0 15 0 a7.5 7.5 0 1 0 -15 0zM268.51 2390.98 a7.5 7.5 0 1 0 15 0 a7.5 7.5 0 1 0 -15 0zM268.51 2465.98 a7.5 7.5 0 1 0 15 0 a7.5 7.5 0 1 0 -15 0zM203.56 2503.48 a7.5 7.5 0 1 0 15 0 a7.5 7.5 0 1 0 -15 0zM203.56 2728.48 a7.5 7.5 0 1 0 15 0 a7.5 7.5 0 1 0 -15 0zM203.56 2803.48 a7.5 7.5 0 1 0 15 0 a7.5 7.5 0 1 0 -15 0zM333.47 328.48 a7.5 7.5 0 1 0 15 0 a7.5 7.5 0 1 0 -15 0zM398.42 365.98 a7.5 7.5 0 1 0 15 0 a7.5 7.5 0 1 0 -15 0zM398.42 440.98 a7.5 7.5 0 1 0 15 0 a7.5 7.5 0 1 0 -15 0zM333.47 478.48 a7.5 7.5 0 1 0 15 0 a7.5 7.5 0 1 0 -15 0zM333.47 553.48 a7.5 7.5 0 1 0 15 0 a7.5 7.5 0 1 0 -15 0zM333.47 703.48 a7.5 7.5 0 1 0 15 0 a7.5 7.5 0 1 0 -15 0zM333.47 778.48 a7.5 7.5 0 1 0 15 0 a7.5 7.5 0 1 0 -15 0zM268.51 815.98 a7.5 7.5 0 1 0 15 0 a7.5 7.5 0 1 0 -15 0zM398.42 815.98 a7.5 7.5 0 1 0 15 0 a7.5 7.5 0 1 0 -15 0zM398.42 890.98 a7.5 7.5 0 1 0 15 0 a7.5 7.5 0 1 0 -15 0zM333.47 928.48 a7.5 7.5 0 1 0 15 0 a7.5 7.5 0 1 0 -15 0zM268.51 890.98 a7.5 7.5 0 1 0 15 0 a7.5 7.5 0 1 0 -15 0zM333.47 1003.48 a7.5 7.5 0 1 0 15 0 a7.5 7.5 0 1 0 -15 0zM203.56 928.48 a7.5 7.5 0 1 0 15 0 a7.5 7.5 0 1 0 -15 0zM333.47 1228.48 a7.5 7.5 0 1 0 15 0 a7.5 7.5 0 1 0 -15 0zM398.42 1265.98 a7.5 7.5 0 1 0 15 0 a7.5 7.5 0 1 0 -15 0zM398.42 1340.98 a7.5 7.5 0 1 0 15 0 a7.5 7.5 0 1 0 -15 0zM333.47 1378.48 a7.5 7.5 0 1 0 15 0 a7.5 7.5 0 1 0 -15 0zM333.47 1453.48 a7.5 7.5 0 1 0 15 0 a7.5 7.5 0 1 0 -15 0zM398.42 1490.98 a7.5 7.5 0 1 0 15 0 a7.5 7.5 0 1 0 -15 0zM398.42 1565.98 a7.5 7.5 0 1 0 15 0 a7.5 7.5 0 1 0 -15 0zM333.47 1603.48 a7.5 7.5 0 1 0 15 0 a7.5 7.5 0 1 0 -15 0zM333.47 2353.48 a7.5 7.5 0 1 0 15 0 a7.5 7.5 0 1 0 -15 0zM398.42 2390.98 a7.5 7.5 0 1 0 15 0 a7.5 7.5 0 1 0 -15 0zM398.42 2465.98 a7.5 7.5 0 1 0 15 0 a7.5 7.5 0 1 0 -15 0zM333.47 2503.48 a7.5 7.5 0 1 0 15 0 a7.5 7.5 0 1 0 -15 0zM333.47 2578.48 a7.5 7.5 0 1 0 15 0 a7.5 7.5 0 1 0 -15 0zM268.51 2615.98 a7.5 7.5 0 1 0 15 0 a7.5 7.5 0 1 0 -15 0zM203.56 2578.48 a7.5 7.5 0 1 0 15 0 a7.5 7.5 0 1 0 -15 0zM398.42 2615.98 a7.5 7.5 0 1 0 15 0 a7.5 7.5 0 1 0 -15 0zM398.42 2690.98 a7.5 7.5 0 1 0 15 0 a7.5 7.5 0 1 0 -15 0zM333.47 2728.48 a7.5 7.5 0 1 0 15 0 a7.5 7.5 0 1 0 -15 0zM268.51 2690.98 a7.5 7.5 0 1 0 15 0 a7.5 7.5 0 1 0 -15 0zM333.47 2803.48 a7.5 7.5 0 1 0 15 0 a7.5 7.5 0 1 0 -15 0zM398.42 2840.98 a7.5 7.5 0 1 0 15 0 a7.5 7.5 0 1 0 -15 0zM398.42 2915.98 a7.5 7.5 0 1 0 15 0 a7.5 7.5 0 1 0 -15 0zM333.47 2953.48 a7.5 7.5 0 1 0 15 0 a7.5 7.5 0 1 0 -15 0zM268.51 2915.98 a7.5 7.5 0 1 0 15 0 a7.5 7.5 0 1 0 -15 0zM268.51 2840.98 a7.5 7.5 0 1 0 15 0 a7.5 7.5 0 1 0 -15 0zM398.42 -9.02 a7.5 7.5 0 1 0 15 0 a7.5 7.5 0 1 0 -15 0zM463.38 28.48 a7.5 7.5 0 1 0 15 0 a7.5 7.5 0 1 0 -15 0zM463.38 103.48 a7.5 7.5 0 1 0 15 0 a7.5 7.5 0 1 0 -15 0zM398.42 140.98 a7.5 7.5 0 1 0 15 0 a7.5 7.5 0 1 0 -15 0zM333.47 103.48 a7.5 7.5 0 1 0 15 0 a7.5 7.5 0 1 0 -15 0zM333.47 28.48 a7.5 7.5 0 1 0 15 0 a7.5 7.5 0 1 0 -15 0zM528.33 140.98 a7.5 7.5 0 1 0 15 0 a7.5 7.5 0 1 0 -15 0zM528.33 215.98 a7.5 7.5 0 1 0 15 0 a7.5 7.5 0 1 0 -15 0zM463.38 253.48 a7.5 7.5 0 1 0 15 0 a7.5 7.5 0 1 0 -15 0zM398.42 215.98 a7.5 7.5 0 1 0 15 0 a7.5 7.5 0 1 0 -15 0zM463.38 328.48 a7.5 7.5 0 1 0 15 0 a7.5 7.5 0 1 0 -15 0zM528.33 365.98 a7.5 7.5 0 1 0 15 0 a7.5 7.5 0 1 0 -15 0zM528.33 440.98 a7.5 7.5 0 1 0 15 0 a7.5 7.5 0 1 0 -15 0zM463.38 478.48 a7.5 7.5 0 1 0 15 0 a7.5 7.5 0 1 0 -15 0zM463.38 553.48 a7.5 7.5 0 1 0 15 0 a7.5 7.5 0 1 0 -15 0zM398.42 590.98 a7.5 7.5 0 1 0 15 0 a7.5 7.5 0 1 0 -15 0zM463.38 778.48 a7.5 7.5 0 1 0 15 0 a7.5 7.5 0 1 0 -15 0zM528.33 815.98 a7.5 7.5 0 1 0 15 0 a7.5 7.5 0 1 0 -15 0zM528.33 890.98 a7.5 7.5 0 1 0 15 0 a7.5 7.5 0 1 0 -15 0zM463.38 928.48 a7.5 7.5 0 1 0 15 0 a7.5 7.5 0 1 0 -15 0zM463.38 1228.48 a7.5 7.5 0 1 0 15 0 a7.5 7.5 0 1 0 -15 0zM528.33 1265.98 a7.5 7.5 0 1 0 15 0 a7.5 7.5 0 1 0 -15 0zM528.33 1340.98 a7.5 7.5 0 1 0 15 0 a7.5 7.5 0 1 0 -15 0zM463.38 1378.48 a7.5 7.5 0 1 0 15 0 a7.5 7.5 0 1 0 -15 0zM463.38 1453.48 a7.5 7.5 0 1 0 15 0 a7.5 7.5 0 1 0 -15 0zM528.33 1490.98 a7.5 7.5 0 1 0 15 0 a7.5 7.5 0 1 0 -15 0zM528.33 1565.98 a7.5 7.5 0 1 0 15 0 a7.5 7.5 0 1 0 -15 0zM463.38 1603.48 a7.5 7.5 0 1 0 15 0 a7.5 7.5 0 1 0 -15 0zM463.38 1678.48 a7.5 7.5 0 1 0 15 0 a7.5 7.5 0 1 0 -15 0zM398.42 1715.98 a7.5 7.5 0 1 0 15 0 a7.5 7.5 0 1 0 -15 0zM333.47 1678.48 a7.5 7.5 0 1 0 15 0 a7.5 7.5 0 1 0 -15 0zM528.33 1715.98 a7.5 7.5 0 1 0 15 0 a7.5 7.5 0 1 0 -15 0zM528.33 1790.98 a7.5 7.5 0 1 0 15 0 a7.5 7.5 0 1 0 -15 0zM463.38 1828.48 a7.5 7.5 0 1 0 15 0 a7.5 7.5 0 1 0 -15 0zM398.42 1790.98 a7.5 7.5 0 1 0 15 0 a7.5 7.5 0 1 0 -15 0zM463.38 1903.48 a7.5 7.5 0 1 0 15 0 a7.5 7.5 0 1 0 -15 0zM398.42 1940.98 a7.5 7.5 0 1 0 15 0 a7.5 7.5 0 1 0 -15 0zM333.47 1903.48 a7.5 7.5 0 1 0 15 0 a7.5 7.5 0 1 0 -15 0zM333.47 1828.48 a7.5 7.5 0 1 0 15 0 a7.5 7.5 0 1 0 -15 0zM528.33 1940.98 a7.5 7.5 0 1 0 15 0 a7.5 7.5 0 1 0 -15 0zM528.33 2015.98 a7.5 7.5 0 1 0 15 0 a7.5 7.5 0 1 0 -15 0zM463.38 2053.48 a7.5 7.5 0 1 0 15 0 a7.5 7.5 0 1 0 -15 0zM398.42 2015.98 a7.5 7.5 0 1 0 15 0 a7.5 7.5 0 1 0 -15 0zM463.38 2128.48 a7.5 7.5 0 1 0 15 0 a7.5 7.5 0 1 0 -15 0zM398.42 2165.98 a7.5 7.5 0 1 0 15 0 a7.5 7.5 0 1 0 -15 0zM333.47 2128.48 a7.5 7.5 0 1 0 15 0 a7.5 7.5 0 1 0 -15 0zM333.47 2053.48 a7.5 7.5 0 1 0 15 0 a7.5 7.5 0 1 0 -15 0zM463.38 2578.48 a7.5 7.5 0 1 0 15 0 a7.5 7.5 0 1 0 -15 0zM528.33 2615.98 a7.5 7.5 0 1 0 15 0 a7.5 7.5 0 1 0 -15 0zM528.33 2690.98 a7.5 7.5 0 1 0 15 0 a7.5 7.5 0 1 0 -15 0zM463.38 2728.48 a7.5 7.5 0 1 0 15 0 a7.5 7.5 0 1 0 -15 0zM463.38 2803.48 a7.5 7.5 0 1 0 15 0 a7.5 7.5 0 1 0 -15 0zM528.33 2840.98 a7.5 7.5 0 1 0 15 0 a7.5 7.5 0 1 0 -15 0zM528.33 2915.98 a7.5 7.5 0 1 0 15 0 a7.5 7.5 0 1 0 -15 0zM463.38 2953.48 a7.5 7.5 0 1 0 15 0 a7.5 7.5 0 1 0 -15 0zM463.38 3028.48 a7.5 7.5 0 1 0 15 0 a7.5 7.5 0 1 0 -15 0zM398.42 3065.98 a7.5 7.5 0 1 0 15 0 a7.5 7.5 0 1 0 -15 0zM333.47 3028.48 a7.5 7.5 0 1 0 15 0 a7.5 7.5 0 1 0 -15 0zM593.28 103.48 a7.5 7.5 0 1 0 15 0 a7.5 7.5 0 1 0 -15 0zM658.24 140.98 a7.5 7.5 0 1 0 15 0 a7.5 7.5 0 1 0 -15 0zM658.24 215.98 a7.5 7.5 0 1 0 15 0 a7.5 7.5 0 1 0 -15 0zM593.28 253.48 a7.5 7.5 0 1 0 15 0 a7.5 7.5 0 1 0 -15 0zM593.28 328.48 a7.5 7.5 0 1 0 15 0 a7.5 7.5 0 1 0 -15 0zM658.24 365.98 a7.5 7.5 0 1 0 15 0 a7.5 7.5 0 1 0 -15 0zM658.24 440.98 a7.5 7.5 0 1 0 15 0 a7.5 7.5 0 1 0 -15 0zM593.28 478.48 a7.5 7.5 0 1 0 15 0 a7.5 7.5 0 1 0 -15 0zM593.28 553.48 a7.5 7.5 0 1 0 15 0 a7.5 7.5 0 1 0 -15 0zM528.33 590.98 a7.5 7.5 0 1 0 15 0 a7.5 7.5 0 1 0 -15 0zM593.28 778.48 a7.5 7.5 0 1 0 15 0 a7.5 7.5 0 1 0 -15 0zM658.24 815.98 a7.5 7.5 0 1 0 15 0 a7.5 7.5 0 1 0 -15 0zM658.24 890.98 a7.5 7.5 0 1 0 15 0 a7.5 7.5 0 1 0 -15 0zM593.28 928.48 a7.5 7.5 0 1 0 15 0 a7.5 7.5 0 1 0 -15 0zM593.28 1228.48 a7.5 7.5 0 1 0 15 0 a7.5 7.5 0 1 0 -15 0zM658.24 1265.98 a7.5 7.5 0 1 0 15 0 a7.5 7.5 0 1 0 -15 0zM658.24 1340.98 a7.5 7.5 0 1 0 15 0 a7.5 7.5 0 1 0 -15 0zM593.28 1378.48 a7.5 7.5 0 1 0 15 0 a7.5 7.5 0 1 0 -15 0zM593.28 1453.48 a7.5 7.5 0 1 0 15 0 a7.5 7.5 0 1 0 -15 0zM658.24 1490.98 a7.5 7.5 0 1 0 15 0 a7.5 7.5 0 1 0 -15 0zM658.24 1565.98 a7.5 7.5 0 1 0 15 0 a7.5 7.5 0 1 0 -15 0zM593.28 1603.48 a7.5 7.5 0 1 0 15 0 a7.5 7.5 0 1 0 -15 0zM593.28 1678.48 a7.5 7.5 0 1 0 15 0 a7.5 7.5 0 1 0 -15 0zM658.24 1715.98 a7.5 7.5 0 1 0 15 0 a7.5 7.5 0 1 0 -15 0zM658.24 1790.98 a7.5 7.5 0 1 0 15 0 a7.5 7.5 0 1 0 -15 0zM593.28 1828.48 a7.5 7.5 0 1 0 15 0 a7.5 7.5 0 1 0 -15 0zM593.28 1903.48 a7.5 7.5 0 1 0 15 0 a7.5 7.5 0 1 0 -15 0zM658.24 1940.98 a7.5 7.5 0 1 0 15 0 a7.5 7.5 0 1 0 -15 0zM658.24 2015.98 a7.5 7.5 0 1 0 15 0 a7.5 7.5 0 1 0 -15 0zM593.28 2053.48 a7.5 7.5 0 1 0 15 0 a7.5 7.5 0 1 0 -15 0zM593.28 2128.48 a7.5 7.5 0 1 0 15 0 a7.5 7.5 0 1 0 -15 0zM658.24 2165.98 a7.5 7.5 0 1 0 15 0 a7.5 7.5 0 1 0 -15 0zM658.24 2240.98 a7.5 7.5 0 1 0 15 0 a7.5 7.5 0 1 0 -15 0zM593.28 2278.48 a7.5 7.5 0 1 0 15 0 a7.5 7.5 0 1 0 -15 0zM528.33 2240.98 a7.5 7.5 0 1 0 15 0 a7.5 7.5 0 1 0 -15 0zM528.33 2165.98 a7.5 7.5 0 1 0 15 0 a7.5 7.5 0 1 0 -15 0zM593.28 2353.48 a7.5 7.5 0 1 0 15 0 a7.5 7.5 0 1 0 -15 0zM658.24 2390.98 a7.5 7.5 0 1 0 15 0 a7.5 7.5 0 1 0 -15 0zM658.24 2465.98 a7.5 7.5 0 1 0 15 0 a7.5 7.5 0 1 0 -15 0zM593.28 2503.48 a7.5 7.5 0 1 0 15 0 a7.5 7.5 0 1 0 -15 0zM528.33 2465.98 a7.5 7.5 0 1 0 15 0 a7.5 7.5 0 1 0 -15 0zM528.33 2390.98 a7.5 7.5 0 1 0 15 0 a7.5 7.5 0 1 0 -15 0zM593.28 2953.48 a7.5 7.5 0 1 0 15 0 a7.5 7.5 0 1 0 -15 0zM593.28 3028.48 a7.5 7.5 0 1 0 15 0 a7.5 7.5 0 1 0 -15 0zM528.33 3065.98 a7.5 7.5 0 1 0 15 0 a7.5 7.5 0 1 0 -15 0zM658.24 1115.98 a7.5 7.5 0 1 0 15 0 a7.5 7.5 0 1 0 -15 0zM723.19 1153.48 a7.5 7.5 0 1 0 15 0 a7.5 7.5 0 1 0 -15 0zM723.19 1228.48 a7.5 7.5 0 1 0 15 0 a7.5 7.5 0 1 0 -15 0zM593.28 1153.48 a7.5 7.5 0 1 0 15 0 a7.5 7.5 0 1 0 -15 0zM723.19 1378.48 a7.5 7.5 0 1 0 15 0 a7.5 7.5 0 1 0 -15 0zM723.19 1453.48 a7.5 7.5 0 1 0 15 0 a7.5 7.5 0 1 0 -15 0zM723.19 1828.48 a7.5 7.5 0 1 0 15 0 a7.5 7.5 0 1 0 -15 0zM723.19 1903.48 a7.5 7.5 0 1 0 15 0 a7.5 7.5 0 1 0 -15 0zM723.19 2128.48 a7.5 7.5 0 1 0 15 0 a7.5 7.5 0 1 0 -15 0zM788.15 2165.98 a7.5 7.5 0 1 0 15 0 a7.5 7.5 0 1 0 -15 0zM788.15 2240.98 a7.5 7.5 0 1 0 15 0 a7.5 7.5 0 1 0 -15 0zM723.19 2278.48 a7.5 7.5 0 1 0 15 0 a7.5 7.5 0 1 0 -15 0zM723.19 2503.48 a7.5 7.5 0 1 0 15 0 a7.5 7.5 0 1 0 -15 0zM723.19 2578.48 a7.5 7.5 0 1 0 15 0 a7.5 7.5 0 1 0 -15 0zM658.24 2615.98 a7.5 7.5 0 1 0 15 0 a7.5 7.5 0 1 0 -15 0zM593.28 2578.48 a7.5 7.5 0 1 0 15 0 a7.5 7.5 0 1 0 -15 0zM788.15 2615.98 a7.5 7.5 0 1 0 15 0 a7.5 7.5 0 1 0 -15 0zM788.15 2690.98 a7.5 7.5 0 1 0 15 0 a7.5 7.5 0 1 0 -15 0zM723.19 2728.48 a7.5 7.5 0 1 0 15 0 a7.5 7.5 0 1 0 -15 0zM658.24 2690.98 a7.5 7.5 0 1 0 15 0 a7.5 7.5 0 1 0 -15 0zM723.19 2803.48 a7.5 7.5 0 1 0 15 0 a7.5 7.5 0 1 0 -15 0zM658.24 2840.98 a7.5 7.5 0 1 0 15 0 a7.5 7.5 0 1 0 -15 0zM593.28 2803.48 a7.5 7.5 0 1 0 15 0 a7.5 7.5 0 1 0 -15 0zM593.28 2728.48 a7.5 7.5 0 1 0 15 0 a7.5 7.5 0 1 0 -15 0zM658.24 2915.98 a7.5 7.5 0 1 0 15 0 a7.5 7.5 0 1 0 -15 0zM723.19 2953.48 a7.5 7.5 0 1 0 15 0 a7.5 7.5 0 1 0 -15 0zM723.19 3028.48 a7.5 7.5 0 1 0 15 0 a7.5 7.5 0 1 0 -15 0zM658.24 3065.98 a7.5 7.5 0 1 0 15 0 a7.5 7.5 0 1 0 -15 0zM788.15 3065.98 a7.5 7.5 0 1 0 15 0 a7.5 7.5 0 1 0 -15 0zM788.15 3140.98 a7.5 7.5 0 1 0 15 0 a7.5 7.5 0 1 0 -15 0zM723.19 3178.48 a7.5 7.5 0 1 0 15 0 a7.5 7.5 0 1 0 -15 0zM658.24 3140.98 a7.5 7.5 0 1 0 15 0 a7.5 7.5 0 1 0 -15 0zM788.14 -9.02 a7.5 7.5 0 1 0 15 0 a7.5 7.5 0 1 0 -15 0zM853.1 28.48 a7.5 7.5 0 1 0 15 0 a7.5 7.5 0 1 0 -15 0zM853.1 103.48 a7.5 7.5 0 1 0 15 0 a7.5 7.5 0 1 0 -15 0zM788.14 140.98 a7.5 7.5 0 1 0 15 0 a7.5 7.5 0 1 0 -15 0zM723.19 103.48 a7.5 7.5 0 1 0 15 0 a7.5 7.5 0 1 0 -15 0zM723.19 28.48 a7.5 7.5 0 1 0 15 0 a7.5 7.5 0 1 0 -15 0zM788.14 215.98 a7.5 7.5 0 1 0 15 0 a7.5 7.5 0 1 0 -15 0zM853.1 253.48 a7.5 7.5 0 1 0 15 0 a7.5 7.5 0 1 0 -15 0zM853.1 328.48 a7.5 7.5 0 1 0 15 0 a7.5 7.5 0 1 0 -15 0zM788.14 365.98 a7.5 7.5 0 1 0 15 0 a7.5 7.5 0 1 0 -15 0zM723.19 328.48 a7.5 7.5 0 1 0 15 0 a7.5 7.5 0 1 0 -15 0zM723.19 253.48 a7.5 7.5 0 1 0 15 0 a7.5 7.5 0 1 0 -15 0zM918.05 365.98 a7.5 7.5 0 1 0 15 0 a7.5 7.5 0 1 0 -15 0zM918.05 440.98 a7.5 7.5 0 1 0 15 0 a7.5 7.5 0 1 0 -15 0zM853.1 478.48 a7.5 7.5 0 1 0 15 0 a7.5 7.5 0 1 0 -15 0zM788.14 440.98 a7.5 7.5 0 1 0 15 0 a7.5 7.5 0 1 0 -15 0zM853.1 553.48 a7.5 7.5 0 1 0 15 0 a7.5 7.5 0 1 0 -15 0zM788.14 590.98 a7.5 7.5 0 1 0 15 0 a7.5 7.5 0 1 0 -15 0zM723.19 553.48 a7.5 7.5 0 1 0 15 0 a7.5 7.5 0 1 0 -15 0zM723.19 478.48 a7.5 7.5 0 1 0 15 0 a7.5 7.5 0 1 0 -15 0zM788.14 890.98 a7.5 7.5 0 1 0 15 0 a7.5 7.5 0 1 0 -15 0zM853.1 928.48 a7.5 7.5 0 1 0 15 0 a7.5 7.5 0 1 0 -15 0zM853.1 1003.48 a7.5 7.5 0 1 0 15 0 a7.5 7.5 0 1 0 -15 0zM788.14 1040.98 a7.5 7.5 0 1 0 15 0 a7.5 7.5 0 1 0 -15 0zM723.19 1003.48 a7.5 7.5 0 1 0 15 0 a7.5 7.5 0 1 0 -15 0zM723.19 928.48 a7.5 7.5 0 1 0 15 0 a7.5 7.5 0 1 0 -15 0zM918.05 1040.98 a7.5 7.5 0 1 0 15 0 a7.5 7.5 0 1 0 -15 0zM918.05 1115.98 a7.5 7.5 0 1 0 15 0 a7.5 7.5 0 1 0 -15 0zM853.1 1153.48 a7.5 7.5 0 1 0 15 0 a7.5 7.5 0 1 0 -15 0zM788.14 1115.98 a7.5 7.5 0 1 0 15 0 a7.5 7.5 0 1 0 -15 0zM788.14 1340.98 a7.5 7.5 0 1 0 15 0 a7.5 7.5 0 1 0 -15 0zM853.1 1378.48 a7.5 7.5 0 1 0 15 0 a7.5 7.5 0 1 0 -15 0zM853.1 1453.48 a7.5 7.5 0 1 0 15 0 a7.5 7.5 0 1 0 -15 0zM788.14 1490.98 a7.5 7.5 0 1 0 15 0 a7.5 7.5 0 1 0 -15 0zM788.14 2240.98 a7.5 7.5 0 1 0 15 0 a7.5 7.5 0 1 0 -15 0zM853.1 2278.48 a7.5 7.5 0 1 0 15 0 a7.5 7.5 0 1 0 -15 0zM853.1 2353.48 a7.5 7.5 0 1 0 15 0 a7.5 7.5 0 1 0 -15 0zM788.14 2390.98 a7.5 7.5 0 1 0 15 0 a7.5 7.5 0 1 0 -15 0zM723.19 2353.48 a7.5 7.5 0 1 0 15 0 a7.5 7.5 0 1 0 -15 0zM788.14 2465.98 a7.5 7.5 0 1 0 15 0 a7.5 7.5 0 1 0 -15 0zM853.1 2503.48 a7.5 7.5 0 1 0 15 0 a7.5 7.5 0 1 0 -15 0zM853.1 2578.48 a7.5 7.5 0 1 0 15 0 a7.5 7.5 0 1 0 -15 0zM788.14 2615.98 a7.5 7.5 0 1 0 15 0 a7.5 7.5 0 1 0 -15 0zM918.05 2615.98 a7.5 7.5 0 1 0 15 0 a7.5 7.5 0 1 0 -15 0zM918.05 2690.98 a7.5 7.5 0 1 0 15 0 a7.5 7.5 0 1 0 -15 0zM853.1 2728.48 a7.5 7.5 0 1 0 15 0 a7.5 7.5 0 1 0 -15 0zM788.14 2690.98 a7.5 7.5 0 1 0 15 0 a7.5 7.5 0 1 0 -15 0zM853.1 2803.48 a7.5 7.5 0 1 0 15 0 a7.5 7.5 0 1 0 -15 0zM788.14 2840.98 a7.5 7.5 0 1 0 15 0 a7.5 7.5 0 1 0 -15 0zM918.05 -9.02 a7.5 7.5 0 1 0 15 0 a7.5 7.5 0 1 0 -15 0zM983.01 28.48 a7.5 7.5 0 1 0 15 0 a7.5 7.5 0 1 0 -15 0zM983.01 103.48 a7.5 7.5 0 1 0 15 0 a7.5 7.5 0 1 0 -15 0zM918.05 140.98 a7.5 7.5 0 1 0 15 0 a7.5 7.5 0 1 0 -15 0zM918.05 215.98 a7.5 7.5 0 1 0 15 0 a7.5 7.5 0 1 0 -15 0zM983.01 253.48 a7.5 7.5 0 1 0 15 0 a7.5 7.5 0 1 0 -15 0zM983.01 328.48 a7.5 7.5 0 1 0 15 0 a7.5 7.5 0 1 0 -15 0zM983.01 778.48 a7.5 7.5 0 1 0 15 0 a7.5 7.5 0 1 0 -15 0zM1047.96 815.98 a7.5 7.5 0 1 0 15 0 a7.5 7.5 0 1 0 -15 0zM1047.96 890.98 a7.5 7.5 0 1 0 15 0 a7.5 7.5 0 1 0 -15 0zM983.01 928.48 a7.5 7.5 0 1 0 15 0 a7.5 7.5 0 1 0 -15 0zM918.05 890.98 a7.5 7.5 0 1 0 15 0 a7.5 7.5 0 1 0 -15 0zM918.05 815.98 a7.5 7.5 0 1 0 15 0 a7.5 7.5 0 1 0 -15 0zM983.01 1003.48 a7.5 7.5 0 1 0 15 0 a7.5 7.5 0 1 0 -15 0zM983.01 1228.48 a7.5 7.5 0 1 0 15 0 a7.5 7.5 0 1 0 -15 0zM1047.96 1265.98 a7.5 7.5 0 1 0 15 0 a7.5 7.5 0 1 0 -15 0zM1047.96 1340.98 a7.5 7.5 0 1 0 15 0 a7.5 7.5 0 1 0 -15 0zM983.01 1378.48 a7.5 7.5 0 1 0 15 0 a7.5 7.5 0 1 0 -15 0zM918.05 1340.98 a7.5 7.5 0 1 0 15 0 a7.5 7.5 0 1 0 -15 0zM918.05 1265.98 a7.5 7.5 0 1 0 15 0 a7.5 7.5 0 1 0 -15 0zM983.01 1453.48 a7.5 7.5 0 1 0 15 0 a7.5 7.5 0 1 0 -15 0zM1047.96 1490.98 a7.5 7.5 0 1 0 15 0 a7.5 7.5 0 1 0 -15 0zM1047.96 1565.98 a7.5 7.5 0 1 0 15 0 a7.5 7.5 0 1 0 -15 0zM983.01 1603.48 a7.5 7.5 0 1 0 15 0 a7.5 7.5 0 1 0 -15 0zM918.05 1565.98 a7.5 7.5 0 1 0 15 0 a7.5 7.5 0 1 0 -15 0zM918.05 1490.98 a7.5 7.5 0 1 0 15 0 a7.5 7.5 0 1 0 -15 0zM983.01 1678.48 a7.5 7.5 0 1 0 15 0 a7.5 7.5 0 1 0 -15 0zM918.05 1715.98 a7.5 7.5 0 1 0 15 0 a7.5 7.5 0 1 0 -15 0zM853.1 1678.48 a7.5 7.5 0 1 0 15 0 a7.5 7.5 0 1 0 -15 0zM853.1 1603.48 a7.5 7.5 0 1 0 15 0 a7.5 7.5 0 1 0 -15 0zM918.05 2015.98 a7.5 7.5 0 1 0 15 0 a7.5 7.5 0 1 0 -15 0zM983.01 2053.48 a7.5 7.5 0 1 0 15 0 a7.5 7.5 0 1 0 -15 0zM983.01 2128.48 a7.5 7.5 0 1 0 15 0 a7.5 7.5 0 1 0 -15 0zM918.05 2165.98 a7.5 7.5 0 1 0 15 0 a7.5 7.5 0 1 0 -15 0zM853.1 2128.48 a7.5 7.5 0 1 0 15 0 a7.5 7.5 0 1 0 -15 0zM853.1 2053.48 a7.5 7.5 0 1 0 15 0 a7.5 7.5 0 1 0 -15 0zM918.05 2240.98 a7.5 7.5 0 1 0 15 0 a7.5 7.5 0 1 0 -15 0zM983.01 2278.48 a7.5 7.5 0 1 0 15 0 a7.5 7.5 0 1 0 -15 0zM983.01 2353.48 a7.5 7.5 0 1 0 15 0 a7.5 7.5 0 1 0 -15 0zM918.05 2390.98 a7.5 7.5 0 1 0 15 0 a7.5 7.5 0 1 0 -15 0zM918.05 2465.98 a7.5 7.5 0 1 0 15 0 a7.5 7.5 0 1 0 -15 0zM983.01 2503.48 a7.5 7.5 0 1 0 15 0 a7.5 7.5 0 1 0 -15 0zM983.01 2578.48 a7.5 7.5 0 1 0 15 0 a7.5 7.5 0 1 0 -15 0zM1047.96 2615.98 a7.5 7.5 0 1 0 15 0 a7.5 7.5 0 1 0 -15 0zM1047.96 2690.98 a7.5 7.5 0 1 0 15 0 a7.5 7.5 0 1 0 -15 0zM983.01 2728.48 a7.5 7.5 0 1 0 15 0 a7.5 7.5 0 1 0 -15 0zM918.05 2915.98 a7.5 7.5 0 1 0 15 0 a7.5 7.5 0 1 0 -15 0zM983.01 2953.48 a7.5 7.5 0 1 0 15 0 a7.5 7.5 0 1 0 -15 0zM983.01 3028.48 a7.5 7.5 0 1 0 15 0 a7.5 7.5 0 1 0 -15 0zM918.05 3065.98 a7.5 7.5 0 1 0 15 0 a7.5 7.5 0 1 0 -15 0zM853.1 3028.48 a7.5 7.5 0 1 0 15 0 a7.5 7.5 0 1 0 -15 0zM853.1 2953.48 a7.5 7.5 0 1 0 15 0 a7.5 7.5 0 1 0 -15 0zM1047.96 440.98 a7.5 7.5 0 1 0 15 0 a7.5 7.5 0 1 0 -15 0zM1112.91 478.48 a7.5 7.5 0 1 0 15 0 a7.5 7.5 0 1 0 -15 0zM1112.91 553.48 a7.5 7.5 0 1 0 15 0 a7.5 7.5 0 1 0 -15 0zM1047.96 590.98 a7.5 7.5 0 1 0 15 0 a7.5 7.5 0 1 0 -15 0zM983.01 553.48 a7.5 7.5 0 1 0 15 0 a7.5 7.5 0 1 0 -15 0zM983.01 478.48 a7.5 7.5 0 1 0 15 0 a7.5 7.5 0 1 0 -15 0zM1047.96 665.98 a7.5 7.5 0 1 0 15 0 a7.5 7.5 0 1 0 -15 0zM1112.91 703.48 a7.5 7.5 0 1 0 15 0 a7.5 7.5 0 1 0 -15 0zM1112.91 778.48 a7.5 7.5 0 1 0 15 0 a7.5 7.5 0 1 0 -15 0zM983.01 703.48 a7.5 7.5 0 1 0 15 0 a7.5 7.5 0 1 0 -15 0zM1112.91 928.48 a7.5 7.5 0 1 0 15 0 a7.5 7.5 0 1 0 -15 0zM1112.91 1003.48 a7.5 7.5 0 1 0 15 0 a7.5 7.5 0 1 0 -15 0zM1047.96 1040.98 a7.5 7.5 0 1 0 15 0 a7.5 7.5 0 1 0 -15 0zM1177.87 1040.98 a7.5 7.5 0 1 0 15 0 a7.5 7.5 0 1 0 -15 0zM1177.87 1115.98 a7.5 7.5 0 1 0 15 0 a7.5 7.5 0 1 0 -15 0zM1112.91 1153.48 a7.5 7.5 0 1 0 15 0 a7.5 7.5 0 1 0 -15 0zM1047.96 1115.98 a7.5 7.5 0 1 0 15 0 a7.5 7.5 0 1 0 -15 0zM1112.91 1378.48 a7.5 7.5 0 1 0 15 0 a7.5 7.5 0 1 0 -15 0zM1112.91 1453.48 a7.5 7.5 0 1 0 15 0 a7.5 7.5 0 1 0 -15 0zM1112.91 1603.48 a7.5 7.5 0 1 0 15 0 a7.5 7.5 0 1 0 -15 0zM1112.91 1678.48 a7.5 7.5 0 1 0 15 0 a7.5 7.5 0 1 0 -15 0zM1047.96 1715.98 a7.5 7.5 0 1 0 15 0 a7.5 7.5 0 1 0 -15 0zM1177.87 1715.98 a7.5 7.5 0 1 0 15 0 a7.5 7.5 0 1 0 -15 0zM1177.87 1790.98 a7.5 7.5 0 1 0 15 0 a7.5 7.5 0 1 0 -15 0zM1112.91 1828.48 a7.5 7.5 0 1 0 15 0 a7.5 7.5 0 1 0 -15 0zM1047.96 1790.98 a7.5 7.5 0 1 0 15 0 a7.5 7.5 0 1 0 -15 0zM1112.91 1903.48 a7.5 7.5 0 1 0 15 0 a7.5 7.5 0 1 0 -15 0zM1177.87 1940.98 a7.5 7.5 0 1 0 15 0 a7.5 7.5 0 1 0 -15 0zM1177.87 2015.98 a7.5 7.5 0 1 0 15 0 a7.5 7.5 0 1 0 -15 0zM1112.91 2053.48 a7.5 7.5 0 1 0 15 0 a7.5 7.5 0 1 0 -15 0zM1047.96 2015.98 a7.5 7.5 0 1 0 15 0 a7.5 7.5 0 1 0 -15 0zM1047.96 1940.98 a7.5 7.5 0 1 0 15 0 a7.5 7.5 0 1 0 -15 0zM1112.91 2353.48 a7.5 7.5 0 1 0 15 0 a7.5 7.5 0 1 0 -15 0zM1177.87 2390.98 a7.5 7.5 0 1 0 15 0 a7.5 7.5 0 1 0 -15 0zM1177.87 2465.98 a7.5 7.5 0 1 0 15 0 a7.5 7.5 0 1 0 -15 0zM1112.91 2503.48 a7.5 7.5 0 1 0 15 0 a7.5 7.5 0 1 0 -15 0zM1047.96 2465.98 a7.5 7.5 0 1 0 15 0 a7.5 7.5 0 1 0 -15 0zM1047.96 2390.98 a7.5 7.5 0 1 0 15 0 a7.5 7.5 0 1 0 -15 0zM1112.91 2578.48 a7.5 7.5 0 1 0 15 0 a7.5 7.5 0 1 0 -15 0zM1177.87 2615.98 a7.5 7.5 0 1 0 15 0 a7.5 7.5 0 1 0 -15 0zM1177.87 2690.98 a7.5 7.5 0 1 0 15 0 a7.5 7.5 0 1 0 -15 0zM1112.91 2728.48 a7.5 7.5 0 1 0 15 0 a7.5 7.5 0 1 0 -15 0zM1047.96 2915.98 a7.5 7.5 0 1 0 15 0 a7.5 7.5 0 1 0 -15 0zM1112.91 2953.48 a7.5 7.5 0 1 0 15 0 a7.5 7.5 0 1 0 -15 0zM1112.91 3028.48 a7.5 7.5 0 1 0 15 0 a7.5 7.5 0 1 0 -15 0zM1047.96 3065.98 a7.5 7.5 0 1 0 15 0 a7.5 7.5 0 1 0 -15 0zM1242.82 103.48 a7.5 7.5 0 1 0 15 0 a7.5 7.5 0 1 0 -15 0zM1307.77 140.98 a7.5 7.5 0 1 0 15 0 a7.5 7.5 0 1 0 -15 0zM1307.77 215.98 a7.5 7.5 0 1 0 15 0 a7.5 7.5 0 1 0 -15 0zM1242.82 253.48 a7.5 7.5 0 1 0 15 0 a7.5 7.5 0 1 0 -15 0zM1177.87 215.98 a7.5 7.5 0 1 0 15 0 a7.5 7.5 0 1 0 -15 0zM1177.87 140.98 a7.5 7.5 0 1 0 15 0 a7.5 7.5 0 1 0 -15 0zM1242.82 328.48 a7.5 7.5 0 1 0 15 0 a7.5 7.5 0 1 0 -15 0zM1177.87 365.98 a7.5 7.5 0 1 0 15 0 a7.5 7.5 0 1 0 -15 0zM1112.91 328.48 a7.5 7.5 0 1 0 15 0 a7.5 7.5 0 1 0 -15 0zM1112.91 253.48 a7.5 7.5 0 1 0 15 0 a7.5 7.5 0 1 0 -15 0zM1307.77 365.98 a7.5 7.5 0 1 0 15 0 a7.5 7.5 0 1 0 -15 0zM1307.77 440.98 a7.5 7.5 0 1 0 15 0 a7.5 7.5 0 1 0 -15 0zM1242.82 478.48 a7.5 7.5 0 1 0 15 0 a7.5 7.5 0 1 0 -15 0zM1177.87 440.98 a7.5 7.5 0 1 0 15 0 a7.5 7.5 0 1 0 -15 0zM1242.82 778.48 a7.5 7.5 0 1 0 15 0 a7.5 7.5 0 1 0 -15 0zM1307.77 815.98 a7.5 7.5 0 1 0 15 0 a7.5 7.5 0 1 0 -15 0zM1307.77 890.98 a7.5 7.5 0 1 0 15 0 a7.5 7.5 0 1 0 -15 0zM1242.82 928.48 a7.5 7.5 0 1 0 15 0 a7.5 7.5 0 1 0 -15 0zM1177.87 890.98 a7.5 7.5 0 1 0 15 0 a7.5 7.5 0 1 0 -15 0zM1177.87 815.98 a7.5 7.5 0 1 0 15 0 a7.5 7.5 0 1 0 -15 0zM1242.82 1003.48 a7.5 7.5 0 1 0 15 0 a7.5 7.5 0 1 0 -15 0zM1307.77 1040.98 a7.5 7.5 0 1 0 15 0 a7.5 7.5 0 1 0 -15 0zM1307.77 1115.98 a7.5 7.5 0 1 0 15 0 a7.5 7.5 0 1 0 -15 0zM1242.82 1153.48 a7.5 7.5 0 1 0 15 0 a7.5 7.5 0 1 0 -15 0zM1242.82 1228.48 a7.5 7.5 0 1 0 15 0 a7.5 7.5 0 1 0 -15 0zM1177.87 1265.98 a7.5 7.5 0 1 0 15 0 a7.5 7.5 0 1 0 -15 0zM1112.91 1228.48 a7.5 7.5 0 1 0 15 0 a7.5 7.5 0 1 0 -15 0zM1307.77 1265.98 a7.5 7.5 0 1 0 15 0 a7.5 7.5 0 1 0 -15 0zM1307.77 1340.98 a7.5 7.5 0 1 0 15 0 a7.5 7.5 0 1 0 -15 0zM1242.82 1378.48 a7.5 7.5 0 1 0 15 0 a7.5 7.5 0 1 0 -15 0zM1177.87 1340.98 a7.5 7.5 0 1 0 15 0 a7.5 7.5 0 1 0 -15 0zM1242.82 1453.48 a7.5 7.5 0 1 0 15 0 a7.5 7.5 0 1 0 -15 0zM1177.87 1490.98 a7.5 7.5 0 1 0 15 0 a7.5 7.5 0 1 0 -15 0zM1242.82 1828.48 a7.5 7.5 0 1 0 15 0 a7.5 7.5 0 1 0 -15 0zM1242.82 1903.48 a7.5 7.5 0 1 0 15 0 a7.5 7.5 0 1 0 -15 0zM1242.82 2053.48 a7.5 7.5 0 1 0 15 0 a7.5 7.5 0 1 0 -15 0zM1242.82 2128.48 a7.5 7.5 0 1 0 15 0 a7.5 7.5 0 1 0 -15 0zM1177.87 2165.98 a7.5 7.5 0 1 0 15 0 a7.5 7.5 0 1 0 -15 0zM1112.91 2128.48 a7.5 7.5 0 1 0 15 0 a7.5 7.5 0 1 0 -15 0zM1307.77 2165.98 a7.5 7.5 0 1 0 15 0 a7.5 7.5 0 1 0 -15 0zM1307.77 2240.98 a7.5 7.5 0 1 0 15 0 a7.5 7.5 0 1 0 -15 0zM1242.82 2278.48 a7.5 7.5 0 1 0 15 0 a7.5 7.5 0 1 0 -15 0zM1177.87 2240.98 a7.5 7.5 0 1 0 15 0 a7.5 7.5 0 1 0 -15 0zM1242.82 2353.48 a7.5 7.5 0 1 0 15 0 a7.5 7.5 0 1 0 -15 0zM1112.91 2278.48 a7.5 7.5 0 1 0 15 0 a7.5 7.5 0 1 0 -15 0zM1242.82 2803.48 a7.5 7.5 0 1 0 15 0 a7.5 7.5 0 1 0 -15 0zM1307.77 2840.98 a7.5 7.5 0 1 0 15 0 a7.5 7.5 0 1 0 -15 0zM1307.77 2915.98 a7.5 7.5 0 1 0 15 0 a7.5 7.5 0 1 0 -15 0zM1242.82 2953.48 a7.5 7.5 0 1 0 15 0 a7.5 7.5 0 1 0 -15 0zM1177.87 2915.98 a7.5 7.5 0 1 0 15 0 a7.5 7.5 0 1 0 -15 0zM1177.87 2840.98 a7.5 7.5 0 1 0 15 0 a7.5 7.5 0 1 0 -15 0zM1307.78 1115.98 a7.5 7.5 0 1 0 15 0 a7.5 7.5 0 1 0 -15 0zM1372.73 1153.48 a7.5 7.5 0 1 0 15 0 a7.5 7.5 0 1 0 -15 0zM1372.73 1228.48 a7.5 7.5 0 1 0 15 0 a7.5 7.5 0 1 0 -15 0zM1307.78 1265.98 a7.5 7.5 0 1 0 15 0 a7.5 7.5 0 1 0 -15 0zM1372.73 1453.48 a7.5 7.5 0 1 0 15 0 a7.5 7.5 0 1 0 -15 0zM1437.68 1490.98 a7.5 7.5 0 1 0 15 0 a7.5 7.5 0 1 0 -15 0zM1437.68 1565.98 a7.5 7.5 0 1 0 15 0 a7.5 7.5 0 1 0 -15 0zM1372.73 1603.48 a7.5 7.5 0 1 0 15 0 a7.5 7.5 0 1 0 -15 0zM1307.78 1565.98 a7.5 7.5 0 1 0 15 0 a7.5 7.5 0 1 0 -15 0zM1307.78 1490.98 a7.5 7.5 0 1 0 15 0 a7.5 7.5 0 1 0 -15 0zM1372.73 1678.48 a7.5 7.5 0 1 0 15 0 a7.5 7.5 0 1 0 -15 0zM1307.78 1715.98 a7.5 7.5 0 1 0 15 0 a7.5 7.5 0 1 0 -15 0zM1242.82 1678.48 a7.5 7.5 0 1 0 15 0 a7.5 7.5 0 1 0 -15 0zM1242.82 1603.48 a7.5 7.5 0 1 0 15 0 a7.5 7.5 0 1 0 -15 0zM1372.73 1903.48 a7.5 7.5 0 1 0 15 0 a7.5 7.5 0 1 0 -15 0zM1437.68 1940.98 a7.5 7.5 0 1 0 15 0 a7.5 7.5 0 1 0 -15 0zM1437.68 2015.98 a7.5 7.5 0 1 0 15 0 a7.5 7.5 0 1 0 -15 0zM1372.73 2053.48 a7.5 7.5 0 1 0 15 0 a7.5 7.5 0 1 0 -15 0zM1307.78 2015.98 a7.5 7.5 0 1 0 15 0 a7.5 7.5 0 1 0 -15 0zM1307.78 1940.98 a7.5 7.5 0 1 0 15 0 a7.5 7.5 0 1 0 -15 0zM1372.73 2128.48 a7.5 7.5 0 1 0 15 0 a7.5 7.5 0 1 0 -15 0zM1307.78 2165.98 a7.5 7.5 0 1 0 15 0 a7.5 7.5 0 1 0 -15 0zM1437.68 2165.98 a7.5 7.5 0 1 0 15 0 a7.5 7.5 0 1 0 -15 0zM1437.68 2240.98 a7.5 7.5 0 1 0 15 0 a7.5 7.5 0 1 0 -15 0zM1372.73 2278.48 a7.5 7.5 0 1 0 15 0 a7.5 7.5 0 1 0 -15 0zM1307.78 2240.98 a7.5 7.5 0 1 0 15 0 a7.5 7.5 0 1 0 -15 0zM1307.78 2465.98 a7.5 7.5 0 1 0 15 0 a7.5 7.5 0 1 0 -15 0zM1372.73 2503.48 a7.5 7.5 0 1 0 15 0 a7.5 7.5 0 1 0 -15 0zM1372.73 2578.48 a7.5 7.5 0 1 0 15 0 a7.5 7.5 0 1 0 -15 0zM1307.78 2615.98 a7.5 7.5 0 1 0 15 0 a7.5 7.5 0 1 0 -15 0zM1242.82 2578.48 a7.5 7.5 0 1 0 15 0 a7.5 7.5 0 1 0 -15 0zM1242.82 2503.48 a7.5 7.5 0 1 0 15 0 a7.5 7.5 0 1 0 -15 0zM1437.68 2615.98 a7.5 7.5 0 1 0 15 0 a7.5 7.5 0 1 0 -15 0zM1437.68 2690.98 a7.5 7.5 0 1 0 15 0 a7.5 7.5 0 1 0 -15 0zM1372.73 2728.48 a7.5 7.5 0 1 0 15 0 a7.5 7.5 0 1 0 -15 0zM1307.78 2690.98 a7.5 7.5 0 1 0 15 0 a7.5 7.5 0 1 0 -15 0zM1372.73 2803.48 a7.5 7.5 0 1 0 15 0 a7.5 7.5 0 1 0 -15 0zM1307.78 2840.98 a7.5 7.5 0 1 0 15 0 a7.5 7.5 0 1 0 -15 0zM1242.82 2728.48 a7.5 7.5 0 1 0 15 0 a7.5 7.5 0 1 0 -15 0zM1437.68 215.98 a7.5 7.5 0 1 0 15 0 a7.5 7.5 0 1 0 -15 0zM1502.64 253.48 a7.5 7.5 0 1 0 15 0 a7.5 7.5 0 1 0 -15 0zM1502.64 328.48 a7.5 7.5 0 1 0 15 0 a7.5 7.5 0 1 0 -15 0zM1437.68 365.98 a7.5 7.5 0 1 0 15 0 a7.5 7.5 0 1 0 -15 0zM1372.73 328.48 a7.5 7.5 0 1 0 15 0 a7.5 7.5 0 1 0 -15 0zM1372.73 253.48 a7.5 7.5 0 1 0 15 0 a7.5 7.5 0 1 0 -15 0zM1437.68 440.98 a7.5 7.5 0 1 0 15 0 a7.5 7.5 0 1 0 -15 0zM1502.64 478.48 a7.5 7.5 0 1 0 15 0 a7.5 7.5 0 1 0 -15 0zM1502.64 553.48 a7.5 7.5 0 1 0 15 0 a7.5 7.5 0 1 0 -15 0zM1437.68 590.98 a7.5 7.5 0 1 0 15 0 a7.5 7.5 0 1 0 -15 0zM1372.73 553.48 a7.5 7.5 0 1 0 15 0 a7.5 7.5 0 1 0 -15 0zM1372.73 478.48 a7.5 7.5 0 1 0 15 0 a7.5 7.5 0 1 0 -15 0zM1437.68 665.98 a7.5 7.5 0 1 0 15 0 a7.5 7.5 0 1 0 -15 0zM1502.64 703.48 a7.5 7.5 0 1 0 15 0 a7.5 7.5 0 1 0 -15 0zM1502.64 778.48 a7.5 7.5 0 1 0 15 0 a7.5 7.5 0 1 0 -15 0zM1437.68 815.98 a7.5 7.5 0 1 0 15 0 a7.5 7.5 0 1 0 -15 0zM1372.73 778.48 a7.5 7.5 0 1 0 15 0 a7.5 7.5 0 1 0 -15 0zM1372.73 703.48 a7.5 7.5 0 1 0 15 0 a7.5 7.5 0 1 0 -15 0zM1502.64 1003.48 a7.5 7.5 0 1 0 15 0 a7.5 7.5 0 1 0 -15 0zM1567.59 1040.98 a7.5 7.5 0 1 0 15 0 a7.5 7.5 0 1 0 -15 0zM1567.59 1115.98 a7.5 7.5 0 1 0 15 0 a7.5 7.5 0 1 0 -15 0zM1502.64 1153.48 a7.5 7.5 0 1 0 15 0 a7.5 7.5 0 1 0 -15 0zM1437.68 1115.98 a7.5 7.5 0 1 0 15 0 a7.5 7.5 0 1 0 -15 0zM1437.68 1040.98 a7.5 7.5 0 1 0 15 0 a7.5 7.5 0 1 0 -15 0zM1502.64 1228.48 a7.5 7.5 0 1 0 15 0 a7.5 7.5 0 1 0 -15 0zM1437.68 1265.98 a7.5 7.5 0 1 0 15 0 a7.5 7.5 0 1 0 -15 0zM1437.68 1340.98 a7.5 7.5 0 1 0 15 0 a7.5 7.5 0 1 0 -15 0zM1502.64 1378.48 a7.5 7.5 0 1 0 15 0 a7.5 7.5 0 1 0 -15 0zM1502.64 1453.48 a7.5 7.5 0 1 0 15 0 a7.5 7.5 0 1 0 -15 0zM1372.73 1378.48 a7.5 7.5 0 1 0 15 0 a7.5 7.5 0 1 0 -15 0zM1502.64 1678.48 a7.5 7.5 0 1 0 15 0 a7.5 7.5 0 1 0 -15 0zM1567.59 1715.98 a7.5 7.5 0 1 0 15 0 a7.5 7.5 0 1 0 -15 0zM1567.59 1790.98 a7.5 7.5 0 1 0 15 0 a7.5 7.5 0 1 0 -15 0zM1502.64 1828.48 a7.5 7.5 0 1 0 15 0 a7.5 7.5 0 1 0 -15 0zM1437.68 1790.98 a7.5 7.5 0 1 0 15 0 a7.5 7.5 0 1 0 -15 0zM1437.68 1715.98 a7.5 7.5 0 1 0 15 0 a7.5 7.5 0 1 0 -15 0zM1502.64 1903.48 a7.5 7.5 0 1 0 15 0 a7.5 7.5 0 1 0 -15 0zM1567.59 1940.98 a7.5 7.5 0 1 0 15 0 a7.5 7.5 0 1 0 -15 0zM1567.59 2015.98 a7.5 7.5 0 1 0 15 0 a7.5 7.5 0 1 0 -15 0zM1502.64 2053.48 a7.5 7.5 0 1 0 15 0 a7.5 7.5 0 1 0 -15 0zM1502.64 2128.48 a7.5 7.5 0 1 0 15 0 a7.5 7.5 0 1 0 -15 0zM1567.59 2165.98 a7.5 7.5 0 1 0 15 0 a7.5 7.5 0 1 0 -15 0zM1567.59 2240.98 a7.5 7.5 0 1 0 15 0 a7.5 7.5 0 1 0 -15 0zM1502.64 2278.48 a7.5 7.5 0 1 0 15 0 a7.5 7.5 0 1 0 -15 0zM1502.64 2803.48 a7.5 7.5 0 1 0 15 0 a7.5 7.5 0 1 0 -15 0zM1567.59 2840.98 a7.5 7.5 0 1 0 15 0 a7.5 7.5 0 1 0 -15 0zM1567.59 2915.98 a7.5 7.5 0 1 0 15 0 a7.5 7.5 0 1 0 -15 0zM1502.64 2953.48 a7.5 7.5 0 1 0 15 0 a7.5 7.5 0 1 0 -15 0zM1437.68 2915.98 a7.5 7.5 0 1 0 15 0 a7.5 7.5 0 1 0 -15 0zM1437.68 2840.98 a7.5 7.5 0 1 0 15 0 a7.5 7.5 0 1 0 -15 0zM1502.64 3028.48 a7.5 7.5 0 1 0 15 0 a7.5 7.5 0 1 0 -15 0zM1437.68 3065.98 a7.5 7.5 0 1 0 15 0 a7.5 7.5 0 1 0 -15 0zM1372.73 3028.48 a7.5 7.5 0 1 0 15 0 a7.5 7.5 0 1 0 -15 0zM1372.73 2953.48 a7.5 7.5 0 1 0 15 0 a7.5 7.5 0 1 0 -15 0zM1632.54 103.48 a7.5 7.5 0 1 0 15 0 a7.5 7.5 0 1 0 -15 0zM1697.5 140.98 a7.5 7.5 0 1 0 15 0 a7.5 7.5 0 1 0 -15 0zM1697.5 215.98 a7.5 7.5 0 1 0 15 0 a7.5 7.5 0 1 0 -15 0zM1632.54 253.48 a7.5 7.5 0 1 0 15 0 a7.5 7.5 0 1 0 -15 0zM1567.59 215.98 a7.5 7.5 0 1 0 15 0 a7.5 7.5 0 1 0 -15 0zM1567.59 140.98 a7.5 7.5 0 1 0 15 0 a7.5 7.5 0 1 0 -15 0zM1632.54 328.48 a7.5 7.5 0 1 0 15 0 a7.5 7.5 0 1 0 -15 0zM1567.59 365.98 a7.5 7.5 0 1 0 15 0 a7.5 7.5 0 1 0 -15 0zM1567.59 440.98 a7.5 7.5 0 1 0 15 0 a7.5 7.5 0 1 0 -15 0zM1632.54 478.48 a7.5 7.5 0 1 0 15 0 a7.5 7.5 0 1 0 -15 0zM1632.54 553.48 a7.5 7.5 0 1 0 15 0 a7.5 7.5 0 1 0 -15 0zM1567.59 590.98 a7.5 7.5 0 1 0 15 0 a7.5 7.5 0 1 0 -15 0zM1632.54 778.48 a7.5 7.5 0 1 0 15 0 a7.5 7.5 0 1 0 -15 0zM1697.5 815.98 a7.5 7.5 0 1 0 15 0 a7.5 7.5 0 1 0 -15 0zM1697.5 890.98 a7.5 7.5 0 1 0 15 0 a7.5 7.5 0 1 0 -15 0zM1632.54 928.48 a7.5 7.5 0 1 0 15 0 a7.5 7.5 0 1 0 -15 0zM1567.59 890.98 a7.5 7.5 0 1 0 15 0 a7.5 7.5 0 1 0 -15 0zM1567.59 815.98 a7.5 7.5 0 1 0 15 0 a7.5 7.5 0 1 0 -15 0zM1632.54 1003.48 a7.5 7.5 0 1 0 15 0 a7.5 7.5 0 1 0 -15 0zM1502.64 928.48 a7.5 7.5 0 1 0 15 0 a7.5 7.5 0 1 0 -15 0zM1697.5 1040.98 a7.5 7.5 0 1 0 15 0 a7.5 7.5 0 1 0 -15 0zM1697.5 1115.98 a7.5 7.5 0 1 0 15 0 a7.5 7.5 0 1 0 -15 0zM1632.54 1153.48 a7.5 7.5 0 1 0 15 0 a7.5 7.5 0 1 0 -15 0zM1632.54 1228.48 a7.5 7.5 0 1 0 15 0 a7.5 7.5 0 1 0 -15 0zM1697.5 1265.98 a7.5 7.5 0 1 0 15 0 a7.5 7.5 0 1 0 -15 0zM1697.5 1340.98 a7.5 7.5 0 1 0 15 0 a7.5 7.5 0 1 0 -15 0zM1632.54 1378.48 a7.5 7.5 0 1 0 15 0 a7.5 7.5 0 1 0 -15 0zM1567.59 1340.98 a7.5 7.5 0 1 0 15 0 a7.5 7.5 0 1 0 -15 0zM1567.59 1265.98 a7.5 7.5 0 1 0 15 0 a7.5 7.5 0 1 0 -15 0zM1632.54 1453.48 a7.5 7.5 0 1 0 15 0 a7.5 7.5 0 1 0 -15 0zM1567.59 1490.98 a7.5 7.5 0 1 0 15 0 a7.5 7.5 0 1 0 -15 0zM1632.54 1678.48 a7.5 7.5 0 1 0 15 0 a7.5 7.5 0 1 0 -15 0zM1697.5 1715.98 a7.5 7.5 0 1 0 15 0 a7.5 7.5 0 1 0 -15 0zM1697.5 1790.98 a7.5 7.5 0 1 0 15 0 a7.5 7.5 0 1 0 -15 0zM1632.54 1828.48 a7.5 7.5 0 1 0 15 0 a7.5 7.5 0 1 0 -15 0zM1632.54 2353.48 a7.5 7.5 0 1 0 15 0 a7.5 7.5 0 1 0 -15 0zM1697.5 2390.98 a7.5 7.5 0 1 0 15 0 a7.5 7.5 0 1 0 -15 0zM1697.5 2465.98 a7.5 7.5 0 1 0 15 0 a7.5 7.5 0 1 0 -15 0zM1632.54 2503.48 a7.5 7.5 0 1 0 15 0 a7.5 7.5 0 1 0 -15 0zM1567.59 2465.98 a7.5 7.5 0 1 0 15 0 a7.5 7.5 0 1 0 -15 0zM1567.59 2390.98 a7.5 7.5 0 1 0 15 0 a7.5 7.5 0 1 0 -15 0zM1567.59 2690.98 a7.5 7.5 0 1 0 15 0 a7.5 7.5 0 1 0 -15 0zM1632.54 2728.48 a7.5 7.5 0 1 0 15 0 a7.5 7.5 0 1 0 -15 0zM1632.54 2803.48 a7.5 7.5 0 1 0 15 0 a7.5 7.5 0 1 0 -15 0zM1502.64 2728.48 a7.5 7.5 0 1 0 15 0 a7.5 7.5 0 1 0 -15 0zM1762.45 253.48 a7.5 7.5 0 1 0 15 0 a7.5 7.5 0 1 0 -15 0zM1762.45 328.48 a7.5 7.5 0 1 0 15 0 a7.5 7.5 0 1 0 -15 0zM1697.5 365.98 a7.5 7.5 0 1 0 15 0 a7.5 7.5 0 1 0 -15 0zM1827.4 365.98 a7.5 7.5 0 1 0 15 0 a7.5 7.5 0 1 0 -15 0zM1827.4 440.98 a7.5 7.5 0 1 0 15 0 a7.5 7.5 0 1 0 -15 0zM1762.45 478.48 a7.5 7.5 0 1 0 15 0 a7.5 7.5 0 1 0 -15 0zM1697.5 440.98 a7.5 7.5 0 1 0 15 0 a7.5 7.5 0 1 0 -15 0zM1762.45 553.48 a7.5 7.5 0 1 0 15 0 a7.5 7.5 0 1 0 -15 0zM1827.4 590.98 a7.5 7.5 0 1 0 15 0 a7.5 7.5 0 1 0 -15 0zM1827.4 665.98 a7.5 7.5 0 1 0 15 0 a7.5 7.5 0 1 0 -15 0zM1762.45 703.48 a7.5 7.5 0 1 0 15 0 a7.5 7.5 0 1 0 -15 0zM1697.5 665.98 a7.5 7.5 0 1 0 15 0 a7.5 7.5 0 1 0 -15 0zM1697.5 590.98 a7.5 7.5 0 1 0 15 0 a7.5 7.5 0 1 0 -15 0zM1762.45 778.48 a7.5 7.5 0 1 0 15 0 a7.5 7.5 0 1 0 -15 0zM1827.4 815.98 a7.5 7.5 0 1 0 15 0 a7.5 7.5 0 1 0 -15 0zM1827.4 890.98 a7.5 7.5 0 1 0 15 0 a7.5 7.5 0 1 0 -15 0zM1762.45 928.48 a7.5 7.5 0 1 0 15 0 a7.5 7.5 0 1 0 -15 0zM1762.45 1003.48 a7.5 7.5 0 1 0 15 0 a7.5 7.5 0 1 0 -15 0zM1762.45 1153.48 a7.5 7.5 0 1 0 15 0 a7.5 7.5 0 1 0 -15 0zM1762.45 1228.48 a7.5 7.5 0 1 0 15 0 a7.5 7.5 0 1 0 -15 0zM1762.45 1903.48 a7.5 7.5 0 1 0 15 0 a7.5 7.5 0 1 0 -15 0zM1827.4 1940.98 a7.5 7.5 0 1 0 15 0 a7.5 7.5 0 1 0 -15 0zM1827.4 2015.98 a7.5 7.5 0 1 0 15 0 a7.5 7.5 0 1 0 -15 0zM1762.45 2053.48 a7.5 7.5 0 1 0 15 0 a7.5 7.5 0 1 0 -15 0zM1697.5 2015.98 a7.5 7.5 0 1 0 15 0 a7.5 7.5 0 1 0 -15 0zM1697.5 1940.98 a7.5 7.5 0 1 0 15 0 a7.5 7.5 0 1 0 -15 0zM1762.45 2128.48 a7.5 7.5 0 1 0 15 0 a7.5 7.5 0 1 0 -15 0zM1827.4 2165.98 a7.5 7.5 0 1 0 15 0 a7.5 7.5 0 1 0 -15 0zM1827.4 2240.98 a7.5 7.5 0 1 0 15 0 a7.5 7.5 0 1 0 -15 0zM1762.45 2278.48 a7.5 7.5 0 1 0 15 0 a7.5 7.5 0 1 0 -15 0zM1697.5 2240.98 a7.5 7.5 0 1 0 15 0 a7.5 7.5 0 1 0 -15 0zM1697.5 2165.98 a7.5 7.5 0 1 0 15 0 a7.5 7.5 0 1 0 -15 0zM1762.45 2803.48 a7.5 7.5 0 1 0 15 0 a7.5 7.5 0 1 0 -15 0zM1827.4 2840.98 a7.5 7.5 0 1 0 15 0 a7.5 7.5 0 1 0 -15 0zM1827.4 2915.98 a7.5 7.5 0 1 0 15 0 a7.5 7.5 0 1 0 -15 0zM1762.45 2953.48 a7.5 7.5 0 1 0 15 0 a7.5 7.5 0 1 0 -15 0zM1697.5 2915.98 a7.5 7.5 0 1 0 15 0 a7.5 7.5 0 1 0 -15 0zM1697.5 2840.98 a7.5 7.5 0 1 0 15 0 a7.5 7.5 0 1 0 -15 0zM1827.4 -9.02 a7.5 7.5 0 1 0 15 0 a7.5 7.5 0 1 0 -15 0zM1892.36 28.48 a7.5 7.5 0 1 0 15 0 a7.5 7.5 0 1 0 -15 0zM1892.36 103.48 a7.5 7.5 0 1 0 15 0 a7.5 7.5 0 1 0 -15 0zM1827.4 140.98 a7.5 7.5 0 1 0 15 0 a7.5 7.5 0 1 0 -15 0zM1762.45 103.48 a7.5 7.5 0 1 0 15 0 a7.5 7.5 0 1 0 -15 0zM1762.45 28.48 a7.5 7.5 0 1 0 15 0 a7.5 7.5 0 1 0 -15 0zM1827.4 215.98 a7.5 7.5 0 1 0 15 0 a7.5 7.5 0 1 0 -15 0zM1892.36 253.48 a7.5 7.5 0 1 0 15 0 a7.5 7.5 0 1 0 -15 0zM1892.36 328.48 a7.5 7.5 0 1 0 15 0 a7.5 7.5 0 1 0 -15 0zM1957.31 365.98 a7.5 7.5 0 1 0 15 0 a7.5 7.5 0 1 0 -15 0zM1957.31 440.98 a7.5 7.5 0 1 0 15 0 a7.5 7.5 0 1 0 -15 0zM1892.36 478.48 a7.5 7.5 0 1 0 15 0 a7.5 7.5 0 1 0 -15 0zM1892.36 553.48 a7.5 7.5 0 1 0 15 0 a7.5 7.5 0 1 0 -15 0zM1957.31 590.98 a7.5 7.5 0 1 0 15 0 a7.5 7.5 0 1 0 -15 0zM1957.31 665.98 a7.5 7.5 0 1 0 15 0 a7.5 7.5 0 1 0 -15 0zM1892.36 703.48 a7.5 7.5 0 1 0 15 0 a7.5 7.5 0 1 0 -15 0zM1892.36 1228.48 a7.5 7.5 0 1 0 15 0 a7.5 7.5 0 1 0 -15 0zM1957.31 1265.98 a7.5 7.5 0 1 0 15 0 a7.5 7.5 0 1 0 -15 0zM1957.31 1340.98 a7.5 7.5 0 1 0 15 0 a7.5 7.5 0 1 0 -15 0zM1892.36 1378.48 a7.5 7.5 0 1 0 15 0 a7.5 7.5 0 1 0 -15 0zM1827.4 1340.98 a7.5 7.5 0 1 0 15 0 a7.5 7.5 0 1 0 -15 0zM1827.4 1265.98 a7.5 7.5 0 1 0 15 0 a7.5 7.5 0 1 0 -15 0zM1892.36 1453.48 a7.5 7.5 0 1 0 15 0 a7.5 7.5 0 1 0 -15 0zM1827.4 1490.98 a7.5 7.5 0 1 0 15 0 a7.5 7.5 0 1 0 -15 0zM1762.45 1453.48 a7.5 7.5 0 1 0 15 0 a7.5 7.5 0 1 0 -15 0zM1762.45 1378.48 a7.5 7.5 0 1 0 15 0 a7.5 7.5 0 1 0 -15 0zM1827.4 1565.98 a7.5 7.5 0 1 0 15 0 a7.5 7.5 0 1 0 -15 0zM1892.36 1603.48 a7.5 7.5 0 1 0 15 0 a7.5 7.5 0 1 0 -15 0zM1892.36 1678.48 a7.5 7.5 0 1 0 15 0 a7.5 7.5 0 1 0 -15 0zM1827.4 1715.98 a7.5 7.5 0 1 0 15 0 a7.5 7.5 0 1 0 -15 0zM1762.45 1678.48 a7.5 7.5 0 1 0 15 0 a7.5 7.5 0 1 0 -15 0zM1762.45 1603.48 a7.5 7.5 0 1 0 15 0 a7.5 7.5 0 1 0 -15 0zM1957.31 1715.98 a7.5 7.5 0 1 0 15 0 a7.5 7.5 0 1 0 -15 0zM1957.31 1790.98 a7.5 7.5 0 1 0 15 0 a7.5 7.5 0 1 0 -15 0zM1892.36 1828.48 a7.5 7.5 0 1 0 15 0 a7.5 7.5 0 1 0 -15 0zM1827.4 1790.98 a7.5 7.5 0 1 0 15 0 a7.5 7.5 0 1 0 -15 0zM1892.36 1903.48 a7.5 7.5 0 1 0 15 0 a7.5 7.5 0 1 0 -15 0zM1762.45 1828.48 a7.5 7.5 0 1 0 15 0 a7.5 7.5 0 1 0 -15 0zM1957.31 1940.98 a7.5 7.5 0 1 0 15 0 a7.5 7.5 0 1 0 -15 0zM1957.31 2015.98 a7.5 7.5 0 1 0 15 0 a7.5 7.5 0 1 0 -15 0zM1892.36 2053.48 a7.5 7.5 0 1 0 15 0 a7.5 7.5 0 1 0 -15 0zM1892.36 2128.48 a7.5 7.5 0 1 0 15 0 a7.5 7.5 0 1 0 -15 0zM1892.36 2278.48 a7.5 7.5 0 1 0 15 0 a7.5 7.5 0 1 0 -15 0zM1892.36 2353.48 a7.5 7.5 0 1 0 15 0 a7.5 7.5 0 1 0 -15 0zM1827.4 2390.98 a7.5 7.5 0 1 0 15 0 a7.5 7.5 0 1 0 -15 0zM1762.45 2353.48 a7.5 7.5 0 1 0 15 0 a7.5 7.5 0 1 0 -15 0zM1957.31 2390.98 a7.5 7.5 0 1 0 15 0 a7.5 7.5 0 1 0 -15 0zM1957.31 2465.98 a7.5 7.5 0 1 0 15 0 a7.5 7.5 0 1 0 -15 0zM1892.36 2503.48 a7.5 7.5 0 1 0 15 0 a7.5 7.5 0 1 0 -15 0zM1827.4 2465.98 a7.5 7.5 0 1 0 15 0 a7.5 7.5 0 1 0 -15 0zM1892.36 2578.48 a7.5 7.5 0 1 0 15 0 a7.5 7.5 0 1 0 -15 0zM1957.31 2615.98 a7.5 7.5 0 1 0 15 0 a7.5 7.5 0 1 0 -15 0zM1957.31 2690.98 a7.5 7.5 0 1 0 15 0 a7.5 7.5 0 1 0 -15 0zM1892.36 2728.48 a7.5 7.5 0 1 0 15 0 a7.5 7.5 0 1 0 -15 0zM1827.4 2690.98 a7.5 7.5 0 1 0 15 0 a7.5 7.5 0 1 0 -15 0zM1827.4 2615.98 a7.5 7.5 0 1 0 15 0 a7.5 7.5 0 1 0 -15 0zM1892.36 3028.48 a7.5 7.5 0 1 0 15 0 a7.5 7.5 0 1 0 -15 0zM1957.31 3065.98 a7.5 7.5 0 1 0 15 0 a7.5 7.5 0 1 0 -15 0zM1957.31 3140.98 a7.5 7.5 0 1 0 15 0 a7.5 7.5 0 1 0 -15 0zM1892.36 3178.48 a7.5 7.5 0 1 0 15 0 a7.5 7.5 0 1 0 -15 0zM1827.4 3140.98 a7.5 7.5 0 1 0 15 0 a7.5 7.5 0 1 0 -15 0zM1827.4 3065.98 a7.5 7.5 0 1 0 15 0 a7.5 7.5 0 1 0 -15 0zM2022.27 328.48 a7.5 7.5 0 1 0 15 0 a7.5 7.5 0 1 0 -15 0zM2087.22 365.98 a7.5 7.5 0 1 0 15 0 a7.5 7.5 0 1 0 -15 0zM2087.22 440.98 a7.5 7.5 0 1 0 15 0 a7.5 7.5 0 1 0 -15 0zM2022.27 478.48 a7.5 7.5 0 1 0 15 0 a7.5 7.5 0 1 0 -15 0zM2022.27 553.48 a7.5 7.5 0 1 0 15 0 a7.5 7.5 0 1 0 -15 0zM2022.27 778.48 a7.5 7.5 0 1 0 15 0 a7.5 7.5 0 1 0 -15 0zM2087.22 815.98 a7.5 7.5 0 1 0 15 0 a7.5 7.5 0 1 0 -15 0zM2087.22 890.98 a7.5 7.5 0 1 0 15 0 a7.5 7.5 0 1 0 -15 0zM2022.27 928.48 a7.5 7.5 0 1 0 15 0 a7.5 7.5 0 1 0 -15 0zM1957.31 890.98 a7.5 7.5 0 1 0 15 0 a7.5 7.5 0 1 0 -15 0zM1957.31 815.98 a7.5 7.5 0 1 0 15 0 a7.5 7.5 0 1 0 -15 0zM2022.27 1003.48 a7.5 7.5 0 1 0 15 0 a7.5 7.5 0 1 0 -15 0zM1957.31 1040.98 a7.5 7.5 0 1 0 15 0 a7.5 7.5 0 1 0 -15 0zM1892.36 1003.48 a7.5 7.5 0 1 0 15 0 a7.5 7.5 0 1 0 -15 0zM1892.36 928.48 a7.5 7.5 0 1 0 15 0 a7.5 7.5 0 1 0 -15 0zM1957.31 1115.98 a7.5 7.5 0 1 0 15 0 a7.5 7.5 0 1 0 -15 0zM2022.27 1153.48 a7.5 7.5 0 1 0 15 0 a7.5 7.5 0 1 0 -15 0zM2022.27 1228.48 a7.5 7.5 0 1 0 15 0 a7.5 7.5 0 1 0 -15 0zM1892.36 1153.48 a7.5 7.5 0 1 0 15 0 a7.5 7.5 0 1 0 -15 0zM2022.27 1678.48 a7.5 7.5 0 1 0 15 0 a7.5 7.5 0 1 0 -15 0zM2087.22 1715.98 a7.5 7.5 0 1 0 15 0 a7.5 7.5 0 1 0 -15 0zM2087.22 1790.98 a7.5 7.5 0 1 0 15 0 a7.5 7.5 0 1 0 -15 0zM2022.27 1828.48 a7.5 7.5 0 1 0 15 0 a7.5 7.5 0 1 0 -15 0zM2022.27 1903.48 a7.5 7.5 0 1 0 15 0 a7.5 7.5 0 1 0 -15 0zM2087.22 1940.98 a7.5 7.5 0 1 0 15 0 a7.5 7.5 0 1 0 -15 0zM2087.22 2015.98 a7.5 7.5 0 1 0 15 0 a7.5 7.5 0 1 0 -15 0zM2022.27 2053.48 a7.5 7.5 0 1 0 15 0 a7.5 7.5 0 1 0 -15 0zM2022.27 2128.48 a7.5 7.5 0 1 0 15 0 a7.5 7.5 0 1 0 -15 0zM1957.31 2165.98 a7.5 7.5 0 1 0 15 0 a7.5 7.5 0 1 0 -15 0zM1957.31 2240.98 a7.5 7.5 0 1 0 15 0 a7.5 7.5 0 1 0 -15 0zM2022.27 2278.48 a7.5 7.5 0 1 0 15 0 a7.5 7.5 0 1 0 -15 0zM2022.27 2353.48 a7.5 7.5 0 1 0 15 0 a7.5 7.5 0 1 0 -15 0zM2022.27 2503.48 a7.5 7.5 0 1 0 15 0 a7.5 7.5 0 1 0 -15 0zM2022.27 2578.48 a7.5 7.5 0 1 0 15 0 a7.5 7.5 0 1 0 -15 0zM2022.27 2728.48 a7.5 7.5 0 1 0 15 0 a7.5 7.5 0 1 0 -15 0zM2022.27 2803.48 a7.5 7.5 0 1 0 15 0 a7.5 7.5 0 1 0 -15 0zM1957.31 2840.98 a7.5 7.5 0 1 0 15 0 a7.5 7.5 0 1 0 -15 0zM1892.36 2803.48 a7.5 7.5 0 1 0 15 0 a7.5 7.5 0 1 0 -15 0zM2087.22 2840.98 a7.5 7.5 0 1 0 15 0 a7.5 7.5 0 1 0 -15 0zM2087.22 2915.98 a7.5 7.5 0 1 0 15 0 a7.5 7.5 0 1 0 -15 0zM2022.27 2953.48 a7.5 7.5 0 1 0 15 0 a7.5 7.5 0 1 0 -15 0zM1957.31 2915.98 a7.5 7.5 0 1 0 15 0 a7.5 7.5 0 1 0 -15 0z" fill="#03305d"></path><path d="M28.31 128.64L71.61 153.64L71.61 203.64L28.31 228.64L-14.99 203.64L-14.99 153.64zM71.61 203.64L114.92 228.64L114.92 278.64L71.61 303.64L28.31 278.64L28.31 228.64zM28.31 278.64L71.61 303.64L71.61 353.64L28.31 378.64L-14.99 353.64L-14.99 303.64zM71.61 353.64L114.92 378.64L114.92 428.64L71.61 453.64L28.31 428.64L28.31 378.64zM28.31 428.64L71.61 453.64L71.61 503.64L28.31 528.64L-14.99 503.64L-14.99 453.64zM28.31 728.64L71.61 753.64L71.61 803.64L28.31 828.64L-14.99 803.64L-14.99 753.64zM28.31 878.64L71.61 903.64L71.61 953.64L28.31 978.64L-14.99 953.64L-14.99 903.64zM28.31 1028.64L71.61 1053.64L71.61 1103.64L28.31 1128.64L-14.99 1103.64L-14.99 1053.64zM28.31 1178.64L71.61 1203.64L71.61 1253.64L28.31 1278.64L-14.99 1253.64L-14.99 1203.64zM71.61 1403.64L114.92 1428.64L114.92 1478.64L71.61 1503.64L28.31 1478.64L28.31 1428.64zM71.61 1553.64L114.92 1578.64L114.92 1628.64L71.61 1653.64L28.31 1628.64L28.31 1578.64zM71.61 1703.64L114.92 1728.64L114.92 1778.64L71.61 1803.64L28.31 1778.64L28.31 1728.64zM28.31 1778.64L71.61 1803.64L71.61 1853.64L28.31 1878.64L-14.99 1853.64L-14.99 1803.64zM71.61 1853.64L114.92 1878.64L114.92 1928.64L71.61 1953.64L28.31 1928.64L28.31 1878.64zM71.61 2453.64L114.92 2478.64L114.92 2528.64L71.61 2553.64L28.31 2528.64L28.31 2478.64zM28.31 2528.64L71.61 2553.64L71.61 2603.64L28.31 2628.64L-14.99 2603.64L-14.99 2553.64zM28.31 2828.64L71.61 2853.64L71.61 2903.64L28.31 2928.64L-14.99 2903.64L-14.99 2853.64zM114.92 278.64L158.22 303.64L158.22 353.64L114.92 378.64L71.61 353.64L71.61 303.64zM158.22 503.64L201.52 528.64L201.52 578.64L158.22 603.64L114.92 578.64L114.92 528.64zM158.22 653.64L201.52 678.64L201.52 728.64L158.22 753.64L114.92 728.64L114.92 678.64zM114.92 728.64L158.22 753.64L158.22 803.64L114.92 828.64L71.61 803.64L71.61 753.64zM158.22 1403.64L201.52 1428.64L201.52 1478.64L158.22 1503.64L114.92 1478.64L114.92 1428.64zM158.22 1553.64L201.52 1578.64L201.52 1628.64L158.22 1653.64L114.92 1628.64L114.92 1578.64zM114.92 1628.64L158.22 1653.64L158.22 1703.64L114.92 1728.64L71.61 1703.64L71.61 1653.64zM158.22 1853.64L201.52 1878.64L201.52 1928.64L158.22 1953.64L114.92 1928.64L114.92 1878.64zM114.92 1928.64L158.22 1953.64L158.22 2003.64L114.92 2028.64L71.61 2003.64L71.61 1953.64zM158.22 2003.64L201.52 2028.64L201.52 2078.64L158.22 2103.64L114.92 2078.64L114.92 2028.64zM114.92 2228.64L158.22 2253.64L158.22 2303.64L114.92 2328.64L71.61 2303.64L71.61 2253.64zM158.22 2303.64L201.52 2328.64L201.52 2378.64L158.22 2403.64L114.92 2378.64L114.92 2328.64zM114.92 2528.64L158.22 2553.64L158.22 2603.64L114.92 2628.64L71.61 2603.64L71.61 2553.64zM158.22 2903.64L201.52 2928.64L201.52 2978.64L158.22 3003.64L114.92 2978.64L114.92 2928.64zM201.52 -21.36L244.82 3.64L244.82 53.64L201.52 78.64L158.22 53.64L158.22 3.64zM244.82 53.64L288.13 78.64L288.13 128.64L244.82 153.64L201.52 128.64L201.52 78.64zM201.52 428.64L244.82 453.64L244.82 503.64L201.52 528.64L158.22 503.64L158.22 453.64zM201.52 2528.64L244.82 2553.64L244.82 2603.64L201.52 2628.64L158.22 2603.64L158.22 2553.64zM201.52 2678.64L244.82 2703.64L244.82 2753.64L201.52 2778.64L158.22 2753.64L158.22 2703.64zM201.52 2978.64L244.82 3003.64L244.82 3053.64L201.52 3078.64L158.22 3053.64L158.22 3003.64zM331.43 53.64L374.73 78.64L374.73 128.64L331.43 153.64L288.13 128.64L288.13 78.64zM331.43 353.64L374.73 378.64L374.73 428.64L331.43 453.64L288.13 428.64L288.13 378.64zM288.13 428.64L331.43 453.64L331.43 503.64L288.13 528.64L244.82 503.64L244.82 453.64zM288.13 578.64L331.43 603.64L331.43 653.64L288.13 678.64L244.82 653.64L244.82 603.64zM331.43 953.64L374.73 978.64L374.73 1028.64L331.43 1053.64L288.13 1028.64L288.13 978.64zM288.13 1178.64L331.43 1203.64L331.43 1253.64L288.13 1278.64L244.82 1253.64L244.82 1203.64zM288.13 1328.64L331.43 1353.64L331.43 1403.64L288.13 1428.64L244.82 1403.64L244.82 1353.64zM288.13 1478.64L331.43 1503.64L331.43 1553.64L288.13 1578.64L244.82 1553.64L244.82 1503.64zM288.13 1778.64L331.43 1803.64L331.43 1853.64L288.13 1878.64L244.82 1853.64L244.82 1803.64zM288.13 2528.64L331.43 2553.64L331.43 2603.64L288.13 2628.64L244.82 2603.64L244.82 2553.64zM418.03 203.64L461.34 228.64L461.34 278.64L418.03 303.64L374.73 278.64L374.73 228.64zM374.73 278.64L418.03 303.64L418.03 353.64L374.73 378.64L331.43 353.64L331.43 303.64zM374.73 428.64L418.03 453.64L418.03 503.64L374.73 528.64L331.43 503.64L331.43 453.64zM418.03 653.64L461.34 678.64L461.34 728.64L418.03 753.64L374.73 728.64L374.73 678.64zM418.03 803.64L461.34 828.64L461.34 878.64L418.03 903.64L374.73 878.64L374.73 828.64zM374.73 878.64L418.03 903.64L418.03 953.64L374.73 978.64L331.43 953.64L331.43 903.64zM418.03 1553.64L461.34 1578.64L461.34 1628.64L418.03 1653.64L374.73 1628.64L374.73 1578.64zM418.03 1703.64L461.34 1728.64L461.34 1778.64L418.03 1803.64L374.73 1778.64L374.73 1728.64zM374.73 1928.64L418.03 1953.64L418.03 2003.64L374.73 2028.64L331.43 2003.64L331.43 1953.64zM374.73 2078.64L418.03 2103.64L418.03 2153.64L374.73 2178.64L331.43 2153.64L331.43 2103.64zM374.73 2678.64L418.03 2703.64L418.03 2753.64L374.73 2778.64L331.43 2753.64L331.43 2703.64zM504.64 53.64L547.94 78.64L547.94 128.64L504.64 153.64L461.34 128.64L461.34 78.64zM504.64 203.64L547.94 228.64L547.94 278.64L504.64 303.64L461.34 278.64L461.34 228.64zM504.64 353.64L547.94 378.64L547.94 428.64L504.64 453.64L461.34 428.64L461.34 378.64zM504.64 503.64L547.94 528.64L547.94 578.64L504.64 603.64L461.34 578.64L461.34 528.64zM504.64 1253.64L547.94 1278.64L547.94 1328.64L504.64 1353.64L461.34 1328.64L461.34 1278.64zM504.64 1703.64L547.94 1728.64L547.94 1778.64L504.64 1803.64L461.34 1778.64L461.34 1728.64zM504.64 2153.64L547.94 2178.64L547.94 2228.64L504.64 2253.64L461.34 2228.64L461.34 2178.64zM461.34 2528.64L504.64 2553.64L504.64 2603.64L461.34 2628.64L418.03 2603.64L418.03 2553.64zM461.34 2828.64L504.64 2853.64L504.64 2903.64L461.34 2928.64L418.03 2903.64L418.03 2853.64zM547.94 128.64L591.24 153.64L591.24 203.64L547.94 228.64L504.64 203.64L504.64 153.64zM547.94 278.64L591.24 303.64L591.24 353.64L547.94 378.64L504.64 353.64L504.64 303.64zM591.24 653.64L634.54 678.64L634.54 728.64L591.24 753.64L547.94 728.64L547.94 678.64zM547.94 728.64L591.24 753.64L591.24 803.64L547.94 828.64L504.64 803.64L504.64 753.64zM591.24 803.64L634.54 828.64L634.54 878.64L591.24 903.64L547.94 878.64L547.94 828.64zM591.24 953.64L634.54 978.64L634.54 1028.64L591.24 1053.64L547.94 1028.64L547.94 978.64zM591.24 1103.64L634.54 1128.64L634.54 1178.64L591.24 1203.64L547.94 1178.64L547.94 1128.64zM591.24 1403.64L634.54 1428.64L634.54 1478.64L591.24 1503.64L547.94 1478.64L547.94 1428.64zM547.94 1478.64L591.24 1503.64L591.24 1553.64L547.94 1578.64L504.64 1553.64L504.64 1503.64zM591.24 1553.64L634.54 1578.64L634.54 1628.64L591.24 1653.64L547.94 1628.64L547.94 1578.64zM591.24 2453.64L634.54 2478.64L634.54 2528.64L591.24 2553.64L547.94 2528.64L547.94 2478.64zM547.94 2528.64L591.24 2553.64L591.24 2603.64L547.94 2628.64L504.64 2603.64L504.64 2553.64zM591.24 2603.64L634.54 2628.64L634.54 2678.64L591.24 2703.64L547.94 2678.64L547.94 2628.64zM547.94 2978.64L591.24 3003.64L591.24 3053.64L547.94 3078.64L504.64 3053.64L504.64 3003.64zM677.85 53.64L721.15 78.64L721.15 128.64L677.85 153.64L634.54 128.64L634.54 78.64zM634.54 278.64L677.85 303.64L677.85 353.64L634.54 378.64L591.24 353.64L591.24 303.64zM677.85 653.64L721.15 678.64L721.15 728.64L677.85 753.64L634.54 728.64L634.54 678.64zM677.85 1103.64L721.15 1128.64L721.15 1178.64L677.85 1203.64L634.54 1178.64L634.54 1128.64zM677.85 1403.64L721.15 1428.64L721.15 1478.64L677.85 1503.64L634.54 1478.64L634.54 1428.64zM634.54 1628.64L677.85 1653.64L677.85 1703.64L634.54 1728.64L591.24 1703.64L591.24 1653.64zM677.85 1703.64L721.15 1728.64L721.15 1778.64L677.85 1803.64L634.54 1778.64L634.54 1728.64zM634.54 1778.64L677.85 1803.64L677.85 1853.64L634.54 1878.64L591.24 1853.64L591.24 1803.64zM634.54 2078.64L677.85 2103.64L677.85 2153.64L634.54 2178.64L591.24 2153.64L591.24 2103.64zM677.85 2603.64L721.15 2628.64L721.15 2678.64L677.85 2703.64L634.54 2678.64L634.54 2628.64zM677.85 2753.64L721.15 2778.64L721.15 2828.64L677.85 2853.64L634.54 2828.64L634.54 2778.64zM764.45 203.64L807.75 228.64L807.75 278.64L764.45 303.64L721.15 278.64L721.15 228.64zM764.45 353.64L807.75 378.64L807.75 428.64L764.45 453.64L721.15 428.64L721.15 378.64zM721.15 428.64L764.45 453.64L764.45 503.64L721.15 528.64L677.85 503.64L677.85 453.64zM764.45 503.64L807.75 528.64L807.75 578.64L764.45 603.64L721.15 578.64L721.15 528.64zM764.45 653.64L807.75 678.64L807.75 728.64L764.45 753.64L721.15 728.64L721.15 678.64zM764.45 1253.64L807.75 1278.64L807.75 1328.64L764.45 1353.64L721.15 1328.64L721.15 1278.64zM721.15 1628.64L764.45 1653.64L764.45 1703.64L721.15 1728.64L677.85 1703.64L677.85 1653.64zM764.45 1853.64L807.75 1878.64L807.75 1928.64L764.45 1953.64L721.15 1928.64L721.15 1878.64zM721.15 2678.64L764.45 2703.64L764.45 2753.64L721.15 2778.64L677.85 2753.64L677.85 2703.64zM721.15 2828.64L764.45 2853.64L764.45 2903.64L721.15 2928.64L677.85 2903.64L677.85 2853.64zM764.45 2903.64L807.75 2928.64L807.75 2978.64L764.45 3003.64L721.15 2978.64L721.15 2928.64zM807.75 128.64L851.06 153.64L851.06 203.64L807.75 228.64L764.45 203.64L764.45 153.64zM851.06 353.64L894.36 378.64L894.36 428.64L851.06 453.64L807.75 428.64L807.75 378.64zM851.06 503.64L894.36 528.64L894.36 578.64L851.06 603.64L807.75 578.64L807.75 528.64zM851.06 1403.64L894.36 1428.64L894.36 1478.64L851.06 1503.64L807.75 1478.64L807.75 1428.64zM807.75 1478.64L851.06 1503.64L851.06 1553.64L807.75 1578.64L764.45 1553.64L764.45 1503.64zM851.06 1553.64L894.36 1578.64L894.36 1628.64L851.06 1653.64L807.75 1628.64L807.75 1578.64zM807.75 2078.64L851.06 2103.64L851.06 2153.64L807.75 2178.64L764.45 2153.64L764.45 2103.64zM807.75 2378.64L851.06 2403.64L851.06 2453.64L807.75 2478.64L764.45 2453.64L764.45 2403.64zM851.06 2453.64L894.36 2478.64L894.36 2528.64L851.06 2553.64L807.75 2528.64L807.75 2478.64zM851.06 2603.64L894.36 2628.64L894.36 2678.64L851.06 2703.64L807.75 2678.64L807.75 2628.64zM807.75 2678.64L851.06 2703.64L851.06 2753.64L807.75 2778.64L764.45 2753.64L764.45 2703.64zM851.06 2753.64L894.36 2778.64L894.36 2828.64L851.06 2853.64L807.75 2828.64L807.75 2778.64zM894.36 278.64L937.66 303.64L937.66 353.64L894.36 378.64L851.06 353.64L851.06 303.64zM894.36 878.64L937.66 903.64L937.66 953.64L894.36 978.64L851.06 953.64L851.06 903.64zM894.36 1028.64L937.66 1053.64L937.66 1103.64L894.36 1128.64L851.06 1103.64L851.06 1053.64zM937.66 1103.64L980.97 1128.64L980.97 1178.64L937.66 1203.64L894.36 1178.64L894.36 1128.64zM894.36 1178.64L937.66 1203.64L937.66 1253.64L894.36 1278.64L851.06 1253.64L851.06 1203.64zM894.36 1328.64L937.66 1353.64L937.66 1403.64L894.36 1428.64L851.06 1403.64L851.06 1353.64zM894.36 1478.64L937.66 1503.64L937.66 1553.64L894.36 1578.64L851.06 1553.64L851.06 1503.64zM894.36 1628.64L937.66 1653.64L937.66 1703.64L894.36 1728.64L851.06 1703.64L851.06 1653.64zM937.66 1853.64L980.97 1878.64L980.97 1928.64L937.66 1953.64L894.36 1928.64L894.36 1878.64zM937.66 2003.64L980.97 2028.64L980.97 2078.64L937.66 2103.64L894.36 2078.64L894.36 2028.64zM894.36 2078.64L937.66 2103.64L937.66 2153.64L894.36 2178.64L851.06 2153.64L851.06 2103.64zM894.36 2528.64L937.66 2553.64L937.66 2603.64L894.36 2628.64L851.06 2603.64L851.06 2553.64zM1024.27 203.64L1067.57 228.64L1067.57 278.64L1024.27 303.64L980.97 278.64L980.97 228.64zM980.97 278.64L1024.27 303.64L1024.27 353.64L980.97 378.64L937.66 353.64L937.66 303.64zM1024.27 353.64L1067.57 378.64L1067.57 428.64L1024.27 453.64L980.97 428.64L980.97 378.64zM1024.27 653.64L1067.57 678.64L1067.57 728.64L1024.27 753.64L980.97 728.64L980.97 678.64zM1024.27 803.64L1067.57 828.64L1067.57 878.64L1024.27 903.64L980.97 878.64L980.97 828.64zM980.97 878.64L1024.27 903.64L1024.27 953.64L980.97 978.64L937.66 953.64L937.66 903.64zM1024.27 1403.64L1067.57 1428.64L1067.57 1478.64L1024.27 1503.64L980.97 1478.64L980.97 1428.64zM980.97 1478.64L1024.27 1503.64L1024.27 1553.64L980.97 1578.64L937.66 1553.64L937.66 1503.64zM980.97 1628.64L1024.27 1653.64L1024.27 1703.64L980.97 1728.64L937.66 1703.64L937.66 1653.64zM980.97 2228.64L1024.27 2253.64L1024.27 2303.64L980.97 2328.64L937.66 2303.64L937.66 2253.64zM1024.27 2603.64L1067.57 2628.64L1067.57 2678.64L1024.27 2703.64L980.97 2678.64L980.97 2628.64zM1024.27 2753.64L1067.57 2778.64L1067.57 2828.64L1024.27 2853.64L980.97 2828.64L980.97 2778.64zM980.97 2978.64L1024.27 3003.64L1024.27 3053.64L980.97 3078.64L937.66 3053.64L937.66 3003.64zM1067.57 -21.36L1110.87 3.64L1110.87 53.64L1067.57 78.64L1024.27 53.64L1024.27 3.64zM1110.87 53.64L1154.17 78.64L1154.17 128.64L1110.87 153.64L1067.57 128.64L1067.57 78.64zM1067.57 428.64L1110.87 453.64L1110.87 503.64L1067.57 528.64L1024.27 503.64L1024.27 453.64zM1067.57 878.64L1110.87 903.64L1110.87 953.64L1067.57 978.64L1024.27 953.64L1024.27 903.64zM1067.57 1178.64L1110.87 1203.64L1110.87 1253.64L1067.57 1278.64L1024.27 1253.64L1024.27 1203.64zM1110.87 1853.64L1154.17 1878.64L1154.17 1928.64L1110.87 1953.64L1067.57 1928.64L1067.57 1878.64zM1067.57 1928.64L1110.87 1953.64L1110.87 2003.64L1067.57 2028.64L1024.27 2003.64L1024.27 1953.64zM1110.87 2153.64L1154.17 2178.64L1154.17 2228.64L1110.87 2253.64L1067.57 2228.64L1067.57 2178.64zM1067.57 2378.64L1110.87 2403.64L1110.87 2453.64L1067.57 2478.64L1024.27 2453.64L1024.27 2403.64zM1197.48 203.64L1240.78 228.64L1240.78 278.64L1197.48 303.64L1154.17 278.64L1154.17 228.64zM1154.17 278.64L1197.48 303.64L1197.48 353.64L1154.17 378.64L1110.87 353.64L1110.87 303.64zM1154.17 1028.64L1197.48 1053.64L1197.48 1103.64L1154.17 1128.64L1110.87 1103.64L1110.87 1053.64zM1154.17 1178.64L1197.48 1203.64L1197.48 1253.64L1154.17 1278.64L1110.87 1253.64L1110.87 1203.64zM1197.48 1253.64L1240.78 1278.64L1240.78 1328.64L1197.48 1353.64L1154.17 1328.64L1154.17 1278.64zM1154.17 1328.64L1197.48 1353.64L1197.48 1403.64L1154.17 1428.64L1110.87 1403.64L1110.87 1353.64zM1197.48 1403.64L1240.78 1428.64L1240.78 1478.64L1197.48 1503.64L1154.17 1478.64L1154.17 1428.64zM1154.17 1778.64L1197.48 1803.64L1197.48 1853.64L1154.17 1878.64L1110.87 1853.64L1110.87 1803.64zM1154.17 2378.64L1197.48 2403.64L1197.48 2453.64L1154.17 2478.64L1110.87 2453.64L1110.87 2403.64zM1197.48 2453.64L1240.78 2478.64L1240.78 2528.64L1197.48 2553.64L1154.17 2528.64L1154.17 2478.64zM1154.17 2528.64L1197.48 2553.64L1197.48 2603.64L1154.17 2628.64L1110.87 2603.64L1110.87 2553.64zM1197.48 2603.64L1240.78 2628.64L1240.78 2678.64L1197.48 2703.64L1154.17 2678.64L1154.17 2628.64zM1154.17 2678.64L1197.48 2703.64L1197.48 2753.64L1154.17 2778.64L1110.87 2753.64L1110.87 2703.64zM1197.48 2753.64L1240.78 2778.64L1240.78 2828.64L1197.48 2853.64L1154.17 2828.64L1154.17 2778.64zM1154.17 2978.64L1197.48 3003.64L1197.48 3053.64L1154.17 3078.64L1110.87 3053.64L1110.87 3003.64zM1240.78 128.64L1284.08 153.64L1284.08 203.64L1240.78 228.64L1197.48 203.64L1197.48 153.64zM1284.08 203.64L1327.38 228.64L1327.38 278.64L1284.08 303.64L1240.78 278.64L1240.78 228.64zM1240.78 578.64L1284.08 603.64L1284.08 653.64L1240.78 678.64L1197.48 653.64L1197.48 603.64zM1240.78 728.64L1284.08 753.64L1284.08 803.64L1240.78 828.64L1197.48 803.64L1197.48 753.64zM1284.08 1103.64L1327.38 1128.64L1327.38 1178.64L1284.08 1203.64L1240.78 1178.64L1240.78 1128.64zM1240.78 1328.64L1284.08 1353.64L1284.08 1403.64L1240.78 1428.64L1197.48 1403.64L1197.48 1353.64zM1284.08 1553.64L1327.38 1578.64L1327.38 1628.64L1284.08 1653.64L1240.78 1628.64L1240.78 1578.64zM1284.08 1853.64L1327.38 1878.64L1327.38 1928.64L1284.08 1953.64L1240.78 1928.64L1240.78 1878.64zM1284.08 2003.64L1327.38 2028.64L1327.38 2078.64L1284.08 2103.64L1240.78 2078.64L1240.78 2028.64zM1284.08 2153.64L1327.38 2178.64L1327.38 2228.64L1284.08 2253.64L1240.78 2228.64L1240.78 2178.64zM1240.78 2528.64L1284.08 2553.64L1284.08 2603.64L1240.78 2628.64L1197.48 2603.64L1197.48 2553.64zM1240.78 2828.64L1284.08 2853.64L1284.08 2903.64L1240.78 2928.64L1197.48 2903.64L1197.48 2853.64zM1327.38 -21.36L1370.69 3.64L1370.69 53.64L1327.38 78.64L1284.08 53.64L1284.08 3.64zM1327.38 278.64L1370.69 303.64L1370.69 353.64L1327.38 378.64L1284.08 353.64L1284.08 303.64zM1327.38 578.64L1370.69 603.64L1370.69 653.64L1327.38 678.64L1284.08 653.64L1284.08 603.64zM1327.38 878.64L1370.69 903.64L1370.69 953.64L1327.38 978.64L1284.08 953.64L1284.08 903.64zM1327.38 1028.64L1370.69 1053.64L1370.69 1103.64L1327.38 1128.64L1284.08 1103.64L1284.08 1053.64zM1327.38 1328.64L1370.69 1353.64L1370.69 1403.64L1327.38 1428.64L1284.08 1403.64L1284.08 1353.64zM1370.69 1403.64L1413.99 1428.64L1413.99 1478.64L1370.69 1503.64L1327.38 1478.64L1327.38 1428.64zM1370.69 1703.64L1413.99 1728.64L1413.99 1778.64L1370.69 1803.64L1327.38 1778.64L1327.38 1728.64zM1327.38 2378.64L1370.69 2403.64L1370.69 2453.64L1327.38 2478.64L1284.08 2453.64L1284.08 2403.64zM1370.69 2603.64L1413.99 2628.64L1413.99 2678.64L1370.69 2703.64L1327.38 2678.64L1327.38 2628.64zM1327.38 2678.64L1370.69 2703.64L1370.69 2753.64L1327.38 2778.64L1284.08 2753.64L1284.08 2703.64zM1457.29 353.64L1500.6 378.64L1500.6 428.64L1457.29 453.64L1413.99 428.64L1413.99 378.64zM1413.99 878.64L1457.29 903.64L1457.29 953.64L1413.99 978.64L1370.69 953.64L1370.69 903.64zM1457.29 953.64L1500.6 978.64L1500.6 1028.64L1457.29 1053.64L1413.99 1028.64L1413.99 978.64zM1457.29 1403.64L1500.6 1428.64L1500.6 1478.64L1457.29 1503.64L1413.99 1478.64L1413.99 1428.64zM1457.29 1553.64L1500.6 1578.64L1500.6 1628.64L1457.29 1653.64L1413.99 1628.64L1413.99 1578.64zM1413.99 1628.64L1457.29 1653.64L1457.29 1703.64L1413.99 1728.64L1370.69 1703.64L1370.69 1653.64zM1413.99 1928.64L1457.29 1953.64L1457.29 2003.64L1413.99 2028.64L1370.69 2003.64L1370.69 1953.64zM1457.29 2003.64L1500.6 2028.64L1500.6 2078.64L1457.29 2103.64L1413.99 2078.64L1413.99 2028.64zM1457.29 2453.64L1500.6 2478.64L1500.6 2528.64L1457.29 2553.64L1413.99 2528.64L1413.99 2478.64zM1413.99 2528.64L1457.29 2553.64L1457.29 2603.64L1413.99 2628.64L1370.69 2603.64L1370.69 2553.64zM1457.29 2603.64L1500.6 2628.64L1500.6 2678.64L1457.29 2703.64L1413.99 2678.64L1413.99 2628.64zM1413.99 2678.64L1457.29 2703.64L1457.29 2753.64L1413.99 2778.64L1370.69 2753.64L1370.69 2703.64zM1413.99 2828.64L1457.29 2853.64L1457.29 2903.64L1413.99 2928.64L1370.69 2903.64L1370.69 2853.64zM1457.29 2903.64L1500.6 2928.64L1500.6 2978.64L1457.29 3003.64L1413.99 2978.64L1413.99 2928.64zM1413.99 2978.64L1457.29 3003.64L1457.29 3053.64L1413.99 3078.64L1370.69 3053.64L1370.69 3003.64zM1500.6 428.64L1543.9 453.64L1543.9 503.64L1500.6 528.64L1457.29 503.64L1457.29 453.64zM1500.6 578.64L1543.9 603.64L1543.9 653.64L1500.6 678.64L1457.29 653.64L1457.29 603.64zM1543.9 653.64L1587.2 678.64L1587.2 728.64L1543.9 753.64L1500.6 728.64L1500.6 678.64zM1500.6 728.64L1543.9 753.64L1543.9 803.64L1500.6 828.64L1457.29 803.64L1457.29 753.64zM1500.6 1628.64L1543.9 1653.64L1543.9 1703.64L1500.6 1728.64L1457.29 1703.64L1457.29 1653.64zM1500.6 2228.64L1543.9 2253.64L1543.9 2303.64L1500.6 2328.64L1457.29 2303.64L1457.29 2253.64zM1500.6 2828.64L1543.9 2853.64L1543.9 2903.64L1500.6 2928.64L1457.29 2903.64L1457.29 2853.64zM1500.6 2978.64L1543.9 3003.64L1543.9 3053.64L1500.6 3078.64L1457.29 3053.64L1457.29 3003.64zM1587.2 128.64L1630.5 153.64L1630.5 203.64L1587.2 228.64L1543.9 203.64L1543.9 153.64zM1630.5 203.64L1673.81 228.64L1673.81 278.64L1630.5 303.64L1587.2 278.64L1587.2 228.64zM1630.5 503.64L1673.81 528.64L1673.81 578.64L1630.5 603.64L1587.2 578.64L1587.2 528.64zM1630.5 803.64L1673.81 828.64L1673.81 878.64L1630.5 903.64L1587.2 878.64L1587.2 828.64zM1630.5 953.64L1673.81 978.64L1673.81 1028.64L1630.5 1053.64L1587.2 1028.64L1587.2 978.64zM1630.5 1103.64L1673.81 1128.64L1673.81 1178.64L1630.5 1203.64L1587.2 1178.64L1587.2 1128.64zM1587.2 1328.64L1630.5 1353.64L1630.5 1403.64L1587.2 1428.64L1543.9 1403.64L1543.9 1353.64zM1630.5 1703.64L1673.81 1728.64L1673.81 1778.64L1630.5 1803.64L1587.2 1778.64L1587.2 1728.64zM1587.2 1928.64L1630.5 1953.64L1630.5 2003.64L1587.2 2028.64L1543.9 2003.64L1543.9 1953.64zM1630.5 2453.64L1673.81 2478.64L1673.81 2528.64L1630.5 2553.64L1587.2 2528.64L1587.2 2478.64zM1630.5 2603.64L1673.81 2628.64L1673.81 2678.64L1630.5 2703.64L1587.2 2678.64L1587.2 2628.64zM1587.2 2678.64L1630.5 2703.64L1630.5 2753.64L1587.2 2778.64L1543.9 2753.64L1543.9 2703.64zM1630.5 2753.64L1673.81 2778.64L1673.81 2828.64L1630.5 2853.64L1587.2 2828.64L1587.2 2778.64zM1587.2 2978.64L1630.5 3003.64L1630.5 3053.64L1587.2 3078.64L1543.9 3053.64L1543.9 3003.64zM1673.81 -21.36L1717.11 3.64L1717.11 53.64L1673.81 78.64L1630.5 53.64L1630.5 3.64zM1673.81 278.64L1717.11 303.64L1717.11 353.64L1673.81 378.64L1630.5 353.64L1630.5 303.64zM1717.11 653.64L1760.41 678.64L1760.41 728.64L1717.11 753.64L1673.81 728.64L1673.81 678.64zM1717.11 953.64L1760.41 978.64L1760.41 1028.64L1717.11 1053.64L1673.81 1028.64L1673.81 978.64zM1717.11 1553.64L1760.41 1578.64L1760.41 1628.64L1717.11 1653.64L1673.81 1628.64L1673.81 1578.64zM1717.11 1703.64L1760.41 1728.64L1760.41 1778.64L1717.11 1803.64L1673.81 1778.64L1673.81 1728.64zM1717.11 2153.64L1760.41 2178.64L1760.41 2228.64L1717.11 2253.64L1673.81 2228.64L1673.81 2178.64zM1717.11 2603.64L1760.41 2628.64L1760.41 2678.64L1717.11 2703.64L1673.81 2678.64L1673.81 2628.64zM1673.81 2978.64L1717.11 3003.64L1717.11 3053.64L1673.81 3078.64L1630.5 3053.64L1630.5 3003.64zM1803.71 353.64L1847.02 378.64L1847.02 428.64L1803.71 453.64L1760.41 428.64L1760.41 378.64zM1760.41 428.64L1803.71 453.64L1803.71 503.64L1760.41 528.64L1717.11 503.64L1717.11 453.64zM1803.71 653.64L1847.02 678.64L1847.02 728.64L1803.71 753.64L1760.41 728.64L1760.41 678.64zM1760.41 728.64L1803.71 753.64L1803.71 803.64L1760.41 828.64L1717.11 803.64L1717.11 753.64zM1803.71 803.64L1847.02 828.64L1847.02 878.64L1803.71 903.64L1760.41 878.64L1760.41 828.64zM1760.41 878.64L1803.71 903.64L1803.71 953.64L1760.41 978.64L1717.11 953.64L1717.11 903.64zM1803.71 1103.64L1847.02 1128.64L1847.02 1178.64L1803.71 1203.64L1760.41 1178.64L1760.41 1128.64zM1803.71 1253.64L1847.02 1278.64L1847.02 1328.64L1803.71 1353.64L1760.41 1328.64L1760.41 1278.64zM1803.71 1403.64L1847.02 1428.64L1847.02 1478.64L1803.71 1503.64L1760.41 1478.64L1760.41 1428.64zM1803.71 1853.64L1847.02 1878.64L1847.02 1928.64L1803.71 1953.64L1760.41 1928.64L1760.41 1878.64zM1760.41 1928.64L1803.71 1953.64L1803.71 2003.64L1760.41 2028.64L1717.11 2003.64L1717.11 1953.64zM1803.71 2003.64L1847.02 2028.64L1847.02 2078.64L1803.71 2103.64L1760.41 2078.64L1760.41 2028.64zM1803.71 2603.64L1847.02 2628.64L1847.02 2678.64L1803.71 2703.64L1760.41 2678.64L1760.41 2628.64zM1890.32 203.64L1933.62 228.64L1933.62 278.64L1890.32 303.64L1847.02 278.64L1847.02 228.64zM1847.02 278.64L1890.32 303.64L1890.32 353.64L1847.02 378.64L1803.71 353.64L1803.71 303.64zM1890.32 653.64L1933.62 678.64L1933.62 728.64L1890.32 753.64L1847.02 728.64L1847.02 678.64zM1890.32 953.64L1933.62 978.64L1933.62 1028.64L1890.32 1053.64L1847.02 1028.64L1847.02 978.64zM1847.02 1178.64L1890.32 1203.64L1890.32 1253.64L1847.02 1278.64L1803.71 1253.64L1803.71 1203.64zM1890.32 1553.64L1933.62 1578.64L1933.62 1628.64L1890.32 1653.64L1847.02 1628.64L1847.02 1578.64zM1890.32 1703.64L1933.62 1728.64L1933.62 1778.64L1890.32 1803.64L1847.02 1778.64L1847.02 1728.64zM1847.02 1778.64L1890.32 1803.64L1890.32 1853.64L1847.02 1878.64L1803.71 1853.64L1803.71 1803.64zM1890.32 1853.64L1933.62 1878.64L1933.62 1928.64L1890.32 1953.64L1847.02 1928.64L1847.02 1878.64zM1847.02 2378.64L1890.32 2403.64L1890.32 2453.64L1847.02 2478.64L1803.71 2453.64L1803.71 2403.64zM1933.62 -21.36L1976.92 3.64L1976.92 53.64L1933.62 78.64L1890.32 53.64L1890.32 3.64zM1976.92 353.64L2020.23 378.64L2020.23 428.64L1976.92 453.64L1933.62 428.64L1933.62 378.64zM1933.62 428.64L1976.92 453.64L1976.92 503.64L1933.62 528.64L1890.32 503.64L1890.32 453.64zM1976.92 503.64L2020.23 528.64L2020.23 578.64L1976.92 603.64L1933.62 578.64L1933.62 528.64zM1933.62 578.64L1976.92 603.64L1976.92 653.64L1933.62 678.64L1890.32 653.64L1890.32 603.64zM1976.92 803.64L2020.23 828.64L2020.23 878.64L1976.92 903.64L1933.62 878.64L1933.62 828.64zM1976.92 1253.64L2020.23 1278.64L2020.23 1328.64L1976.92 1353.64L1933.62 1328.64L1933.62 1278.64zM1933.62 1778.64L1976.92 1803.64L1976.92 1853.64L1933.62 1878.64L1890.32 1853.64L1890.32 1803.64zM1933.62 1928.64L1976.92 1953.64L1976.92 2003.64L1933.62 2028.64L1890.32 2003.64L1890.32 1953.64zM1976.92 2003.64L2020.23 2028.64L2020.23 2078.64L1976.92 2103.64L1933.62 2078.64L1933.62 2028.64zM1933.62 2078.64L1976.92 2103.64L1976.92 2153.64L1933.62 2178.64L1890.32 2153.64L1890.32 2103.64zM1976.92 2303.64L2020.23 2328.64L2020.23 2378.64L1976.92 2403.64L1933.62 2378.64L1933.62 2328.64zM1976.92 2453.64L2020.23 2478.64L2020.23 2528.64L1976.92 2553.64L1933.62 2528.64L1933.62 2478.64zM1976.92 2903.64L2020.23 2928.64L2020.23 2978.64L1976.92 3003.64L1933.62 2978.64L1933.62 2928.64zM2020.23 -21.36L2063.53 3.64L2063.53 53.64L2020.23 78.64L1976.92 53.64L1976.92 3.64zM2020.23 278.64L2063.53 303.64L2063.53 353.64L2020.23 378.64L1976.92 353.64L1976.92 303.64zM2020.23 428.64L2063.53 453.64L2063.53 503.64L2020.23 528.64L1976.92 503.64L1976.92 453.64zM2020.23 728.64L2063.53 753.64L2063.53 803.64L2020.23 828.64L1976.92 803.64L1976.92 753.64zM2020.23 1178.64L2063.53 1203.64L2063.53 1253.64L2020.23 1278.64L1976.92 1253.64L1976.92 1203.64zM2020.23 2528.64L2063.53 2553.64L2063.53 2603.64L2020.23 2628.64L1976.92 2603.64L1976.92 2553.64zM2063.53 2603.64L2106.83 2628.64L2106.83 2678.64L2063.53 2703.64L2020.23 2678.64L2020.23 2628.64z" stroke="rgba(98, 0, 238, 1)" stroke-width="2"></path></g><defs><mask id="SvgjsMask1010"><rect width="2000" height="3000" fill="#ffffff"></rect></mask></defs></svg>