<svg xmlns="http://www.w3.org/2000/svg" version="1.1" xmlns:xlink="http://www.w3.org/1999/xlink" xmlns:svgjs="http://svgjs.com/svgjs" width="100%" preserveAspectRatio="xMinYMin slice"><g mask="url(&quot;#SvgjsMask1319&quot;)" fill="none"><rect width="2000" height="6000" x="0" y="0" fill="rgba(255, 255, 255, 1)"></rect><path d="M106.65 4095.99L215.77 4158.99L215.77 4284.99L106.65 4347.99L-2.47 4284.99L-2.47 4158.99zM106.65 5229.99L215.77 5292.99L215.77 5418.99L106.65 5481.99L-2.47 5418.99L-2.47 5292.99zM215.77 5796.99L324.89 5859.99L324.89 5985.99L215.77 6048.99L106.65 5985.99L106.65 5859.99zM324.89 4095.99L434.02 4158.99L434.02 4284.99L324.89 4347.99L215.77 4284.99L215.77 4158.99zM434.02 5796.99L543.14 5859.99L543.14 5985.99L434.02 6048.99L324.89 5985.99L324.89 5859.99zM652.26 504.99L761.38 567.99L761.38 693.99L652.26 756.99L543.14 693.99L543.14 567.99zM652.26 2772.99L761.38 2835.99L761.38 2961.99L652.26 3024.99L543.14 2961.99L543.14 2835.99zM652.26 4284.99L761.38 4347.99L761.38 4473.99L652.26 4536.99L543.14 4473.99L543.14 4347.99zM652.26 5418.99L761.38 5481.99L761.38 5607.99L652.26 5670.99L543.14 5607.99L543.14 5481.99zM761.38 315.99L870.51 378.99L870.51 504.99L761.38 567.99L652.26 504.99L652.26 378.99zM870.51 3150.99L979.63 3213.99L979.63 3339.99L870.51 3402.99L761.38 3339.99L761.38 3213.99zM761.38 3339.99L870.51 3402.99L870.51 3528.99L761.38 3591.99L652.26 3528.99L652.26 3402.99zM870.51 3906.99L979.63 3969.99L979.63 4095.99L870.51 4158.99L761.38 4095.99L761.38 3969.99zM979.63 315.99L1088.75 378.99L1088.75 504.99L979.63 567.99L870.51 504.99L870.51 378.99zM1088.75 504.99L1197.87 567.99L1197.87 693.99L1088.75 756.99L979.63 693.99L979.63 567.99zM1088.75 882.99L1197.87 945.99L1197.87 1071.99L1088.75 1134.99L979.63 1071.99L979.63 945.99zM979.63 2205.99L1088.75 2268.99L1088.75 2394.99L979.63 2457.99L870.51 2394.99L870.51 2268.99zM1088.75 3150.99L1197.87 3213.99L1197.87 3339.99L1088.75 3402.99L979.63 3339.99L979.63 3213.99zM979.63 4851.99L1088.75 4914.99L1088.75 5040.99L979.63 5103.99L870.51 5040.99L870.51 4914.99zM1088.75 5796.99L1197.87 5859.99L1197.87 5985.99L1088.75 6048.99L979.63 5985.99L979.63 5859.99zM1307 504.99L1416.12 567.99L1416.12 693.99L1307 756.99L1197.87 693.99L1197.87 567.99zM1307 1260.99L1416.12 1323.99L1416.12 1449.99L1307 1512.99L1197.87 1449.99L1197.87 1323.99zM1307 2394.99L1416.12 2457.99L1416.12 2583.99L1307 2646.99L1197.87 2583.99L1197.87 2457.99zM1197.87 2583.99L1307 2646.99L1307 2772.99L1197.87 2835.99L1088.75 2772.99L1088.75 2646.99zM1307 5796.99L1416.12 5859.99L1416.12 5985.99L1307 6048.99L1197.87 5985.99L1197.87 5859.99zM1525.24 126.99L1634.36 189.99L1634.36 315.99L1525.24 378.99L1416.12 315.99L1416.12 189.99zM1416.12 315.99L1525.24 378.99L1525.24 504.99L1416.12 567.99L1307 504.99L1307 378.99zM1525.24 1638.99L1634.36 1701.99L1634.36 1827.99L1525.24 1890.99L1416.12 1827.99L1416.12 1701.99zM1416.12 4473.99L1525.24 4536.99L1525.24 4662.99L1416.12 4725.99L1307 4662.99L1307 4536.99zM1634.36 1827.99L1743.48 1890.99L1743.48 2016.99L1634.36 2079.99L1525.24 2016.99L1525.24 1890.99zM1634.36 3717.99L1743.48 3780.99L1743.48 3906.99L1634.36 3969.99L1525.24 3906.99L1525.24 3780.99zM1743.48 3906.99L1852.61 3969.99L1852.61 4095.99L1743.48 4158.99L1634.36 4095.99L1634.36 3969.99zM1634.36 5229.99L1743.48 5292.99L1743.48 5418.99L1634.36 5481.99L1525.24 5418.99L1525.24 5292.99zM1852.61 1827.99L1961.73 1890.99L1961.73 2016.99L1852.61 2079.99L1743.48 2016.99L1743.48 1890.99zM1852.61 2961.99L1961.73 3024.99L1961.73 3150.99L1852.61 3213.99L1743.48 3150.99L1743.48 3024.99zM1852.61 3339.99L1961.73 3402.99L1961.73 3528.99L1852.61 3591.99L1743.48 3528.99L1743.48 3402.99zM1961.73 5040.99L2070.85 5103.99L2070.85 5229.99L1961.73 5292.99L1852.61 5229.99L1852.61 5103.99zM1961.73 5418.99L2070.85 5481.99L2070.85 5607.99L1961.73 5670.99L1852.61 5607.99L1852.61 5481.99zM1961.73 5796.99L2070.85 5859.99L2070.85 5985.99L1961.73 6048.99L1852.61 5985.99L1852.61 5859.99zM2070.85 -62.01L2179.97 0.99L2179.97 126.99L2070.85 189.99L1961.73 126.99L1961.73 0.99zM2179.97 504.99L2289.1 567.99L2289.1 693.99L2179.97 756.99L2070.85 693.99L2070.85 567.99zM2179.97 1260.99L2289.1 1323.99L2289.1 1449.99L2179.97 1512.99L2070.85 1449.99L2070.85 1323.99zM2070.85 1449.99L2179.97 1512.99L2179.97 1638.99L2070.85 1701.99L1961.73 1638.99L1961.73 1512.99zM2179.97 5040.99L2289.1 5103.99L2289.1 5229.99L2179.97 5292.99L2070.85 5229.99L2070.85 5103.99zM2179.97 5418.99L2289.1 5481.99L2289.1 5607.99L2179.97 5670.99L2070.85 5607.99L2070.85 5481.99z" stroke="#03305d" stroke-width="2"></path><path d="M94.05 4095.99 a12.6 12.6 0 1 0 25.2 0 a12.6 12.6 0 1 0 -25.2 0zM203.17 4158.99 a12.6 12.6 0 1 0 25.2 0 a12.6 12.6 0 1 0 -25.2 0zM203.17 4284.99 a12.6 12.6 0 1 0 25.2 0 a12.6 12.6 0 1 0 -25.2 0zM94.05 4347.99 a12.6 12.6 0 1 0 25.2 0 a12.6 12.6 0 1 0 -25.2 0zM-15.07 4284.99 a12.6 12.6 0 1 0 25.2 0 a12.6 12.6 0 1 0 -25.2 0zM-15.07 4158.99 a12.6 12.6 0 1 0 25.2 0 a12.6 12.6 0 1 0 -25.2 0zM94.05 5229.99 a12.6 12.6 0 1 0 25.2 0 a12.6 12.6 0 1 0 -25.2 0zM203.17 5292.99 a12.6 12.6 0 1 0 25.2 0 a12.6 12.6 0 1 0 -25.2 0zM203.17 5418.99 a12.6 12.6 0 1 0 25.2 0 a12.6 12.6 0 1 0 -25.2 0zM94.05 5481.99 a12.6 12.6 0 1 0 25.2 0 a12.6 12.6 0 1 0 -25.2 0zM-15.07 5418.99 a12.6 12.6 0 1 0 25.2 0 a12.6 12.6 0 1 0 -25.2 0zM-15.07 5292.99 a12.6 12.6 0 1 0 25.2 0 a12.6 12.6 0 1 0 -25.2 0zM203.17 5796.99 a12.6 12.6 0 1 0 25.2 0 a12.6 12.6 0 1 0 -25.2 0zM312.29 5859.99 a12.6 12.6 0 1 0 25.2 0 a12.6 12.6 0 1 0 -25.2 0zM312.29 5985.99 a12.6 12.6 0 1 0 25.2 0 a12.6 12.6 0 1 0 -25.2 0zM203.17 6048.99 a12.6 12.6 0 1 0 25.2 0 a12.6 12.6 0 1 0 -25.2 0zM94.05 5985.99 a12.6 12.6 0 1 0 25.2 0 a12.6 12.6 0 1 0 -25.2 0zM94.05 5859.99 a12.6 12.6 0 1 0 25.2 0 a12.6 12.6 0 1 0 -25.2 0zM312.29 4095.99 a12.6 12.6 0 1 0 25.2 0 a12.6 12.6 0 1 0 -25.2 0zM421.42 4158.99 a12.6 12.6 0 1 0 25.2 0 a12.6 12.6 0 1 0 -25.2 0zM421.42 4284.99 a12.6 12.6 0 1 0 25.2 0 a12.6 12.6 0 1 0 -25.2 0zM312.29 4347.99 a12.6 12.6 0 1 0 25.2 0 a12.6 12.6 0 1 0 -25.2 0zM421.42 5796.99 a12.6 12.6 0 1 0 25.2 0 a12.6 12.6 0 1 0 -25.2 0zM530.54 5859.99 a12.6 12.6 0 1 0 25.2 0 a12.6 12.6 0 1 0 -25.2 0zM530.54 5985.99 a12.6 12.6 0 1 0 25.2 0 a12.6 12.6 0 1 0 -25.2 0zM421.42 6048.99 a12.6 12.6 0 1 0 25.2 0 a12.6 12.6 0 1 0 -25.2 0zM639.66 504.99 a12.6 12.6 0 1 0 25.2 0 a12.6 12.6 0 1 0 -25.2 0zM748.78 567.99 a12.6 12.6 0 1 0 25.2 0 a12.6 12.6 0 1 0 -25.2 0zM748.78 693.99 a12.6 12.6 0 1 0 25.2 0 a12.6 12.6 0 1 0 -25.2 0zM639.66 756.99 a12.6 12.6 0 1 0 25.2 0 a12.6 12.6 0 1 0 -25.2 0zM530.54 693.99 a12.6 12.6 0 1 0 25.2 0 a12.6 12.6 0 1 0 -25.2 0zM530.54 567.99 a12.6 12.6 0 1 0 25.2 0 a12.6 12.6 0 1 0 -25.2 0zM639.66 2772.99 a12.6 12.6 0 1 0 25.2 0 a12.6 12.6 0 1 0 -25.2 0zM748.78 2835.99 a12.6 12.6 0 1 0 25.2 0 a12.6 12.6 0 1 0 -25.2 0zM748.78 2961.99 a12.6 12.6 0 1 0 25.2 0 a12.6 12.6 0 1 0 -25.2 0zM639.66 3024.99 a12.6 12.6 0 1 0 25.2 0 a12.6 12.6 0 1 0 -25.2 0zM530.54 2961.99 a12.6 12.6 0 1 0 25.2 0 a12.6 12.6 0 1 0 -25.2 0zM530.54 2835.99 a12.6 12.6 0 1 0 25.2 0 a12.6 12.6 0 1 0 -25.2 0zM639.66 4284.99 a12.6 12.6 0 1 0 25.2 0 a12.6 12.6 0 1 0 -25.2 0zM748.78 4347.99 a12.6 12.6 0 1 0 25.2 0 a12.6 12.6 0 1 0 -25.2 0zM748.78 4473.99 a12.6 12.6 0 1 0 25.2 0 a12.6 12.6 0 1 0 -25.2 0zM639.66 4536.99 a12.6 12.6 0 1 0 25.2 0 a12.6 12.6 0 1 0 -25.2 0zM530.54 4473.99 a12.6 12.6 0 1 0 25.2 0 a12.6 12.6 0 1 0 -25.2 0zM530.54 4347.99 a12.6 12.6 0 1 0 25.2 0 a12.6 12.6 0 1 0 -25.2 0zM639.66 5418.99 a12.6 12.6 0 1 0 25.2 0 a12.6 12.6 0 1 0 -25.2 0zM748.78 5481.99 a12.6 12.6 0 1 0 25.2 0 a12.6 12.6 0 1 0 -25.2 0zM748.78 5607.99 a12.6 12.6 0 1 0 25.2 0 a12.6 12.6 0 1 0 -25.2 0zM639.66 5670.99 a12.6 12.6 0 1 0 25.2 0 a12.6 12.6 0 1 0 -25.2 0zM530.54 5607.99 a12.6 12.6 0 1 0 25.2 0 a12.6 12.6 0 1 0 -25.2 0zM530.54 5481.99 a12.6 12.6 0 1 0 25.2 0 a12.6 12.6 0 1 0 -25.2 0zM748.78 315.99 a12.6 12.6 0 1 0 25.2 0 a12.6 12.6 0 1 0 -25.2 0zM857.91 378.99 a12.6 12.6 0 1 0 25.2 0 a12.6 12.6 0 1 0 -25.2 0zM857.91 504.99 a12.6 12.6 0 1 0 25.2 0 a12.6 12.6 0 1 0 -25.2 0zM639.66 378.99 a12.6 12.6 0 1 0 25.2 0 a12.6 12.6 0 1 0 -25.2 0zM857.91 3150.99 a12.6 12.6 0 1 0 25.2 0 a12.6 12.6 0 1 0 -25.2 0zM967.03 3213.99 a12.6 12.6 0 1 0 25.2 0 a12.6 12.6 0 1 0 -25.2 0zM967.03 3339.99 a12.6 12.6 0 1 0 25.2 0 a12.6 12.6 0 1 0 -25.2 0zM857.91 3402.99 a12.6 12.6 0 1 0 25.2 0 a12.6 12.6 0 1 0 -25.2 0zM748.78 3339.99 a12.6 12.6 0 1 0 25.2 0 a12.6 12.6 0 1 0 -25.2 0zM748.78 3213.99 a12.6 12.6 0 1 0 25.2 0 a12.6 12.6 0 1 0 -25.2 0zM857.91 3528.99 a12.6 12.6 0 1 0 25.2 0 a12.6 12.6 0 1 0 -25.2 0zM748.78 3591.99 a12.6 12.6 0 1 0 25.2 0 a12.6 12.6 0 1 0 -25.2 0zM639.66 3528.99 a12.6 12.6 0 1 0 25.2 0 a12.6 12.6 0 1 0 -25.2 0zM639.66 3402.99 a12.6 12.6 0 1 0 25.2 0 a12.6 12.6 0 1 0 -25.2 0zM857.91 3906.99 a12.6 12.6 0 1 0 25.2 0 a12.6 12.6 0 1 0 -25.2 0zM967.03 3969.99 a12.6 12.6 0 1 0 25.2 0 a12.6 12.6 0 1 0 -25.2 0zM967.03 4095.99 a12.6 12.6 0 1 0 25.2 0 a12.6 12.6 0 1 0 -25.2 0zM857.91 4158.99 a12.6 12.6 0 1 0 25.2 0 a12.6 12.6 0 1 0 -25.2 0zM748.78 4095.99 a12.6 12.6 0 1 0 25.2 0 a12.6 12.6 0 1 0 -25.2 0zM748.78 3969.99 a12.6 12.6 0 1 0 25.2 0 a12.6 12.6 0 1 0 -25.2 0zM967.03 315.99 a12.6 12.6 0 1 0 25.2 0 a12.6 12.6 0 1 0 -25.2 0zM1076.15 378.99 a12.6 12.6 0 1 0 25.2 0 a12.6 12.6 0 1 0 -25.2 0zM1076.15 504.99 a12.6 12.6 0 1 0 25.2 0 a12.6 12.6 0 1 0 -25.2 0zM967.03 567.99 a12.6 12.6 0 1 0 25.2 0 a12.6 12.6 0 1 0 -25.2 0zM1185.27 567.99 a12.6 12.6 0 1 0 25.2 0 a12.6 12.6 0 1 0 -25.2 0zM1185.27 693.99 a12.6 12.6 0 1 0 25.2 0 a12.6 12.6 0 1 0 -25.2 0zM1076.15 756.99 a12.6 12.6 0 1 0 25.2 0 a12.6 12.6 0 1 0 -25.2 0zM967.03 693.99 a12.6 12.6 0 1 0 25.2 0 a12.6 12.6 0 1 0 -25.2 0zM1076.15 882.99 a12.6 12.6 0 1 0 25.2 0 a12.6 12.6 0 1 0 -25.2 0zM1185.27 945.99 a12.6 12.6 0 1 0 25.2 0 a12.6 12.6 0 1 0 -25.2 0zM1185.27 1071.99 a12.6 12.6 0 1 0 25.2 0 a12.6 12.6 0 1 0 -25.2 0zM1076.15 1134.99 a12.6 12.6 0 1 0 25.2 0 a12.6 12.6 0 1 0 -25.2 0zM967.03 1071.99 a12.6 12.6 0 1 0 25.2 0 a12.6 12.6 0 1 0 -25.2 0zM967.03 945.99 a12.6 12.6 0 1 0 25.2 0 a12.6 12.6 0 1 0 -25.2 0zM967.03 2205.99 a12.6 12.6 0 1 0 25.2 0 a12.6 12.6 0 1 0 -25.2 0zM1076.15 2268.99 a12.6 12.6 0 1 0 25.2 0 a12.6 12.6 0 1 0 -25.2 0zM1076.15 2394.99 a12.6 12.6 0 1 0 25.2 0 a12.6 12.6 0 1 0 -25.2 0zM967.03 2457.99 a12.6 12.6 0 1 0 25.2 0 a12.6 12.6 0 1 0 -25.2 0zM857.91 2394.99 a12.6 12.6 0 1 0 25.2 0 a12.6 12.6 0 1 0 -25.2 0zM857.91 2268.99 a12.6 12.6 0 1 0 25.2 0 a12.6 12.6 0 1 0 -25.2 0zM1076.15 3150.99 a12.6 12.6 0 1 0 25.2 0 a12.6 12.6 0 1 0 -25.2 0zM1185.27 3213.99 a12.6 12.6 0 1 0 25.2 0 a12.6 12.6 0 1 0 -25.2 0zM1185.27 3339.99 a12.6 12.6 0 1 0 25.2 0 a12.6 12.6 0 1 0 -25.2 0zM1076.15 3402.99 a12.6 12.6 0 1 0 25.2 0 a12.6 12.6 0 1 0 -25.2 0zM967.03 4851.99 a12.6 12.6 0 1 0 25.2 0 a12.6 12.6 0 1 0 -25.2 0zM1076.15 4914.99 a12.6 12.6 0 1 0 25.2 0 a12.6 12.6 0 1 0 -25.2 0zM1076.15 5040.99 a12.6 12.6 0 1 0 25.2 0 a12.6 12.6 0 1 0 -25.2 0zM967.03 5103.99 a12.6 12.6 0 1 0 25.2 0 a12.6 12.6 0 1 0 -25.2 0zM857.91 5040.99 a12.6 12.6 0 1 0 25.2 0 a12.6 12.6 0 1 0 -25.2 0zM857.91 4914.99 a12.6 12.6 0 1 0 25.2 0 a12.6 12.6 0 1 0 -25.2 0zM1076.15 5796.99 a12.6 12.6 0 1 0 25.2 0 a12.6 12.6 0 1 0 -25.2 0zM1185.27 5859.99 a12.6 12.6 0 1 0 25.2 0 a12.6 12.6 0 1 0 -25.2 0zM1185.27 5985.99 a12.6 12.6 0 1 0 25.2 0 a12.6 12.6 0 1 0 -25.2 0zM1076.15 6048.99 a12.6 12.6 0 1 0 25.2 0 a12.6 12.6 0 1 0 -25.2 0zM967.03 5985.99 a12.6 12.6 0 1 0 25.2 0 a12.6 12.6 0 1 0 -25.2 0zM967.03 5859.99 a12.6 12.6 0 1 0 25.2 0 a12.6 12.6 0 1 0 -25.2 0zM1294.4 504.99 a12.6 12.6 0 1 0 25.2 0 a12.6 12.6 0 1 0 -25.2 0zM1403.52 567.99 a12.6 12.6 0 1 0 25.2 0 a12.6 12.6 0 1 0 -25.2 0zM1403.52 693.99 a12.6 12.6 0 1 0 25.2 0 a12.6 12.6 0 1 0 -25.2 0zM1294.4 756.99 a12.6 12.6 0 1 0 25.2 0 a12.6 12.6 0 1 0 -25.2 0zM1294.4 1260.99 a12.6 12.6 0 1 0 25.2 0 a12.6 12.6 0 1 0 -25.2 0zM1403.52 1323.99 a12.6 12.6 0 1 0 25.2 0 a12.6 12.6 0 1 0 -25.2 0zM1403.52 1449.99 a12.6 12.6 0 1 0 25.2 0 a12.6 12.6 0 1 0 -25.2 0zM1294.4 1512.99 a12.6 12.6 0 1 0 25.2 0 a12.6 12.6 0 1 0 -25.2 0zM1185.27 1449.99 a12.6 12.6 0 1 0 25.2 0 a12.6 12.6 0 1 0 -25.2 0zM1185.27 1323.99 a12.6 12.6 0 1 0 25.2 0 a12.6 12.6 0 1 0 -25.2 0zM1294.4 2394.99 a12.6 12.6 0 1 0 25.2 0 a12.6 12.6 0 1 0 -25.2 0zM1403.52 2457.99 a12.6 12.6 0 1 0 25.2 0 a12.6 12.6 0 1 0 -25.2 0zM1403.52 2583.99 a12.6 12.6 0 1 0 25.2 0 a12.6 12.6 0 1 0 -25.2 0zM1294.4 2646.99 a12.6 12.6 0 1 0 25.2 0 a12.6 12.6 0 1 0 -25.2 0zM1185.27 2583.99 a12.6 12.6 0 1 0 25.2 0 a12.6 12.6 0 1 0 -25.2 0zM1185.27 2457.99 a12.6 12.6 0 1 0 25.2 0 a12.6 12.6 0 1 0 -25.2 0zM1294.4 2772.99 a12.6 12.6 0 1 0 25.2 0 a12.6 12.6 0 1 0 -25.2 0zM1185.27 2835.99 a12.6 12.6 0 1 0 25.2 0 a12.6 12.6 0 1 0 -25.2 0zM1076.15 2772.99 a12.6 12.6 0 1 0 25.2 0 a12.6 12.6 0 1 0 -25.2 0zM1076.15 2646.99 a12.6 12.6 0 1 0 25.2 0 a12.6 12.6 0 1 0 -25.2 0zM1294.4 5796.99 a12.6 12.6 0 1 0 25.2 0 a12.6 12.6 0 1 0 -25.2 0zM1403.52 5859.99 a12.6 12.6 0 1 0 25.2 0 a12.6 12.6 0 1 0 -25.2 0zM1403.52 5985.99 a12.6 12.6 0 1 0 25.2 0 a12.6 12.6 0 1 0 -25.2 0zM1294.4 6048.99 a12.6 12.6 0 1 0 25.2 0 a12.6 12.6 0 1 0 -25.2 0zM1512.64 126.99 a12.6 12.6 0 1 0 25.2 0 a12.6 12.6 0 1 0 -25.2 0zM1621.76 189.99 a12.6 12.6 0 1 0 25.2 0 a12.6 12.6 0 1 0 -25.2 0zM1621.76 315.99 a12.6 12.6 0 1 0 25.2 0 a12.6 12.6 0 1 0 -25.2 0zM1512.64 378.99 a12.6 12.6 0 1 0 25.2 0 a12.6 12.6 0 1 0 -25.2 0zM1403.52 315.99 a12.6 12.6 0 1 0 25.2 0 a12.6 12.6 0 1 0 -25.2 0zM1403.52 189.99 a12.6 12.6 0 1 0 25.2 0 a12.6 12.6 0 1 0 -25.2 0zM1512.64 504.99 a12.6 12.6 0 1 0 25.2 0 a12.6 12.6 0 1 0 -25.2 0zM1294.4 378.99 a12.6 12.6 0 1 0 25.2 0 a12.6 12.6 0 1 0 -25.2 0zM1512.64 1638.99 a12.6 12.6 0 1 0 25.2 0 a12.6 12.6 0 1 0 -25.2 0zM1621.76 1701.99 a12.6 12.6 0 1 0 25.2 0 a12.6 12.6 0 1 0 -25.2 0zM1621.76 1827.99 a12.6 12.6 0 1 0 25.2 0 a12.6 12.6 0 1 0 -25.2 0zM1512.64 1890.99 a12.6 12.6 0 1 0 25.2 0 a12.6 12.6 0 1 0 -25.2 0zM1403.52 1827.99 a12.6 12.6 0 1 0 25.2 0 a12.6 12.6 0 1 0 -25.2 0zM1403.52 1701.99 a12.6 12.6 0 1 0 25.2 0 a12.6 12.6 0 1 0 -25.2 0zM1403.52 4473.99 a12.6 12.6 0 1 0 25.2 0 a12.6 12.6 0 1 0 -25.2 0zM1512.64 4536.99 a12.6 12.6 0 1 0 25.2 0 a12.6 12.6 0 1 0 -25.2 0zM1512.64 4662.99 a12.6 12.6 0 1 0 25.2 0 a12.6 12.6 0 1 0 -25.2 0zM1403.52 4725.99 a12.6 12.6 0 1 0 25.2 0 a12.6 12.6 0 1 0 -25.2 0zM1294.4 4662.99 a12.6 12.6 0 1 0 25.2 0 a12.6 12.6 0 1 0 -25.2 0zM1294.4 4536.99 a12.6 12.6 0 1 0 25.2 0 a12.6 12.6 0 1 0 -25.2 0zM1730.88 1890.99 a12.6 12.6 0 1 0 25.2 0 a12.6 12.6 0 1 0 -25.2 0zM1730.88 2016.99 a12.6 12.6 0 1 0 25.2 0 a12.6 12.6 0 1 0 -25.2 0zM1621.76 2079.99 a12.6 12.6 0 1 0 25.2 0 a12.6 12.6 0 1 0 -25.2 0zM1512.64 2016.99 a12.6 12.6 0 1 0 25.2 0 a12.6 12.6 0 1 0 -25.2 0zM1621.76 3717.99 a12.6 12.6 0 1 0 25.2 0 a12.6 12.6 0 1 0 -25.2 0zM1730.88 3780.99 a12.6 12.6 0 1 0 25.2 0 a12.6 12.6 0 1 0 -25.2 0zM1730.88 3906.99 a12.6 12.6 0 1 0 25.2 0 a12.6 12.6 0 1 0 -25.2 0zM1621.76 3969.99 a12.6 12.6 0 1 0 25.2 0 a12.6 12.6 0 1 0 -25.2 0zM1512.64 3906.99 a12.6 12.6 0 1 0 25.2 0 a12.6 12.6 0 1 0 -25.2 0zM1512.64 3780.99 a12.6 12.6 0 1 0 25.2 0 a12.6 12.6 0 1 0 -25.2 0zM1840.01 3969.99 a12.6 12.6 0 1 0 25.2 0 a12.6 12.6 0 1 0 -25.2 0zM1840.01 4095.99 a12.6 12.6 0 1 0 25.2 0 a12.6 12.6 0 1 0 -25.2 0zM1730.88 4158.99 a12.6 12.6 0 1 0 25.2 0 a12.6 12.6 0 1 0 -25.2 0zM1621.76 4095.99 a12.6 12.6 0 1 0 25.2 0 a12.6 12.6 0 1 0 -25.2 0zM1621.76 5229.99 a12.6 12.6 0 1 0 25.2 0 a12.6 12.6 0 1 0 -25.2 0zM1730.88 5292.99 a12.6 12.6 0 1 0 25.2 0 a12.6 12.6 0 1 0 -25.2 0zM1730.88 5418.99 a12.6 12.6 0 1 0 25.2 0 a12.6 12.6 0 1 0 -25.2 0zM1621.76 5481.99 a12.6 12.6 0 1 0 25.2 0 a12.6 12.6 0 1 0 -25.2 0zM1512.64 5418.99 a12.6 12.6 0 1 0 25.2 0 a12.6 12.6 0 1 0 -25.2 0zM1512.64 5292.99 a12.6 12.6 0 1 0 25.2 0 a12.6 12.6 0 1 0 -25.2 0zM1840.01 1827.99 a12.6 12.6 0 1 0 25.2 0 a12.6 12.6 0 1 0 -25.2 0zM1949.13 1890.99 a12.6 12.6 0 1 0 25.2 0 a12.6 12.6 0 1 0 -25.2 0zM1949.13 2016.99 a12.6 12.6 0 1 0 25.2 0 a12.6 12.6 0 1 0 -25.2 0zM1840.01 2079.99 a12.6 12.6 0 1 0 25.2 0 a12.6 12.6 0 1 0 -25.2 0zM1840.01 2961.99 a12.6 12.6 0 1 0 25.2 0 a12.6 12.6 0 1 0 -25.2 0zM1949.13 3024.99 a12.6 12.6 0 1 0 25.2 0 a12.6 12.6 0 1 0 -25.2 0zM1949.13 3150.99 a12.6 12.6 0 1 0 25.2 0 a12.6 12.6 0 1 0 -25.2 0zM1840.01 3213.99 a12.6 12.6 0 1 0 25.2 0 a12.6 12.6 0 1 0 -25.2 0zM1730.88 3150.99 a12.6 12.6 0 1 0 25.2 0 a12.6 12.6 0 1 0 -25.2 0zM1730.88 3024.99 a12.6 12.6 0 1 0 25.2 0 a12.6 12.6 0 1 0 -25.2 0zM1840.01 3339.99 a12.6 12.6 0 1 0 25.2 0 a12.6 12.6 0 1 0 -25.2 0zM1949.13 3402.99 a12.6 12.6 0 1 0 25.2 0 a12.6 12.6 0 1 0 -25.2 0zM1949.13 3528.99 a12.6 12.6 0 1 0 25.2 0 a12.6 12.6 0 1 0 -25.2 0zM1840.01 3591.99 a12.6 12.6 0 1 0 25.2 0 a12.6 12.6 0 1 0 -25.2 0zM1730.88 3528.99 a12.6 12.6 0 1 0 25.2 0 a12.6 12.6 0 1 0 -25.2 0zM1730.88 3402.99 a12.6 12.6 0 1 0 25.2 0 a12.6 12.6 0 1 0 -25.2 0zM1949.13 5040.99 a12.6 12.6 0 1 0 25.2 0 a12.6 12.6 0 1 0 -25.2 0zM2058.25 5103.99 a12.6 12.6 0 1 0 25.2 0 a12.6 12.6 0 1 0 -25.2 0zM2058.25 5229.99 a12.6 12.6 0 1 0 25.2 0 a12.6 12.6 0 1 0 -25.2 0zM1949.13 5292.99 a12.6 12.6 0 1 0 25.2 0 a12.6 12.6 0 1 0 -25.2 0zM1840.01 5229.99 a12.6 12.6 0 1 0 25.2 0 a12.6 12.6 0 1 0 -25.2 0zM1840.01 5103.99 a12.6 12.6 0 1 0 25.2 0 a12.6 12.6 0 1 0 -25.2 0zM1949.13 5418.99 a12.6 12.6 0 1 0 25.2 0 a12.6 12.6 0 1 0 -25.2 0zM2058.25 5481.99 a12.6 12.6 0 1 0 25.2 0 a12.6 12.6 0 1 0 -25.2 0zM2058.25 5607.99 a12.6 12.6 0 1 0 25.2 0 a12.6 12.6 0 1 0 -25.2 0zM1949.13 5670.99 a12.6 12.6 0 1 0 25.2 0 a12.6 12.6 0 1 0 -25.2 0zM1840.01 5607.99 a12.6 12.6 0 1 0 25.2 0 a12.6 12.6 0 1 0 -25.2 0zM1840.01 5481.99 a12.6 12.6 0 1 0 25.2 0 a12.6 12.6 0 1 0 -25.2 0zM1949.13 5796.99 a12.6 12.6 0 1 0 25.2 0 a12.6 12.6 0 1 0 -25.2 0zM2058.25 5859.99 a12.6 12.6 0 1 0 25.2 0 a12.6 12.6 0 1 0 -25.2 0zM2058.25 5985.99 a12.6 12.6 0 1 0 25.2 0 a12.6 12.6 0 1 0 -25.2 0zM1949.13 6048.99 a12.6 12.6 0 1 0 25.2 0 a12.6 12.6 0 1 0 -25.2 0zM1840.01 5985.99 a12.6 12.6 0 1 0 25.2 0 a12.6 12.6 0 1 0 -25.2 0zM1840.01 5859.99 a12.6 12.6 0 1 0 25.2 0 a12.6 12.6 0 1 0 -25.2 0zM2058.25 -62.01 a12.6 12.6 0 1 0 25.2 0 a12.6 12.6 0 1 0 -25.2 0zM2167.37 0.99 a12.6 12.6 0 1 0 25.2 0 a12.6 12.6 0 1 0 -25.2 0zM2167.37 126.99 a12.6 12.6 0 1 0 25.2 0 a12.6 12.6 0 1 0 -25.2 0zM2058.25 189.99 a12.6 12.6 0 1 0 25.2 0 a12.6 12.6 0 1 0 -25.2 0zM1949.13 126.99 a12.6 12.6 0 1 0 25.2 0 a12.6 12.6 0 1 0 -25.2 0zM1949.13 0.99 a12.6 12.6 0 1 0 25.2 0 a12.6 12.6 0 1 0 -25.2 0zM2167.37 504.99 a12.6 12.6 0 1 0 25.2 0 a12.6 12.6 0 1 0 -25.2 0zM2276.5 567.99 a12.6 12.6 0 1 0 25.2 0 a12.6 12.6 0 1 0 -25.2 0zM2276.5 693.99 a12.6 12.6 0 1 0 25.2 0 a12.6 12.6 0 1 0 -25.2 0zM2167.37 756.99 a12.6 12.6 0 1 0 25.2 0 a12.6 12.6 0 1 0 -25.2 0zM2058.25 693.99 a12.6 12.6 0 1 0 25.2 0 a12.6 12.6 0 1 0 -25.2 0zM2058.25 567.99 a12.6 12.6 0 1 0 25.2 0 a12.6 12.6 0 1 0 -25.2 0zM2167.37 1260.99 a12.6 12.6 0 1 0 25.2 0 a12.6 12.6 0 1 0 -25.2 0zM2276.5 1323.99 a12.6 12.6 0 1 0 25.2 0 a12.6 12.6 0 1 0 -25.2 0zM2276.5 1449.99 a12.6 12.6 0 1 0 25.2 0 a12.6 12.6 0 1 0 -25.2 0zM2167.37 1512.99 a12.6 12.6 0 1 0 25.2 0 a12.6 12.6 0 1 0 -25.2 0zM2058.25 1449.99 a12.6 12.6 0 1 0 25.2 0 a12.6 12.6 0 1 0 -25.2 0zM2058.25 1323.99 a12.6 12.6 0 1 0 25.2 0 a12.6 12.6 0 1 0 -25.2 0zM2167.37 1638.99 a12.6 12.6 0 1 0 25.2 0 a12.6 12.6 0 1 0 -25.2 0zM2058.25 1701.99 a12.6 12.6 0 1 0 25.2 0 a12.6 12.6 0 1 0 -25.2 0zM1949.13 1638.99 a12.6 12.6 0 1 0 25.2 0 a12.6 12.6 0 1 0 -25.2 0zM1949.13 1512.99 a12.6 12.6 0 1 0 25.2 0 a12.6 12.6 0 1 0 -25.2 0zM2167.37 5040.99 a12.6 12.6 0 1 0 25.2 0 a12.6 12.6 0 1 0 -25.2 0zM2276.5 5103.99 a12.6 12.6 0 1 0 25.2 0 a12.6 12.6 0 1 0 -25.2 0zM2276.5 5229.99 a12.6 12.6 0 1 0 25.2 0 a12.6 12.6 0 1 0 -25.2 0zM2167.37 5292.99 a12.6 12.6 0 1 0 25.2 0 a12.6 12.6 0 1 0 -25.2 0zM2167.37 5418.99 a12.6 12.6 0 1 0 25.2 0 a12.6 12.6 0 1 0 -25.2 0zM2276.5 5481.99 a12.6 12.6 0 1 0 25.2 0 a12.6 12.6 0 1 0 -25.2 0zM2276.5 5607.99 a12.6 12.6 0 1 0 25.2 0 a12.6 12.6 0 1 0 -25.2 0zM2167.37 5670.99 a12.6 12.6 0 1 0 25.2 0 a12.6 12.6 0 1 0 -25.2 0z" fill="#03305d"></path><path d="M220.91 473.35L330.9 536.85L330.9 663.85L220.91 727.35L110.92 663.85L110.92 536.85zM220.91 1997.35L330.9 2060.85L330.9 2187.85L220.91 2251.35L110.92 2187.85L110.92 2060.85zM220.91 2378.35L330.9 2441.85L330.9 2568.85L220.91 2632.35L110.92 2568.85L110.92 2441.85zM220.91 3140.35L330.9 3203.85L330.9 3330.85L220.91 3394.35L110.92 3330.85L110.92 3203.85zM110.92 3330.85L220.91 3394.35L220.91 3521.35L110.92 3584.85L0.93 3521.35L0.93 3394.35zM220.91 5807.35L330.9 5870.85L330.9 5997.85L220.91 6061.35L110.92 5997.85L110.92 5870.85zM440.89 854.35L550.87 917.85L550.87 1044.85L440.89 1108.35L330.9 1044.85L330.9 917.85zM330.9 1425.85L440.89 1489.35L440.89 1616.35L330.9 1679.85L220.91 1616.35L220.91 1489.35zM440.89 3140.35L550.87 3203.85L550.87 3330.85L440.89 3394.35L330.9 3330.85L330.9 3203.85zM330.9 3330.85L440.89 3394.35L440.89 3521.35L330.9 3584.85L220.91 3521.35L220.91 3394.35zM330.9 4092.85L440.89 4156.35L440.89 4283.35L330.9 4346.85L220.91 4283.35L220.91 4156.35zM330.9 5616.85L440.89 5680.35L440.89 5807.35L330.9 5870.85L220.91 5807.35L220.91 5680.35zM660.86 473.35L770.85 536.85L770.85 663.85L660.86 727.35L550.87 663.85L550.87 536.85zM550.87 1044.85L660.86 1108.35L660.86 1235.35L550.87 1298.85L440.89 1235.35L440.89 1108.35zM660.86 1235.35L770.85 1298.85L770.85 1425.85L660.86 1489.35L550.87 1425.85L550.87 1298.85zM660.86 1616.35L770.85 1679.85L770.85 1806.85L660.86 1870.35L550.87 1806.85L550.87 1679.85zM550.87 2568.85L660.86 2632.35L660.86 2759.35L550.87 2822.85L440.89 2759.35L440.89 2632.35zM550.87 2949.85L660.86 3013.35L660.86 3140.35L550.87 3203.85L440.89 3140.35L440.89 3013.35zM660.86 3902.35L770.85 3965.85L770.85 4092.85L660.86 4156.35L550.87 4092.85L550.87 3965.85zM550.87 4092.85L660.86 4156.35L660.86 4283.35L550.87 4346.85L440.89 4283.35L440.89 4156.35zM550.87 4854.85L660.86 4918.35L660.86 5045.35L550.87 5108.85L440.89 5045.35L440.89 4918.35zM770.85 -98.15L880.84 -34.65L880.84 92.35L770.85 155.85L660.86 92.35L660.86 -34.65zM770.85 1425.85L880.84 1489.35L880.84 1616.35L770.85 1679.85L660.86 1616.35L660.86 1489.35zM880.84 1616.35L990.83 1679.85L990.83 1806.85L880.84 1870.35L770.85 1806.85L770.85 1679.85zM880.84 1997.35L990.83 2060.85L990.83 2187.85L880.84 2251.35L770.85 2187.85L770.85 2060.85zM880.84 3902.35L990.83 3965.85L990.83 4092.85L880.84 4156.35L770.85 4092.85L770.85 3965.85zM770.85 4854.85L880.84 4918.35L880.84 5045.35L770.85 5108.85L660.86 5045.35L660.86 4918.35zM880.84 5045.35L990.83 5108.85L990.83 5235.85L880.84 5299.35L770.85 5235.85L770.85 5108.85zM1100.82 92.35L1210.8 155.85L1210.8 282.85L1100.82 346.35L990.83 282.85L990.83 155.85zM990.83 282.85L1100.82 346.35L1100.82 473.35L990.83 536.85L880.84 473.35L880.84 346.35zM1100.82 1235.35L1210.8 1298.85L1210.8 1425.85L1100.82 1489.35L990.83 1425.85L990.83 1298.85zM990.83 2949.85L1100.82 3013.35L1100.82 3140.35L990.83 3203.85L880.84 3140.35L880.84 3013.35zM1100.82 4283.35L1210.8 4346.85L1210.8 4473.85L1100.82 4537.35L990.83 4473.85L990.83 4346.85zM990.83 5235.85L1100.82 5299.35L1100.82 5426.35L990.83 5489.85L880.84 5426.35L880.84 5299.35zM1100.82 5807.35L1210.8 5870.85L1210.8 5997.85L1100.82 6061.35L990.83 5997.85L990.83 5870.85zM1320.79 92.35L1430.78 155.85L1430.78 282.85L1320.79 346.35L1210.8 282.85L1210.8 155.85zM1210.8 282.85L1320.79 346.35L1320.79 473.35L1210.8 536.85L1100.82 473.35L1100.82 346.35zM1320.79 1616.35L1430.78 1679.85L1430.78 1806.85L1320.79 1870.35L1210.8 1806.85L1210.8 1679.85zM1210.8 4092.85L1320.79 4156.35L1320.79 4283.35L1210.8 4346.85L1100.82 4283.35L1100.82 4156.35zM1320.79 4283.35L1430.78 4346.85L1430.78 4473.85L1320.79 4537.35L1210.8 4473.85L1210.8 4346.85zM1320.79 4664.35L1430.78 4727.85L1430.78 4854.85L1320.79 4918.35L1210.8 4854.85L1210.8 4727.85zM1320.79 5045.35L1430.78 5108.85L1430.78 5235.85L1320.79 5299.35L1210.8 5235.85L1210.8 5108.85zM1210.8 5616.85L1320.79 5680.35L1320.79 5807.35L1210.8 5870.85L1100.82 5807.35L1100.82 5680.35zM1320.79 5807.35L1430.78 5870.85L1430.78 5997.85L1320.79 6061.35L1210.8 5997.85L1210.8 5870.85zM1540.77 1235.35L1650.76 1298.85L1650.76 1425.85L1540.77 1489.35L1430.78 1425.85L1430.78 1298.85zM1540.77 1616.35L1650.76 1679.85L1650.76 1806.85L1540.77 1870.35L1430.78 1806.85L1430.78 1679.85zM1430.78 2568.85L1540.77 2632.35L1540.77 2759.35L1430.78 2822.85L1320.79 2759.35L1320.79 2632.35zM1430.78 4473.85L1540.77 4537.35L1540.77 4664.35L1430.78 4727.85L1320.79 4664.35L1320.79 4537.35zM1430.78 5616.85L1540.77 5680.35L1540.77 5807.35L1430.78 5870.85L1320.79 5807.35L1320.79 5680.35zM1540.77 5807.35L1650.76 5870.85L1650.76 5997.85L1540.77 6061.35L1430.78 5997.85L1430.78 5870.85zM1760.75 92.35L1870.73 155.85L1870.73 282.85L1760.75 346.35L1650.76 282.85L1650.76 155.85zM1760.75 473.35L1870.73 536.85L1870.73 663.85L1760.75 727.35L1650.76 663.85L1650.76 536.85zM1760.75 854.35L1870.73 917.85L1870.73 1044.85L1760.75 1108.35L1650.76 1044.85L1650.76 917.85zM1760.75 1616.35L1870.73 1679.85L1870.73 1806.85L1760.75 1870.35L1650.76 1806.85L1650.76 1679.85zM1650.76 3711.85L1760.75 3775.35L1760.75 3902.35L1650.76 3965.85L1540.77 3902.35L1540.77 3775.35zM1760.75 4283.35L1870.73 4346.85L1870.73 4473.85L1760.75 4537.35L1650.76 4473.85L1650.76 4346.85zM1650.76 4854.85L1760.75 4918.35L1760.75 5045.35L1650.76 5108.85L1540.77 5045.35L1540.77 4918.35zM1870.73 -98.15L1980.72 -34.65L1980.72 92.35L1870.73 155.85L1760.75 92.35L1760.75 -34.65zM1980.72 92.35L2090.71 155.85L2090.71 282.85L1980.72 346.35L1870.73 282.85L1870.73 155.85zM1980.72 473.35L2090.71 536.85L2090.71 663.85L1980.72 727.35L1870.73 663.85L1870.73 536.85zM1980.72 1235.35L2090.71 1298.85L2090.71 1425.85L1980.72 1489.35L1870.73 1425.85L1870.73 1298.85zM1980.72 1616.35L2090.71 1679.85L2090.71 1806.85L1980.72 1870.35L1870.73 1806.85L1870.73 1679.85zM1980.72 1997.35L2090.71 2060.85L2090.71 2187.85L1980.72 2251.35L1870.73 2187.85L1870.73 2060.85zM1980.72 2759.35L2090.71 2822.85L2090.71 2949.85L1980.72 3013.35L1870.73 2949.85L1870.73 2822.85zM1870.73 2949.85L1980.72 3013.35L1980.72 3140.35L1870.73 3203.85L1760.75 3140.35L1760.75 3013.35zM1870.73 3330.85L1980.72 3394.35L1980.72 3521.35L1870.73 3584.85L1760.75 3521.35L1760.75 3394.35zM1980.72 3902.35L2090.71 3965.85L2090.71 4092.85L1980.72 4156.35L1870.73 4092.85L1870.73 3965.85zM1980.72 5045.35L2090.71 5108.85L2090.71 5235.85L1980.72 5299.35L1870.73 5235.85L1870.73 5108.85zM2090.71 282.85L2200.7 346.35L2200.7 473.35L2090.71 536.85L1980.72 473.35L1980.72 346.35zM2200.7 2759.35L2310.69 2822.85L2310.69 2949.85L2200.7 3013.35L2090.71 2949.85L2090.71 2822.85zM2200.7 3140.35L2310.69 3203.85L2310.69 3330.85L2200.7 3394.35L2090.71 3330.85L2090.71 3203.85zM2090.71 3711.85L2200.7 3775.35L2200.7 3902.35L2090.71 3965.85L1980.72 3902.35L1980.72 3775.35zM2090.71 4092.85L2200.7 4156.35L2200.7 4283.35L2090.71 4346.85L1980.72 4283.35L1980.72 4156.35zM2200.7 5045.35L2310.69 5108.85L2310.69 5235.85L2200.7 5299.35L2090.71 5235.85L2090.71 5108.85zM2090.71 5235.85L2200.7 5299.35L2200.7 5426.35L2090.71 5489.85L1980.72 5426.35L1980.72 5299.35z" stroke="rgba(98, 0, 238, 1)" stroke-width="2"></path></g><defs><mask id="SvgjsMask1319"><rect width="2000" height="6000" fill="#ffffff"></rect></mask></defs></svg>