<svg xmlns="http://www.w3.org/2000/svg" version="1.1" xmlns:xlink="http://www.w3.org/1999/xlink" xmlns:svgjs="http://svgjs.com/svgjs" width="100%" preserveAspectRatio="xMinYMin slice"><g mask="url(&quot;#SvgjsMask1272&quot;)" fill="none"><rect width="2000" height="6000" x="0" y="0" fill="rgba(255, 255, 255, 1)"></rect><path d="M130.82 1276.78L264.19 1353.78L264.19 1507.78L130.82 1584.78L-2.55 1507.78L-2.55 1353.78zM130.82 2200.78L264.19 2277.78L264.19 2431.78L130.82 2508.78L-2.55 2431.78L-2.55 2277.78zM264.19 2431.78L397.56 2508.78L397.56 2662.78L264.19 2739.78L130.82 2662.78L130.82 2508.78zM264.19 5203.78L397.56 5280.78L397.56 5434.78L264.19 5511.78L130.82 5434.78L130.82 5280.78zM130.82 5896.78L264.19 5973.78L264.19 6127.78L130.82 6204.78L-2.55 6127.78L-2.55 5973.78zM397.56 814.78L530.94 891.78L530.94 1045.78L397.56 1122.78L264.19 1045.78L264.19 891.78zM397.56 2200.78L530.94 2277.78L530.94 2431.78L397.56 2508.78L264.19 2431.78L264.19 2277.78zM530.94 3355.78L664.31 3432.78L664.31 3586.78L530.94 3663.78L397.56 3586.78L397.56 3432.78zM397.56 3586.78L530.94 3663.78L530.94 3817.78L397.56 3894.78L264.19 3817.78L264.19 3663.78zM530.94 3817.78L664.31 3894.78L664.31 4048.78L530.94 4125.78L397.56 4048.78L397.56 3894.78zM530.94 4279.78L664.31 4356.78L664.31 4510.78L530.94 4587.78L397.56 4510.78L397.56 4356.78zM530.94 5665.78L664.31 5742.78L664.31 5896.78L530.94 5973.78L397.56 5896.78L397.56 5742.78zM664.31 -109.22L797.68 -32.22L797.68 121.78L664.31 198.78L530.94 121.78L530.94 -32.22zM664.31 4048.78L797.68 4125.78L797.68 4279.78L664.31 4356.78L530.94 4279.78L530.94 4125.78zM797.68 4279.78L931.05 4356.78L931.05 4510.78L797.68 4587.78L664.31 4510.78L664.31 4356.78zM931.05 1276.78L1064.42 1353.78L1064.42 1507.78L931.05 1584.78L797.68 1507.78L797.68 1353.78zM931.05 3586.78L1064.42 3663.78L1064.42 3817.78L931.05 3894.78L797.68 3817.78L797.68 3663.78zM1064.42 3817.78L1197.79 3894.78L1197.79 4048.78L1064.42 4125.78L931.05 4048.78L931.05 3894.78zM931.05 4048.78L1064.42 4125.78L1064.42 4279.78L931.05 4356.78L797.68 4279.78L797.68 4125.78zM931.05 4972.78L1064.42 5049.78L1064.42 5203.78L931.05 5280.78L797.68 5203.78L797.68 5049.78zM1331.17 1045.78L1464.54 1122.78L1464.54 1276.78L1331.17 1353.78L1197.79 1276.78L1197.79 1122.78zM1197.79 3124.78L1331.17 3201.78L1331.17 3355.78L1197.79 3432.78L1064.42 3355.78L1064.42 3201.78zM1197.79 4048.78L1331.17 4125.78L1331.17 4279.78L1197.79 4356.78L1064.42 4279.78L1064.42 4125.78zM1597.91 583.78L1731.28 660.78L1731.28 814.78L1597.91 891.78L1464.54 814.78L1464.54 660.78zM1597.91 1045.78L1731.28 1122.78L1731.28 1276.78L1597.91 1353.78L1464.54 1276.78L1464.54 1122.78zM1464.54 1276.78L1597.91 1353.78L1597.91 1507.78L1464.54 1584.78L1331.17 1507.78L1331.17 1353.78zM1597.91 1969.78L1731.28 2046.78L1731.28 2200.78L1597.91 2277.78L1464.54 2200.78L1464.54 2046.78zM1864.65 121.78L1998.02 198.78L1998.02 352.78L1864.65 429.78L1731.28 352.78L1731.28 198.78zM1731.28 352.78L1864.65 429.78L1864.65 583.78L1731.28 660.78L1597.91 583.78L1597.91 429.78zM1731.28 1276.78L1864.65 1353.78L1864.65 1507.78L1731.28 1584.78L1597.91 1507.78L1597.91 1353.78zM1731.28 3124.78L1864.65 3201.78L1864.65 3355.78L1731.28 3432.78L1597.91 3355.78L1597.91 3201.78zM1731.28 5896.78L1864.65 5973.78L1864.65 6127.78L1731.28 6204.78L1597.91 6127.78L1597.91 5973.78zM2131.4 4741.78L2264.77 4818.78L2264.77 4972.78L2131.4 5049.78L1998.02 4972.78L1998.02 4818.78zM2131.4 5203.78L2264.77 5280.78L2264.77 5434.78L2131.4 5511.78L1998.02 5434.78L1998.02 5280.78zM1998.02 5434.78L2131.4 5511.78L2131.4 5665.78L1998.02 5742.78L1864.65 5665.78L1864.65 5511.78z" stroke="#03305d" stroke-width="2"></path><path d="M115.42 1276.78 a15.4 15.4 0 1 0 30.8 0 a15.4 15.4 0 1 0 -30.8 0zM248.79 1353.78 a15.4 15.4 0 1 0 30.8 0 a15.4 15.4 0 1 0 -30.8 0zM248.79 1507.78 a15.4 15.4 0 1 0 30.8 0 a15.4 15.4 0 1 0 -30.8 0zM115.42 1584.78 a15.4 15.4 0 1 0 30.8 0 a15.4 15.4 0 1 0 -30.8 0zM-17.95 1507.78 a15.4 15.4 0 1 0 30.8 0 a15.4 15.4 0 1 0 -30.8 0zM-17.95 1353.78 a15.4 15.4 0 1 0 30.8 0 a15.4 15.4 0 1 0 -30.8 0zM115.42 2200.78 a15.4 15.4 0 1 0 30.8 0 a15.4 15.4 0 1 0 -30.8 0zM248.79 2277.78 a15.4 15.4 0 1 0 30.8 0 a15.4 15.4 0 1 0 -30.8 0zM248.79 2431.78 a15.4 15.4 0 1 0 30.8 0 a15.4 15.4 0 1 0 -30.8 0zM115.42 2508.78 a15.4 15.4 0 1 0 30.8 0 a15.4 15.4 0 1 0 -30.8 0zM-17.95 2431.78 a15.4 15.4 0 1 0 30.8 0 a15.4 15.4 0 1 0 -30.8 0zM-17.95 2277.78 a15.4 15.4 0 1 0 30.8 0 a15.4 15.4 0 1 0 -30.8 0zM382.16 2508.78 a15.4 15.4 0 1 0 30.8 0 a15.4 15.4 0 1 0 -30.8 0zM382.16 2662.78 a15.4 15.4 0 1 0 30.8 0 a15.4 15.4 0 1 0 -30.8 0zM248.79 2739.78 a15.4 15.4 0 1 0 30.8 0 a15.4 15.4 0 1 0 -30.8 0zM115.42 2662.78 a15.4 15.4 0 1 0 30.8 0 a15.4 15.4 0 1 0 -30.8 0zM248.79 5203.78 a15.4 15.4 0 1 0 30.8 0 a15.4 15.4 0 1 0 -30.8 0zM382.16 5280.78 a15.4 15.4 0 1 0 30.8 0 a15.4 15.4 0 1 0 -30.8 0zM382.16 5434.78 a15.4 15.4 0 1 0 30.8 0 a15.4 15.4 0 1 0 -30.8 0zM248.79 5511.78 a15.4 15.4 0 1 0 30.8 0 a15.4 15.4 0 1 0 -30.8 0zM115.42 5434.78 a15.4 15.4 0 1 0 30.8 0 a15.4 15.4 0 1 0 -30.8 0zM115.42 5280.78 a15.4 15.4 0 1 0 30.8 0 a15.4 15.4 0 1 0 -30.8 0zM115.42 5896.78 a15.4 15.4 0 1 0 30.8 0 a15.4 15.4 0 1 0 -30.8 0zM248.79 5973.78 a15.4 15.4 0 1 0 30.8 0 a15.4 15.4 0 1 0 -30.8 0zM248.79 6127.78 a15.4 15.4 0 1 0 30.8 0 a15.4 15.4 0 1 0 -30.8 0zM115.42 6204.78 a15.4 15.4 0 1 0 30.8 0 a15.4 15.4 0 1 0 -30.8 0zM-17.95 6127.78 a15.4 15.4 0 1 0 30.8 0 a15.4 15.4 0 1 0 -30.8 0zM-17.95 5973.78 a15.4 15.4 0 1 0 30.8 0 a15.4 15.4 0 1 0 -30.8 0zM382.16 814.78 a15.4 15.4 0 1 0 30.8 0 a15.4 15.4 0 1 0 -30.8 0zM515.54 891.78 a15.4 15.4 0 1 0 30.8 0 a15.4 15.4 0 1 0 -30.8 0zM515.54 1045.78 a15.4 15.4 0 1 0 30.8 0 a15.4 15.4 0 1 0 -30.8 0zM382.16 1122.78 a15.4 15.4 0 1 0 30.8 0 a15.4 15.4 0 1 0 -30.8 0zM248.79 1045.78 a15.4 15.4 0 1 0 30.8 0 a15.4 15.4 0 1 0 -30.8 0zM248.79 891.78 a15.4 15.4 0 1 0 30.8 0 a15.4 15.4 0 1 0 -30.8 0zM382.16 2200.78 a15.4 15.4 0 1 0 30.8 0 a15.4 15.4 0 1 0 -30.8 0zM515.54 2277.78 a15.4 15.4 0 1 0 30.8 0 a15.4 15.4 0 1 0 -30.8 0zM515.54 2431.78 a15.4 15.4 0 1 0 30.8 0 a15.4 15.4 0 1 0 -30.8 0zM515.54 3355.78 a15.4 15.4 0 1 0 30.8 0 a15.4 15.4 0 1 0 -30.8 0zM648.91 3432.78 a15.4 15.4 0 1 0 30.8 0 a15.4 15.4 0 1 0 -30.8 0zM648.91 3586.78 a15.4 15.4 0 1 0 30.8 0 a15.4 15.4 0 1 0 -30.8 0zM515.54 3663.78 a15.4 15.4 0 1 0 30.8 0 a15.4 15.4 0 1 0 -30.8 0zM382.16 3586.78 a15.4 15.4 0 1 0 30.8 0 a15.4 15.4 0 1 0 -30.8 0zM382.16 3432.78 a15.4 15.4 0 1 0 30.8 0 a15.4 15.4 0 1 0 -30.8 0zM515.54 3817.78 a15.4 15.4 0 1 0 30.8 0 a15.4 15.4 0 1 0 -30.8 0zM382.16 3894.78 a15.4 15.4 0 1 0 30.8 0 a15.4 15.4 0 1 0 -30.8 0zM248.79 3817.78 a15.4 15.4 0 1 0 30.8 0 a15.4 15.4 0 1 0 -30.8 0zM248.79 3663.78 a15.4 15.4 0 1 0 30.8 0 a15.4 15.4 0 1 0 -30.8 0zM648.91 3894.78 a15.4 15.4 0 1 0 30.8 0 a15.4 15.4 0 1 0 -30.8 0zM648.91 4048.78 a15.4 15.4 0 1 0 30.8 0 a15.4 15.4 0 1 0 -30.8 0zM515.54 4125.78 a15.4 15.4 0 1 0 30.8 0 a15.4 15.4 0 1 0 -30.8 0zM382.16 4048.78 a15.4 15.4 0 1 0 30.8 0 a15.4 15.4 0 1 0 -30.8 0zM515.54 4279.78 a15.4 15.4 0 1 0 30.8 0 a15.4 15.4 0 1 0 -30.8 0zM648.91 4356.78 a15.4 15.4 0 1 0 30.8 0 a15.4 15.4 0 1 0 -30.8 0zM648.91 4510.78 a15.4 15.4 0 1 0 30.8 0 a15.4 15.4 0 1 0 -30.8 0zM515.54 4587.78 a15.4 15.4 0 1 0 30.8 0 a15.4 15.4 0 1 0 -30.8 0zM382.16 4510.78 a15.4 15.4 0 1 0 30.8 0 a15.4 15.4 0 1 0 -30.8 0zM382.16 4356.78 a15.4 15.4 0 1 0 30.8 0 a15.4 15.4 0 1 0 -30.8 0zM515.54 5665.78 a15.4 15.4 0 1 0 30.8 0 a15.4 15.4 0 1 0 -30.8 0zM648.91 5742.78 a15.4 15.4 0 1 0 30.8 0 a15.4 15.4 0 1 0 -30.8 0zM648.91 5896.78 a15.4 15.4 0 1 0 30.8 0 a15.4 15.4 0 1 0 -30.8 0zM515.54 5973.78 a15.4 15.4 0 1 0 30.8 0 a15.4 15.4 0 1 0 -30.8 0zM382.16 5896.78 a15.4 15.4 0 1 0 30.8 0 a15.4 15.4 0 1 0 -30.8 0zM382.16 5742.78 a15.4 15.4 0 1 0 30.8 0 a15.4 15.4 0 1 0 -30.8 0zM648.91 -109.22 a15.4 15.4 0 1 0 30.8 0 a15.4 15.4 0 1 0 -30.8 0zM782.28 -32.22 a15.4 15.4 0 1 0 30.8 0 a15.4 15.4 0 1 0 -30.8 0zM782.28 121.78 a15.4 15.4 0 1 0 30.8 0 a15.4 15.4 0 1 0 -30.8 0zM648.91 198.78 a15.4 15.4 0 1 0 30.8 0 a15.4 15.4 0 1 0 -30.8 0zM515.54 121.78 a15.4 15.4 0 1 0 30.8 0 a15.4 15.4 0 1 0 -30.8 0zM515.54 -32.22 a15.4 15.4 0 1 0 30.8 0 a15.4 15.4 0 1 0 -30.8 0zM782.28 4125.78 a15.4 15.4 0 1 0 30.8 0 a15.4 15.4 0 1 0 -30.8 0zM782.28 4279.78 a15.4 15.4 0 1 0 30.8 0 a15.4 15.4 0 1 0 -30.8 0zM915.65 4356.78 a15.4 15.4 0 1 0 30.8 0 a15.4 15.4 0 1 0 -30.8 0zM915.65 4510.78 a15.4 15.4 0 1 0 30.8 0 a15.4 15.4 0 1 0 -30.8 0zM782.28 4587.78 a15.4 15.4 0 1 0 30.8 0 a15.4 15.4 0 1 0 -30.8 0zM915.65 1276.78 a15.4 15.4 0 1 0 30.8 0 a15.4 15.4 0 1 0 -30.8 0zM1049.02 1353.78 a15.4 15.4 0 1 0 30.8 0 a15.4 15.4 0 1 0 -30.8 0zM1049.02 1507.78 a15.4 15.4 0 1 0 30.8 0 a15.4 15.4 0 1 0 -30.8 0zM915.65 1584.78 a15.4 15.4 0 1 0 30.8 0 a15.4 15.4 0 1 0 -30.8 0zM782.28 1507.78 a15.4 15.4 0 1 0 30.8 0 a15.4 15.4 0 1 0 -30.8 0zM782.28 1353.78 a15.4 15.4 0 1 0 30.8 0 a15.4 15.4 0 1 0 -30.8 0zM915.65 3586.78 a15.4 15.4 0 1 0 30.8 0 a15.4 15.4 0 1 0 -30.8 0zM1049.02 3663.78 a15.4 15.4 0 1 0 30.8 0 a15.4 15.4 0 1 0 -30.8 0zM1049.02 3817.78 a15.4 15.4 0 1 0 30.8 0 a15.4 15.4 0 1 0 -30.8 0zM915.65 3894.78 a15.4 15.4 0 1 0 30.8 0 a15.4 15.4 0 1 0 -30.8 0zM782.28 3817.78 a15.4 15.4 0 1 0 30.8 0 a15.4 15.4 0 1 0 -30.8 0zM782.28 3663.78 a15.4 15.4 0 1 0 30.8 0 a15.4 15.4 0 1 0 -30.8 0zM1182.39 3894.78 a15.4 15.4 0 1 0 30.8 0 a15.4 15.4 0 1 0 -30.8 0zM1182.39 4048.78 a15.4 15.4 0 1 0 30.8 0 a15.4 15.4 0 1 0 -30.8 0zM1049.02 4125.78 a15.4 15.4 0 1 0 30.8 0 a15.4 15.4 0 1 0 -30.8 0zM915.65 4048.78 a15.4 15.4 0 1 0 30.8 0 a15.4 15.4 0 1 0 -30.8 0zM1049.02 4279.78 a15.4 15.4 0 1 0 30.8 0 a15.4 15.4 0 1 0 -30.8 0zM915.65 4972.78 a15.4 15.4 0 1 0 30.8 0 a15.4 15.4 0 1 0 -30.8 0zM1049.02 5049.78 a15.4 15.4 0 1 0 30.8 0 a15.4 15.4 0 1 0 -30.8 0zM1049.02 5203.78 a15.4 15.4 0 1 0 30.8 0 a15.4 15.4 0 1 0 -30.8 0zM915.65 5280.78 a15.4 15.4 0 1 0 30.8 0 a15.4 15.4 0 1 0 -30.8 0zM782.28 5203.78 a15.4 15.4 0 1 0 30.8 0 a15.4 15.4 0 1 0 -30.8 0zM782.28 5049.78 a15.4 15.4 0 1 0 30.8 0 a15.4 15.4 0 1 0 -30.8 0zM1315.77 1045.78 a15.4 15.4 0 1 0 30.8 0 a15.4 15.4 0 1 0 -30.8 0zM1449.14 1122.78 a15.4 15.4 0 1 0 30.8 0 a15.4 15.4 0 1 0 -30.8 0zM1449.14 1276.78 a15.4 15.4 0 1 0 30.8 0 a15.4 15.4 0 1 0 -30.8 0zM1315.77 1353.78 a15.4 15.4 0 1 0 30.8 0 a15.4 15.4 0 1 0 -30.8 0zM1182.39 1276.78 a15.4 15.4 0 1 0 30.8 0 a15.4 15.4 0 1 0 -30.8 0zM1182.39 1122.78 a15.4 15.4 0 1 0 30.8 0 a15.4 15.4 0 1 0 -30.8 0zM1182.39 3124.78 a15.4 15.4 0 1 0 30.8 0 a15.4 15.4 0 1 0 -30.8 0zM1315.77 3201.78 a15.4 15.4 0 1 0 30.8 0 a15.4 15.4 0 1 0 -30.8 0zM1315.77 3355.78 a15.4 15.4 0 1 0 30.8 0 a15.4 15.4 0 1 0 -30.8 0zM1182.39 3432.78 a15.4 15.4 0 1 0 30.8 0 a15.4 15.4 0 1 0 -30.8 0zM1049.02 3355.78 a15.4 15.4 0 1 0 30.8 0 a15.4 15.4 0 1 0 -30.8 0zM1049.02 3201.78 a15.4 15.4 0 1 0 30.8 0 a15.4 15.4 0 1 0 -30.8 0zM1315.77 4125.78 a15.4 15.4 0 1 0 30.8 0 a15.4 15.4 0 1 0 -30.8 0zM1315.77 4279.78 a15.4 15.4 0 1 0 30.8 0 a15.4 15.4 0 1 0 -30.8 0zM1182.39 4356.78 a15.4 15.4 0 1 0 30.8 0 a15.4 15.4 0 1 0 -30.8 0zM1582.51 583.78 a15.4 15.4 0 1 0 30.8 0 a15.4 15.4 0 1 0 -30.8 0zM1715.88 660.78 a15.4 15.4 0 1 0 30.8 0 a15.4 15.4 0 1 0 -30.8 0zM1715.88 814.78 a15.4 15.4 0 1 0 30.8 0 a15.4 15.4 0 1 0 -30.8 0zM1582.51 891.78 a15.4 15.4 0 1 0 30.8 0 a15.4 15.4 0 1 0 -30.8 0zM1449.14 814.78 a15.4 15.4 0 1 0 30.8 0 a15.4 15.4 0 1 0 -30.8 0zM1449.14 660.78 a15.4 15.4 0 1 0 30.8 0 a15.4 15.4 0 1 0 -30.8 0zM1582.51 1045.78 a15.4 15.4 0 1 0 30.8 0 a15.4 15.4 0 1 0 -30.8 0zM1715.88 1122.78 a15.4 15.4 0 1 0 30.8 0 a15.4 15.4 0 1 0 -30.8 0zM1715.88 1276.78 a15.4 15.4 0 1 0 30.8 0 a15.4 15.4 0 1 0 -30.8 0zM1582.51 1353.78 a15.4 15.4 0 1 0 30.8 0 a15.4 15.4 0 1 0 -30.8 0zM1582.51 1507.78 a15.4 15.4 0 1 0 30.8 0 a15.4 15.4 0 1 0 -30.8 0zM1449.14 1584.78 a15.4 15.4 0 1 0 30.8 0 a15.4 15.4 0 1 0 -30.8 0zM1315.77 1507.78 a15.4 15.4 0 1 0 30.8 0 a15.4 15.4 0 1 0 -30.8 0zM1582.51 1969.78 a15.4 15.4 0 1 0 30.8 0 a15.4 15.4 0 1 0 -30.8 0zM1715.88 2046.78 a15.4 15.4 0 1 0 30.8 0 a15.4 15.4 0 1 0 -30.8 0zM1715.88 2200.78 a15.4 15.4 0 1 0 30.8 0 a15.4 15.4 0 1 0 -30.8 0zM1582.51 2277.78 a15.4 15.4 0 1 0 30.8 0 a15.4 15.4 0 1 0 -30.8 0zM1449.14 2200.78 a15.4 15.4 0 1 0 30.8 0 a15.4 15.4 0 1 0 -30.8 0zM1449.14 2046.78 a15.4 15.4 0 1 0 30.8 0 a15.4 15.4 0 1 0 -30.8 0zM1849.25 121.78 a15.4 15.4 0 1 0 30.8 0 a15.4 15.4 0 1 0 -30.8 0zM1982.62 198.78 a15.4 15.4 0 1 0 30.8 0 a15.4 15.4 0 1 0 -30.8 0zM1982.62 352.78 a15.4 15.4 0 1 0 30.8 0 a15.4 15.4 0 1 0 -30.8 0zM1849.25 429.78 a15.4 15.4 0 1 0 30.8 0 a15.4 15.4 0 1 0 -30.8 0zM1715.88 352.78 a15.4 15.4 0 1 0 30.8 0 a15.4 15.4 0 1 0 -30.8 0zM1715.88 198.78 a15.4 15.4 0 1 0 30.8 0 a15.4 15.4 0 1 0 -30.8 0zM1849.25 583.78 a15.4 15.4 0 1 0 30.8 0 a15.4 15.4 0 1 0 -30.8 0zM1582.51 429.78 a15.4 15.4 0 1 0 30.8 0 a15.4 15.4 0 1 0 -30.8 0zM1849.25 1353.78 a15.4 15.4 0 1 0 30.8 0 a15.4 15.4 0 1 0 -30.8 0zM1849.25 1507.78 a15.4 15.4 0 1 0 30.8 0 a15.4 15.4 0 1 0 -30.8 0zM1715.88 1584.78 a15.4 15.4 0 1 0 30.8 0 a15.4 15.4 0 1 0 -30.8 0zM1715.88 3124.78 a15.4 15.4 0 1 0 30.8 0 a15.4 15.4 0 1 0 -30.8 0zM1849.25 3201.78 a15.4 15.4 0 1 0 30.8 0 a15.4 15.4 0 1 0 -30.8 0zM1849.25 3355.78 a15.4 15.4 0 1 0 30.8 0 a15.4 15.4 0 1 0 -30.8 0zM1715.88 3432.78 a15.4 15.4 0 1 0 30.8 0 a15.4 15.4 0 1 0 -30.8 0zM1582.51 3355.78 a15.4 15.4 0 1 0 30.8 0 a15.4 15.4 0 1 0 -30.8 0zM1582.51 3201.78 a15.4 15.4 0 1 0 30.8 0 a15.4 15.4 0 1 0 -30.8 0zM1715.88 5896.78 a15.4 15.4 0 1 0 30.8 0 a15.4 15.4 0 1 0 -30.8 0zM1849.25 5973.78 a15.4 15.4 0 1 0 30.8 0 a15.4 15.4 0 1 0 -30.8 0zM1849.25 6127.78 a15.4 15.4 0 1 0 30.8 0 a15.4 15.4 0 1 0 -30.8 0zM1715.88 6204.78 a15.4 15.4 0 1 0 30.8 0 a15.4 15.4 0 1 0 -30.8 0zM1582.51 6127.78 a15.4 15.4 0 1 0 30.8 0 a15.4 15.4 0 1 0 -30.8 0zM1582.51 5973.78 a15.4 15.4 0 1 0 30.8 0 a15.4 15.4 0 1 0 -30.8 0zM2116 4741.78 a15.4 15.4 0 1 0 30.8 0 a15.4 15.4 0 1 0 -30.8 0zM2249.37 4818.78 a15.4 15.4 0 1 0 30.8 0 a15.4 15.4 0 1 0 -30.8 0zM2249.37 4972.78 a15.4 15.4 0 1 0 30.8 0 a15.4 15.4 0 1 0 -30.8 0zM2116 5049.78 a15.4 15.4 0 1 0 30.8 0 a15.4 15.4 0 1 0 -30.8 0zM1982.62 4972.78 a15.4 15.4 0 1 0 30.8 0 a15.4 15.4 0 1 0 -30.8 0zM1982.62 4818.78 a15.4 15.4 0 1 0 30.8 0 a15.4 15.4 0 1 0 -30.8 0zM2116 5203.78 a15.4 15.4 0 1 0 30.8 0 a15.4 15.4 0 1 0 -30.8 0zM2249.37 5280.78 a15.4 15.4 0 1 0 30.8 0 a15.4 15.4 0 1 0 -30.8 0zM2249.37 5434.78 a15.4 15.4 0 1 0 30.8 0 a15.4 15.4 0 1 0 -30.8 0zM2116 5511.78 a15.4 15.4 0 1 0 30.8 0 a15.4 15.4 0 1 0 -30.8 0zM1982.62 5434.78 a15.4 15.4 0 1 0 30.8 0 a15.4 15.4 0 1 0 -30.8 0zM1982.62 5280.78 a15.4 15.4 0 1 0 30.8 0 a15.4 15.4 0 1 0 -30.8 0zM2116 5665.78 a15.4 15.4 0 1 0 30.8 0 a15.4 15.4 0 1 0 -30.8 0zM1982.62 5742.78 a15.4 15.4 0 1 0 30.8 0 a15.4 15.4 0 1 0 -30.8 0zM1849.25 5665.78 a15.4 15.4 0 1 0 30.8 0 a15.4 15.4 0 1 0 -30.8 0zM1849.25 5511.78 a15.4 15.4 0 1 0 30.8 0 a15.4 15.4 0 1 0 -30.8 0z" fill="#03305d"></path><path d="M140.81 165.94L261.19 235.44L261.19 374.44L140.81 443.94L20.43 374.44L20.43 235.44zM20.43 2876.44L140.81 2945.94L140.81 3084.94L20.43 3154.44L-99.95 3084.94L-99.95 2945.94zM20.43 4127.44L140.81 4196.94L140.81 4335.94L20.43 4405.44L-99.95 4335.94L-99.95 4196.94zM140.81 5169.94L261.19 5239.44L261.19 5378.44L140.81 5447.94L20.43 5378.44L20.43 5239.44zM381.57 1416.94L501.95 1486.44L501.95 1625.44L381.57 1694.94L261.19 1625.44L261.19 1486.44zM261.19 2459.44L381.57 2528.94L381.57 2667.94L261.19 2737.44L140.81 2667.94L140.81 2528.94zM381.57 3084.94L501.95 3154.44L501.95 3293.44L381.57 3362.94L261.19 3293.44L261.19 3154.44zM261.19 3293.44L381.57 3362.94L381.57 3501.94L261.19 3571.44L140.81 3501.94L140.81 3362.94zM381.57 3501.94L501.95 3571.44L501.95 3710.44L381.57 3779.94L261.19 3710.44L261.19 3571.44zM261.19 4544.44L381.57 4613.94L381.57 4752.94L261.19 4822.44L140.81 4752.94L140.81 4613.94zM261.19 4961.44L381.57 5030.94L381.57 5169.94L261.19 5239.44L140.81 5169.94L140.81 5030.94zM381.57 5586.94L501.95 5656.44L501.95 5795.44L381.57 5864.94L261.19 5795.44L261.19 5656.44zM622.33 1416.94L742.72 1486.44L742.72 1625.44L622.33 1694.94L501.95 1625.44L501.95 1486.44zM622.33 2250.94L742.72 2320.44L742.72 2459.44L622.33 2528.94L501.95 2459.44L501.95 2320.44zM622.33 2667.94L742.72 2737.44L742.72 2876.44L622.33 2945.94L501.95 2876.44L501.95 2737.44zM501.95 2876.44L622.33 2945.94L622.33 3084.94L501.95 3154.44L381.57 3084.94L381.57 2945.94zM622.33 3501.94L742.72 3571.44L742.72 3710.44L622.33 3779.94L501.95 3710.44L501.95 3571.44zM622.33 3918.94L742.72 3988.44L742.72 4127.44L622.33 4196.94L501.95 4127.44L501.95 3988.44zM501.95 4127.44L622.33 4196.94L622.33 4335.94L501.95 4405.44L381.57 4335.94L381.57 4196.94zM622.33 4335.94L742.72 4405.44L742.72 4544.44L622.33 4613.94L501.95 4544.44L501.95 4405.44zM622.33 5586.94L742.72 5656.44L742.72 5795.44L622.33 5864.94L501.95 5795.44L501.95 5656.44zM501.95 5795.44L622.33 5864.94L622.33 6003.94L501.95 6073.44L381.57 6003.94L381.57 5864.94zM742.72 791.44L863.1 860.94L863.1 999.94L742.72 1069.44L622.33 999.94L622.33 860.94zM742.72 2042.44L863.1 2111.94L863.1 2250.94L742.72 2320.44L622.33 2250.94L622.33 2111.94zM863.1 3918.94L983.48 3988.44L983.48 4127.44L863.1 4196.94L742.72 4127.44L742.72 3988.44zM983.48 791.44L1103.86 860.94L1103.86 999.94L983.48 1069.44L863.1 999.94L863.1 860.94zM983.48 1208.44L1103.86 1277.94L1103.86 1416.94L983.48 1486.44L863.1 1416.94L863.1 1277.94zM983.48 3710.44L1103.86 3779.94L1103.86 3918.94L983.48 3988.44L863.1 3918.94L863.1 3779.94zM1103.86 6003.94L1224.24 6073.44L1224.24 6212.44L1103.86 6281.94L983.48 6212.44L983.48 6073.44zM1224.24 1208.44L1344.62 1277.94L1344.62 1416.94L1224.24 1486.44L1103.86 1416.94L1103.86 1277.94zM1344.62 1416.94L1465 1486.44L1465 1625.44L1344.62 1694.94L1224.24 1625.44L1224.24 1486.44zM1224.24 2042.44L1344.62 2111.94L1344.62 2250.94L1224.24 2320.44L1103.86 2250.94L1103.86 2111.94zM1344.62 4335.94L1465 4405.44L1465 4544.44L1344.62 4613.94L1224.24 4544.44L1224.24 4405.44zM1224.24 5795.44L1344.62 5864.94L1344.62 6003.94L1224.24 6073.44L1103.86 6003.94L1103.86 5864.94zM1585.38 2667.94L1705.76 2737.44L1705.76 2876.44L1585.38 2945.94L1465 2876.44L1465 2737.44zM1465 4127.44L1585.38 4196.94L1585.38 4335.94L1465 4405.44L1344.62 4335.94L1344.62 4196.94zM1585.38 4335.94L1705.76 4405.44L1705.76 4544.44L1585.38 4613.94L1465 4544.44L1465 4405.44zM1585.38 4752.94L1705.76 4822.44L1705.76 4961.44L1585.38 5030.94L1465 4961.44L1465 4822.44zM1585.38 6003.94L1705.76 6073.44L1705.76 6212.44L1585.38 6281.94L1465 6212.44L1465 6073.44zM1826.14 582.94L1946.53 652.44L1946.53 791.44L1826.14 860.94L1705.76 791.44L1705.76 652.44zM1826.14 999.94L1946.53 1069.44L1946.53 1208.44L1826.14 1277.94L1705.76 1208.44L1705.76 1069.44zM1826.14 1833.94L1946.53 1903.44L1946.53 2042.44L1826.14 2111.94L1705.76 2042.44L1705.76 1903.44zM1705.76 2042.44L1826.14 2111.94L1826.14 2250.94L1705.76 2320.44L1585.38 2250.94L1585.38 2111.94zM1705.76 2876.44L1826.14 2945.94L1826.14 3084.94L1705.76 3154.44L1585.38 3084.94L1585.38 2945.94zM1826.14 3501.94L1946.53 3571.44L1946.53 3710.44L1826.14 3779.94L1705.76 3710.44L1705.76 3571.44zM1826.14 3918.94L1946.53 3988.44L1946.53 4127.44L1826.14 4196.94L1705.76 4127.44L1705.76 3988.44zM1826.14 4752.94L1946.53 4822.44L1946.53 4961.44L1826.14 5030.94L1705.76 4961.44L1705.76 4822.44zM1946.53 2876.44L2066.91 2945.94L2066.91 3084.94L1946.53 3154.44L1826.14 3084.94L1826.14 2945.94z" stroke="rgba(98, 0, 238, 1)" stroke-width="2"></path></g><defs><mask id="SvgjsMask1272"><rect width="2000" height="6000" fill="#ffffff"></rect></mask></defs></svg>